<?xml version="1.0" encoding="utf-8"?>
<!-- Generator: Adobe Illustrator 16.0.0, SVG Export Plug-In . SVG Version: 6.00 Build 0)  -->
<!DOCTYPE svg PUBLIC "-//W3C//DTD SVG 1.1//EN" "http://www.w3.org/Graphics/SVG/1.1/DTD/svg11.dtd">
<svg version="1.1" id="texty" xmlns="http://www.w3.org/2000/svg" xmlns:xlink="http://www.w3.org/1999/xlink" x="0px" y="0px"
	 width="51.334px" height="48.126px" viewBox="0 0 51.334 48.126" enable-background="new 0 0 51.334 48.126" xml:space="preserve">
<g>
	<path fill="#FFFFFF" d="M1402.75,1508.767h-342.035c-17.309,0-31.387,13.757-31.387,30.665v193.671
		c0,16.907,14.078,30.664,31.387,30.664h342.035c17.307,0,31.387-13.757,31.387-30.664v-193.671
		C1434.137,1522.523,1420.057,1508.767,1402.75,1508.767z"/>
	<path fill="#FFFFFF" d="M103.026,928.167h-345.498c-17.482,0-31.705,13.896-31.705,30.976v195.631
		c0,17.078,14.223,30.975,31.705,30.975h345.498c17.482,0,31.705-13.896,31.705-30.975V959.143
		C134.731,942.063,120.509,928.167,103.026,928.167z"/>
	<g>
		<rect x="-244.12" y="973.327" fill="none" width="480.932" height="109.908"/>
		<text transform="matrix(1 0 0 1 -244.1211 997.8271)"><tspan x="0" y="0" fill="#FF712E" font-family="'Gilroy-ExtraBold'" font-size="35">Web </tspan><tspan x="0" y="37.993" fill="#FF712E" font-family="'Gilroy-ExtraBold'" font-size="35">development</tspan></text>
	</g>
	<rect x="-244.443" y="1079.882" fill-rule="evenodd" clip-rule="evenodd" fill="none" width="343.59" height="207.569"/>
	<text transform="matrix(1 0 0 1 -244.4443 1095.6719)"><tspan x="0" y="0" fill="#7C7C7C" font-family="'Rubik-Regular'" font-size="22.2397">Dobře vypadající a bezchybně </tspan><tspan x="0" y="26.688" fill="#7C7C7C" font-family="'Rubik-Regular'" font-size="22.2397">fungující web je základem </tspan><tspan x="0" y="53.375" fill="#7C7C7C" font-family="'Rubik-Regular'" font-size="22.2397">každé úspěšné moderní firmy.</tspan></text>
	<path fill="#FFFFFF" d="M964.416,1218.767H622.381c-17.309,0-31.387,13.757-31.387,30.665v193.671
		c0,16.907,14.078,30.664,31.387,30.664h342.035c17.307,0,31.387-13.757,31.387-30.664v-193.671
		C995.803,1232.523,981.723,1218.767,964.416,1218.767z"/>
	<g>
		<rect x="625.204" y="1263.478" fill="none" width="476.115" height="108.807"/>
		<text transform="matrix(1 0 0 1 625.2051 1287.9775)"><tspan x="0" y="0" fill="#FF712E" font-family="'Gilroy-ExtraBold'" font-size="35">HR </tspan><tspan x="0" y="37.612" fill="#FF712E" font-family="'Gilroy-ExtraBold'" font-size="35">marketing</tspan></text>
	</g>
	<rect x="624.881" y="1368.961" fill="none" width="340.15" height="205.49"/>
	<text transform="matrix(1 0 0 1 624.8809 1384.751)"><tspan x="0" y="0" fill="#7C7C7C" font-family="'Rubik-Regular'" font-size="22.2397">Získejte nejlepší zaměstnance </tspan><tspan x="0" y="26.688" fill="#7C7C7C" font-family="'Rubik-Regular'" font-size="22.2397">a postarejte se o to, že u Vás </tspan><tspan x="0" y="53.375" fill="#7C7C7C" font-family="'Rubik-Regular'" font-size="22.2397">budou chtít zůstat.</tspan></text>
	<path fill="#FFFFFF" d="M95.121,1215.167h-342.035c-17.309,0-31.387,13.757-31.387,30.665v193.671
		c0,16.907,14.078,30.664,31.387,30.664H95.121c17.307,0,31.387-13.757,31.387-30.664v-193.671
		C126.508,1228.924,112.428,1215.167,95.121,1215.167z"/>
	<g>
		<rect x="-244.466" y="1259.878" fill="none" width="476.115" height="108.807"/>
		<text transform="matrix(1 0 0 1 -244.4648 1284.3779)"><tspan x="0" y="0" fill="#FF712E" font-family="'Gilroy-ExtraBold'" font-size="35">Korporátní </tspan><tspan x="0" y="37.612" fill="#FF712E" font-family="'Gilroy-ExtraBold'" font-size="35">identita</tspan></text>
	</g>
	<g>
		<rect x="-244.789" y="1365.361" fill="none" width="340.15" height="205.49"/>
		<text transform="matrix(1 0 0 1 -244.7891 1381.1514)"><tspan x="0" y="0" fill="#7C7C7C" font-family="'Rubik-Regular'" font-size="22.2397">Ujasněte si smysl a formu </tspan><tspan x="0" y="26.688" fill="#7C7C7C" font-family="'Rubik-Regular'" font-size="22.2397">vašeho jednání. Kým a proč </tspan><tspan x="0" y="53.375" fill="#7C7C7C" font-family="'Rubik-Regular'" font-size="22.2397">chcete doopravdy být?</tspan></text>
	</g>
	<path fill="#FFFFFF" d="M964.416,928.167H622.381c-17.309,0-31.387,13.757-31.387,30.665v193.671
		c0,16.907,14.078,30.664,31.387,30.664h342.035c17.307,0,31.387-13.757,31.387-30.664V958.832
		C995.803,941.924,981.723,928.167,964.416,928.167z"/>
	<g>
		<rect x="625.204" y="972.878" fill="none" width="476.115" height="108.807"/>
		<text transform="matrix(1 0 0 1 625.2051 997.3779)"><tspan x="0" y="0" fill="#FF712E" font-family="'Gilroy-ExtraBold'" font-size="35">Sociální </tspan><tspan x="0" y="37.612" fill="#FF712E" font-family="'Gilroy-ExtraBold'" font-size="35">sítě</tspan></text>
	</g>
	<g>
		<rect x="624.881" y="1078.361" fill="none" width="340.15" height="205.49"/>
		<text transform="matrix(1 0 0 1 624.8809 1094.1514)"><tspan x="0" y="0" fill="#7C7C7C" font-family="'Rubik-Regular'" font-size="22.2397">Neocenitelný nástroj pro </tspan><tspan x="0" y="26.688" fill="#7C7C7C" font-family="'Rubik-Regular'" font-size="22.2397">každého, kdo se chce se svým </tspan><tspan x="0" y="53.375" fill="#7C7C7C" font-family="'Rubik-Regular'" font-size="22.2397">produktem dostat mezi lidi.</tspan></text>
	</g>
	<path fill="#FFFFFF" d="M1402.752,931.767h-342.037c-17.307,0-31.387,13.757-31.387,30.665v193.671
		c0,16.907,14.08,30.664,31.387,30.664h342.037c17.307,0,31.387-13.757,31.387-30.664V962.432
		C1434.139,945.523,1420.059,931.767,1402.752,931.767z"/>
	<g>
		<rect x="1063.54" y="976.478" fill="none" width="476.115" height="108.807"/>
		<text transform="matrix(1 0 0 1 1063.541 1000.9775)"><tspan x="0" y="0" fill="#FF712E" font-family="'Gilroy-ExtraBold'" font-size="35">Vývoj </tspan><tspan x="0" y="37.612" fill="#FF712E" font-family="'Gilroy-ExtraBold'" font-size="35">aplikací</tspan></text>
	</g>
	<g>
		<rect x="1063.217" y="1081.961" fill="none" width="340.148" height="205.49"/>
		<text transform="matrix(1 0 0 1 1063.2168 1097.751)"><tspan x="0" y="0" fill="#7C7C7C" font-family="'Rubik-Regular'" font-size="22.2397">Vyladěné aplikace Vás </tspan><tspan x="0" y="26.688" fill="#7C7C7C" font-family="'Rubik-Regular'" font-size="22.2397">dovedou k úspěchu a Vaše </tspan><tspan x="0" y="53.375" fill="#7C7C7C" font-family="'Rubik-Regular'" font-size="22.2397">klienty k pohodlnému životu.</tspan></text>
	</g>
	<path fill="#FFFFFF" d="M533.08,928.167H191.045c-17.309,0-31.387,13.757-31.387,30.665v193.671
		c0,16.907,14.078,30.664,31.387,30.664H533.08c17.307,0,31.387-13.757,31.387-30.664V958.832
		C564.467,941.924,550.387,928.167,533.08,928.167z"/>
	<g>
		<rect x="193.868" y="972.878" fill="none" width="476.115" height="108.807"/>
		<text transform="matrix(1 0 0 1 193.8691 997.3779)"><tspan x="0" y="0" fill="#FF712E" font-family="'Gilroy-ExtraBold'" font-size="35">Grafické </tspan><tspan x="0" y="37.612" fill="#FF712E" font-family="'Gilroy-ExtraBold'" font-size="35">studio</tspan></text>
	</g>
	<g>
		<polygon fill="none" points="533.695,1283.852 193.545,1283.852 193.545,1078.361 394.178,1078.361 533.695,1078.361 		"/>
		<text transform="matrix(1 0 0 1 193.5449 1094.1514)"><tspan x="0" y="0" fill="#7C7C7C" font-family="'Rubik-Regular'" font-size="22.2397">Protože vizuální stránka </tspan><tspan x="0" y="26.688" fill="#7C7C7C" font-family="'Rubik-Regular'" font-size="22.2397">je vždy až tím prvním, co </tspan><tspan x="0" y="53.375" fill="#7C7C7C" font-family="'Rubik-Regular'" font-size="22.2397">ovlivní zájem Vašich klientů.</tspan></text>
	</g>
	<path fill="#FFFFFF" d="M533.08,1215.167H191.045c-17.309,0-31.387,13.757-31.387,30.665v193.671
		c0,16.907,14.078,30.664,31.387,30.664H533.08c17.307,0,31.387-13.757,31.387-30.664v-193.671
		C564.467,1228.924,550.387,1215.167,533.08,1215.167z"/>
	<g>
		<rect x="193.868" y="1259.878" fill="none" width="476.115" height="108.807"/>
		<text transform="matrix(1 0 0 1 193.8691 1284.3779)"><tspan x="0" y="0" fill="#FF712E" font-family="'Gilroy-ExtraBold'" font-size="35">Offline </tspan><tspan x="0" y="37.612" fill="#FF712E" font-family="'Gilroy-ExtraBold'" font-size="35">marketing</tspan></text>
	</g>
	<g>
		<rect x="193.545" y="1365.361" fill="none" width="340.15" height="205.49"/>
		<text transform="matrix(1 0 0 1 193.5449 1381.1514)"><tspan x="0" y="0" fill="#7C7C7C" font-family="'Rubik-Regular'" font-size="22.2397">Oslovujte svět pomocí hmotné </tspan><tspan x="0" y="26.688" fill="#7C7C7C" font-family="'Rubik-Regular'" font-size="22.2397">reklamy. Ani v digitálním věku </tspan><tspan x="0" y="53.375" fill="#7C7C7C" font-family="'Rubik-Regular'" font-size="22.2397">nestačí být vidět pouze </tspan><tspan x="0" y="80.063" fill="#7C7C7C" font-family="'Rubik-Regular'" font-size="22.2397">online.</tspan></text>
	</g>
	<path fill="#FFFFFF" d="M1402.75,1218.767h-342.035c-17.309,0-31.387,13.757-31.387,30.665v193.671
		c0,16.907,14.078,30.664,31.387,30.664h342.035c17.307,0,31.387-13.757,31.387-30.664v-193.671
		C1434.137,1232.523,1420.057,1218.767,1402.75,1218.767z"/>
	<g>
		<circle fill="#F37337" cx="1193.5" cy="1337.267" r="8.441"/>
		<circle fill="#F37337" cx="1232.23" cy="1337.267" r="8.441"/>
		<circle fill="#F37337" cx="1269.967" cy="1337.267" r="8.441"/>
	</g>
	<g>
		<rect x="1063.215" y="1553.154" fill="none" width="476.115" height="108.807"/>
		<text transform="matrix(1 0 0 1 1063.2168 1577.6543)"><tspan x="0" y="0" fill="#FF712E" font-family="'Gilroy-ExtraBold'" font-size="35">Cloudové </tspan><tspan x="0" y="37.612" fill="#FF712E" font-family="'Gilroy-ExtraBold'" font-size="35">řešení</tspan></text>
	</g>
	<g>
		<rect x="1063.215" y="1658.961" fill="none" width="340.15" height="205.49"/>
		<text transform="matrix(1 0 0 1 1063.2168 1674.751)"><tspan x="0" y="0" fill="#7C7C7C" font-family="'Rubik-Regular'" font-size="22.2397">Cloudové systémy jsou i budou </tspan><tspan x="0" y="26.688" fill="#7C7C7C" font-family="'Rubik-Regular'" font-size="22.2397">ideálním řešením jak </tspan><tspan x="0" y="53.375" fill="#7C7C7C" font-family="'Rubik-Regular'" font-size="22.2397">minimalizovat firemní náklady.</tspan></text>
	</g>
	<path fill="#FFFFFF" d="M533.08,1505.167H191.045c-17.309,0-31.387,13.757-31.387,30.665v193.671
		c0,16.907,14.078,30.664,31.387,30.664H533.08c17.307,0,31.387-13.757,31.387-30.664v-193.671
		C564.467,1518.924,550.387,1505.167,533.08,1505.167z"/>
	<g>
		<rect x="193.868" y="1566.377" fill="none" width="476.115" height="108.807"/>
		<text transform="matrix(1 0 0 1 193.8691 1590.877)" fill="#FF712E" font-family="'Gilroy-ExtraBold'" font-size="35">Animace</text>
	</g>
	<g>
		<rect x="193.545" y="1655.361" fill="none" width="340.15" height="205.49"/>
		<text transform="matrix(1 0 0 1 193.5449 1671.1514)"><tspan x="0" y="0" fill="#7C7C7C" font-family="'Rubik-Regular'" font-size="22.2397">Dynamická grafika baví svět. </tspan><tspan x="0" y="26.688" fill="#7C7C7C" font-family="'Rubik-Regular'" font-size="22.2397">Nespoléhejte na statický </tspan><tspan x="0" y="53.375" fill="#7C7C7C" font-family="'Rubik-Regular'" font-size="22.2397">vizuál, který patří do minulého </tspan><tspan x="0" y="80.063" fill="#7C7C7C" font-family="'Rubik-Regular'" font-size="22.2397">století.</tspan></text>
	</g>
	<path fill="#FFFFFF" d="M964.666,1505.001H622.631c-17.309,0-31.387,13.756-31.387,30.664v193.671
		c0,16.907,14.078,30.665,31.387,30.665h342.035c17.307,0,31.387-13.758,31.387-30.665v-193.671
		C996.053,1518.757,981.973,1505.001,964.666,1505.001z"/>
	<g>
		<rect x="624.881" y="1549.555" fill="none" width="476.115" height="108.807"/>
		<text transform="matrix(1 0 0 1 624.8809 1574.0547)"><tspan x="0" y="0" fill="#FF712E" font-family="'Gilroy-ExtraBold'" font-size="35">Foto/ </tspan><tspan x="0" y="37.612" fill="#FF712E" font-family="'Gilroy-ExtraBold'" font-size="35">video</tspan></text>
	</g>
	<g>
		<rect x="624.881" y="1655.361" fill="none" width="340.15" height="205.49"/>
		<text transform="matrix(1 0 0 1 624.8809 1671.1514)"><tspan x="0" y="0" fill="#7C7C7C" font-family="'Rubik-Regular'" font-size="22.2397">Nepromarněte jedinečnou </tspan><tspan x="0" y="26.688" fill="#7C7C7C" font-family="'Rubik-Regular'" font-size="22.2397">možnost zaznamenat důležité </tspan><tspan x="0" y="53.375" fill="#7C7C7C" font-family="'Rubik-Regular'" font-size="22.2397">momenty Vaší kariéry a </tspan><tspan x="0" y="80.063" fill="#7C7C7C" font-family="'Rubik-Regular'" font-size="22.2397">života.</tspan></text>
	</g>
	<path fill="#FFFFFF" d="M94.496,1509.142h-342.035c-17.309,0-31.387,13.757-31.387,30.665v193.671
		c0,16.907,14.078,30.664,31.387,30.664H94.496c17.307,0,31.387-13.757,31.387-30.664v-193.671
		C125.883,1522.898,111.803,1509.142,94.496,1509.142z"/>
	<g>
		<rect x="-244.466" y="1553.478" fill="none" width="476.115" height="108.807"/>
		<text transform="matrix(1 0 0 1 -244.4668 1577.9775)"><tspan x="0" y="0" fill="#FF712E" font-family="'Gilroy-ExtraBold'" font-size="35">Analýza/ </tspan><tspan x="0" y="37.612" fill="#FF712E" font-family="'Gilroy-ExtraBold'" font-size="35">strategie</tspan></text>
	</g>
	<g>
		<rect x="-244.789" y="1658.961" fill="none" width="340.15" height="205.49"/>
		<text transform="matrix(1 0 0 1 -244.7891 1674.751)"><tspan x="0" y="0" fill="#7C7C7C" font-family="'Rubik-Regular'" font-size="22.2397">Když vše nefunguje tak, jak </tspan><tspan x="0" y="26.688" fill="#7C7C7C" font-family="'Rubik-Regular'" font-size="22.2397">by mělo. Najděte s námi </tspan><tspan x="0" y="53.375" fill="#7C7C7C" font-family="'Rubik-Regular'" font-size="22.2397">příčinu </tspan><tspan x="0" y="80.063" fill="#7C7C7C" font-family="'Rubik-Regular'" font-size="22.2397">i řešení problému.</tspan></text>
	</g>
	<path fill="#FFFFFF" d="M1402.75,1218.767h-342.035c-17.309,0-31.387,13.757-31.387,30.665v193.671
		c0,16.907,14.078,30.664,31.387,30.664h342.035c17.307,0,31.387-13.757,31.387-30.664v-193.671
		C1434.137,1232.523,1420.057,1218.767,1402.75,1218.767z"/>
	<g>
		<rect x="1063.538" y="1263.478" fill="none" width="476.115" height="108.807"/>
		<text transform="matrix(1 0 0 1 1063.5391 1287.9775)"><tspan x="0" y="0" fill="#FF712E" font-family="'Gilroy-ExtraBold'" font-size="35">Školení </tspan><tspan x="0" y="37.612" fill="#FF712E" font-family="'Gilroy-ExtraBold'" font-size="35">online</tspan></text>
	</g>
	<g>
		<rect x="1063.215" y="1368.961" fill="none" width="340.15" height="205.49"/>
		<text transform="matrix(1 0 0 1 1063.2148 1384.751)"><tspan x="0" y="0" fill="#7C7C7C" font-family="'Rubik-Regular'" font-size="22.2397">Vzdělávejte se bez cestování </tspan><tspan x="0" y="26.688" fill="#7C7C7C" font-family="'Rubik-Regular'" font-size="22.2397">a řešit technické nesnáze. </tspan><tspan x="0" y="53.375" fill="#7C7C7C" font-family="'Rubik-Regular'" font-size="22.2397">Seberozvoj na dálku funguje.</tspan></text>
	</g>
	<g>
		<g>
			<path fill="#4AE5D9" d="M934.416,994.88c-0.364-1.139-1.423-1.912-2.619-1.912h-17.838l-5.739-17.737
				c-0.367-1.135-1.424-1.903-2.616-1.903s-2.25,0.77-2.616,1.904l-5.735,17.736h-17.84c-1.196,0-2.255,0.773-2.619,1.912
				c-0.364,1.14,0.049,2.383,1.023,3.078l14.533,10.355l-5.537,17.139c-0.366,1.134,0.039,2.374,1.004,3.073
				c0.481,0.349,1.048,0.522,1.613,0.522c0.568,0,1.137-0.176,1.619-0.527l14.555-10.605l14.559,10.605
				c0.963,0.701,2.268,0.703,3.232,0.004s1.37-1.939,1.003-3.073l-5.544-17.138l14.539-10.355
				C934.366,997.264,934.78,996.02,934.416,994.88z M914.021,1005.003c-0.977,0.695-1.39,1.944-1.02,3.086l3.558,11.003
				l-9.337-6.802c-0.965-0.703-2.273-0.703-3.238,0l-9.337,6.804l3.556-11.006c0.368-1.142-0.045-2.39-1.021-3.085l-9.171-6.535
				h11.241c1.192,0,2.25-0.77,2.616-1.904l3.735-11.551l3.737,11.552c0.368,1.135,1.424,1.903,2.616,1.903h11.239L914.021,1005.003z
				"/>
			<path fill="#4AE5D9" d="M879.928,1013.132l-5.551-2.923l1.126-6.501c0.167-0.961-0.306-1.92-1.169-2.375
				c-0.865-0.455-1.922-0.301-2.619,0.381l-4.722,4.608l-5.553-2.923c-0.868-0.457-1.927-0.3-2.625,0.385
				c-0.698,0.687-0.872,1.745-0.432,2.619l2.825,5.6l-4.536,4.43c-0.697,0.681-0.877,1.733-0.444,2.607
				c0.432,0.873,1.38,1.369,2.342,1.229l6.277-0.916l2.796,5.693c0.382,0.778,1.17,1.259,2.019,1.259
				c0.106,0,0.213-0.007,0.32-0.022c0.965-0.139,1.73-0.883,1.897-1.843l1.085-6.249l6.216-0.838
				c0.97-0.131,1.744-0.873,1.915-1.837C881.266,1014.552,880.794,1013.589,879.928,1013.132z M870.729,1013.952
				c-0.973,0.131-1.748,0.877-1.916,1.845l-0.183,1.051l-0.467-0.95c-0.382-0.778-1.171-1.259-2.019-1.259
				c-0.108,0-0.217,0.008-0.326,0.023l-1.051,0.153l0.763-0.745c0.702-0.686,0.879-1.747,0.437-2.622l-0.397-0.789l0.775,0.408
				c0.861,0.455,1.921,0.3,2.619-0.381l0.917-0.895l-0.219,1.261c-0.167,0.962,0.305,1.921,1.169,2.375l0.771,0.406
				L870.729,1013.952z"/>
		</g>
	</g>
	<g>
		<path fill="#4AE5D9" d="M80.348,1272.63h-2.701v-3.646h-3.283v3.646h-4.359v-3.557h0.002v-1.549c0-2.941-2.359-5.303-5.303-5.303
			H48.797c-2.942,0-5.303,2.361-5.303,5.303v5.105h-4.313v-3.646h-3.283v3.646h-2.744c-4.404,0-7.986,3.582-7.986,7.986v30.521
			c0,4.403,3.582,7.987,7.986,7.987h47.193c4.404,0,7.986-3.584,7.986-7.987v-30.521C88.334,1276.212,84.752,1272.63,80.348,1272.63
			z M48.797,1267.524h15.906v5.105H48.797V1267.524z M33.154,1278.329h2.744v3.643h3.283v-3.643h4.313v5.102h5.303v-5.102h15.906
			v5.102h5.301v-5.102h4.359v3.643h3.283v-3.643h2.701c1.262,0,2.287,1.025,2.287,2.287v14.009H30.866v-14.009
			C30.866,1279.354,31.893,1278.329,33.154,1278.329z M80.348,1313.425H33.154c-1.262,0-2.288-1.027-2.288-2.288v-5.114h51.769
			v5.114C82.635,1312.397,81.609,1313.425,80.348,1313.425z"/>
	</g>
	<g>
		<g>
			<path fill="#4AE5D9" d="M1349.846,972.485l-27.309,0.002c-3.279,0.006-5.941,2.68-5.935,5.959l0.015,7.854l5.462-0.011
				l-0.016-7.153l28.282-0.056l0.094,46.537l-28.281,0.058l-0.018-7.967l-5.459,0.01l0.024,11.972
				c0.007,3.28,2.679,5.944,5.958,5.938l27.309-0.057c3.279-0.006,5.941-2.68,5.936-5.961l-0.104-51.244
				C1355.799,975.115,1353.125,972.478,1349.846,972.485z"/>
			<polygon fill="#4AE5D9" points="1317.087,1012.368 1317.072,1005.226 1324.211,1005.212 1324.199,998.772 1317.059,998.786 
				1317.045,991.646 1310.604,991.659 1310.618,998.799 1303.475,998.813 1303.487,1005.254 1310.631,1005.239 1310.646,1012.384 
							"/>
		</g>
	</g>
	<g>
		<g>
			<path fill="#4AE5D9" d="M487.173,1285.089h-0.005h-6.411l-2.063-6.374c-0.133-0.407-0.511-0.683-0.938-0.683
				c-0.427,0-0.805,0.276-0.938,0.683l-2.061,6.374h-6.412c-0.427,0-0.807,0.277-0.938,0.686c-0.131,0.409,0.018,0.854,0.367,1.104
				l5.222,3.722l-1.988,6.159c-0.13,0.406,0.016,0.851,0.361,1.102c0.173,0.124,0.375,0.187,0.578,0.187s0.407-0.063,0.58-0.188
				l5.229-3.81l5.231,3.81c0.173,0.126,0.377,0.188,0.58,0.188c0.205,0,0.406-0.063,0.579-0.188c0.346-0.25,0.491-0.695,0.36-1.102
				l-1.994-6.158l5.201-3.703c0.267-0.177,0.441-0.478,0.441-0.822C488.155,1285.53,487.716,1285.089,487.173,1285.089z"/>
			<path fill="#4AE5D9" d="M505.202,1264.717h-54.501c-4.309,0-7.814,3.629-7.814,8.088v31.422c0,4.46,3.506,8.088,7.814,8.088
				h7.845v8.089h4.538v-8.089h29.86v8.089h4.538v-8.089h7.72c4.311,0,7.816-3.628,7.816-8.088v-31.422
				C513.019,1268.346,509.513,1264.717,505.202,1264.717z M507.103,1304.227c0,1.197-0.853,2.172-1.9,2.172h-54.501
				c-1.046,0-1.898-0.975-1.898-2.172v-31.422c0-1.197,0.853-2.172,1.898-2.172h54.501c1.048,0,1.9,0.975,1.9,2.172V1304.227z"/>
		</g>
	</g>
	<g>
		<g>
			<g>
				<path fill="#4AE5D9" d="M38.337,1560.993H28.283c-1.381,0-2.5,1.119-2.5,2.5v37.524c0,1.381,1.119,2.5,2.5,2.5h10.054
					c1.381,0,2.5-1.119,2.5-2.5v-37.524C40.837,1562.112,39.718,1560.993,38.337,1560.993z M35.837,1598.518h-5.054v-32.524h5.054
					V1598.518z"/>
				<path fill="#4AE5D9" d="M57.598,1573.799H47.545c-1.381,0-2.5,1.12-2.5,2.5v24.719c0,1.381,1.119,2.5,2.5,2.5h10.053
					c1.381,0,2.5-1.119,2.5-2.5v-24.719C60.098,1574.919,58.979,1573.799,57.598,1573.799z M55.098,1598.518h-5.053v-19.719h5.053
					V1598.518z"/>
				<path fill="#4AE5D9" d="M77.479,1548.187H67.426c-1.381,0-2.5,1.119-2.5,2.5v50.331c0,1.381,1.119,2.5,2.5,2.5h10.054
					c1.381,0,2.5-1.119,2.5-2.5v-50.331C79.979,1549.306,78.86,1548.187,77.479,1548.187z M74.979,1598.518h-5.054v-45.331h5.054
					V1598.518z"/>
			</g>
		</g>
		<rect x="21.094" y="1610.066" fill="#4AE5D9" width="62.449" height="3.158"/>
	</g>
	<g>
		<g>
			<path fill="#4AE5D9" d="M472.509,1545.684c-17.755,0-32.199,14.445-32.199,32.201c0,0.65,0.026,1.295,0.063,1.937l-2.841,1.019
				l0.878,2.449l2.233-0.801c0.188,1.306,0.456,2.586,0.796,3.837l-2.396,0.859l0.878,2.449l2.3-0.825
				c4.483,12.395,16.366,21.276,30.288,21.276c17.755,0,32.2-14.445,32.2-32.2C504.709,1560.129,490.264,1545.684,472.509,1545.684z
				 M472.509,1604.085c-11.323,0-20.989-7.223-24.641-17.301l2.916-1.046l-0.877-2.449l-2.802,1.004
				c-0.318-1.26-0.544-2.556-0.672-3.881l2.841-1.019l-0.879-2.449l-2.081,0.746c0.105-14.357,11.813-26.007,26.194-26.007
				c14.446,0,26.2,11.754,26.2,26.201C498.709,1592.331,486.955,1604.085,472.509,1604.085z"/>
			<path fill="#4AE5D9" d="M483.533,1575.817l-14.217-9.479c-0.748-0.498-1.753-0.548-2.553-0.123
				c-0.808,0.435-1.31,1.274-1.31,2.191v18.953c0,0.918,0.502,1.757,1.311,2.189c0.359,0.192,0.766,0.295,1.174,0.295
				c0.495,0,0.972-0.146,1.378-0.418l14.217-9.477c0.691-0.462,1.104-1.234,1.104-2.065
				C484.638,1577.049,484.225,1576.276,483.533,1575.817z"/>
		</g>
	</g>
	<g>
		<g>
			<rect x="890.336" y="1577.372" fill="#4AE5D9" width="7.251" height="7.619"/>
			<rect x="890.336" y="1588.892" fill="#4AE5D9" width="7.251" height="7.62"/>
			<path fill="#4AE5D9" d="M896.656,1548.047h-37.733c-3.877,0-7.031,3.237-7.031,7.217v40.317c0,3.98,3.154,7.217,7.031,7.217
				h37.733c3.876,0,7.028-3.236,7.028-7.217v-40.317C903.685,1551.284,900.532,1548.047,896.656,1548.047z M857.16,1555.264
				c0-1.075,0.791-1.95,1.763-1.95h37.733c0.973,0,1.762,0.875,1.762,1.95v40.317c0,1.074-0.789,1.949-1.762,1.949h-37.733
				c-0.972,0-1.763-0.875-1.763-1.949V1555.264z"/>
		</g>
		<g>
			<path fill="#4AE5D9" d="M890.875,1562.431h5.186v-5.428h-5.186V1562.431 M867.547,1578.72h20.731v-21.717h-20.731V1578.72
				 M859.772,1562.431h5.185v-5.428h-5.185V1562.431 M890.875,1573.29h5.186v-5.428h-5.186V1573.29 M859.772,1573.29h5.185v-5.428
				h-5.185V1573.29 M890.875,1584.151h5.186v-5.432h-5.186V1584.151 M859.772,1584.151h5.185v-5.432h-5.185V1584.151
				 M867.547,1601.157h20.731v-19.721h-20.731v13.574 M890.875,1595.011h5.186v-5.432h-5.186V1595.011 M859.772,1595.011h5.185
				v-5.432h-5.185V1595.011 M870.824,1560.216h14.181v15.293h-14.181V1560.216L870.824,1560.216z M870.824,1584.646h14.181v13.301
				h-14.181V1584.646L870.824,1584.646z"/>
		</g>
		<g>
			<g>
				<path fill="#FFFFFF" d="M926.604,1573.194h-0.439v-1.762c0-1.389-1.125-2.514-2.516-2.514h-4.261
					c-1.39,0-2.515,1.125-2.515,2.514v1.762h-23.446c-3.669,0-6.653,3.102-6.653,6.916v19.869c0,3.813,2.984,6.916,6.653,6.916
					h33.177c3.672,0,6.656-3.103,6.656-6.916v-19.869C933.26,1576.296,930.275,1573.194,926.604,1573.194z"/>
				<path fill="#FFFFFF" d="M926.604,1610.151h-33.177c-5.464,0-9.909-4.563-9.909-10.172v-19.869
					c0-5.609,4.445-10.171,9.909-10.171h20.387c0.66-2.46,2.91-4.276,5.574-4.276h4.261c2.804,0,5.148,2.009,5.666,4.662
					c4.152,1.213,7.201,5.14,7.201,9.785v19.869C936.516,1605.589,932.069,1610.151,926.604,1610.151z M893.427,1576.45
					c-1.873,0-3.398,1.643-3.398,3.66v19.869c0,2.02,1.525,3.661,3.398,3.661h33.177c1.876,0,3.401-1.642,3.401-3.661v-19.869
					c0-2.018-1.525-3.66-3.401-3.66h-3.694v-4.277h-2.78v4.277H893.427z"/>
			</g>
			<g>
				<g>
					<path fill="#4AE5D9" d="M926.164,1573.889v-2.363c0-1.388-1.125-2.515-2.516-2.515h-4.261c-1.39,0-2.515,1.127-2.515,2.515
						v2.363H926.164z"/>
				</g>
				<g>
					<path fill="#FFFFFF" d="M926.604,1575.331h-9.145h-4.846h-19.187c-2.543,0-4.611,2.184-4.611,4.87v7.155v5.561v7.156
						c0,2.686,2.068,4.87,4.611,4.87h19.187h4.846h9.145c2.544,0,4.614-2.185,4.614-4.87v-7.156v-5.561v-7.155
						C931.218,1577.515,929.147,1575.331,926.604,1575.331z"/>
					<path fill="#4AE5D9" d="M926.604,1607.269h-33.177c-3.824,0-6.937-3.227-6.937-7.195v-19.872c0-3.968,3.112-7.196,6.937-7.196
						h33.177c3.827,0,6.939,3.229,6.939,7.196v19.872C933.543,1604.042,930.431,1607.269,926.604,1607.269z M893.427,1577.656
						c-1.261,0-2.286,1.142-2.286,2.545v19.872c0,1.402,1.025,2.545,2.286,2.545h33.177c1.262,0,2.289-1.143,2.289-2.545v-19.872
						c0-1.403-1.027-2.545-2.289-2.545H893.427z"/>
				</g>
				<g>
					<path fill="#4AE5D9" d="M897.533,1581.737c0.813,0,1.473,0.66,1.473,1.473c0,0.814-0.659,1.473-1.473,1.473
						c-0.814,0-1.473-0.658-1.473-1.473C896.061,1582.397,896.719,1581.737,897.533,1581.737z M910.793,1581.737
						c4.881,0,8.837,3.957,8.837,8.838c0,4.879-3.956,8.841-8.837,8.841c-4.885,0-8.841-3.962-8.841-8.841
						C901.952,1585.694,905.908,1581.737,910.793,1581.737z M910.793,1596.47c3.252,0,5.893-2.641,5.893-5.895
						c0-3.252-2.641-5.893-5.893-5.893c-3.255,0-5.896,2.641-5.896,5.893C904.897,1593.829,907.538,1596.47,910.793,1596.47z"/>
					<path fill="#4AE5D9" d="M910.793,1600.347c-5.389,0-9.77-4.384-9.77-9.771c0-5.387,4.381-9.768,9.77-9.768
						c5.386,0,9.768,4.381,9.768,9.768C920.561,1595.963,916.179,1600.347,910.793,1600.347z M910.793,1582.667
						c-4.363,0-7.91,3.549-7.91,7.908c0,4.362,3.547,7.91,7.91,7.91c4.359,0,7.906-3.548,7.906-7.91
						C918.699,1586.216,915.152,1582.667,910.793,1582.667z M910.793,1597.401c-3.764,0-6.826-3.063-6.826-6.826
						c0-3.763,3.063-6.822,6.826-6.822c3.762,0,6.822,3.06,6.822,6.822C917.615,1594.339,914.555,1597.401,910.793,1597.401z
						 M910.793,1585.612c-2.738,0-4.965,2.227-4.965,4.963c0,2.738,2.227,4.966,4.965,4.966c2.736,0,4.962-2.228,4.962-4.966
						C915.755,1587.839,913.529,1585.612,910.793,1585.612z M897.533,1585.612c-1.326,0-2.403-1.077-2.403-2.402
						c0-1.324,1.077-2.402,2.403-2.402c1.324,0,2.402,1.078,2.402,2.402C899.936,1584.535,898.857,1585.612,897.533,1585.612z
						 M897.533,1582.667c-0.299,0-0.543,0.244-0.543,0.543c0,0.301,0.244,0.543,0.543,0.543s0.543-0.242,0.543-0.543
						C898.076,1582.911,897.832,1582.667,897.533,1582.667z"/>
				</g>
			</g>
		</g>
	</g>
	<g>
		<g>
			<path fill="#4AE5D9" d="M896.492,1305.436c3.586-1.346,6.15-4.799,6.15-8.848c0-5.215-4.243-9.457-9.459-9.457
				s-9.459,4.242-9.459,9.457c0,4.049,2.563,7.502,6.149,8.848c-8.021,0.996-14.255,7.84-14.255,16.125c0,1.104,0.896,2,2,2h31.128
				c0.006,0,0.014,0,0.014,0c1.111,0,2.006-0.896,2.006-2c0-0.104-0.007-0.205-0.022-0.303
				C910.595,1313.109,904.416,1306.42,896.492,1305.436z M887.725,1296.588c0-3.01,2.449-5.457,5.459-5.457s5.459,2.447,5.459,5.457
				c0,3.009-2.449,5.457-5.459,5.457S887.725,1299.597,887.725,1296.588z M879.782,1319.561c0.958-5.814,6.021-10.264,12.104-10.264
				h2.594c6.083,0,11.146,4.449,12.104,10.264H879.782z"/>
			<path fill="#4AE5D9" d="M867.801,1277.422c3.836,0,6.955-3.121,6.955-6.955c0-3.836-3.119-6.955-6.955-6.955
				s-6.957,3.119-6.957,6.955C860.844,1274.301,863.965,1277.422,867.801,1277.422z"/>
			<path fill="#4AE5D9" d="M880.9,1290.557c0-6.682-5.436-12.115-12.118-12.115h-1.966c-6.682,0-12.118,5.434-12.118,12.115
				c0,0.717,0.582,1.299,1.3,1.299h23.604C880.319,1291.855,880.9,1291.273,880.9,1290.557z"/>
			<path fill="#4AE5D9" d="M917.844,1277.422c3.836,0,6.957-3.121,6.957-6.955c0-3.836-3.121-6.955-6.957-6.955
				c-3.834,0-6.954,3.119-6.954,6.955C910.89,1274.301,914.01,1277.422,917.844,1277.422z"/>
			<path fill="#4AE5D9" d="M918.828,1278.441h-1.967c-6.682,0-12.118,5.434-12.118,12.115c0,0.717,0.582,1.299,1.3,1.299h23.603
				c0.718,0,1.3-0.582,1.3-1.299C930.945,1283.875,925.51,1278.441,918.828,1278.441z"/>
			<rect x="884.275" y="1275.795" fill="#4AE5D9" width="18.15" height="3"/>
			
				<rect x="867.671" y="1299.783" transform="matrix(0.7071 0.7071 -0.7071 0.7071 1176.2253 -237.0936)" fill="#4AE5D9" width="13.279" height="3"/>
			
				<rect x="911.648" y="1294.643" transform="matrix(-0.7071 -0.7071 0.7071 -0.7071 638.6952 2867.1216)" fill="#4AE5D9" width="3" height="13.279"/>
		</g>
	</g>
	<g>
		<path fill="#4AE5D9" d="M481.778,985.535c-2.219,0.009-4.267,1.365-5.215,3.457c-1.329,2.956-0.12,6.528,2.697,7.962
			c0.8,0.406,1.655,0.612,2.546,0.612h0.02c2.223-0.011,4.27-1.366,5.211-3.456c1.334-2.955,0.127-6.527-2.691-7.961
			C483.549,985.741,482.692,985.535,481.778,985.535z M480.218,990.644c0.308-0.674,0.912-1.095,1.577-1.099l0.004-0.484l0,0v0.484
			c0.248,0,0.494,0.061,0.727,0.179c0.938,0.478,1.322,1.705,0.855,2.736c-0.295,0.66-0.925,1.088-1.603,1.088
			c-0.243,0-0.479-0.057-0.698-0.168C480.142,992.902,479.755,991.675,480.218,990.644z M481.807,997.082L481.807,997.082
			L481.807,997.082L481.807,997.082z"/>
		<path fill="#4AE5D9" d="M468.602,1004.427c2.225-0.01,4.271-1.367,5.213-3.459c1.336-2.955,0.127-6.527-2.693-7.959
			c-0.801-0.41-1.657-0.615-2.564-0.615c-2.221,0.008-4.27,1.365-5.215,3.459c-1.33,2.953-0.121,6.525,2.697,7.963
			c0.801,0.404,1.656,0.611,2.543,0.611H468.602z M468.578,995.923v0.482c0.254,0,0.491,0.057,0.725,0.176
			c0.938,0.479,1.324,1.705,0.857,2.738c-0.406,0.898-1.483,1.337-2.301,0.921c-0.939-0.478-1.324-1.708-0.857-2.741
			c0.302-0.672,0.906-1.092,1.57-1.094L468.578,995.923L468.578,995.923z M468.582,1003.942L468.582,1003.942L468.582,1003.942
			L468.582,1003.942z"/>
		<path fill="#4AE5D9" d="M462.414,1005.103c-2.225,0.008-4.27,1.364-5.212,3.455c-1.333,2.954-0.125,6.527,2.692,7.963
			c0.803,0.406,1.66,0.613,2.545,0.613h0.137l0.001-0.002c2.177-0.055,4.167-1.4,5.097-3.457c1.331-2.953,0.123-6.525-2.695-7.961
			C464.179,1005.308,463.325,1005.103,462.414,1005.103z M462.441,1008.63v0.482c0.246,0,0.488,0.059,0.717,0.176
			c0.938,0.479,1.324,1.706,0.858,2.738c-0.405,0.904-1.47,1.343-2.304,0.918c-0.938-0.477-1.321-1.705-0.854-2.738
			c0.304-0.672,0.906-1.092,1.573-1.094L462.441,1008.63L462.441,1008.63z"/>
		<path fill="#4AE5D9" d="M510.316,998.913c2.391,5.265,3.263,11.526,1.826,17.127c-0.787,3.062-2.748,7.971-6.783,6.99
			c-3.059-0.742-5.456-2.967-7.818-4.916c-2.436-2.009-4.957-4.004-7.841-5.337c-4.159-1.927-8.602-1.855-12.794-0.053
			c-5.133,2.203-8.801,6.433-13.474,9.331c-2.021,1.252-4.774,1.645-6.542-0.153c-1.447-1.47-2.129-3.608-2.596-5.567
			c-1.348-5.638-0.543-11.557,1.575-16.895c1.89-4.762,5.572-9.291,9.731-12.221c5.166-3.638,11.642-5.604,18.043-5.566
			c3.336,0.02,6.65,0.584,9.75,1.737c2.295,0.854,4.444,1.949,6.437,3.264c1.12-1.261,2.342-2.606,3.636-3.993
			c-2.586-1.834-5.123-3.182-7.691-4.093c-4.113-1.456-8.367-2.259-11.981-2.259c-0.28,0-0.56,0.006-0.825,0.016
			c-4.6,0.123-8.967,0.986-12.983,2.563c-8.659,3.398-15.781,10.349-19.056,18.591c-2.115,5.329-4.035,13.463-1.172,21.946
			c1.845,5.47,4.992,8.72,8.863,9.149c0.359,0.04,0.719,0.061,1.072,0.061c4.309,0,7.799-2.799,10.606-5.049l0.952-0.764
			c2.473-1.99,5.029-4.048,7.751-5.217c1.841-0.791,3.462-1.108,5.087-0.97c3.412,0.284,6.508,2.741,9.508,5.124l1.055,0.844
			c3.303,2.654,7.412,5.958,12.305,5.958c4.229-0.006,7.65-3.251,9.637-9.137c1.508-4.466,1.797-9.562,0.974-14.561
			c-0.533-3.23-1.531-6.422-2.969-9.374C512.945,996.841,511.467,998.015,510.316,998.913z"/>
		<path fill="#4AE5D9" d="M530.962,969.331c-0.756-1.043-1.923-1.618-3.288-1.618c-7.527,0-25.93,21.12-28.004,23.528l-0.668,0.777
			c-0.476-0.113-0.965-0.189-1.469-0.211l-0.219-0.005c-0.739,0-1.475,0.169-2.197,0.505c-0.117-0.01-0.237-0.014-0.352-0.014
			c-1.018,0-2.547,0.332-4.063,1.917c-1.623,1.697-3.407,5.167-3.193,7.479l-0.147,0.245c-0.418,0.707-0.852,1.433-1.299,2.174
			c-0.636,1.047-0.674,2.225-0.106,3.23c1.204,2.14,4.741,2.902,7.651,2.902h0.001c2.005,0,3.927-0.345,5.554-0.997
			c3.693-1.477,5.825-4.686,6.002-9.034c0.013-0.334,0-0.664-0.025-0.99l1.027-0.771c0.07-0.053,7.139-5.373,13.67-11.245
			C530.186,977.901,533.41,972.724,530.962,969.331z M493.143,996.549c0.092-0.098,0.186-0.167,0.275-0.248
			c-0.283,0.763-0.53,1.615-0.598,2.399c-0.439,0.167-0.922,0.371-1.41,0.613C491.803,998.38,492.394,997.33,493.143,996.549z
			 M497.906,1006.108c-1.215,0.486-2.74,0.754-4.298,0.754h-0.001c-2.573,0-4.176-0.688-4.611-1.074
			c0.438-0.725,0.86-1.436,1.27-2.126l0.973-1.632l-0.003-0.009c1.228-0.862,3.101-1.503,3.872-1.706c0,0-0.898-2.722,1.09-4.756
			l0.085-0.05c0.372-0.22,0.706-0.327,1.093-0.327c0,0,0.002,0,0.005,0c2.534,0.117,4.513,2.311,4.408,4.891
			C501.663,1003.097,500.358,1005.126,497.906,1006.108z M505.127,993.583l-0.76-0.871c7.563-8.548,18.762-19.33,22.748-20.405
			C526.105,975.581,516.644,984.747,505.127,993.583z"/>
		<path fill="#4AE5D9" d="M504.629,1019.319c2.223,0,4.275-1.35,5.23-3.437c1.344-2.95,0.15-6.525-2.661-7.972
			c-0.808-0.414-1.669-0.625-2.562-0.625c-2.225,0-4.276,1.35-5.229,3.436c-1.346,2.949-0.152,6.525,2.658,7.973
			C502.871,1019.108,503.734,1019.319,504.629,1019.319z M504.637,1011.298c0.248,0,0.492,0.06,0.725,0.181
			c0.939,0.481,1.317,1.71,0.848,2.741c-0.408,0.896-1.485,1.329-2.308,0.909c-0.936-0.482-1.313-1.712-0.845-2.741
			C503.365,1011.715,503.971,1011.298,504.637,1011.298z"/>
	</g>
	<g>
		<polygon fill="#4AE5D9" points="1290.431,1279.289 1333.192,1297.486 1377.538,1279.264 1334.1,1264.859 		"/>
		<g>
			<g>
				<path fill="#4AE5D9" d="M1306.264,1303.762c-0.828,0-1.5-0.671-1.5-1.5v-21.064c0-0.829,0.672-1.5,1.5-1.5s1.5,0.671,1.5,1.5
					v21.064C1307.764,1303.091,1307.092,1303.762,1306.264,1303.762z"/>
			</g>
		</g>
		<g>
			<g>
				<path fill="#4AE5D9" d="M1350.015,1294.817v19.602h-32v-19.131l-6-2.554v24.685c0,1.657,1.343,3,3,3h38c1.657,0,3-1.343,3-3
					v-25.067L1350.015,1294.817z"/>
			</g>
		</g>
	</g>
	<g>
		<path fill="#4AE5D9" d="M1357.971,1585.212c-0.504-3.688-3.583-6.535-7.296-6.535c-0.416,0-0.825,0.035-1.228,0.104
			c-1.907-2.087-4.462-3.419-7.225-3.784h0.003c-1.852-2.717-4.543-4.845-7.746-5.945c-1.389-8.423-8.725-14.785-17.436-14.785
			c-5.132,0-9.976,2.229-13.302,6.045c-0.811-0.205-1.646-0.309-2.501-0.309c-5.364,0-9.777,4.158-10.183,9.421
			c-5.66,2.39-9.469,7.991-9.469,14.234c0,8.154,6.377,14.924,14.539,15.412l0.208,0.012c0.436,0.032,0.877,0.034,1.314,0.007
			l25.22-0.006h-0.001c1.16,3.174,3.688,5.695,6.95,6.688c0.535,0.285,1.136,0.438,1.734,0.438l0.855,0.004
			c0.146,0.01,0.292,0.016,0.438,0.016c0.175,0,0.346-0.008,0.5-0.02l19.557,0.004c0.32,0.02,0.639,0.016,0.949-0.006l0.124-0.008
			c5.622-0.354,10.024-5.201,10.024-11.035C1364.002,1590.895,1361.598,1587.038,1357.971,1585.212z M1341.65,1574.936
			c-0.316-0.026-0.634-0.051-0.955-0.051C1341.017,1574.885,1341.336,1574.906,1341.65,1574.936z M1322.239,1596.331
			c-0.007-0.061-0.017-0.119-0.021-0.18C1322.223,1596.212,1322.233,1596.271,1322.239,1596.331z M1322.569,1598.131
			c0.004,0.014,0.008,0.027,0.012,0.042C1322.577,1598.158,1322.573,1598.145,1322.569,1598.131z M1322.348,1597.144
			c0.009,0.041,0.019,0.08,0.025,0.121C1322.366,1597.224,1322.356,1597.185,1322.348,1597.144z M1322.231,1594.083l-24.665,0.006
			l-0.18,0.007c-0.231,0.017-0.398,0.021-0.75-0.004l-0.055-0.001c-0.072-0.006-0.144-0.012-0.216-0.014
			c-5.485-0.351-9.776-4.92-9.776-10.419c0-4.67,3.155-8.81,7.674-10.067l2.097-0.584l-0.29-2.156
			c-0.027-0.211-0.042-0.423-0.042-0.636c0-2.874,2.339-5.212,5.213-5.212c0.793,0,1.555,0.175,2.263,0.52l1.928,0.939l1.222-1.763
			c2.357-3.401,6.242-5.433,10.391-5.433c6.684,0,12.239,5.224,12.647,11.892l0.116,1.896l1.856,0.396
			c1.752,0.375,3.325,1.19,4.619,2.311c-3.745,1.532-6.601,4.945-7.424,9.151C1325.216,1586.44,1322.625,1589.994,1322.231,1594.083
			z M1339.563,1574.942c-0.057,0.005-0.111,0.018-0.168,0.022C1339.452,1574.958,1339.507,1574.947,1339.563,1574.942z
			 M1338.437,1575.11c-0.027,0.006-0.055,0.014-0.082,0.02C1338.382,1575.124,1338.409,1575.116,1338.437,1575.11z
			 M1353.67,1601.208l-0.214,0.014c-0.09,0.008-0.179,0.007-0.267,0l-19.918-0.012l-0.424,0.02c-0.038,0-0.076-0.003-0.115-0.006
			l-0.728-0.012l-0.533-0.168c-2.532-0.67-4.299-3.088-4.299-5.879c0-2.85,1.896-5.342,4.508-5.926l1.842-0.411l0.109-1.884
			c0.229-3.959,3.332-7.06,7.063-7.06c2.331,0,4.435,1.16,5.772,3.183l1.231,1.863l1.99-1.016c0.311-0.158,0.642-0.238,0.985-0.238
			c1.306,0,2.368,1.166,2.368,2.6c0,0.115-0.008,0.229-0.021,0.343l-0.251,2.104l2.033,0.592c2.472,0.721,4.197,3.127,4.197,5.85
			C1359.002,1598.366,1356.658,1601.021,1353.67,1601.208z"/>
	</g>
	<g>
		<g>
			<g>
				<g>
					<g>
						<path fill="#4AE5D9" d="M62.343,1002.431c-0.099,0-0.196-0.029-0.279-0.09l-5.318-3.873l-5.318,3.873
							c-0.083,0.061-0.181,0.09-0.279,0.09c-0.097,0-0.195-0.029-0.278-0.09c-0.166-0.12-0.236-0.334-0.174-0.529l2.023-6.266
							l-5.314-3.787c-0.168-0.119-0.24-0.334-0.178-0.529c0.063-0.197,0.246-0.331,0.453-0.331h6.521l2.092-6.47
							c0.063-0.195,0.246-0.329,0.452-0.329s0.39,0.134,0.452,0.329l2.092,6.47h6.522c0.207,0,0.39,0.134,0.452,0.331
							c0.063,0.195-0.009,0.41-0.176,0.529l-5.318,3.787l2.025,6.266c0.063,0.195-0.007,0.409-0.174,0.529
							C62.539,1002.401,62.44,1002.431,62.343,1002.431z"/>
					</g>
				</g>
				<g>
					<g>
						<path fill="#4AE5D9" d="M56.745,984.575l2.199,6.799h6.867l-5.603,3.988l2.134,6.594l-5.598-4.077l-5.598,4.077l2.13-6.594
							l-5.598-3.988h6.867L56.745,984.575 M65.812,991.374h0.005 M56.745,983.625L56.745,983.625c-0.411,0-0.776,0.267-0.904,0.659
							l-1.985,6.14H47.68c-0.412,0-0.778,0.267-0.904,0.659c-0.127,0.395,0.018,0.824,0.354,1.064l5.031,3.584l-1.916,5.934
							c-0.126,0.392,0.014,0.82,0.348,1.062c0.164,0.12,0.361,0.18,0.556,0.18c0.196,0,0.394-0.06,0.56-0.182l5.038-3.669
							l5.038,3.669c0.166,0.122,0.363,0.182,0.56,0.182s0.392-0.06,0.558-0.18c0.333-0.241,0.473-0.67,0.346-1.062l-1.917-5.934
							l5.008-3.566c0.258-0.17,0.427-0.461,0.427-0.791c0-0.525-0.424-0.95-0.947-0.95h-0.005h-6.177l-1.985-6.14
							C57.521,983.892,57.157,983.625,56.745,983.625L56.745,983.625z"/>
					</g>
				</g>
			</g>
		</g>
		<g>
			<g>
				<path fill="#4AE5D9" d="M64.469,1014.354h-5.301v8.221h-5.041v-8.221h-5.302v6.672h-0.001v1.549
					c0,2.939,2.359,5.302,5.303,5.302h5.041c2.941,0,5.301-2.362,5.301-5.302V1014.354z"/>
			</g>
		</g>
		<g>
			<g>
				<rect x="42.352" y="1022.456" fill="#4AE5D9" width="28.59" height="5.699"/>
			</g>
		</g>
		<g>
			<g>
				<path fill="#4AE5D9" d="M99.095,987.263l-17.856-0.035c-1.963,0-3.57,1.606-3.57,3.57v33.506c0,1.963,1.607,3.573,3.57,3.573
					h17.856c1.963,0,3.57-1.61,3.57-3.573v-33.506C102.665,988.834,101.058,987.263,99.095,987.263z M99.095,1021.683H81.238
					v-30.109h17.856V1021.683z"/>
			</g>
		</g>
		<g>
			<g>
				<path fill="#4AE5D9" d="M73.395,1012.208H33.052c-1.262,0-2.287-1.027-2.287-2.287v-30.518c0-1.262,1.025-2.289,2.287-2.289
					H80.24c1.262,0,2.287,1.027,2.287,2.289v3.553l5.699,0.012v-3.564c0-4.404-3.582-7.987-7.986-7.987H33.052
					c-4.403,0-7.985,3.583-7.985,7.987v30.518c0,4.402,3.582,7.985,7.985,7.985h40.343V1012.208z"/>
			</g>
		</g>
	</g>
</g>
<g>
	<path fill="#4AE5D9" d="M276.121,20.234c-0.21-0.652-0.817-1.095-1.504-1.093l-10.225,0.022l-3.314-10.162
		c-0.211-0.649-0.819-1.089-1.503-1.087c-0.684,0.001-1.288,0.443-1.497,1.095l-3.266,10.175l-10.229,0.023
		c-0.686,0.001-1.291,0.445-1.498,1.1c-0.207,0.652,0.031,1.366,0.59,1.762l8.346,5.92l-3.154,9.833
		c-0.207,0.649,0.027,1.361,0.58,1.761c0.276,0.198,0.603,0.297,0.927,0.297c0.325-0.001,0.652-0.103,0.927-0.305l8.33-6.1
		l8.361,6.063c0.553,0.402,1.301,0.4,1.854-0.002c0.551-0.402,0.783-1.113,0.57-1.762l-3.2-9.818l8.321-5.957
		C276.096,21.601,276.332,20.887,276.121,20.234z M264.441,26.064c-0.559,0.398-0.793,1.116-0.58,1.77l2.053,6.304l-5.361-3.887
		c-0.555-0.402-1.305-0.4-1.855,0.004l-5.346,3.911l2.025-6.313c0.209-0.655-0.028-1.371-0.589-1.768l-5.267-3.734l6.445-0.015
		c0.684-0.002,1.287-0.444,1.495-1.097l2.128-6.625l2.157,6.618c0.214,0.649,0.819,1.089,1.503,1.087l6.443-0.014L264.441,26.064z"
		/>
	<path fill="#4AE5D9" d="M244.906,30.767l-3.188-1.668l0.639-3.729c0.095-0.552-0.178-1.1-0.673-1.36
		c-0.497-0.26-1.103-0.169-1.501,0.222l-2.701,2.646l-3.188-1.666c-0.497-0.262-1.103-0.171-1.505,0.224
		c-0.399,0.395-0.498,1.001-0.242,1.502l1.628,3.205l-2.597,2.546c-0.396,0.392-0.5,0.995-0.25,1.496
		c0.248,0.5,0.791,0.783,1.344,0.701l3.596-0.534l1.611,3.263c0.22,0.444,0.672,0.72,1.158,0.719c0.063,0,0.121-0.005,0.184-0.015
		c0.553-0.081,0.99-0.507,1.086-1.058l0.614-3.585l3.562-0.488c0.557-0.075,1-0.503,1.098-1.056
		C245.676,31.58,245.403,31.028,244.906,30.767z M239.633,31.249c-0.557,0.076-1,0.505-1.096,1.06l-0.102,0.603l-0.271-0.544
		c-0.219-0.446-0.671-0.72-1.159-0.719c-0.061,0-0.125,0.006-0.188,0.013l-0.602,0.092l0.438-0.43
		c0.401-0.393,0.5-1.003,0.246-1.504l-0.229-0.451l0.445,0.232c0.494,0.26,1.102,0.17,1.502-0.222l0.522-0.514l-0.123,0.723
		c-0.095,0.552,0.177,1.102,0.674,1.36l0.442,0.232L239.633,31.249z"/>
</g>
<g>
	<path fill="#4AE5D9" d="M145.862,75.628h-0.005h-3.502l-1.127-3.481c-0.073-0.224-0.279-0.375-0.514-0.375
		s-0.438,0.152-0.512,0.375l-1.125,3.481h-3.506c-0.23,0-0.439,0.152-0.514,0.376c-0.069,0.223,0.011,0.467,0.202,0.603l2.853,2.033
		l-1.088,3.363c-0.069,0.223,0.012,0.467,0.201,0.603c0.092,0.069,0.205,0.103,0.313,0.103c0.111,0,0.225-0.033,0.318-0.103
		l2.856-2.081l2.86,2.081c0.094,0.069,0.205,0.103,0.315,0.103c0.111,0,0.223-0.033,0.316-0.103c0.191-0.136,0.269-0.38,0.195-0.603
		l-1.087-3.363l2.84-2.023c0.146-0.096,0.243-0.261,0.243-0.449C146.398,75.868,146.155,75.628,145.862,75.628z"/>
	<path fill="#4AE5D9" d="M155.247,64.424h-29.063c-2.297,0-4.166,1.935-4.166,4.313v16.754c0,2.379,1.869,4.313,4.166,4.313h3.682
		v4.313h3.374v-4.313h14.97v4.313h3.375v-4.313h3.663c2.298,0,4.168-1.935,4.168-4.313V68.737
		C159.415,66.358,157.545,64.424,155.247,64.424z M156.262,85.491c0,0.64-0.455,1.159-1.015,1.159h-29.063
		c-0.555,0-1.01-0.52-1.01-1.159V68.737c0-0.639,0.455-1.16,1.01-1.16h29.063c0.56,0,1.015,0.521,1.015,1.16V85.491z"/>
</g>
<g>
	<path fill="#4AE5D9" d="M182.417,90.078h5.662c0.777,0,1.408-0.63,1.408-1.408V70.711c0-0.777-0.631-1.407-1.408-1.407h-5.662
		c-0.777,0-1.408,0.63-1.408,1.407V88.67C181.009,89.448,181.64,90.078,182.417,90.078z M183.825,72.119h2.846v15.144h-2.846V72.119
		z"/>
	<path fill="#4AE5D9" d="M193.265,90.078h5.662c0.777,0,1.407-0.63,1.407-1.408V77.923c0-0.777-0.63-1.408-1.407-1.408h-5.662
		c-0.777,0-1.408,0.631-1.408,1.408V88.67C191.856,89.448,192.487,90.078,193.265,90.078z M194.673,79.331h2.845v7.932h-2.845
		V79.331z"/>
	<path fill="#4AE5D9" d="M210.122,62.091h-5.662c-0.777,0-1.406,0.631-1.406,1.408V88.67c0,0.778,0.629,1.408,1.406,1.408h5.662
		c0.777,0,1.408-0.63,1.408-1.408V63.499C211.53,62.722,210.899,62.091,210.122,62.091z M208.714,87.263h-2.846V64.907h2.846V87.263
		z"/>
	<path fill="#4AE5D9" d="M210.621,92.091h-28.753c-0.442,0-0.8,0.324-0.8,0.726v1.615c0,0.401,0.357,0.726,0.8,0.726h28.753
		c0.441,0,0.8-0.324,0.8-0.726v-1.615C211.421,92.415,211.063,92.091,210.621,92.091z"/>
</g>
<g>
	<path fill="#4AE5D9" d="M140.701,9.512c-9.031,0-16.375,7.347-16.375,16.376c0,0.331,0.012,0.66,0.031,0.985l-1.444,0.519
		l0.446,1.245l1.136-0.407c0.095,0.664,0.231,1.315,0.403,1.951l-1.219,0.438l0.447,1.245l1.17-0.419
		c2.279,6.303,8.323,10.82,15.404,10.82c9.029,0,16.376-7.347,16.376-16.377C157.077,16.858,149.73,9.512,140.701,9.512z
		 M140.701,39.214c-5.76,0-10.675-3.675-12.532-8.8l1.483-0.531l-0.446-1.246l-1.425,0.511c-0.162-0.642-0.277-1.3-0.342-1.974
		l1.443-0.518l-0.445-1.245l-1.059,0.378c0.053-7.302,6.008-13.226,13.322-13.226c7.346,0,13.324,5.978,13.324,13.324
		C154.025,33.235,148.047,39.214,140.701,39.214z"/>
	<path fill="#4AE5D9" d="M146.307,24.837l-7.229-4.82c-0.382-0.254-0.893-0.279-1.3-0.063c-0.411,0.221-0.665,0.647-0.665,1.114
		v9.64c0,0.466,0.254,0.893,0.666,1.113c0.183,0.098,0.389,0.15,0.598,0.15c0.252,0,0.493-0.074,0.701-0.214l7.229-4.819
		c0.353-0.234,0.563-0.627,0.563-1.051C146.869,25.463,146.659,25.07,146.307,24.837z"/>
</g>
<g>
	<path fill="#4AE5D9" d="M26.325,85.909c1.597-0.805,2.638-2.458,2.638-4.262c0-2.633-2.142-4.773-4.775-4.773
		c-2.633,0-4.773,2.141-4.773,4.773c0,1.805,1.039,3.457,2.633,4.261c-3.798,0.715-6.602,4.05-6.602,7.96
		c0,0.62,0.506,1.125,1.127,1.125h15.229c0.63,0,1.135-0.505,1.135-1.125c0-0.059-0.004-0.119-0.013-0.174
		C32.855,89.884,30.054,86.614,26.325,85.909z M21.664,81.647c0-1.392,1.133-2.523,2.523-2.523s2.522,1.132,2.522,2.523
		c0,1.391-1.132,2.523-2.522,2.523S21.664,83.038,21.664,81.647z M17.807,92.74c0.533-2.75,2.922-4.728,5.746-4.728h1.27
		c2.821,0,5.211,1.978,5.745,4.728H17.807z"/>
	<path fill="#4AE5D9" d="M11.441,71.213c1.861,0,3.376-1.515,3.376-3.378c0-1.861-1.515-3.375-3.376-3.375s-3.377,1.514-3.377,3.375
		C8.064,69.698,9.58,71.213,11.441,71.213z"/>
	<path fill="#4AE5D9" d="M17.673,77.164c0-3.183-2.591-5.771-5.774-5.771h-0.914c-3.184,0-5.773,2.589-5.773,5.771
		c0,0.413,0.336,0.749,0.75,0.749h10.961C17.336,77.913,17.673,77.577,17.673,77.164z"/>
	<path fill="#4AE5D9" d="M36.771,71.213c1.862,0,3.377-1.515,3.377-3.378c0-1.861-1.515-3.375-3.377-3.375
		c-1.863,0-3.377,1.514-3.377,3.375C33.395,69.698,34.908,71.213,36.771,71.213z"/>
	<path fill="#4AE5D9" d="M37.229,71.393h-0.913c-3.185,0-5.774,2.589-5.774,5.771c0,0.413,0.336,0.749,0.75,0.749h10.961
		c0.414,0,0.75-0.336,0.75-0.749C43.002,73.981,40.412,71.393,37.229,71.393z"/>
	<path fill="#4AE5D9" d="M19.75,73.088h8.879c0.082,0,0.147-0.065,0.147-0.146v-1.468c0-0.081-0.065-0.146-0.147-0.146H19.75
		c-0.081,0-0.146,0.065-0.146,0.146v1.468C19.604,73.022,19.669,73.088,19.75,73.088z"/>
	<path fill="#4AE5D9" d="M16.729,86.051c0.039,0,0.077-0.015,0.104-0.044l1.039-1.04c0.027-0.026,0.043-0.063,0.043-0.103
		c0-0.04-0.016-0.077-0.043-0.105l-4.596-4.592c-0.027-0.027-0.064-0.043-0.104-0.043c-0.04,0-0.077,0.016-0.105,0.044l-1.035,1.038
		c-0.059,0.057-0.059,0.15,0,0.207l4.592,4.594C16.652,86.036,16.69,86.051,16.729,86.051z"/>
	<path fill="#4AE5D9" d="M35.838,80.168c-0.029-0.028-0.067-0.044-0.104-0.044c-0.038,0-0.075,0.016-0.104,0.043l-4.594,4.592
		c-0.059,0.058-0.059,0.15,0,0.208l1.036,1.04c0.028,0.027,0.065,0.044,0.104,0.044s0.076-0.015,0.104-0.043l4.596-4.595
		c0.027-0.027,0.043-0.064,0.043-0.104s-0.016-0.077-0.043-0.104L35.838,80.168z"/>
</g>
<g>
	<path fill="#4AE5D9" d="M193.857,19.232c-1.141-0.121-2.27,0.46-2.875,1.479c-0.849,1.443-0.429,3.347,0.936,4.242
		c0.387,0.253,0.814,0.408,1.272,0.458l0.011,0.002c1.141,0.12,2.271-0.461,2.871-1.48c0.854-1.441,0.437-3.346-0.932-4.241
		C194.754,19.438,194.326,19.284,193.857,19.232z M194.287,22.879c-0.188,0.321-0.537,0.507-0.883,0.469
		c-0.126-0.014-0.243-0.058-0.35-0.126c-0.455-0.298-0.584-0.952-0.289-1.455c0.197-0.328,0.531-0.51,0.873-0.475l0.029-0.248
		l-0.027,0.248c0.127,0.014,0.25,0.06,0.362,0.134C194.457,21.724,194.586,22.376,194.287,22.879z"/>
	<path fill="#4AE5D9" d="M186.059,27.674c1.145,0.12,2.271-0.461,2.873-1.482c0.854-1.442,0.434-3.345-0.934-4.239
		c-0.389-0.256-0.816-0.41-1.282-0.461c-1.143-0.121-2.269,0.461-2.876,1.481c-0.848,1.441-0.428,3.345,0.939,4.242
		c0.387,0.254,0.813,0.407,1.27,0.459H186.059z M185.629,24.024c0.192-0.326,0.527-0.508,0.867-0.471l0.031-0.248l-0.027,0.248
		c0.131,0.015,0.25,0.056,0.361,0.129c0.457,0.3,0.584,0.952,0.287,1.457c-0.26,0.438-0.838,0.601-1.233,0.34
		C185.458,25.183,185.33,24.528,185.629,24.024z"/>
	<path fill="#4AE5D9" d="M184.254,28.333c-0.388-0.252-0.814-0.407-1.283-0.459c-1.142-0.122-2.271,0.459-2.87,1.48
		c-0.853,1.441-0.434,3.345,0.931,4.242c0.391,0.254,0.818,0.409,1.273,0.459l0.068,0.008l0.001-0.002
		c1.122,0.095,2.222-0.484,2.815-1.488C186.04,31.133,185.62,29.231,184.254,28.333z M183.402,31.52
		c-0.257,0.442-0.829,0.607-1.233,0.343c-0.454-0.298-0.583-0.951-0.286-1.454c0.195-0.329,0.527-0.511,0.869-0.474l0.033-0.248
		l-0.027,0.249c0.129,0.014,0.249,0.057,0.358,0.131C183.572,30.365,183.701,31.017,183.402,31.52z"/>
	<path fill="#4AE5D9" d="M211.054,24.096c-0.922,0.753-1.744,1.406-2.386,1.907c1.333,2.931,1.817,6.418,1.019,9.538
		c-0.439,1.706-1.531,4.44-3.779,3.894c-1.704-0.413-3.038-1.652-4.354-2.738c-1.354-1.119-2.761-2.23-4.367-2.973
		c-2.317-1.072-4.792-1.033-7.126-0.029c-2.859,1.229-4.904,3.584-7.506,5.199c-1.125,0.697-2.658,0.916-3.645-0.086
		c-0.807-0.82-1.184-2.011-1.445-3.102c-0.75-3.141-0.302-6.438,0.878-9.41c1.052-2.652,3.104-5.176,5.421-6.809
		c2.877-2.025,6.484-3.119,10.051-3.1c1.857,0.012,3.701,0.326,5.43,0.969c1.279,0.475,2.477,1.085,3.586,1.817
		c0.623-0.703,1.303-1.452,2.023-2.224c-1.439-1.021-2.854-1.773-4.283-2.281c-2.29-0.811-4.661-1.256-6.674-1.256
		c-0.156,0-0.313,0.002-0.461,0.008c-2.561,0.067-4.992,0.549-7.23,1.428c-4.823,1.893-8.791,5.764-10.615,10.354
		c-1.178,2.969-2.246,7.499-0.651,12.225c1.027,3.047,2.779,4.857,4.937,5.096c0.199,0.022,0.401,0.034,0.598,0.034
		c2.398,0,4.344-1.559,5.906-2.813l0.531-0.425c1.377-1.109,2.801-2.255,4.317-2.906c1.024-0.44,1.929-0.618,2.834-0.54
		c1.9,0.158,3.624,1.527,5.296,2.854l0.588,0.47c1.839,1.477,4.129,3.317,6.854,3.317c2.354-0.003,4.262-1.81,5.367-5.088
		c0.84-2.487,1-5.326,0.541-8.111C212.41,27.518,211.854,25.74,211.054,24.096z"/>
	<path fill="#4AE5D9" d="M219.377,10.41c-0.39-0.536-0.992-0.835-1.698-0.835c-3.882,0-13.382,10.901-14.454,12.146l-0.344,0.399
		c-0.247-0.059-0.496-0.098-0.759-0.107l-0.112-0.004c-0.383,0-0.761,0.089-1.135,0.262c-0.059-0.004-0.121-0.008-0.18-0.008
		c-0.526,0-1.314,0.171-2.1,0.989c-0.836,0.878-1.758,2.669-1.648,3.861l-0.076,0.128c-0.215,0.363-0.438,0.737-0.669,1.121
		c-0.328,0.541-0.349,1.147-0.056,1.668c0.622,1.104,2.447,1.496,3.949,1.496h0.002c0.813,0,1.598-0.113,2.306-0.324
		c-0.078,0.101-0.153,0.204-0.22,0.315c-0.857,1.44-0.447,3.343,0.918,4.246c0.386,0.258,0.819,0.414,1.278,0.465
		c1.14,0.125,2.272-0.451,2.88-1.469c0.858-1.439,0.448-3.344-0.914-4.246c-0.393-0.257-0.822-0.415-1.281-0.465
		c-0.195-0.021-0.391-0.016-0.583,0.003c0.961-0.889,1.517-2.149,1.579-3.702c0.008-0.173,0-0.343-0.012-0.513l0.529-0.396
		c0.037-0.027,3.686-2.774,7.055-5.807C218.978,14.833,220.641,12.161,219.377,10.41z M200.098,29.784h-0.002
		c-1.329,0-2.153-0.357-2.379-0.557c0.226-0.374,0.444-0.741,0.654-1.098l0.502-0.842l-0.002-0.004c0.635-0.446,1.602-0.774,2-0.881
		c0,0-0.466-1.405,0.561-2.455l0.048-0.025c0.188-0.113,0.361-0.17,0.563-0.17c0,0,0,0,0.002,0c1.305,0.063,2.326,1.193,2.274,2.525
		c-0.064,1.561-0.739,2.608-2.006,3.116C201.689,29.646,200.9,29.784,200.098,29.784z M204.838,32.11
		c0.128,0.014,0.249,0.058,0.361,0.133c0.455,0.3,0.581,0.954,0.279,1.456c-0.258,0.437-0.836,0.598-1.234,0.336
		c-0.453-0.3-0.578-0.954-0.279-1.455C204.16,32.251,204.496,32.072,204.838,32.11z M206.042,22.929l-0.392-0.449
		c3.902-4.412,9.685-9.979,11.741-10.533C216.871,13.636,211.989,18.368,206.042,22.929z"/>
</g>
<path fill="#4AE5D9" d="M102.838,131.97c-0.333-1.949-2.006-3.403-3.944-3.403c-0.183,0-0.354,0.012-0.521,0.033
	c-0.966-1.009-2.239-1.673-3.607-1.883c-0.948-1.353-2.304-2.397-3.841-2.962c-0.803-4.393-4.596-7.564-9.08-7.564
	c-2.61,0-5.093,1.104-6.839,3.035c-0.378-0.084-0.771-0.127-1.171-0.127c-2.773,0-5.121,2.123-5.416,4.862
	c-2.932,1.303-4.817,4.189-4.817,7.399c0,4.279,3.351,7.828,7.625,8.08l0.104,0.008c0.23,0.017,0.494,0.018,0.684,0.004
	l12.598-0.003c0.656,1.626,1.998,2.882,3.582,3.361c0.314,0.165,0.663,0.252,1.008,0.252l0.408,0.001
	c0.084,0.008,0.166,0.009,0.246,0.009c0.094,0,0.191-0.003,0.252-0.01l9.898,0.001c0.179,0.01,0.301,0.011,0.581-0.008
	c2.991-0.188,5.333-2.762,5.333-5.862C105.92,135.01,104.715,132.974,102.838,131.97z M100.305,140.264l-0.135-0.271l-10.109-0.007
	l-0.258,0.011l-0.33-0.007l-0.244-0.079c-1.166-0.306-1.98-1.423-1.98-2.717c0-1.32,0.873-2.473,2.076-2.742l0.933-0.209
	c0.118-0.026,0.204-0.127,0.211-0.248l0.055-0.954c0.11-1.864,1.564-3.325,3.312-3.325c1.087,0,2.072,0.545,2.702,1.492l0.622,0.944
	c0.076,0.115,0.225,0.154,0.349,0.092l1.009-0.515c0.115-0.06,0.238-0.089,0.378-0.089c0.514,0,0.933,0.47,0.933,1.046
	c0,0.027-0.004,0.056-0.01,0.141l-0.127,1.069c-0.017,0.131,0.064,0.254,0.191,0.291l1.031,0.3c1.139,0.331,1.934,1.443,1.934,2.706
	c0,1.481-1.076,2.707-2.459,2.792l-0.105,0.01L100.305,140.264z M71.379,136.372c-2.635-0.17-4.701-2.371-4.701-5.012
	c0-2.246,1.519-4.238,3.691-4.843l1.063-0.295c0.131-0.036,0.215-0.162,0.197-0.296l-0.148-1.097
	c-0.014-0.094-0.018-0.189-0.018-0.284c0-1.308,1.063-2.371,2.371-2.371c0.361,0,0.707,0.079,1.027,0.232l0.976,0.479
	c0.117,0.059,0.265,0.021,0.341-0.089l0.621-0.895c1.145-1.652,3.031-2.639,5.045-2.639c3.247,0,5.946,2.536,6.143,5.773L88.043,126
	c0.008,0.122,0.096,0.223,0.215,0.248l0.939,0.2c0.681,0.146,1.325,0.436,1.888,0.845c-1.772,0.873-3.056,2.524-3.489,4.51
	c-1.793,0.811-3.086,2.573-3.363,4.573l-12.271,0.002l-0.098,0.004c-0.105,0.007-0.135,0.01-0.391-0.003v0.271L71.379,136.372z"/>
<g>
	<path fill="#4AE5D9" d="M86.205,21.949c0-0.287-0.229-0.519-0.517-0.519h-0.003h-3.371l-1.083-3.351
		c-0.07-0.215-0.269-0.359-0.494-0.359c-0.225,0-0.424,0.145-0.494,0.359l-1.082,3.351H75.79c-0.225,0-0.424,0.146-0.494,0.359
		c-0.068,0.216,0.011,0.45,0.193,0.581l2.746,1.956l-1.045,3.237c-0.07,0.215,0.007,0.449,0.189,0.58
		c0.089,0.066,0.197,0.098,0.303,0.098c0.107,0,0.216-0.031,0.306-0.099l2.749-2.002l2.75,2.002c0.09,0.067,0.197,0.099,0.305,0.099
		s0.215-0.031,0.305-0.098c0.182-0.131,0.258-0.365,0.189-0.58l-1.047-3.237l2.734-1.946C86.113,22.288,86.205,22.129,86.205,21.949
		z"/>
	<path fill="#4AE5D9" d="M103.724,18.975l-9.533-0.018c-1.338,0-2.426,1.088-2.426,2.428v17.884c0,1.339,1.088,2.428,2.426,2.428
		h9.531c1.339,0,2.43-1.089,2.43-2.428V21.385C106.151,20.056,105.061,18.975,103.724,18.975z M103.202,38.68h-8.49V21.6h8.49V38.68
		z"/>
	<path fill="#4AE5D9" d="M66.378,31.363V14.709c0-0.688,0.56-1.25,1.247-1.25h25.753c0.688,0,1.248,0.562,1.248,1.25v1.938
		l3.11,0.007v-1.945c0-2.404-1.955-4.359-4.358-4.359H67.625c-2.403,0-4.357,1.955-4.357,4.359v16.654
		c0,2.403,1.954,4.358,4.357,4.358h8.608v1.704v0.779H72.7v3.11h15.604v-3.11h-3.533v-2.483h4.873v-3.109H67.625
		C66.938,32.612,66.378,32.052,66.378,31.363z M79.127,35.722h2.752v2.483h-2.752V35.722z"/>
</g>
<g>
	<path fill="#4AE5D9" d="M93.004,90.22H77.466v-9.289l-2.915-1.24v11.986c0,0.805,0.652,1.458,1.457,1.458h18.45
		c0.807,0,1.459-0.653,1.459-1.458V79.504l-2.913,1.197V90.22z"/>
	<path fill="#4AE5D9" d="M107.038,71.65l-21.447-7.113c-0.077-0.025-0.157-0.038-0.236-0.038s-0.159,0.013-0.235,0.038l-21.56,7.125
		c-0.298,0.099-0.503,0.372-0.515,0.686c-0.011,0.313,0.175,0.601,0.465,0.72l5.297,2.175c0,0,0.003,8.407,0.003,8.496
		c0,0.672,0.545,1.217,1.218,1.217c0.671,0,1.215-0.545,1.215-1.217c0-0.089-0.002-7.396-0.002-7.396l13.373,5.705
		c0.094,0.041,0.193,0.061,0.294,0.061c0.097,0,0.194-0.019,0.285-0.057l21.895-8.996c0.29-0.119,0.476-0.406,0.464-0.72
		C107.541,72.022,107.336,71.749,107.038,71.65z"/>
</g>
<path fill="#4AE5D9" d="M38.496,15.335h-0.828v-1.933h-0.604h-1.738h-0.62v1.933h-1.691V13.45h0.002v-0.82
	c0-1.559-1.249-2.81-2.81-2.81h-8.428c-1.561,0-2.81,1.251-2.81,2.81v2.705h-1.676v-1.933h-2.961v1.933h-0.841
	c-2.334,0-4.233,1.897-4.233,4.231v16.171c0,2.334,1.899,4.231,4.233,4.231h25.004c2.334,0,4.232-1.897,4.232-4.231V19.566
	C42.729,17.232,40.83,15.335,38.496,15.335z M21.779,12.63h8.428v2.705h-8.428V12.63z M39.708,35.737
	c0,0.668-0.544,1.212-1.212,1.212H13.492c-0.669,0-1.213-0.544-1.213-1.212v-2.71h27.429V35.737z M39.708,29.564H12.279v-9.998
	c0-0.669,0.544-1.212,1.213-1.212h0.841v2.711h2.961v-2.711h1.676v2.702h2.81v-2.702h8.428v2.702h2.808v-2.702h1.691v2.711h2.962
	v-2.711h0.828c0.668,0,1.212,0.543,1.212,1.212V29.564z"/>
<g>
	<polygon fill="#4AE5D9" points="247.942,77.481 251.696,77.475 251.692,74.085 247.937,74.093 247.93,70.337 244.54,70.344 
		244.548,74.1 240.789,74.108 240.797,77.497 244.556,77.488 244.562,81.247 247.95,81.238 	"/>
	<path fill="#4AE5D9" d="M263.629,60.48l-14.628-0.019c-1.545,0-2.805,1.259-2.805,2.808v3.521l1.726-0.004l2.049-0.004v-2.84
		h12.687v26.079h-12.687v-5.24l-2.009,0.006l-1.766,0.003v6.265c0,1.549,1.26,2.808,2.805,2.808h14.626
		c1.546,0,2.808-1.259,2.808-2.808V63.27C266.435,61.732,265.175,60.48,263.629,60.48z"/>
</g>
<g>
	<path fill="#4AE5D9" d="M43.675,127.827h-0.356v-0.843c0-0.791-0.641-1.434-1.434-1.434h-2.429c-0.791,0-1.433,0.643-1.433,1.434
		v0.843l-13.256,0.001c-2.18,0-3.953,1.839-3.953,4.101v11.325c0,2.262,1.773,4.101,3.953,4.101l18.907-0.001
		c2.183,0,3.956-1.838,3.956-4.1v-11.326C47.631,129.666,45.857,127.827,43.675,127.827z M44.98,143.254
		c0,0.799-0.584,1.451-1.306,1.451H24.768c-0.719,0-1.302-0.651-1.302-1.451v-11.325c0-0.8,0.583-1.45,1.302-1.45l18.907-0.001
		c0.722,0,1.306,0.65,1.306,1.45V143.254z"/>
	<path fill="#4AE5D9" d="M34.665,132.274c-3.071,0-5.569,2.495-5.569,5.566s2.498,5.569,5.569,5.569
		c3.069,0,5.567-2.498,5.567-5.569S37.734,132.274,34.665,132.274z M34.665,140.67c-1.56,0-2.829-1.27-2.829-2.829
		c0-1.561,1.27-2.827,2.829-2.827s2.827,1.267,2.827,2.827C37.492,139.4,36.225,140.67,34.665,140.67z"/>
	<circle fill="#4AE5D9" cx="26.906" cy="133.644" r="1.37"/>
	<rect x="6.84" y="120.051" fill="#4AE5D9" width="3.367" height="3.366"/>
	<rect x="22.841" y="120.051" fill="#4AE5D9" width="3.366" height="3.366"/>
	<rect x="6.84" y="131.034" fill="#4AE5D9" width="3.367" height="3.366"/>
	<rect x="6.84" y="126.006" fill="#4AE5D9" width="3.367" height="3.367"/>
	<rect x="6.84" y="136.641" fill="#4AE5D9" width="3.367" height="3.367"/>
	<path fill="#4AE5D9" d="M18.541,142.295H5.92c-0.545,0-0.984-0.487-0.984-1.085l-0.002-22.491c0-0.599,0.441-1.087,0.984-1.087
		h21.046c0.543,0,0.984,0.488,0.984,1.087v6.836h2.938v-6.837c0-2.218-1.76-4.025-3.923-4.024H5.918
		c-2.164,0-3.923,1.807-3.923,4.025v22.491c0,2.218,1.759,4.022,3.925,4.022h12.934c-0.2-0.624-0.313-1.287-0.313-1.979V142.295z"/>
	<path fill="#4AE5D9" d="M18.541,133.14v-0.737c0-0.471,0.053-0.927,0.148-1.368h-6.486v8.974h6.338v-2.105h-4.203v-4.763H18.541z"
		/>
	<path fill="#4AE5D9" d="M21.143,120.051h-8.939v9.322h6.864c0.452-1.052,1.173-1.951,2.075-2.616V120.051z M19.013,127.269h-4.675
		l-0.002-5.112h4.677V127.269z"/>
</g>
</svg>
