<?xml version="1.0" encoding="utf-8"?>
<!-- Generator: Adobe Illustrator 16.0.0, SVG Export Plug-In . SVG Version: 6.00 Build 0)  -->
<!DOCTYPE svg PUBLIC "-//W3C//DTD SVG 1.1//EN" "http://www.w3.org/Graphics/SVG/1.1/DTD/svg11.dtd">
<svg version="1.1" xmlns="http://www.w3.org/2000/svg" xmlns:xlink="http://www.w3.org/1999/xlink" x="0px" y="0px"
	 width="59.334px" height="87.333px" viewBox="0 0 59.334 87.333" enable-background="new 0 0 59.334 87.333" xml:space="preserve">
<g id="podklad" display="none">
</g>
<g id="Layer_9">
</g>
<g id="Layer_1">
</g>
<g id="podklad_1_">
</g>
<g id="OBD_x5F_prvky">
</g>
<g id="Layer_7">
</g>
<g id="texty">
</g>
<g id="OTVR_x5F_hambac">
</g>
<g id="lista">
</g>
<g id="Layer_14">
</g>
<g id="_x33__x5F_ŘADEK_x5F_icon">
</g>
<g id="slunicko" display="none">
</g>
<g id="mesice">
</g>
<g id="kryti">
	<g>
		<rect x="13.751" y="78.084" fill="#FF712E" width="30.417" height="3.334"/>
		<polygon fill="#FFFFFF" stroke="#FF712E" stroke-width="2" stroke-miterlimit="10" points="32.294,57.336 27.717,57.336 
			27.717,69.017 30.006,74.854 32.294,69.017 		"/>
		<g>
			<path fill-rule="evenodd" clip-rule="evenodd" fill="#FFFFFF" d="M43.718,80.479l-0.181-0.771
				c-0.344-1.469-0.734-2.638-1.229-3.68c-0.049-0.103-0.107-0.193-0.171-0.269c-0.406,0.676-0.855,2.424-1.039,3.139
				c-0.087,0.339-0.164,0.637-0.23,0.862l-0.211,0.718H19.093l-0.211-0.718c-0.066-0.226-0.144-0.523-0.23-0.862
				c-0.184-0.715-0.633-2.463-1.039-3.139c-0.063,0.075-0.123,0.168-0.172,0.271c-0.493,1.039-0.884,2.208-1.228,3.677l-0.181,0.771
				h-4.62l0.591-2.104c0.354-1.261,0.674-2.529,0.993-3.798c0.384-1.524,0.78-3.101,1.235-4.643c0.736-2.5,2.774-3.421,4.572-4.234
				c0.376-0.17,0.753-0.34,1.117-0.525c2.242-1.141,5.956-3.309,6.781-4.085l-0.021-0.667l0.968-0.063
				c0.657-0.042,1.427-0.064,2.227-0.064s1.569,0.022,2.227,0.064l0.968,0.063l-0.021,0.667c0.825,0.776,4.539,2.944,6.781,4.085
				c0.364,0.186,0.741,0.355,1.117,0.525c1.798,0.813,3.836,1.734,4.572,4.234c0.455,1.542,0.852,3.118,1.235,4.643
				c0.319,1.269,0.639,2.537,0.993,3.798l0.591,2.104H43.718z"/>
			<g>
				<path fill="#FF712E" d="M29.875,61.297c0.757,0,1.515,0.02,2.163,0.062c-0.023,0.713,5.639,3.844,7.338,4.708
					c2.029,1.032,4.438,1.62,5.184,4.151c0.822,2.785,1.438,5.631,2.225,8.427c0.078,0.278,0.156,0.557,0.234,0.835h-2.508
					c-0.311-1.324-0.705-2.627-1.299-3.879c-0.191-0.4-0.508-0.787-0.943-0.957c-0.066-0.026-0.132-0.038-0.195-0.038
					c-1.091,0-1.793,3.613-2.164,4.874h-10.01h-0.049h-10.01c-0.371-1.261-1.073-4.874-2.164-4.874
					c-0.063,0-0.129,0.012-0.195,0.038c-0.436,0.17-0.752,0.557-0.943,0.957c-0.594,1.252-0.988,2.555-1.299,3.879h-2.508
					c0.078-0.278,0.156-0.557,0.234-0.835c0.787-2.796,1.402-5.642,2.225-8.427c0.746-2.531,3.154-3.119,5.184-4.151
					c1.699-0.864,7.361-3.995,7.338-4.708C28.36,61.316,29.118,61.297,29.875,61.297 M29.875,59.296
					c-0.82,0-1.613,0.022-2.291,0.066l-1.935,0.124l0.037,1.141c-1.181,0.883-4.332,2.697-6.219,3.656
					c-0.351,0.179-0.714,0.342-1.076,0.506c-1.895,0.857-4.253,1.924-5.119,4.863c-0.461,1.561-0.86,3.146-1.246,4.68
					c-0.313,1.244-0.637,2.529-0.985,3.771l-0.118,0.419l-0.117,0.418l-0.713,2.54h2.639h2.508h1.585l0.362-1.544
					c0.112-0.477,0.229-0.922,0.353-1.338c0.058,0.218,0.107,0.408,0.144,0.551c0.091,0.352,0.171,0.662,0.239,0.896l0.423,1.436
					h1.496h10.01h10.059h1.496l0.423-1.436c0.068-0.233,0.148-0.544,0.239-0.896c0.036-0.143,0.086-0.333,0.144-0.551
					c0.124,0.416,0.24,0.861,0.353,1.338l0.362,1.544h1.585h2.508h2.639l-0.713-2.54l-0.117-0.418l-0.117-0.418
					c-0.35-1.242-0.674-2.527-0.986-3.771c-0.386-1.533-0.785-3.119-1.246-4.681c-0.866-2.938-3.225-4.005-5.119-4.862
					c-0.362-0.164-0.726-0.327-1.076-0.506c-1.887-0.959-5.038-2.773-6.219-3.656l0.037-1.141l-1.935-0.124
					C31.488,59.318,30.695,59.296,29.875,59.296L29.875,59.296z"/>
			</g>
		</g>
		<g>
			<path fill="#FFFFFF" stroke="#FF712E" stroke-width="2" stroke-miterlimit="10" d="M19.131,10.844
				c0,1.156,0.661,2.094,3.674,2.094c3.012,0,7.235-0.938,7.235-2.094S25.816,8.75,22.805,8.75
				C19.792,8.75,19.131,9.688,19.131,10.844z"/>
			<path fill="#FFFFFF" stroke="#FF712E" stroke-width="2" stroke-miterlimit="10" d="M40.619,10.844
				c0,1.156-0.661,2.094-3.673,2.094c-3.013,0-7.236-0.938-7.236-2.094s4.224-2.094,7.236-2.094
				C39.958,8.75,40.619,9.688,40.619,10.844z"/>
		</g>
		<path fill="#FFFFFF" stroke="#FF712E" stroke-width="2" stroke-miterlimit="10" d="M11.075,38.503
			c0,10.383,12.146,25.416,18.8,25.416c6.1,0,18.8-15.033,18.8-25.416s-8.417-15.738-18.8-15.738
			C19.491,22.765,11.075,28.12,11.075,38.503z"/>
		
			<ellipse transform="matrix(-0.7038 0.7104 -0.7104 -0.7038 95.3536 45.958)" fill="#FFFFFF" stroke="#FF712E" stroke-width="2" stroke-miterlimit="10" cx="38.095" cy="42.859" rx="6.753" ry="5.536"/>
		
			<ellipse transform="matrix(0.7038 0.7104 -0.7104 0.7038 37.0106 -3.0427)" fill="#FFFFFF" stroke="#FF712E" stroke-width="2" stroke-miterlimit="10" cx="22.154" cy="42.859" rx="6.753" ry="5.536"/>
		
			<path fill="#FFFFFF" stroke="#FF712E" stroke-width="2" stroke-linecap="round" stroke-linejoin="round" stroke-miterlimit="10" d="
			M24.169,53.652c0,3.893,11.412,3.359,11.412,0"/>
		<path fill="#FF712E" d="M17.918,41.077c0.04,0.673,1.38-1,3.146-1.105c1.766-0.103,3.292,1.398,3.253,0.729
			c-0.04-0.67-1.569-2.232-3.336-2.129C19.215,38.677,17.88,40.407,17.918,41.077z"/>
		<path fill="#FF712E" d="M35.773,41.077c0.039,0.673,1.378-1,3.145-1.105c1.767-0.103,3.292,1.398,3.253,0.729
			c-0.039-0.67-1.569-2.232-3.336-2.129C37.068,38.677,35.734,40.407,35.773,41.077z"/>
		<path fill="#FFFFFF" stroke="#FF712E" stroke-width="2" stroke-miterlimit="10" d="M14.556,27.148c0,2.734,6.858,4.95,15.32,4.95
			c8.46,0,15.318-2.216,15.318-4.95c0-2.732-6.858-10.544-15.318-10.544C21.414,16.604,14.556,24.416,14.556,27.148z"/>
		<path fill="none" stroke="#FF712E" stroke-width="2" stroke-miterlimit="10" d="M22.663,31.206c0,0,0.957-10.511,7.205-14.666"/>
		<path fill="none" stroke="#FF712E" stroke-width="2" stroke-miterlimit="10" d="M37.122,31.206c0,0-0.957-10.511-7.206-14.666"/>
		
			<line fill="none" stroke="#FF712E" stroke-width="2" stroke-linecap="round" stroke-linejoin="round" stroke-miterlimit="10" x1="29.875" y1="12.269" x2="29.875" y2="16.478"/>
		<ellipse fill="none" stroke="#FF712E" stroke-width="2" stroke-miterlimit="10" cx="29.875" cy="16.86" rx="3.756" ry="1.37"/>
		<polyline fill="#FFFFFF" stroke="#FF712E" stroke-width="2" stroke-miterlimit="10" points="29.334,68.877 25.729,64.625 
			24.167,68.063 21.042,62.875 22.667,60.125 		"/>
		<polyline fill="#FFFFFF" stroke="#FF712E" stroke-width="2" stroke-miterlimit="10" points="29.917,68.877 33.521,64.625 
			35.084,68.063 38.209,62.875 36.584,60.125 		"/>
		<line fill="none" stroke="#FF712E" stroke-width="2" stroke-miterlimit="10" x1="29.626" y1="68.168" x2="29.626" y2="80.375"/>
	</g>
</g>
</svg>
