<?xml version="1.0" encoding="utf-8"?>
<!-- Generator: Adobe Illustrator 16.0.0, SVG Export Plug-In . SVG Version: 6.00 Build 0)  -->
<!DOCTYPE svg PUBLIC "-//W3C//DTD SVG 1.1//EN" "http://www.w3.org/Graphics/SVG/1.1/DTD/svg11.dtd">
<svg version="1.1" xmlns="http://www.w3.org/2000/svg" xmlns:xlink="http://www.w3.org/1999/xlink" x="0px" y="0px" width="86px"
	 height="91.333px" viewBox="0 0 86 91.333" enable-background="new 0 0 86 91.333" xml:space="preserve">
<g id="podklad" display="none">
</g>
<g id="Layer_9">
</g>
<g id="Layer_1">
</g>
<g id="podklad_1_">
</g>
<g id="OBD_x5F_prvky">
</g>
<g id="Layer_7">
</g>
<g id="texty">
	<g>
		<path fill="#FFFFFF" stroke="#FF712E" stroke-width="2" stroke-miterlimit="10" d="M68.158,59.706L50.05,54.735l-5.54,2.238
			l-5.541-2.238l-18.109,4.971C9.218,63.124,9.168,83.097,9.168,83.097l13.057-0.057H44.51h22.285l13.057,0.057
			C79.852,83.097,79.801,63.124,68.158,59.706z"/>
		<g>
			<defs>
				<path id="SVGID_241_" d="M68.158,59.706L50.05,54.735l-5.54,2.238l-5.541-2.238l-18.109,4.971
					C9.218,63.124,9.168,83.097,9.168,83.097l13.057-1.023H44.51h22.285l13.057,1.023C79.852,83.097,79.801,63.124,68.158,59.706z"
					/>
			</defs>
			<clipPath id="SVGID_1_">
				<use xlink:href="#SVGID_241_"  overflow="visible"/>
			</clipPath>
			<g clip-path="url(#SVGID_1_)">
				<g>
					<polygon fill="#FFFFFF" points="45.118,95.782 57.259,57.737 50.091,55.771 44.532,59.542 38.964,55.771 31.788,57.743 					
						"/>
					<path fill="#FF712E" d="M45.161,98.933l-14.67-41.87l8.652-2.378l5.389,3.649l5.379-3.649l8.617,2.364L45.161,98.933z
						 M33.087,58.424l11.986,34.208l10.916-34.206l-5.719-1.569l-5.738,3.894l-5.748-3.894L33.087,58.424z"/>
				</g>
				<g>
					<polygon fill="#FFFFFF" points="56.685,57.584 52.472,69.491 44.681,62.39 36.894,69.491 32.647,57.499 36.61,56.411 
						36.829,56.479 44.681,62.36 52.538,56.479 52.604,56.454 					"/>
					<path fill="#FF712E" d="M36.454,71.245l-5.107-14.426l5.283-1.45l0.662,0.207l7.344,5.501l0.045-0.041l0.045,0.041l7.451-5.529
						l0.309-0.119l0.385,0.062l5.115,1.416l-5.074,14.339l-8.23-7.502L36.454,71.245z M46.231,62.449l5.799,5.288l3.354-9.475
						l-2.596-0.721L46.231,62.449z M33.95,58.179l3.383,9.559l5.799-5.288l-6.637-4.97L33.95,58.179z"/>
				</g>
				<g>
					<g>
						<polygon fill="#FFFFFF" points="44.7,62.373 44.681,62.39 36.894,69.491 32.647,57.499 36.61,56.411 36.829,56.479 
							44.681,62.36 						"/>
						<path fill="#FF712E" d="M36.454,71.245l-5.107-14.426l5.283-1.45l0.662,0.207l8.965,6.716l-0.891,0.826L36.454,71.245z
							 M33.95,58.179l3.383,9.559l5.801-5.289l-6.639-4.969L33.95,58.179z"/>
					</g>
					<g>
						<polygon fill="#FFFFFF" points="56.685,57.584 52.472,69.491 44.681,62.39 44.665,62.373 44.681,62.36 52.538,56.479 
							52.604,56.454 						"/>
						<path fill="#FF712E" d="M52.911,71.245l-9.762-8.899l0.887-0.749l8.141-6.049l0.309-0.119l0.385,0.062l5.115,1.416
							L52.911,71.245z M46.229,62.45l5.801,5.287l3.354-9.475l-2.596-0.721L46.229,62.45z"/>
					</g>
				</g>
				<g>
					<polygon fill="#FFFFFF" points="47.411,70.277 49.253,66.556 44.681,62.369 40.011,66.556 41.841,70.277 					"/>
					<path fill="#FF712E" d="M48.032,71.277H41.22l-2.441-4.96l5.91-5.298l5.795,5.306L48.032,71.277z M42.464,69.277h4.326
						l1.234-2.491l-3.35-3.066l-3.434,3.074L42.464,69.277z"/>
				</g>
				<g>
					<polygon fill="#FFFFFF" points="45.118,95.782 49.833,81.005 47.462,70.292 45.427,70.292 43.886,70.292 41.849,70.292 
						39.657,80.2 					"/>
					<path fill="#FF712E" d="M45.161,98.933l-6.541-18.67l2.426-10.971h7.219l2.604,11.76L45.161,98.933z M40.696,80.138
						l4.377,12.494L48.8,80.958l-2.141-9.666h-4.008L40.696,80.138z"/>
				</g>
			</g>
		</g>
		<path fill="#FFFFFF" stroke="#FF712E" stroke-width="2" stroke-miterlimit="10" d="M60.018,33.676
			c1.006-7.774-0.373-9.685-0.373-9.685c8.855-4.949,1.816-12.984,1.816-12.984c-6.206,3.656-11.441,1.502-18.496-0.227
			c-5.66-1.385-8.839,4.194-8.839,4.194c-7.7,2.735-6.556,13.383-5.202,19.118L60.018,33.676z"/>
		<polygon fill="#FFFFFF" stroke="#FF712E" stroke-width="2" stroke-miterlimit="10" points="52.251,44.63 36.674,44.63 
			36.674,56.312 44.465,62.149 52.251,56.312 		"/>
		<path fill="#FFFFFF" stroke="#FF712E" stroke-width="2" stroke-miterlimit="10" d="M36.832,35.053
			c0-2.247-1.826-4.075-4.074-4.075c-2.249,0-4.074,1.828-4.074,4.075c0,2.251,1.825,4.075,4.074,4.075
			C35.006,39.128,36.832,37.304,36.832,35.053z"/>
		<path fill="#FFFFFF" stroke="#FF712E" stroke-width="2" stroke-miterlimit="10" d="M60.25,35.053c0-2.247-1.824-4.075-4.074-4.075
			c-2.248,0-4.074,1.828-4.074,4.075c0,2.251,1.826,4.075,4.074,4.075C58.426,39.128,60.25,37.304,60.25,35.053z"/>
		<path fill="#FFFFFF" stroke="#FF712E" stroke-width="2" stroke-miterlimit="10" d="M44.465,51.94L44.465,51.94
			c-6.438,0-11.666-5.219-11.666-11.658V27.427c0,0,6.021-3.604,9.043-3.781c-0.71,5.688,14.283,5.766,14.283,5.766v10.871
			C56.125,46.722,50.908,51.94,44.465,51.94z"/>
		<g>
			<path fill="#FF712E" d="M40.862,33.233c0,0.01,0.001,0.02,0.004,0.028c0.014,0.358,0.31,0.645,0.67,0.645
				c0.371,0,0.672-0.301,0.672-0.673c0-1.225-0.771-2.035-2.121-2.233v-0.739c0-0.056-0.044-0.1-0.1-0.1h-1.146
				c-0.056,0-0.1,0.044-0.1,0.1V31c-1.35,0.198-2.121,1.009-2.121,2.233c0,1.227,0.771,2.037,2.121,2.235v1.855
				c-0.775-0.177-0.775-0.659-0.775-0.871c0-0.016-0.004-0.029-0.01-0.042c-0.051-0.334-0.331-0.582-0.664-0.582
				c-0.331,0-0.609,0.246-0.661,0.578c-0.007,0.014-0.011,0.029-0.011,0.046l0.002,0.037c-0.001,0.006-0.002,0.021-0.002,0.026
				c0,0.012,0.001,0.023,0.004,0.048c0.048,1.162,0.817,1.933,2.117,2.125v0.737c0,0.056,0.044,0.1,0.1,0.1h1.146
				c0.056,0,0.1-0.044,0.1-0.1v-0.737c1.35-0.198,2.121-1.01,2.121-2.236s-0.771-2.037-2.121-2.234v-1.855
				C40.862,32.54,40.862,33.022,40.862,33.233z M40.862,36.453c0,0.212,0,0.694-0.775,0.871v-1.742
				C40.862,35.761,40.862,36.242,40.862,36.453z M37.966,33.233c0-0.211,0-0.693,0.775-0.87v1.741
				C37.966,33.927,37.966,33.444,37.966,33.233z"/>
			<path fill="#FF712E" d="M49.513,34.219v-1.855c0.775,0.177,0.775,0.659,0.775,0.87c0,0.01,0.001,0.02,0.004,0.028
				c0.014,0.358,0.31,0.645,0.67,0.645c0.371,0,0.672-0.301,0.672-0.673c0-1.225-0.771-2.035-2.121-2.233v-0.739
				c0-0.056-0.044-0.1-0.1-0.1h-1.146c-0.056,0-0.1,0.044-0.1,0.1V31c-1.35,0.198-2.121,1.009-2.121,2.233
				c0,1.226,0.771,2.037,2.121,2.235v1.855c-0.775-0.177-0.775-0.659-0.775-0.871c0-0.015-0.003-0.029-0.01-0.042
				c-0.05-0.334-0.33-0.582-0.664-0.582c-0.331,0-0.608,0.245-0.66,0.576c-0.008,0.014-0.012,0.03-0.012,0.048l0.002,0.037
				c-0.001,0.006-0.002,0.021-0.002,0.026c0,0.012,0.001,0.023,0.004,0.048c0.048,1.162,0.817,1.933,2.117,2.125v0.737
				c0,0.056,0.044,0.1,0.1,0.1h1.146c0.056,0,0.1-0.044,0.1-0.1v-0.737c1.35-0.198,2.121-1.01,2.121-2.236
				S50.862,34.416,49.513,34.219z M50.288,36.453c0,0.212,0,0.694-0.775,0.871v-1.742C50.288,35.761,50.288,36.242,50.288,36.453z
				 M47.392,33.233c0-0.211,0-0.693,0.775-0.87v1.741C47.392,33.927,47.392,33.444,47.392,33.233z"/>
		</g>
	</g>
</g>
<g id="OTVR_x5F_hambac">
</g>
<g id="lista">
</g>
<g id="Layer_14">
</g>
<g id="_x33__x5F_ŘADEK_x5F_icon">
</g>
<g id="slunicko" display="none">
</g>
<g id="mesice">
</g>
<g id="kryti">
</g>
</svg>
