<?xml version="1.0" encoding="utf-8"?>
<!-- Generator: Adobe Illustrator 16.0.0, SVG Export Plug-In . SVG Version: 6.00 Build 0)  -->
<!DOCTYPE svg PUBLIC "-//W3C//DTD SVG 1.1//EN" "http://www.w3.org/Graphics/SVG/1.1/DTD/svg11.dtd">
<svg version="1.1" xmlns="http://www.w3.org/2000/svg" xmlns:xlink="http://www.w3.org/1999/xlink" x="0px" y="0px"
	 width="86.666px" height="89.333px" viewBox="0 0 86.666 89.333" enable-background="new 0 0 86.666 89.333" xml:space="preserve">
<g id="podklad" display="none">
</g>
<g id="Layer_9">
</g>
<g id="Layer_1">
</g>
<g id="podklad_1_">
</g>
<g id="OBD_x5F_prvky">
</g>
<g id="Layer_7">
</g>
<g id="texty">
	<g>
		<polyline fill="#FFFFFF" stroke="#FF712E" stroke-width="2" stroke-miterlimit="10" points="36.13,57.589 66.63,24.464 
			81.38,39.214 59.63,60.589 		"/>
		<g>
			
				<rect x="64.422" y="31.678" transform="matrix(-0.7072 0.707 -0.707 -0.7072 138.3505 11.0074)" fill="#FFFFFF" width="4.948" height="4.947"/>
			<path fill="#FF712E" d="M66.896,32.067l2.084,2.084l-2.084,2.085l-2.085-2.085L66.896,32.067 M66.896,29.239l-1.414,1.413
				l-2.085,2.084l-1.415,1.414l1.415,1.415l2.085,2.085l1.414,1.414l1.415-1.414l2.084-2.085l1.413-1.415l-1.414-1.413l-2.084-2.084
				L66.896,29.239L66.896,29.239z"/>
		</g>
		<g>
			
				<rect x="46.736" y="42.47" transform="matrix(-0.7072 0.707 -0.707 -0.7072 132.7434 42.3324)" fill="#FFFFFF" width="21.739" height="12.367"/>
			<path fill="#FF712E" d="M60.921,38.01l7.33,7.331L54.295,59.3l-7.334-7.334L60.921,38.01 M60.921,35.182l-1.414,1.414
				l-13.96,13.955l-1.415,1.415l1.415,1.414l7.334,7.334l1.414,1.415l1.414-1.415l13.956-13.959l1.414-1.414l-1.414-1.414
				l-7.33-7.331L60.921,35.182L60.921,35.182z"/>
		</g>
		<g>
			<path fill="#FFFFFF" stroke="#FF712E" stroke-width="2" stroke-miterlimit="10" d="M64.081,58.874l-18.109-4.971l-5.539,2.238
				l-5.541-2.238l-18.109,4.971C5.14,62.292,5.091,82.265,5.091,82.265l13.057-0.057h22.285h22.285l13.057,0.057
				C75.774,82.265,75.724,62.292,64.081,58.874z"/>
			<path fill="#FFFFFF" stroke="#FF712E" stroke-width="2" stroke-miterlimit="10" d="M54.995,15.601l-0.9,1.371
				c0,0-1.833-6.648-3.924-7.787l-0.454,2.296c0,0-1.306-3.486-4.361-4.552l-1.874,1.76l-3.025-3.668l-3.037,3.668l-1.877-1.76
				c-3.056,1.065-4.344,4.552-4.344,4.552l-0.455-2.296c-2.113,1.139-3.947,7.787-3.947,7.787l-0.893-1.371
				c-1.686,3.281-1.123,18.33-1.123,18.33l6.368,4.205H49.75l6.36-4.205C56.11,33.931,56.679,18.882,54.995,15.601z"/>
			<path fill="#FFFFFF" stroke="#FF712E" stroke-width="2" stroke-miterlimit="10" d="M48.181,44.115H32.686v11.622l1.13,0.859
				c3.924,2.939,9.309,2.939,13.233,0l1.132-0.859V44.115z"/>
			<circle fill="#FFFFFF" stroke="#FF712E" stroke-width="2" stroke-miterlimit="10" cx="28.777" cy="34.583" r="4.056"/>
			<circle fill="#FFFFFF" stroke="#FF712E" stroke-width="2" stroke-miterlimit="10" cx="52.088" cy="34.583" r="4.056"/>
			<path fill="#FFFFFF" stroke="#FF712E" stroke-width="2" stroke-miterlimit="10" d="M40.432,51.392L40.432,51.392
				c-6.408,0-11.604-5.195-11.604-11.604V26.993c0,0,3.279-2.993,11.506-2.993c7.697,0,11.713,2.993,11.713,2.993v12.794
				C52.046,46.196,46.843,51.392,40.432,51.392z"/>
			<g>
				<path fill="#FFFFFF" d="M35.466,35.614c-1.43,0-2.593-1.163-2.593-2.594c0-1.428,1.163-2.59,2.593-2.59
					c1.429,0,2.592,1.162,2.592,2.59C38.058,34.451,36.895,35.614,35.466,35.614z"/>
				<path fill="#FF712E" d="M35.466,31.431c0.879,0,1.592,0.711,1.592,1.59c0,0.881-0.713,1.594-1.592,1.594
					c-0.88,0-1.593-0.713-1.593-1.594C33.873,32.142,34.586,31.431,35.466,31.431 M35.466,29.431c-1.981,0-3.593,1.61-3.593,3.59
					c0,1.981,1.611,3.594,3.593,3.594c1.98,0,3.592-1.612,3.592-3.594C39.058,31.041,37.446,29.431,35.466,29.431L35.466,29.431z"/>
			</g>
			<g>
				<path fill="#FFFFFF" d="M45.323,35.614c-1.429,0-2.592-1.163-2.592-2.594c0-1.428,1.163-2.59,2.592-2.59
					c1.43,0,2.593,1.162,2.593,2.59C47.916,34.451,46.753,35.614,45.323,35.614z"/>
				<path fill="#FF712E" d="M45.323,31.431c0.88,0,1.593,0.711,1.593,1.59c0,0.881-0.713,1.594-1.593,1.594
					c-0.879,0-1.592-0.713-1.592-1.594C43.731,32.142,44.444,31.431,45.323,31.431 M45.323,29.431c-1.98,0-3.592,1.61-3.592,3.59
					c0,1.981,1.611,3.594,3.592,3.594c1.981,0,3.593-1.612,3.593-3.594C48.916,31.041,47.305,29.431,45.323,29.431L45.323,29.431z"
					/>
			</g>
			
				<line fill="#FFFFFF" stroke="#FF712E" stroke-width="2" stroke-miterlimit="10" x1="38.36" y1="32.937" x2="42.341" y2="32.937"/>
			
				<line fill="#FFFFFF" stroke="#FF712E" stroke-width="2" stroke-miterlimit="10" x1="48.474" y1="32.052" x2="53.251" y2="30.224"/>
			
				<line fill="#FFFFFF" stroke="#FF712E" stroke-width="2" stroke-miterlimit="10" x1="32.845" y1="32.052" x2="28.067" y2="30.224"/>
			<line fill="none" stroke="#FF712E" stroke-width="2" stroke-miterlimit="10" x1="40.847" y1="58.679" x2="40.847" y2="82.429"/>
		</g>
		
			<line fill="#FFFFFF" stroke="#FF712E" stroke-width="2" stroke-miterlimit="10" x1="48.488" y1="54.523" x2="63.584" y2="40.155"/>
		
			<line fill="#FFFFFF" stroke="#FF712E" stroke-width="2" stroke-miterlimit="10" x1="52.505" y1="55.714" x2="66.404" y2="42.729"/>
		<path fill="#FFFFFF" stroke="#FF712E" stroke-width="2" stroke-miterlimit="10" d="M57.019,40.768
			c0.005,0.188,9.452,8.852,9.452,8.852"/>
		<path fill="#FFFFFF" stroke="#FF712E" stroke-width="2" stroke-miterlimit="10" d="M52.731,44.148
			c0.011,0.187,9.672,8.61,9.672,8.61"/>
		<path fill="#FFFFFF" stroke="#FF712E" stroke-width="2" stroke-miterlimit="10" d="M49.696,48.009
			c0.006,0.188,9.492,8.807,9.492,8.807"/>
	</g>
</g>
<g id="OTVR_x5F_hambac">
</g>
<g id="lista">
</g>
<g id="Layer_14">
</g>
<g id="_x33__x5F_ŘADEK_x5F_icon">
</g>
<g id="slunicko" display="none">
</g>
<g id="mesice">
</g>
<g id="kryti">
</g>
</svg>
