<?xml version="1.0" encoding="utf-8"?>
<!-- Generator: Adobe Illustrator 16.0.0, SVG Export Plug-In . SVG Version: 6.00 Build 0)  -->
<!DOCTYPE svg PUBLIC "-//W3C//DTD SVG 1.1//EN" "http://www.w3.org/Graphics/SVG/1.1/DTD/svg11.dtd">
<svg version="1.1" xmlns="http://www.w3.org/2000/svg" xmlns:xlink="http://www.w3.org/1999/xlink" x="0px" y="0px" width="80px"
	 height="87.334px" viewBox="0 0 80 87.334" enable-background="new 0 0 80 87.334" xml:space="preserve">
<g id="podklad" display="none">
</g>
<g id="Layer_9">
</g>
<g id="Layer_1">
</g>
<g id="podklad_1_">
</g>
<g id="OBD_x5F_prvky">
</g>
<g id="Layer_7">
</g>
<g id="texty">
	<g>
		<g>
			<path fill="#FF712E" d="M36.584,30.962c1.935,0,1.935-3,0-3S34.65,30.962,36.584,30.962L36.584,30.962z"/>
		</g>
	</g>
	<g>
		<g>
			<path fill="#FF712E" d="M36.834,30.962c1.935,0,1.935-3,0-3S34.9,30.962,36.834,30.962L36.834,30.962z"/>
		</g>
	</g>
	<g>
		<g>
			<path fill="#FF712E" d="M44.084,31.462c1.935,0,1.935-3,0-3S42.15,31.462,44.084,31.462L44.084,31.462z"/>
		</g>
	</g>
</g>
<g id="OTVR_x5F_hambac">
</g>
<g id="lista">
</g>
<g id="Layer_14">
</g>
<g id="_x33__x5F_ŘADEK_x5F_icon">
</g>
<g id="slunicko" display="none">
</g>
<g id="mesice">
</g>
<g id="kryti">
	<path fill="#FFFFFF" stroke="#FF712E" stroke-width="2" stroke-miterlimit="10" d="M64.271,58.122l-18.109-4.971l-5.539,2.238
		l-5.541-2.238l-18.109,4.971C5.33,61.54,5.281,81.513,5.281,81.513l13.057-0.057h22.285h22.285l13.057,0.057
		C75.964,81.513,75.914,61.54,64.271,58.122z"/>
	<g>
		<path fill="#FFFFFF" stroke="#FF712E" stroke-width="2" stroke-miterlimit="10" d="M41.506,7.04h-1.194
			c-8.492,0-15.44,6.822-15.544,15.318c0,0.105,0,0.213,0,0.32v9.348h32.281v-9.348c0-0.076,0-0.15,0-0.227
			C57.006,13.919,50.041,7.04,41.506,7.04z"/>
		<path fill="#FFFFFF" stroke="#FF712E" stroke-width="2" stroke-miterlimit="10" d="M49.003,41.798H32.91v12.074l0.103,0.078
			c4.711,3.531,11.178,3.531,15.888,0l0.104-0.078V41.798z"/>
		<circle fill="#FFFFFF" stroke="#FF712E" stroke-width="2" stroke-miterlimit="10" cx="28.851" cy="31.899" r="4.212"/>
		<circle fill="#FFFFFF" stroke="#FF712E" stroke-width="2" stroke-miterlimit="10" cx="53.06" cy="31.899" r="4.212"/>
	</g>
	<path fill="#FFFFFF" stroke="#FF712E" stroke-width="2" stroke-miterlimit="10" d="M50.264,22.534l0.583,2.768
		c-1.716-0.859-4.127-2.904-4.127-2.904l0.783,2.547c-2.584-0.629-6.17-2.777-6.17-2.777l0.404,2.178
		c-2.754-0.803-7.627-5.043-7.627-5.043c-1.545,2.578-5.208,6.332-5.208,6.332v11.67c0,6.658,5.396,12.057,12.053,12.057l0,0
		c6.657,0,12.054-5.398,12.054-12.057v-8.373v-1.205v-3.707L50.264,22.534z"/>
	<path fill="#FFFFFF" stroke="#FF712E" stroke-width="1.5" stroke-miterlimit="10" d="M53.585,27.417l-1.793-3.959
		c-0.137,4.365-0.283,14.543-0.283,14.543s-0.48,2.482-1.775,4.143c-0.963-2.225-2.111-4.365-3.029-4.555h-5.223H40.83h-5.225
		c-0.996,0.205-2.266,2.699-3.27,5.109c-1.664-1.582-2.281-4.697-2.281-4.697s-0.137-9.053-0.275-13.418l-1.508,1.291v11.189
		c0,3.121,1.156,5.971,3.063,8.146c0,0,3.609,4.234,9.316,4.234h0.557c3.646,0,6.914-1.594,9.178-4.109l0.018,0.012
		c0.096-0.105,0.182-0.219,0.266-0.326c0.053-0.057,0.105-0.109,0.156-0.166c0,0,0-0.01-0.01-0.014
		c1.725-2.125,2.771-4.824,2.771-7.777V27.417z"/>
	<path fill="#FFFFFF" stroke="#FF712E" stroke-width="1.5" stroke-miterlimit="10" d="M47.381,44.47
		c-0.249,0.396-1.518,1.037-1.518,1.037s-2.66-1.037-4.95-1.037c-2.291,0-4.95,1.033-4.95,1.033s-1.27-0.639-1.511-1.033
		c-0.393-0.621,0.336-2.217,0.997-3.436c0.523-0.947,1.509-1.539,2.591-1.543c0.805-0.004,1.74-0.008,2.435-0.008v-0.002
		c0,0,0.173,0,0.446,0c0.266,0,0.438,0,0.438,0v0.002c0.695,0,1.629,0.004,2.437,0.008c1.082,0.004,2.067,0.596,2.59,1.543
		C47.047,42.253,47.776,43.849,47.381,44.47z"/>
	<path fill="none" stroke="#FF712E" stroke-width="1.5" stroke-linecap="round" stroke-miterlimit="10" d="M38.473,41.788
		c0,1.004,4.931,0.883,4.931,0"/>
	
		<ellipse fill="#FF712E" stroke="#FF712E" stroke-width="1.5" stroke-linecap="round" stroke-miterlimit="10" cx="41.503" cy="62.062" rx="0.49" ry="0.509"/>
	
		<ellipse fill="#FF712E" stroke="#FF712E" stroke-width="1.5" stroke-linecap="round" stroke-miterlimit="10" cx="41.503" cy="66.535" rx="0.49" ry="0.511"/>
	<g>
		<path fill="#FF712E" stroke="#FF712E" stroke-width="0.8" stroke-miterlimit="10" d="M27.503,27.917l0.918-0.406l-3.927-8.794
			l-4.532-4.222l0.098,6.241l0.02,0.087c0,0,0.544,1.275,0.826,1.911l3.004,6.767l0.937-0.412l-0.02-0.043l0.797-0.352l0.013,0.031
			l0.849-0.375l-0.013-0.026l1.015-0.444L27.503,27.917z"/>
		<g>
			<polygon fill="#FFFFFF" points="24.305,29.281 27.871,27.719 24.304,19.267 21.053,15.964 20.772,15.995 20.509,16.794 
				20.78,21.168 			"/>
			<path fill-rule="evenodd" clip-rule="evenodd" fill="#FF712E" stroke="#FF712E" stroke-width="0.5" stroke-miterlimit="10" d="
				M24.02,19.456c-0.243,0.109-1.222,0.539-1.444,0.634c1.2,2.706,2.402,5.413,3.612,8.142c-0.149,0.068-0.273,0.124-0.418,0.187
				c-1.199-2.703-2.395-5.401-3.614-8.146c-0.286,0.127-0.989,0.461-1.219,0.563c1.199,2.701,2.4,5.405,3.611,8.136
				c-0.176,0.076-0.32,0.143-0.504,0.225c-0.053-0.123-0.107-0.247-0.162-0.371c-0.917-2.06-1.834-4.121-2.747-6.182
				c-0.282-0.635-0.826-1.91-0.826-1.91l-0.09-5.688l4.075,3.772l3.662,8.191c0,0,0.111,0.248,0.17,0.383
				c-0.172,0.076-0.312,0.139-0.49,0.219C26.437,24.903,25.235,22.195,24.02,19.456z M23.511,18.837
				c-0.406-0.371-1.116-1.015-1.116-1.015s-1.614,0.635-1.579,0.65c0.035,0.014-0.004,1.01-0.002,1.563
				C21.731,19.626,22.6,19.243,23.511,18.837z M20.783,17.683c0.349-0.154,0.652-0.29,0.993-0.439
				c-0.343-0.308-0.65-0.582-0.982-0.879C20.792,16.804,20.787,17.216,20.783,17.683z"/>
		</g>
	</g>
	<g>
		<path fill="#FF712E" d="M28.268,35.052c-1.493-0.276-2.629-1.582-2.629-3.152c0-1.561,1.121-2.86,2.6-3.146
			c0.016-0.668,0.026-1.336,0.033-2.004c-2.599,0.293-4.633,2.477-4.633,5.15c0,2.594,1.911,4.732,4.396,5.129
			C28.059,36.36,28.142,35.701,28.268,35.052z"/>
	</g>
	<polyline fill="none" stroke="#FF712E" stroke-width="2" stroke-miterlimit="10" points="62.209,80.712 62.209,71.212 
		50.334,71.212 50.334,81.087 	"/>
</g>
</svg>
