<?xml version="1.0" encoding="utf-8"?>
<!-- Generator: Adobe Illustrator 16.0.0, SVG Export Plug-In . SVG Version: 6.00 Build 0)  -->
<!DOCTYPE svg PUBLIC "-//W3C//DTD SVG 1.1//EN" "http://www.w3.org/Graphics/SVG/1.1/DTD/svg11.dtd">
<svg version="1.1" xmlns="http://www.w3.org/2000/svg" xmlns:xlink="http://www.w3.org/1999/xlink" x="0px" y="0px"
	 width="80.666px" height="87.333px" viewBox="0 0 80.666 87.333" enable-background="new 0 0 80.666 87.333" xml:space="preserve">
<g id="podklad" display="none">
</g>
<g id="Layer_9">
</g>
<g id="Layer_1">
</g>
<g id="podklad_1_">
</g>
<g id="OBD_x5F_prvky">
</g>
<g id="Layer_7">
</g>
<g id="texty">
	<g>
		<path fill="#FFFFFF" stroke="#FF712E" stroke-width="2" stroke-miterlimit="10" d="M63.362,56.905l-18.108-4.971l-5.54,2.238
			l-5.541-2.238l-18.109,4.971C4.422,60.323,4.372,80.296,4.372,80.296l13.057-0.057h22.285h22.285l13.057,0.057
			C75.056,80.296,75.005,60.323,63.362,56.905z"/>
		<g>
			<defs>
				<path id="SVGID_243_" d="M63.362,56.905l-18.108-4.971l-5.54,2.238l-5.541-2.238l-18.109,4.971
					C4.422,60.323,4.372,80.296,4.372,80.296l13.057-1.023h22.285h22.285l13.057,1.023C75.056,80.296,75.005,60.323,63.362,56.905z"
					/>
			</defs>
			<clipPath id="SVGID_1_">
				<use xlink:href="#SVGID_243_"  overflow="visible"/>
			</clipPath>
			<g clip-path="url(#SVGID_1_)">
				<g>
					<polygon fill="#FFFFFF" points="51.889,54.783 47.676,66.69 39.885,59.589 32.098,66.69 27.852,54.698 31.814,53.61 
						32.033,53.679 39.885,59.56 47.742,53.679 47.809,53.653 					"/>
					<path fill="#FF712E" d="M31.658,68.444l-5.107-14.426l5.283-1.45l0.662,0.207l7.344,5.501l0.045-0.041l0.045,0.041l7.451-5.529
						l0.309-0.119l0.385,0.062l5.115,1.416l-5.074,14.339l-8.23-7.502L31.658,68.444z M41.436,59.648l5.799,5.288l3.354-9.475
						l-2.596-0.721L41.436,59.648z M29.154,55.378l3.383,9.559l5.799-5.288l-6.637-4.97L29.154,55.378z"/>
				</g>
				<g>
					<g>
						<polygon fill="#FFFFFF" points="39.904,59.572 39.885,59.589 32.098,66.69 27.852,54.698 31.814,53.61 32.033,53.679 
							39.885,59.56 						"/>
						<path fill="#FF712E" d="M31.658,68.444l-5.107-14.426l5.283-1.45l0.662,0.207l8.965,6.716l-0.891,0.826L31.658,68.444z
							 M29.154,55.378l3.383,9.559l5.801-5.289l-6.639-4.969L29.154,55.378z"/>
					</g>
					<g>
						<polygon fill="#FFFFFF" points="51.889,54.783 47.676,66.69 39.885,59.589 39.869,59.572 39.885,59.56 47.742,53.679 
							47.809,53.653 						"/>
						<path fill="#FF712E" d="M48.115,68.444l-9.762-8.899l0.887-0.749l8.141-6.049l0.309-0.119l0.385,0.062l5.115,1.416
							L48.115,68.444z M41.434,59.649l5.801,5.287l3.354-9.475l-2.596-0.721L41.434,59.649z"/>
					</g>
				</g>
			</g>
		</g>
		<polygon fill="#FFFFFF" stroke="#FF712E" stroke-width="2" stroke-miterlimit="10" points="47.355,41.888 31.639,41.888 
			31.639,53.679 39.49,59.568 47.355,53.679 		"/>
		<path fill="#FFFFFF" stroke="#FF712E" stroke-width="2" stroke-miterlimit="10" d="M51.44,22.854
			c0-8.458-5.291-12.316-11.822-12.316c-6.525,0-11.816,3.858-11.816,12.316v1.701l-0.075,12.941
			c0,6.504,5.268,11.771,11.764,11.771c6.5,0,11.775-5.268,11.775-11.771v-4.145L51.44,22.854z"/>
		<g>
			<path fill="#FFFFFF" d="M39.333,35.052c-2.756,0-4.998-2.245-4.998-5.004c0-2.753,2.242-4.992,4.998-4.992
				c2.757,0,5,2.239,5,4.992C44.333,32.807,42.09,35.052,39.333,35.052z"/>
			<path fill="#FF712E" d="M39.333,26.056c2.211,0,4,1.785,4,3.992c0,2.214-1.789,4.004-4,4.004c-2.207,0-3.998-1.79-3.998-4.004
				C35.335,27.841,37.126,26.056,39.333,26.056 M39.333,24.056c-3.308,0-5.998,2.688-5.998,5.992c0,3.311,2.69,6.004,5.998,6.004
				c3.309,0,6-2.693,6-6.004C45.333,26.743,42.642,24.056,39.333,24.056L39.333,24.056z"/>
		</g>
		<g>
			<path fill="#FF712E" d="M51.409,36.107h-1.174c0-0.163,0.061-0.273,0.084-0.302c-0.554,0.678-5.254,2.225-10.923,2.232h-0.041
				c-5.639,0-10.274-1.536-10.81-2.214c0.021,0.026,0.076,0.13,0.076,0.283h-0.604c-0.05,0.341-0.084,0.686-0.138,1.025
				c-0.032,0.201-0.059,0.403-0.087,0.604c2.095,1.272,7.094,2.301,11.567,2.301h0.038c3.714-0.005,9.775-0.864,11.989-2.563
				C51.394,37.021,51.4,36.563,51.409,36.107z"/>
		</g>
		<circle fill="none" stroke="#FF712E" stroke-width="2" stroke-miterlimit="10" cx="44.88" cy="22.433" r="0.563"/>
		<circle fill="#FFFFFF" stroke="#FF712E" stroke-width="2" stroke-miterlimit="10" cx="27.349" cy="7.214" r="1.906"/>
		<g>
			<circle fill="#FFFFFF" cx="39.333" cy="30.189" r="2.311"/>
			<path fill="#FF712E" d="M39.333,28.879c0.725,0,1.313,0.586,1.313,1.31c0,0.725-0.588,1.312-1.313,1.312
				c-0.723,0-1.311-0.587-1.311-1.312C38.022,29.465,38.61,28.879,39.333,28.879 M39.333,26.879c-1.825,0-3.311,1.485-3.311,3.31
				c0,1.826,1.485,3.312,3.311,3.312c1.826,0,3.313-1.485,3.313-3.312C42.646,28.364,41.159,26.879,39.333,26.879L39.333,26.879z"/>
		</g>
		<line fill="none" stroke="#FF712E" stroke-width="2" stroke-miterlimit="10" x1="27.349" y1="23.12" x2="27.349" y2="8.933"/>
		<path fill="#FFFFFF" stroke="#FF712E" stroke-width="2" stroke-miterlimit="10" d="M23.849,29.12c0,1.225,0.993,1.313,2.219,1.313
			l0,0c1.226,0,1.656-0.089,1.656-1.313v-3.873c0-1.225-0.431-1.314-1.656-1.314l0,0c-1.226,0-2.219,0.09-2.219,1.314V29.12z"/>
	</g>
</g>
<g id="OTVR_x5F_hambac">
</g>
<g id="lista">
</g>
<g id="Layer_14">
</g>
<g id="_x33__x5F_ŘADEK_x5F_icon">
</g>
<g id="slunicko" display="none">
</g>
<g id="mesice">
</g>
<g id="kryti">
</g>
</svg>
