<?xml version="1.0" encoding="utf-8"?>
<!-- Generator: Adobe Illustrator 16.0.0, SVG Export Plug-In . SVG Version: 6.00 Build 0)  -->
<!DOCTYPE svg PUBLIC "-//W3C//DTD SVG 1.1//EN" "http://www.w3.org/Graphics/SVG/1.1/DTD/svg11.dtd">
<svg version="1.1" xmlns="http://www.w3.org/2000/svg" xmlns:xlink="http://www.w3.org/1999/xlink" x="0px" y="0px"
	 width="164.667px" height="144px" viewBox="0 0 164.667 144" enable-background="new 0 0 164.667 144" xml:space="preserve">
<g id="podklad" display="none">
</g>
<g id="Layer_9">
</g>
<g id="Layer_1">
</g>
<g id="podklad_1_">
</g>
<g id="OBD_x5F_prvky">
</g>
<g id="Layer_7">
</g>
<g id="texty">
</g>
<g id="OTVR_x5F_hambac">
</g>
<g id="lista">
</g>
<g id="Layer_14">
</g>
<g id="_x33__x5F_ŘADEK_x5F_icon">
</g>
<g id="slunicko" display="none">
</g>
<g id="mesice">
</g>
<g id="kryti">
	<g>
		<g>
			<g>
				<g>
					<path fill-rule="evenodd" clip-rule="evenodd" fill="#FFFFFF" d="M77.488,123.008c-1.73,0-3.624-0.455-5.331-1.281
						c-1.605-0.777-2.652-2.291-2.799-4.051c-0.142-1.702,0.604-3.308,1.994-4.295c1.836-1.304,2.199-3.055,2.251-6.035
						c0.012-0.631,0.104-1.25,0.188-1.795c0.034-0.228,0.078-0.521,0.105-0.771c-0.238-0.066-0.518-0.133-0.735-0.184
						c-0.497-0.117-1.061-0.25-1.6-0.444c-0.084-0.03-0.169-0.062-0.254-0.093c-0.149,1.949-1.326,3.205-3.518,3.745
						c-0.375,0.093-0.774,0.14-1.185,0.14c-2.525,0-5.296-1.787-6.177-3.984c-0.564-1.407-0.602-2.672-0.111-3.76
						c0.32-0.712,0.796-1.214,1.312-1.584c-0.761-0.668-1.509-1.318-2.265-1.957c-0.706,0.491-1.408,1.002-2.141,1.535
						c-0.744,0.543-1.489,1.084-2.244,1.609c-1.328,0.922-1.5,1.778-1.501,2.422c-0.005,3.086-2.275,5.503-5.17,5.504
						c-1.401,0-2.798-0.568-4.037-1.644c-1.353-1.173-2.483-2.731-3.186-4.39c-0.732-1.732-0.599-3.628,0.357-5.07
						c0.919-1.387,2.439-2.182,4.172-2.182c0.254,0,0.515,0.019,0.773,0.053c0.278,0.038,0.549,0.057,0.806,0.057
						c1.441,0,2.666-0.596,4.093-1.994c0.551-0.541,1.183-1.008,1.74-1.422c0.39-0.289,0.94-0.697,1.218-0.979
						c-0.158-0.372-0.517-0.967-0.749-1.354c-0.23-0.383-0.466-0.775-0.683-1.184c-0.806,0.611-1.743,0.945-2.716,0.945
						c-1.594,0-3.06-0.918-3.922-2.453c-0.721-1.281-1.175-2.795-1.275-4.26c-0.099-1.426,0.32-2.718,1.179-3.637
						c0.805-0.863,1.932-1.337,3.174-1.337c0.223,0,0.447,0.015,0.673,0.045c-0.058-0.956-0.118-1.894-0.188-2.819
						c-0.181-0.036-0.361-0.072-0.541-0.107c-1.754-0.348-3.41-0.678-5.016-0.719H44.18c-0.926,0-2.325,0.745-2.786,0.99
						c-0.157,0.084-0.308,0.171-0.458,0.258c-0.769,0.441-1.822,1.049-3.173,1.049c-0.703,0-1.396-0.166-2.061-0.492
						c-2.17-1.064-3.367-3.252-3.125-5.708c0.163-1.655,0.445-3.582,1.299-5.319c0.82-1.672,2.557-2.752,4.426-2.752
						c1.552,0,2.942,0.719,3.813,1.973c1.328,1.91,3.071,2.257,6.478,2.311c0.545,0.009,1.077,0.076,1.547,0.137
						c0.219,0.027,0.431,0.055,0.621,0.072c0.035-0.143,0.067-0.291,0.095-0.414c0.105-0.471,0.224-1.005,0.409-1.521
						c0.056-0.158,0.112-0.314,0.17-0.473c-1.265-0.105-2.347-0.651-3.081-1.563c-0.866-1.074-1.151-2.55-0.803-4.156
						c0.279-1.283,0.891-2.565,1.724-3.611c1.09-1.361,2.469-2.109,3.889-2.109c1.419,0,2.688,0.724,3.592,1.996
						c0.706-0.797,1.393-1.58,2.06-2.364c-0.617-0.896-1.262-1.792-1.891-2.665c-0.493-0.684-0.985-1.367-1.47-2.058
						c-0.902-1.284-1.747-1.435-2.303-1.435c-2.299-0.002-4.265-1.207-5.127-3.146c-0.897-2.015-0.432-4.33,1.244-6.192
						c1.185-1.313,2.686-2.397,4.229-3.058c0.761-0.326,1.544-0.491,2.326-0.491c1.469,0,2.845,0.609,3.776,1.672
						c0.975,1.112,1.396,2.603,1.185,4.194c-0.238,1.794,0.29,3.127,1.884,4.752c0.649,0.662,1.246,1.345,1.822,2.005
						c0.356,0.407,0.699,0.8,1.045,1.178c0.869-0.423,1.746-0.864,2.642-1.321c-0.826-0.952-1.246-2.09-1.179-3.262
						c0.093-1.604,1.086-3.029,2.727-3.916c0.918-0.493,1.924-0.949,3.074-0.949c0.069,0,0.139,0.002,0.207,0.006
						c1.316,0.068,2.98,0.276,4.233,1.286c1.519,1.224,1.581,2.777,1.291,4.021c0.846-0.055,1.675-0.111,2.493-0.18
						c0.348-1.908,0.652-3.855,0.947-5.746l0.105-0.675c0.085-0.548,0.063-1.243-0.755-2.212c-1.737-2.063-2.125-4.116-1.156-6.104
						c0.968-1.976,2.881-3.153,5.12-3.153c0.19,0,0.383,0.009,0.576,0.026c1.727,0.153,3.554,0.407,5.211,1.228
						c1.626,0.804,2.687,2.328,2.837,4.076c0.146,1.702-0.612,3.334-2.027,4.365c-1.57,1.142-2.166,2.606-2.199,5.404
						c-0.01,0.807-0.062,1.592-0.111,2.352c-0.032,0.488-0.063,0.96-0.083,1.42c0.797,0.267,1.611,0.525,2.448,0.787
						c0.029-1.074,0.368-2.041,0.996-2.802c0.816-0.987,2.037-1.53,3.438-1.53c0.355,0,0.725,0.035,1.099,0.104
						c1.573,0.291,2.726,0.824,3.519,1.635c1.524,1.557,2.251,3.074,2.159,4.511c-0.093,1.469-1.114,2.377-2.059,3.042
						c0.827,0.717,1.636,1.412,2.448,2.092c0.84-0.59,1.679-1.196,2.496-1.788c0.807-0.583,1.614-1.167,2.43-1.741
						c0.837-0.589,1.249-1.359,1.421-2.662c0.405-3.095,2.477-5.174,5.151-5.174c1.428,0,2.838,0.604,4.077,1.746
						c1.338,1.232,2.48,2.98,3.221,4.921c0.592,1.551,0.396,3.274-0.523,4.608c-0.854,1.238-2.184,1.949-3.649,1.949
						c-0.246,0-0.496-0.021-0.742-0.063c-0.331-0.055-0.653-0.083-0.96-0.083c-2.057,0-3.503,1.227-5.692,3.227
						c-0.23,0.21-0.46,0.421-0.692,0.628c-0.392,0.353-0.816,0.734-1.097,1.01c0.155,0.336,0.396,0.803,0.617,1.232l0.047,0.09
						c0.256,0.496,0.498,0.996,0.73,1.498c0.647-0.589,1.514-1.066,2.68-1.066c0.896,0,1.791,0.291,2.737,0.889
						c2.559,1.617,3.371,5.767,2.339,8.125c-0.738,1.694-2.214,2.709-3.946,2.709c-0.318,0-0.645-0.035-0.974-0.103
						c0.056,0.749,0.113,1.484,0.177,2.211c0.911,0.163,1.828,0.315,2.723,0.466c0.976,0.162,1.95,0.325,2.924,0.5
						c0.282,0.051,0.555,0.076,0.805,0.076c0.756,0,1.359-0.232,1.957-0.754c0.477-0.418,1.93-1.688,3.926-1.688
						c0.761,0,1.511,0.182,2.23,0.539c2.145,1.063,3.308,3.186,3.107,5.673c-0.109,1.377-0.358,3.417-1.247,5.228
						c-0.865,1.767-2.582,2.865-4.481,2.865c-1.523,0-2.918-0.719-3.826-1.97c-1.215-1.669-2.79-2.273-6.021-2.308
						c-1.009-0.01-1.997-0.068-2.959-0.132c-0.296,0.911-0.589,1.813-0.886,2.729c1.259,0.085,2.347,0.61,3.093,1.503
						c0.853,1.02,1.17,2.428,0.894,3.964c-0.283,1.555-0.829,2.769-1.624,3.612c-0.768,0.815-2.33,2.188-4.148,2.188
						c-0.149,0-0.297-0.01-0.441-0.027c-1.339-0.172-2.2-1.07-2.838-1.927l-1.948,2.362c0.106,0.148,0.212,0.298,0.318,0.447
						c1.134,1.598,2.307,3.251,3.594,4.676c0.267,0.296,1.129,0.669,1.944,0.736c2.271,0.186,4.148,1.525,4.899,3.494
						c0.747,1.959,0.258,4.111-1.307,5.758c-1.332,1.397-3.104,2.567-4.991,3.295c-0.579,0.224-1.187,0.338-1.804,0.338
						c-1.455,0-2.815-0.627-3.73-1.723c-0.866-1.036-1.225-2.396-0.983-3.735c0.434-2.409-0.766-3.874-2.925-6.255l-0.409-0.453
						c-0.409-0.453-0.857-0.951-1.159-1.246c-0.378,0.166-0.956,0.463-1.483,0.734c-0.433,0.223-0.862,0.434-1.293,0.64
						c0.731,0.891,1.112,1.931,1.074,2.999c-0.056,1.552-0.989,2.97-2.563,3.891c-1.149,0.67-2.44,1.086-3.64,1.177
						c-0.212,0.016-0.416,0.023-0.61,0.023c-2.493,0-3.665-1.242-4.142-1.982c-0.449-0.696-0.837-1.765-0.581-3.237
						c-0.91,0.061-1.802,0.123-2.685,0.195c-0.032,0.163-0.064,0.326-0.097,0.488c-0.369,1.855-0.719,3.607-0.771,5.316
						c-0.021,0.65,0.347,1.658,0.936,2.568c1.402,2.168,1.677,4.343,0.771,6.123c-0.499,0.98-1.81,2.65-4.982,2.825
						C77.831,123.004,77.66,123.008,77.488,123.008z"/>
				</g>
			</g>
			<g>
				<g>
					<path fill="#FF6427" d="M85.286,26.619c0.118,0,0.236,0.005,0.357,0.016c1.467,0.129,3.033,0.34,4.326,0.979
						c1.734,0.856,1.999,3.071,0.448,4.2c-2.608,1.898-3.187,4.459-3.222,7.387c-0.018,1.566-0.217,3.132-0.213,4.699
						c0.001,0.389,0.395,1.006,0.743,1.129c2.237,0.779,4.515,1.449,7.114,2.262c-0.12-0.939-0.188-1.807-0.35-2.656
						c-0.311-1.627,0.427-2.691,1.88-2.691c0.202,0,0.417,0.021,0.646,0.063c0.775,0.144,1.678,0.401,2.194,0.93
						c0.698,0.712,1.509,1.761,1.454,2.612c-0.042,0.675-1.283,1.315-2.055,1.884c-0.498,0.369-1.114,0.582-1.777,0.915
						c2.136,1.847,4.099,3.587,6.128,5.244c0.07,0.058,0.187,0.083,0.323,0.083c0.303,0,0.704-0.121,0.928-0.275
						c1.918-1.316,3.778-2.715,5.682-4.054c1.527-1.073,2.215-2.548,2.455-4.372c0.252-1.917,1.346-3.012,2.687-3.012
						c0.755,0,1.587,0.346,2.393,1.088c1.134,1.046,2.027,2.525,2.582,3.979c0.583,1.53-0.382,3.184-1.851,3.184
						c-0.108,0-0.22-0.008-0.334-0.027c-0.477-0.08-0.932-0.117-1.367-0.117c-3.455,0-5.66,2.348-8.047,4.493
						c-2.572,2.31-2.547,2.285-0.98,5.32c0.812,1.572,1.482,3.22,2.229,4.864c1.454-0.533,1.786-3.084,3.391-3.084
						c0.386,0,0.844,0.146,1.409,0.504c1.354,0.855,2.017,3.59,1.389,5.024c-0.361,0.829-0.944,1.219-1.668,1.219
						c-0.272,0-0.564-0.056-0.872-0.163c-0.896-0.312-1.756-0.729-2.859-1.195c0.197,2.751,0.348,5.202,0.595,7.641
						c0.023,0.235,0.62,0.527,0.987,0.596c2.181,0.408,4.376,0.739,6.559,1.131c0.427,0.076,0.841,0.115,1.245,0.115
						c1.313,0,2.506-0.418,3.593-1.368c0.683-0.597,1.439-1.073,2.29-1.073c0.357,0,0.731,0.084,1.124,0.279
						c1.322,0.656,1.842,1.921,1.735,3.248c-0.117,1.469-0.363,3.029-1.001,4.331c-0.469,0.956-1.365,1.473-2.25,1.473
						c-0.678,0-1.349-0.304-1.813-0.944c-2.059-2.831-4.878-3.299-8.007-3.332c-1.608-0.017-3.215-0.166-4.753-0.252
						c-0.896,2.756-1.74,5.355-2.677,8.242c0.908-0.128,1.681-0.199,2.436-0.352c0.269-0.055,0.522-0.08,0.759-0.08
						c1.41,0,2.192,0.943,1.902,2.551c-0.15,0.826-0.438,1.766-0.985,2.347c-0.608,0.646-1.585,1.407-2.339,1.407
						c-0.044,0-0.088-0.004-0.13-0.009c-0.721-0.093-1.345-1.265-1.924-2.028c-0.364-0.481-0.567-1.084-0.896-1.74
						c-1.862,2.26-3.569,4.331-5.417,6.57c1.682,2.276,3.267,4.744,5.206,6.893c0.804,0.891,2.335,1.443,3.587,1.547
						c2.736,0.225,3.946,3.006,1.994,5.059c-1.103,1.156-2.589,2.112-4.085,2.689c-0.303,0.117-0.61,0.172-0.908,0.172
						c-1.354,0-2.521-1.114-2.267-2.53c0.711-3.945-1.642-6.271-3.895-8.771c-1.396-1.549-1.999-2.226-2.835-2.226
						c-0.652,0-1.447,0.411-2.871,1.144c-1.437,0.738-2.924,1.38-4.715,2.221c0.719,0.568,1.287,1.072,1.909,1.498
						c1.7,1.166,1.729,2.812-0.055,3.855c-0.766,0.445-1.693,0.777-2.57,0.844c-0.147,0.01-0.288,0.016-0.424,0.016
						c-2.147,0-2.857-1.359-1.887-3.495c0.277-0.611,0.456-1.266,0.699-1.958c-2.686,0.178-5.153,0.312-7.613,0.543
						c-0.32,0.029-0.787,0.543-0.854,0.895c-0.448,2.393-1.032,4.795-1.106,7.207c-0.041,1.327,0.586,2.839,1.332,3.994
						c1.732,2.678,0.921,4.94-2.259,5.115c-0.125,0.007-0.251,0.01-0.378,0.01c-1.429,0-2.968-0.414-4.247-1.033
						c-1.656-0.802-1.92-3.034-0.448-4.079c2.878-2.044,3.243-4.913,3.297-8.021c0.026-1.404,0.666-3.145,0.052-4.114
						c-0.578-0.91-2.444-0.997-3.736-1.463c-1.257-0.454-2.504-0.931-3.784-1.405c-0.685,1.697,1.758,4.197-1.427,4.982
						c-0.186,0.047-0.384,0.068-0.589,0.068c-1.477,0-3.345-1.118-3.868-2.423c-1.275-3.183,2.236-2.573,3.251-3.889
						c-2.004-1.759-3.919-3.489-5.909-5.13c-0.112-0.093-0.313-0.135-0.532-0.135c-0.301,0-0.638,0.078-0.833,0.209
						c-1.752,1.175-3.423,2.467-5.154,3.672c-1.574,1.092-2.564,2.54-2.568,4.457c-0.002,1.693-1.147,3.021-2.683,3.021
						c-0.74,0-1.571-0.309-2.408-1.034c-1.062-0.921-1.977-2.187-2.523-3.479c-0.829-1.959,0.294-3.795,2.238-3.795
						c0.143,0,0.289,0.009,0.439,0.029c0.394,0.054,0.773,0.08,1.14,0.08c2.339,0,4.147-1.053,5.834-2.705
						c1.273-1.25,3.409-2.23,3.735-3.657c0.308-1.342-1.267-3.104-1.986-4.692c-0.399-0.881-0.744-1.786-1.285-3.096
						c-0.614,0.822-1.081,1.409-1.505,2.025c-0.526,0.766-1.219,1.162-1.891,1.162c-0.661,0-1.305-0.385-1.752-1.182
						c-0.537-0.955-0.888-2.118-0.963-3.213c-0.101-1.463,0.701-2.316,1.871-2.316c0.388,0,0.814,0.094,1.264,0.289
						c0.668,0.293,1.343,0.568,2.111,0.896c-0.168-2.797-0.29-5.362-0.517-7.918c-0.028-0.301-0.603-0.724-0.979-0.794
						c-2.287-0.425-4.583-0.988-6.888-1.048c-0.033,0-0.066,0-0.1,0c-1.309,0-2.715,0.641-3.919,1.28
						c-0.834,0.442-1.588,1.017-2.463,1.017c-0.304,0-0.622-0.07-0.964-0.238c-1.313-0.645-1.879-1.889-1.747-3.23
						c0.15-1.518,0.396-3.125,1.057-4.469c0.434-0.885,1.323-1.36,2.193-1.36c0.679,0,1.345,0.291,1.771,0.905
						c2.146,3.09,5.229,3.326,8.48,3.377c0.836,0.014,1.791,0.234,2.61,0.234c0.446,0,0.853-0.065,1.177-0.265
						c0.803-0.49,0.853-2.19,1.266-3.347c0.47-1.312,0.973-2.611,1.59-4.257c-0.986,0.149-1.709,0.221-2.412,0.377
						c-0.316,0.069-0.613,0.104-0.887,0.104c-1.487,0-2.288-1.01-1.917-2.725c0.199-0.914,0.655-1.855,1.24-2.591
						c0.632-0.79,1.309-1.17,1.942-1.17c0.831,0,1.587,0.656,2.063,1.902c0.257,0.672,0.625,1.303,0.961,1.991
						c1.887-2.134,3.655-4.078,5.331-6.1c0.204-0.248,0.053-1.016-0.187-1.372c-1.237-1.84-2.569-3.616-3.843-5.43
						c-1.063-1.512-2.48-2.489-4.334-2.493c-2.792-0.002-4.188-2.799-2.038-5.188c0.91-1.008,2.111-1.9,3.357-2.434
						c0.465-0.198,0.922-0.291,1.35-0.291c1.562,0,2.736,1.236,2.496,3.053c-0.379,2.854,0.7,4.91,2.573,6.819
						c1.211,1.235,2.278,2.61,3.491,3.841c0.196,0.202,0.627,0.341,0.976,0.341c0.132,0,0.251-0.02,0.343-0.063
						c2.242-1.058,4.436-2.215,6.963-3.502c-0.672-0.532-1.276-1.068-1.937-1.528c-1.719-1.202-1.672-2.958,0.178-3.956
						c0.583-0.313,1.267-0.651,1.893-0.651c0.028,0,0.057,0.001,0.084,0.002c0.957,0.05,2.102,0.181,2.795,0.739
						c0.928,0.747,0.397,1.86-0.08,2.824c-0.294,0.594-0.439,1.26-0.677,1.973c2.666-0.17,5.08-0.284,7.481-0.521
						c0.343-0.035,0.826-0.639,0.903-1.044c0.466-2.443,0.843-4.905,1.228-7.363c0.249-1.606-0.28-2.979-1.311-4.201
						c-0.837-0.994-1.463-2.097-0.822-3.411C82.987,27.178,84.079,26.619,85.286,26.619 M85.286,21.645
						c-3.21,0-5.958,1.697-7.352,4.541c-0.814,1.672-1.698,5.023,1.484,8.804c0.109,0.129,0.166,0.218,0.194,0.269l-0.099,0.633
						c-0.046,0.291-0.092,0.583-0.138,0.876c-0.179-0.183-0.372-0.356-0.577-0.522c-1.808-1.457-3.973-1.746-5.656-1.834
						c-0.122-0.006-0.232-0.008-0.344-0.008c-1.706,0-3.106,0.629-4.251,1.245c-2.383,1.286-3.843,3.411-4.025,5.847
						c-0.026-0.027-0.052-0.054-0.078-0.08c-1.268-1.294-1.295-1.928-1.194-2.684c0.306-2.314-0.326-4.502-1.78-6.162
						c-1.403-1.602-3.462-2.52-5.646-2.52c-1.121,0-2.234,0.233-3.309,0.694c-1.862,0.796-3.672,2.101-5.091,3.673
						c-2.322,2.58-2.961,5.979-1.673,8.873c1.26,2.832,4.07,4.598,7.343,4.621c0.058,0.05,0.172,0.16,0.324,0.379
						c0.301,0.428,0.604,0.854,0.91,1.279c-0.381-0.07-0.771-0.105-1.166-0.105c-2.19,0-4.26,1.078-5.826,3.035
						c-1.074,1.351-1.858,2.995-2.217,4.643c-0.467,2.152-0.123,4.188,0.966,5.799c-1.092-0.174-1.524-0.501-1.928-1.08
						c-1.324-1.906-3.514-3.041-5.856-3.041c-2.811,0-5.424,1.625-6.659,4.143c-1.027,2.093-1.354,4.294-1.541,6.171
						c-0.347,3.514,1.38,6.649,4.505,8.185c1.007,0.496,2.069,0.747,3.156,0.747c2.016,0,3.518-0.865,4.414-1.382
						c0.125-0.072,0.25-0.145,0.379-0.213c1.053-0.561,1.486-0.677,1.625-0.701c0.273,0.009,0.554,0.027,0.839,0.055
						c-0.268,0.211-0.521,0.443-0.758,0.697c-1.334,1.428-1.988,3.384-1.842,5.506c0.125,1.824,0.689,3.711,1.59,5.311
						c1.167,2.08,3.111,3.412,5.301,3.671c-1.058,0.974-1.646,1.06-2.116,1.06c-0.146,0-0.305-0.012-0.471-0.034
						c-0.371-0.05-0.743-0.075-1.108-0.075c-2.543,0-4.878,1.23-6.245,3.294c-1.418,2.14-1.633,4.911-0.575,7.413
						c0.848,2.001,2.214,3.884,3.847,5.3c1.698,1.473,3.658,2.251,5.667,2.251c4.286,0,7.65-3.509,7.657-7.987
						c0-0.003,0-0.005,0-0.007c0.049-0.063,0.178-0.199,0.429-0.373c0.388-0.27,0.769-0.54,1.144-0.811
						c-0.124,1.053-0.02,2.346,0.582,3.847c1.268,3.163,4.916,5.547,8.485,5.547c0.61,0,1.211-0.071,1.782-0.213
						c1.074-0.265,1.936-0.665,2.625-1.13c-0.177,1.486-0.559,1.882-1.101,2.266c-2.113,1.501-3.247,3.941-3.032,6.529
						c0.218,2.604,1.824,4.936,4.193,6.082c2.038,0.987,4.316,1.531,6.415,1.531c0.216,0,0.431-0.006,0.643-0.018
						c3.235-0.178,5.809-1.701,7.071-4.18c1.306-2.566,0.978-5.702-0.9-8.604c-0.354-0.546-0.508-1.021-0.535-1.192
						c0.009-0.254,0.025-0.51,0.049-0.771c1.327,1.57,3.373,2.455,5.738,2.455c0.259,0,0.526-0.011,0.795-0.031
						c1.569-0.117,3.239-0.652,4.703-1.506c2.299-1.345,3.676-3.472,3.795-5.852c1.235,1.461,1.432,2.041,1.268,2.951
						c-0.372,2.064,0.183,4.168,1.522,5.771c1.389,1.662,3.444,2.614,5.639,2.614c0.925,0,1.834-0.171,2.702-0.507
						c2.219-0.855,4.313-2.24,5.892-3.897c2.211-2.323,2.912-5.526,1.831-8.36c-1.096-2.872-3.785-4.822-7.02-5.086
						c-0.154-0.014-0.352-0.07-0.478-0.122c-0.344-0.39-0.679-0.796-1.009-1.216c0.22,0.023,0.438,0.035,0.654,0.035
						c2.754,0,4.917-1.861,5.961-2.971c1.127-1.195,1.889-2.834,2.258-4.866c0.408-2.267-0.092-4.385-1.406-5.978
						c1.882,0.145,2.365,0.599,2.829,1.236c1.38,1.9,3.508,2.992,5.836,2.992c2.856,0,5.431-1.631,6.717-4.258
						c1.073-2.189,1.366-4.543,1.492-6.123c0.28-3.485-1.438-6.59-4.483-8.101c-1.063-0.528-2.186-0.796-3.334-0.796
						c-1.943,0-3.815,0.773-5.563,2.301c-0.159,0.14-0.188,0.14-0.319,0.14c-0.072,0-0.195-0.007-0.374-0.038
						c-0.183-0.033-0.367-0.066-0.551-0.098c0.611-0.621,1.119-1.377,1.499-2.248c1.638-3.74,0.07-9.091-3.293-11.215
						c-1.201-0.76-2.427-1.182-3.65-1.26c1.313-1.145,2.116-1.658,2.992-1.658c0.17,0,0.355,0.016,0.551,0.049
						c0.382,0.063,0.769,0.096,1.15,0.096c2.264,0,4.394-1.131,5.698-3.024c1.384-2.009,1.683-4.591,0.8-6.906
						c-0.875-2.292-2.244-4.376-3.858-5.862c-1.708-1.574-3.701-2.406-5.764-2.406c-3.918,0-7.051,3.018-7.618,7.339
						c-0.099,0.75-0.243,0.852-0.383,0.95c-0.488,0.343-0.973,0.689-1.45,1.033c0.021-0.146,0.036-0.295,0.046-0.449
						c0.138-2.166-0.826-4.322-2.864-6.404c-1.165-1.189-2.751-1.954-4.849-2.341c-0.518-0.095-1.039-0.145-1.546-0.145
						c-1.563,0-2.994,0.455-4.156,1.304c0.135-1.58,0.563-2.024,1.13-2.437c2.126-1.549,3.264-4.011,3.043-6.589
						c-0.225-2.622-1.8-4.9-4.215-6.094c-2.026-1.003-4.217-1.309-6.091-1.475C85.816,21.656,85.549,21.645,85.286,21.645
						L85.286,21.645z"/>
				</g>
			</g>
		</g>
		<g id="LkW7Tg.tif_2_">
			<g>
				<g>
					<g>
						<g>
							<path fill="#FFFFFF" d="M71.645,93.139l0.716-4.66l-5.985-0.928c-0.376-0.057-1.175-0.178-1.737-0.938
								c-0.567-0.766-0.446-1.565-0.388-1.95l0.496-3.199c0.325-2.043,1.983-2.146,2.313-2.146c0.208,0,0.392,0.024,0.548,0.048
								l0.238,0.036c0.229,0.034,0.452,0.068,0.667,0.096c0.036-0.196,0.069-0.405,0.105-0.641l0.271-1.75
								c0.698-4.509,1.397-9.018,2.092-13.526c0.028-0.182,0.052-0.367,0.073-0.549c-0.268-0.052-0.564-0.098-0.9-0.141
								c-0.892-0.117-1.402-0.578-1.675-0.943c-0.272-0.366-0.567-0.988-0.425-1.873c0.178-1.102,0.352-2.203,0.511-3.307
								c0.188-1.264,1.141-2.106,2.373-2.106c0.147,0,0.297,0.013,0.458,0.036c1.996,0.315,3.986,0.623,5.979,0.932l0.071,0.011
								c0.114-0.734,0.228-1.47,0.335-2.204c0.213-1.479,1.353-2.142,2.387-2.142c0.158,0,0.318,0.013,0.489,0.042
								c1.085,0.185,2.179,0.354,3.258,0.504c0.782,0.106,1.273,0.471,1.567,0.807c0.456-0.281,0.938-0.332,1.226-0.332
								c0.235,0,0.441,0.032,0.64,0.063l3.133,0.486c1.6,0.246,2.381,1.305,2.139,2.902c0,0-0.333,2.166-0.413,2.676
								c1.735,0.697,3.185,1.74,4.318,3.115c0.777,0.939,1.322,2.039,1.62,3.268c0.636,2.629,0.097,5.145-1.558,7.279
								c-0.557,0.716-1.217,1.334-1.977,1.85c0.426,0.398,0.804,0.831,1.132,1.297c1.118,1.591,1.664,3.359,1.622,5.26
								c-0.079,3.518-1.786,6.35-4.938,8.189c-1.511,0.881-3.2,1.376-5.142,1.502c-0.103,0.667-0.207,1.334-0.312,1.999
								l-0.505,3.231L71.645,93.139z M79.925,80.658c0.588,0.102,1.191,0.182,1.816,0.266l0.081,0.011
								c0.464,0.062,1.012,0.124,1.538,0.124c0.228,0,0.435-0.012,0.635-0.035c0.817-0.093,1.255-0.578,1.479-0.971
								c0.327-0.572,0.381-1.267,0.14-1.813c-0.111-0.252-0.35-0.553-1.263-0.871c-0.382-0.133-0.836-0.224-1.316-0.318l-0.351-0.07
								c-0.694-0.143-1.398-0.251-2.137-0.361l-0.359,2.297c-0.089,0.564-0.179,1.127-0.256,1.691
								C79.93,80.625,79.928,80.641,79.925,80.658z M82.367,68.284c1.04,0.178,1.975,0.265,2.854,0.265l0.26-0.003
								c1.188-0.023,1.365-0.581,1.459-0.88c0.127-0.399,0.168-0.943-0.363-1.246c-0.566-0.324-1.306-0.478-2.077-0.619
								c-0.734-0.133-1.477-0.246-2.219-0.359c-0.034,0.215-0.217,1.378-0.217,1.378s-0.177,1.164-0.209,1.378
								C82.032,68.227,82.203,68.256,82.367,68.284z"/>
						</g>
					</g>
					<g>
						<g>
							<path fill="#FF6427" d="M80.167,53.389c0.043,0,0.093,0.004,0.147,0.014c1.101,0.188,2.205,0.357,3.311,0.512
								c0.317,0.043,0.376,0.17,0.327,0.465c-0.216,1.304-0.401,2.611-0.619,3.916c-0.048,0.297,0.037,0.397,0.324,0.432
								c0.58,0.071,1.155,0.175,1.732,0.262c0.117,0.019,0.2,0.031,0.261,0.031c0.153,0,0.167-0.082,0.21-0.364
								c0.195-1.265,0.392-2.53,0.587-3.795c0.056-0.351,0.071-0.45,0.26-0.45c0.075,0,0.178,0.016,0.32,0.037
								c1.043,0.162,2.087,0.322,3.129,0.485c0.458,0.07,0.459,0.07,0.391,0.519c-0.209,1.346-0.408,2.693-0.632,4.037
								c-0.05,0.301,0.046,0.424,0.324,0.5c1.841,0.505,3.439,1.41,4.669,2.9c0.591,0.715,0.983,1.536,1.2,2.43
								c0.488,2.018,0.093,3.863-1.178,5.502c-0.921,1.186-2.148,1.934-3.569,2.389c-0.414,0.131-0.84,0.219-1.264,0.387
								c0.46,0.231,0.924,0.455,1.379,0.695c1.012,0.531,1.894,1.23,2.554,2.166c0.84,1.195,1.271,2.532,1.239,4.006
								c-0.065,2.895-1.452,4.998-3.899,6.428c-1.573,0.918-3.306,1.248-5.102,1.248c-0.123,0-0.246-0.002-0.369-0.005
								c-0.015-0.001-0.029-0.001-0.044-0.001c-0.277,0-0.393,0.086-0.437,0.388c-0.221,1.511-0.464,3.019-0.699,4.522
								c-1.355-0.209-2.712-0.42-4.068-0.629c0.014-0.131,0.023-0.265,0.044-0.396c0.199-1.293,0.39-2.592,0.607-3.884
								c0.053-0.315-0.037-0.415-0.339-0.45c-0.52-0.059-1.034-0.156-1.55-0.233c-0.211-0.031-0.344-0.06-0.431-0.06
								c-0.175,0-0.163,0.113-0.23,0.534c-0.219,1.364-0.436,2.729-0.652,4.094c-1.357-0.21-2.714-0.421-4.069-0.63
								c0.218-1.416,0.437-2.834,0.655-4.251c0.063-0.408,0.062-0.41-0.338-0.47c-2.552-0.396-5.102-0.791-7.653-1.188
								c-0.436-0.065-0.44-0.073-0.375-0.504c0.165-1.065,0.329-2.129,0.495-3.19c0.047-0.29,0.073-0.374,0.243-0.374
								c0.059,0,0.135,0.01,0.235,0.024c0.556,0.083,1.11,0.174,1.674,0.211c0.054,0.003,0.106,0.005,0.157,0.005
								c0.704,0,1.114-0.333,1.296-1.063c0.116-0.469,0.194-0.941,0.267-1.418c0.789-5.092,1.578-10.182,2.362-15.273
								c0.069-0.447,0.116-0.895,0.158-1.343c0.064-0.706-0.34-1.238-1.033-1.419c-0.578-0.15-1.164-0.247-1.752-0.324
								c-0.265-0.034-0.344-0.145-0.302-0.405c0.18-1.112,0.355-2.226,0.516-3.341c0.034-0.231,0.125-0.311,0.301-0.311
								c0.04,0,0.087,0.004,0.137,0.012c2.56,0.404,5.121,0.798,7.683,1.194c0.123,0.019,0.211,0.034,0.275,0.034
								c0.166,0,0.18-0.09,0.229-0.4c0.198-1.286,0.404-2.572,0.592-3.857C79.888,53.488,79.97,53.389,80.167,53.389 M85.222,70.643
								c0.101,0,0.201-0.001,0.302-0.003c1.727-0.034,2.939-0.847,3.413-2.339c0.455-1.438,0.04-2.924-1.321-3.699
								c-0.848-0.486-1.794-0.688-2.738-0.86c-1.319-0.238-2.649-0.415-3.973-0.636c-0.051-0.008-0.097-0.012-0.137-0.012
								c-0.191,0-0.269,0.1-0.304,0.338c-0.144,1.024-0.31,2.045-0.469,3.064c-0.157,1.023-0.306,2.047-0.48,3.066
								c-0.053,0.312,0.04,0.416,0.343,0.455c0.721,0.09,1.438,0.207,2.155,0.33C83.075,70.529,84.145,70.643,85.222,70.643
								 M83.36,83.152c0.291,0,0.584-0.014,0.877-0.048c2.895-0.33,4.311-3.411,3.291-5.712c-0.477-1.075-1.423-1.629-2.486-2.001
								c-0.63-0.22-1.287-0.33-1.938-0.463c-1.355-0.278-2.73-0.435-4.092-0.667c-0.027-0.004-0.053-0.006-0.075-0.006
								c-0.112,0-0.169,0.059-0.19,0.207c-0.172,1.152-0.354,2.306-0.531,3.46c0.002,0,0.004,0.001,0.01,0.001
								c-0.125,0.801-0.259,1.599-0.368,2.398c-0.064,0.466-0.179,0.93-0.151,1.402c0.025,0.454,0.194,0.639,0.629,0.744
								c1.059,0.257,2.136,0.398,3.209,0.541C82.147,83.09,82.751,83.152,83.36,83.152 M80.167,49.199
								c-2.292,0-4.127,1.621-4.46,3.941c-0.006,0.036-0.011,0.072-0.017,0.109c-1.321-0.205-2.643-0.411-3.963-0.619
								c-0.28-0.044-0.535-0.064-0.79-0.064c-2.276,0-4.104,1.598-4.443,3.884c-0.175,1.214-0.363,2.394-0.508,3.288
								c-0.203,1.258,0.086,2.484,0.813,3.459c0.487,0.654,1.14,1.152,1.896,1.459c-0.627,4.064-1.256,8.125-1.886,12.188
								l-0.061,0.39c-1.784,0.126-3.664,1.345-4.07,3.894c-0.168,1.077-0.333,2.143-0.498,3.209
								c-0.078,0.518-0.312,2.058,0.773,3.523c1.079,1.455,2.611,1.688,3.115,1.764l3.812,0.59l0.092,0.015l-0.081,0.525
								l-0.635,4.137l4.136,0.638l2.08,0.322l1.989,0.309l1.077,0.166l1.471,0.229c1.357,0.211,2.715,0.42,4.071,0.63l4.133,0.638
								l0.645-4.132l0.183-1.163c0.023-0.145,0.046-0.288,0.068-0.434c1.587-0.277,3.032-0.803,4.372-1.584
								c3.813-2.227,5.88-5.668,5.976-9.951c0.05-2.302-0.59-4.443-1.904-6.369c0.241-0.254,0.47-0.521,0.687-0.799
								c2.061-2.656,2.73-5.787,1.941-9.055c-0.375-1.543-1.063-2.926-2.043-4.112c-1.01-1.224-2.223-2.228-3.625-3.001l0.174-1.127
								c0.418-2.754-1.147-4.879-3.893-5.301c-0.617-0.098-1.244-0.193-1.872-0.291l-1.251-0.193
								c-0.242-0.037-0.567-0.088-0.964-0.088c-0.103,0-0.418,0.008-0.838,0.092c-0.452-0.25-1.007-0.457-1.677-0.549
								c-1.049-0.146-2.121-0.312-3.176-0.49C80.712,49.223,80.44,49.199,80.167,49.199L80.167,49.199z"/>
						</g>
					</g>
				</g>
			</g>
		</g>
		<g>
			<g>
				<ellipse fill="#FF6427" cx="59.588" cy="67.688" rx="3.491" ry="4.8"/>
			</g>
		</g>
		<g>
			<g>
				<ellipse fill="#FF6427" cx="106.078" cy="70.219" rx="1.505" ry="2.27"/>
			</g>
		</g>
		<g>
			<g>
				<ellipse fill="#FF6427" cx="104.637" cy="81.629" rx="2.074" ry="3.382"/>
			</g>
		</g>
	</g>
</g>
</svg>
