<?xml version="1.0" encoding="UTF-8" standalone="no"?><!DOCTYPE svg PUBLIC "-//W3C//DTD SVG 1.1//EN" "http://www.w3.org/Graphics/SVG/1.1/DTD/svg11.dtd"><svg width="100%" height="100%" viewBox="0 0 104 104" version="1.1" xmlns="http://www.w3.org/2000/svg" xmlns:xlink="http://www.w3.org/1999/xlink" xml:space="preserve" xmlnserif="http://www.serif.com/" style="fill-rule:evenodd;clip-rule:evenodd;stroke-linejoin:round;stroke-miterlimit:2;"><g><path d="M98.519,55.973c-0.117,1.469 -0.363,3.029 -1.001,4.33c-0.469,0.957 -1.365,1.473 -2.25,1.473c-0.678,0 -1.348,-0.303 -1.813,-0.944c-2.059,-2.832 -4.878,-3.299 -8.007,-3.332c-1.609,-0.017 -3.215,-0.166 -4.753,-0.252c-0.897,2.756 -1.74,5.356 -2.677,8.242c0.908,-0.129 1.681,-0.199 2.436,-0.351c0.268,-0.055 0.522,-0.08 0.759,-0.08c1.41,0 2.192,0.943 1.902,2.551c-0.151,0.826 -0.438,1.765 -0.985,2.345c-0.609,0.648 -1.585,1.408 -2.339,1.408l-0.13,-0.008c-0.721,-0.094 -1.345,-1.265 -1.924,-2.029c-0.364,-0.483 -0.567,-1.084 -0.897,-1.74c-1.862,2.259 -3.569,4.33 -5.417,6.57c1.682,2.275 3.267,4.744 5.207,6.893c0.803,0.89 2.334,1.443 3.586,1.546c2.737,0.225 3.947,3.006 1.995,5.059c-1.103,1.156 -2.589,2.111 -4.085,2.689c-0.303,0.118 -0.611,0.172 -0.909,0.172c-1.353,0 -2.521,-1.115 -2.266,-2.531c0.711,-3.945 -1.642,-6.269 -3.895,-8.769c-1.395,-1.549 -1.999,-2.227 -2.835,-2.227c-0.652,0 -1.447,0.412 -2.871,1.145c-1.436,0.738 -2.924,1.378 -4.715,2.22c0.719,0.569 1.287,1.072 1.91,1.498c1.7,1.166 1.728,2.811 -0.055,3.856c-0.766,0.445 -1.693,0.777 -2.57,0.843c-0.148,0.01 -0.289,0.016 -0.424,0.016c-2.148,0 -2.858,-1.359 -1.887,-3.496c0.277,-0.611 0.456,-1.266 0.699,-1.957c-2.685,0.178 -5.153,0.311 -7.613,0.543c-0.32,0.029 -0.787,0.543 -0.854,0.894c-0.448,2.393 -1.032,4.795 -1.106,7.208c-0.041,1.326 0.586,2.837 1.332,3.994c1.732,2.677 0.921,4.939 -2.259,5.115c-0.125,0.006 -0.251,0.011 -0.378,0.011c-1.428,0 -2.967,-0.414 -4.247,-1.035c-1.656,-0.802 -1.92,-3.035 -0.448,-4.08c2.878,-2.043 3.243,-4.912 3.297,-8.019c0.026,-1.404 0.666,-3.145 0.052,-4.115c-0.578,-0.911 -2.445,-0.996 -3.737,-1.463c-1.257,-0.453 -2.504,-0.93 -3.784,-1.405c-0.684,1.698 1.758,4.198 -1.427,4.983c-0.185,0.047 -0.383,0.068 -0.589,0.068c-1.476,0 -3.344,-1.119 -3.868,-2.424c-1.275,-3.181 2.237,-2.572 3.251,-3.888c-2.004,-1.758 -3.919,-3.489 -5.909,-5.129c-0.112,-0.094 -0.312,-0.135 -0.532,-0.135c-0.301,0 -0.638,0.078 -0.833,0.209c-1.752,1.174 -3.423,2.467 -5.154,3.672c-1.575,1.092 -2.565,2.539 -2.569,4.457c-0.002,1.693 -1.147,3.021 -2.682,3.021c-0.741,0 -1.572,-0.308 -2.409,-1.033c-1.061,-0.922 -1.976,-2.187 -2.523,-3.48c-0.829,-1.959 0.294,-3.795 2.238,-3.795c0.143,0 0.289,0.008 0.44,0.029c0.393,0.053 0.773,0.08 1.139,0.08c2.339,0 4.148,-1.053 5.834,-2.705c1.274,-1.25 3.41,-2.23 3.736,-3.658c0.307,-1.341 -1.267,-3.103 -1.987,-4.691c-0.399,-0.881 -0.744,-1.787 -1.285,-3.096c-0.614,0.822 -1.081,1.408 -1.505,2.026c-0.526,0.765 -1.218,1.162 -1.89,1.162c-0.661,0 -1.305,-0.385 -1.752,-1.182c-0.537,-0.955 -0.888,-2.119 -0.963,-3.213c-0.101,-1.463 0.701,-2.316 1.871,-2.316c0.388,0 0.814,0.094 1.264,0.289c0.668,0.293 1.342,0.568 2.111,0.896c-0.168,-2.797 -0.29,-5.363 -0.517,-7.918c-0.028,-0.3 -0.602,-0.724 -0.979,-0.795c-2.287,-0.423 -4.583,-0.988 -6.888,-1.046l-0.099,0c-1.309,0 -2.715,0.64 -3.919,1.279c-0.834,0.443 -1.588,1.017 -2.463,1.017c-0.304,0 -0.622,-0.07 -0.964,-0.238c-1.314,-0.644 -1.879,-1.889 -1.747,-3.23c0.15,-1.518 0.396,-3.125 1.056,-4.469c0.434,-0.885 1.324,-1.361 2.194,-1.361c0.678,0 1.345,0.293 1.771,0.906c2.147,3.09 5.23,3.326 8.481,3.377c0.836,0.013 1.791,0.234 2.61,0.234c0.446,0 0.853,-0.066 1.177,-0.265c0.803,-0.491 0.852,-2.19 1.265,-3.346c0.47,-1.313 0.973,-2.611 1.59,-4.258c-0.986,0.15 -1.709,0.221 -2.412,0.377c-0.316,0.07 -0.613,0.105 -0.887,0.105c-1.487,0 -2.288,-1.009 -1.917,-2.724c0.2,-0.914 0.656,-1.856 1.241,-2.592c0.632,-0.789 1.308,-1.17 1.942,-1.17c0.831,0 1.587,0.656 2.064,1.902c0.256,0.672 0.625,1.303 0.961,1.993c1.886,-2.135 3.655,-4.078 5.331,-6.1c0.204,-0.248 0.052,-1.016 -0.187,-1.373c-1.237,-1.84 -2.569,-3.615 -3.843,-5.43c-1.062,-1.509 -2.48,-2.488 -4.334,-2.492c-2.792,-0.002 -4.187,-2.799 -2.038,-5.187c0.91,-1.008 2.112,-1.901 3.358,-2.434c0.464,-0.199 0.922,-0.291 1.349,-0.291c1.562,0 2.737,1.236 2.496,3.053c-0.379,2.853 0.701,4.91 2.574,6.818c1.211,1.236 2.278,2.611 3.491,3.842c0.196,0.201 0.627,0.34 0.975,0.34c0.132,0 0.251,-0.02 0.343,-0.063c2.242,-1.056 4.436,-2.215 6.963,-3.502c-0.672,-0.533 -1.276,-1.068 -1.936,-1.529c-1.719,-1.201 -1.672,-2.957 0.177,-3.955c0.583,-0.315 1.267,-0.652 1.893,-0.652l0.084,0.002c0.957,0.05 2.101,0.181 2.795,0.74c0.927,0.746 0.397,1.859 -0.08,2.824c-0.294,0.594 -0.44,1.26 -0.677,1.973c2.666,-0.17 5.08,-0.285 7.481,-0.522c0.343,-0.035 0.827,-0.638 0.904,-1.043c0.465,-2.443 0.842,-4.906 1.227,-7.363c0.249,-1.607 -0.28,-2.981 -1.31,-4.201c-0.837,-0.994 -1.463,-2.098 -0.823,-3.41c0.586,-1.198 1.678,-1.756 2.885,-1.756c0.118,0 0.236,0.006 0.358,0.015c1.466,0.129 3.033,0.34 4.326,0.979c1.734,0.857 1.999,3.072 0.448,4.201c-2.608,1.898 -3.187,4.459 -3.222,7.387c-0.017,1.566 -0.216,3.133 -0.213,4.699c0.001,0.389 0.395,1.006 0.744,1.129c2.237,0.779 4.514,1.449 7.114,2.262c-0.12,-0.94 -0.188,-1.807 -0.35,-2.657c-0.31,-1.627 0.427,-2.691 1.88,-2.691c0.202,0 0.417,0.021 0.646,0.062c0.775,0.143 1.677,0.401 2.194,0.93c0.698,0.711 1.509,1.76 1.454,2.611c-0.042,0.676 -1.283,1.317 -2.055,1.885c-0.498,0.369 -1.114,0.582 -1.777,0.914c2.136,1.848 4.099,3.588 6.128,5.244c0.07,0.059 0.186,0.084 0.323,0.084c0.303,0 0.704,-0.121 0.928,-0.275c1.918,-1.316 3.778,-2.715 5.682,-4.055c1.527,-1.072 2.214,-2.547 2.455,-4.371c0.252,-1.918 1.345,-3.011 2.686,-3.011c0.755,0 1.587,0.345 2.393,1.087c1.134,1.045 2.027,2.526 2.582,3.979c0.583,1.529 -0.382,3.184 -1.851,3.184c-0.108,0 -0.22,-0.008 -0.334,-0.028c-0.476,-0.08 -0.931,-0.117 -1.367,-0.117c-3.455,0 -5.66,2.348 -8.047,4.492c-2.572,2.311 -2.547,2.285 -0.98,5.321c0.811,1.572 1.482,3.22 2.229,4.865c1.454,-0.533 1.786,-3.084 3.391,-3.084c0.386,0 0.844,0.146 1.409,0.504c1.354,0.855 2.017,3.59 1.389,5.023c-0.362,0.83 -0.945,1.219 -1.668,1.219c-0.273,0 -0.565,-0.055 -0.872,-0.162c-0.897,-0.313 -1.756,-0.729 -2.86,-1.196c0.198,2.75 0.348,5.202 0.595,7.641c0.023,0.234 0.62,0.527 0.987,0.596c2.181,0.408 4.376,0.738 6.559,1.131c0.427,0.076 0.841,0.115 1.245,0.115c1.312,0 2.506,-0.418 3.593,-1.369c0.682,-0.596 1.439,-1.073 2.29,-1.073c0.357,0 0.731,0.084 1.124,0.28c1.322,0.656 1.842,1.922 1.735,3.248Zm0.475,-7.705c-1.064,-0.528 -2.186,-0.795 -3.334,-0.795c-1.944,0 -3.816,0.773 -5.564,2.301c-0.159,0.138 -0.187,0.138 -0.319,0.138c-0.072,0 -0.195,-0.006 -0.374,-0.037c-0.183,-0.033 -0.367,-0.066 -0.551,-0.098c0.612,-0.621 1.119,-1.376 1.499,-2.248c1.638,-3.74 0.071,-9.089 -3.293,-11.214c-1.201,-0.76 -2.427,-1.182 -3.65,-1.26c1.312,-1.145 2.116,-1.658 2.992,-1.658c0.17,0 0.356,0.015 0.551,0.048c0.382,0.063 0.768,0.096 1.15,0.096c2.264,0 4.394,-1.131 5.698,-3.025c1.384,-2.008 1.683,-4.59 0.8,-6.906c-0.875,-2.292 -2.244,-4.375 -3.858,-5.862c-1.708,-1.574 -3.701,-2.406 -5.764,-2.406c-3.918,0 -7.051,3.018 -7.618,7.338c-0.099,0.75 -0.243,0.851 -0.383,0.951c-0.488,0.342 -0.972,0.689 -1.45,1.033c0.021,-0.146 0.036,-0.295 0.046,-0.449c0.138,-2.166 -0.826,-4.322 -2.864,-6.404c-1.165,-1.19 -2.751,-1.955 -4.849,-2.342c-0.518,-0.094 -1.039,-0.145 -1.546,-0.145c-1.563,0 -2.994,0.455 -4.156,1.305c0.135,-1.58 0.563,-2.023 1.13,-2.437c2.126,-1.549 3.263,-4.01 3.043,-6.588c-0.225,-2.623 -1.8,-4.901 -4.215,-6.094c-2.026,-1.004 -4.217,-1.309 -6.091,-1.475c-0.266,-0.023 -0.533,-0.035 -0.796,-0.035c-3.21,0 -5.958,1.697 -7.351,4.541c-0.815,1.672 -1.699,5.024 1.484,8.803c0.109,0.129 0.166,0.219 0.194,0.269l-0.098,0.633c-0.046,0.291 -0.092,0.582 -0.138,0.875c-0.179,-0.181 -0.372,-0.355 -0.577,-0.521c-1.808,-1.457 -3.973,-1.746 -5.656,-1.834c-0.122,-0.006 -0.233,-0.008 -0.344,-0.008c-1.706,0 -3.107,0.629 -4.251,1.244c-2.383,1.287 -3.843,3.412 -4.026,5.848l-0.078,-0.08c-1.267,-1.295 -1.295,-1.928 -1.194,-2.684c0.306,-2.314 -0.326,-4.502 -1.78,-6.162c-1.404,-1.602 -3.462,-2.52 -5.647,-2.52c-1.121,0 -2.234,0.233 -3.308,0.694c-1.863,0.797 -3.672,2.101 -5.091,3.674c-2.322,2.58 -2.961,5.978 -1.673,8.873c1.26,2.832 4.07,4.597 7.343,4.621c0.057,0.049 0.172,0.16 0.324,0.379c0.301,0.427 0.604,0.853 0.91,1.279c-0.381,-0.07 -0.77,-0.106 -1.166,-0.106c-2.19,0 -4.26,1.079 -5.826,3.036c-1.074,1.349 -1.858,2.994 -2.217,4.642c-0.467,2.153 -0.123,4.188 0.966,5.799c-1.092,-0.174 -1.524,-0.502 -1.928,-1.08c-1.324,-1.906 -3.513,-3.041 -5.856,-3.041c-2.811,0 -5.424,1.625 -6.659,4.143c-1.028,2.091 -1.355,4.293 -1.541,6.169c-0.347,3.514 1.379,6.651 4.504,8.186c1.007,0.496 2.07,0.746 3.157,0.746c2.015,0 3.517,-0.865 4.414,-1.381c0.125,-0.072 0.25,-0.144 0.379,-0.213c1.052,-0.56 1.486,-0.677 1.625,-0.701c0.273,0.008 0.553,0.028 0.839,0.055c-0.268,0.211 -0.522,0.443 -0.758,0.697c-1.334,1.428 -1.989,3.383 -1.842,5.506c0.125,1.824 0.689,3.711 1.59,5.311c1.167,2.08 3.111,3.411 5.301,3.669c-1.058,0.975 -1.646,1.061 -2.117,1.061c-0.145,0 -0.304,-0.012 -0.47,-0.036c-0.371,-0.048 -0.744,-0.074 -1.109,-0.074c-2.543,0 -4.878,1.231 -6.245,3.293c-1.418,2.141 -1.633,4.912 -0.575,7.414c0.848,2.002 2.214,3.883 3.847,5.299c1.698,1.473 3.658,2.252 5.667,2.252c4.286,0 7.65,-3.508 7.657,-7.988l-0,-0.004c0.049,-0.065 0.178,-0.201 0.429,-0.375c0.387,-0.27 0.768,-0.541 1.143,-0.811c-0.124,1.053 -0.019,2.346 0.582,3.846c1.268,3.164 4.916,5.547 8.485,5.547c0.611,0 1.211,-0.07 1.783,-0.213c1.074,-0.264 1.935,-0.664 2.625,-1.129c-0.177,1.486 -0.559,1.881 -1.101,2.266c-2.113,1.5 -3.247,3.941 -3.032,6.529c0.218,2.603 1.824,4.936 4.193,6.082c2.038,0.986 4.317,1.531 6.415,1.531c0.216,0 0.431,-0.006 0.643,-0.017c3.235,-0.178 5.808,-1.701 7.071,-4.18c1.306,-2.565 0.978,-5.703 -0.9,-8.605c-0.354,-0.545 -0.508,-1.02 -0.535,-1.192c0.008,-0.254 0.025,-0.51 0.048,-0.771c1.328,1.57 3.374,2.455 5.739,2.455c0.259,0 0.526,-0.012 0.795,-0.032c1.569,-0.117 3.239,-0.652 4.703,-1.505c2.299,-1.346 3.676,-3.473 3.795,-5.852c1.235,1.461 1.431,2.041 1.267,2.951c-0.372,2.065 0.183,4.168 1.523,5.772c1.388,1.662 3.444,2.613 5.638,2.613c0.925,0 1.834,-0.17 2.703,-0.506c2.218,-0.855 4.312,-2.24 5.891,-3.898c2.211,-2.323 2.912,-5.526 1.831,-8.36c-1.095,-2.871 -3.785,-4.822 -7.019,-5.086c-0.155,-0.013 -0.352,-0.07 -0.478,-0.123c-0.344,-0.388 -0.679,-0.795 -1.009,-1.215c0.22,0.024 0.438,0.036 0.655,0.036c2.754,0 4.917,-1.862 5.961,-2.971c1.127,-1.195 1.888,-2.834 2.257,-4.867c0.409,-2.265 -0.091,-4.385 -1.406,-5.976c1.882,0.144 2.365,0.597 2.829,1.236c1.38,1.9 3.508,2.992 5.836,2.992c2.857,0 5.431,-1.631 6.717,-4.258c1.073,-2.189 1.366,-4.543 1.492,-6.123c0.28,-3.486 -1.438,-6.59 -4.483,-8.101Z" style="fill:#ff6427;fill-rule:nonzero;"/><path d="M57.557,42.957c-0.847,-0.486 -1.794,-0.687 -2.738,-0.861c-1.319,-0.238 -2.649,-0.414 -3.973,-0.635l-0.136,-0.012c-0.192,0 -0.269,0.1 -0.304,0.338c-0.144,1.026 -0.31,2.045 -0.469,3.065c-0.157,1.023 -0.306,2.047 -0.48,3.066c-0.053,0.313 0.04,0.416 0.342,0.455c0.721,0.09 1.439,0.207 2.156,0.33c1.062,0.182 2.132,0.295 3.209,0.295c0.1,0 0.201,-0.002 0.301,-0.004c1.727,-0.033 2.94,-0.845 3.414,-2.338c0.455,-1.439 0.04,-2.923 -1.322,-3.699Z" style="fill:#ff6427;fill-rule:nonzero;"/><path d="M54.984,53.746c-0.63,-0.219 -1.287,-0.33 -1.937,-0.463c-1.356,-0.277 -2.731,-0.433 -4.092,-0.666l-0.075,-0.006c-0.113,0 -0.169,0.059 -0.191,0.207c-0.172,1.153 -0.353,2.305 -0.531,3.459l0.01,0.002c-0.125,0.801 -0.259,1.598 -0.369,2.399c-0.064,0.465 -0.178,0.93 -0.151,1.402c0.025,0.453 0.194,0.639 0.629,0.744c1.059,0.256 2.136,0.399 3.209,0.541c0.603,0.08 1.207,0.143 1.816,0.143c0.291,0 0.584,-0.014 0.877,-0.049c2.895,-0.33 4.311,-3.41 3.291,-5.711c-0.476,-1.076 -1.423,-1.629 -2.486,-2.002Z" style="fill:#ff6427;fill-rule:nonzero;"/><path d="M64.873,49.176c-0.921,1.185 -2.149,1.934 -3.57,2.389c-0.414,0.13 -0.839,0.218 -1.263,0.386c0.46,0.231 0.924,0.455 1.379,0.696c1.011,0.531 1.893,1.23 2.553,2.166c0.84,1.195 1.272,2.531 1.24,4.005c-0.066,2.895 -1.453,4.999 -3.9,6.428c-1.573,0.918 -3.306,1.248 -5.101,1.248c-0.123,0 -0.247,-0.002 -0.37,-0.006l-0.044,0c-0.277,0 -0.392,0.086 -0.436,0.387c-0.221,1.512 -0.464,3.019 -0.699,4.523c-1.356,-0.209 -2.712,-0.42 -4.069,-0.629c0.014,-0.131 0.024,-0.265 0.044,-0.396c0.2,-1.293 0.39,-2.592 0.608,-3.885c0.052,-0.314 -0.037,-0.414 -0.339,-0.449c-0.52,-0.058 -1.034,-0.156 -1.55,-0.234c-0.211,-0.031 -0.344,-0.059 -0.431,-0.059c-0.174,0 -0.163,0.114 -0.23,0.533c-0.219,1.366 -0.436,2.73 -0.652,4.094c-1.358,-0.209 -2.714,-0.42 -4.07,-0.629c0.218,-1.416 0.437,-2.834 0.656,-4.252c0.062,-0.408 0.061,-0.41 -0.338,-0.468c-2.552,-0.397 -5.102,-0.791 -7.654,-1.188c-0.435,-0.064 -0.44,-0.074 -0.375,-0.504c0.165,-1.066 0.329,-2.129 0.495,-3.191c0.047,-0.289 0.074,-0.373 0.244,-0.373c0.058,0 0.134,0.009 0.235,0.023c0.556,0.084 1.11,0.174 1.674,0.211l0.157,0.006c0.704,0 1.114,-0.334 1.296,-1.063c0.116,-0.468 0.194,-0.941 0.267,-1.418c0.789,-5.091 1.578,-10.181 2.362,-15.273c0.069,-0.447 0.116,-0.894 0.158,-1.344c0.064,-0.705 -0.34,-1.238 -1.033,-1.418c-0.578,-0.15 -1.164,-0.248 -1.752,-0.324c-0.265,-0.035 -0.344,-0.144 -0.302,-0.406c0.18,-1.111 0.356,-2.225 0.516,-3.34c0.034,-0.232 0.125,-0.311 0.301,-0.311l0.136,0.012c2.56,0.404 5.121,0.797 7.683,1.194c0.123,0.019 0.211,0.035 0.275,0.035c0.166,0 0.18,-0.09 0.229,-0.401c0.198,-1.287 0.404,-2.572 0.592,-3.857c0.035,-0.25 0.117,-0.35 0.314,-0.35l0.147,0.014c1.101,0.187 2.206,0.357 3.311,0.512c0.317,0.043 0.376,0.17 0.327,0.465c-0.216,1.302 -0.401,2.611 -0.619,3.916c-0.048,0.296 0.037,0.396 0.324,0.431c0.58,0.07 1.156,0.174 1.733,0.262c0.117,0.017 0.2,0.031 0.26,0.031c0.154,0 0.167,-0.082 0.21,-0.365c0.196,-1.264 0.392,-2.529 0.587,-3.795c0.056,-0.35 0.072,-0.449 0.26,-0.449c0.075,0 0.178,0.015 0.32,0.037c1.043,0.162 2.087,0.322 3.129,0.484c0.458,0.071 0.459,0.071 0.391,0.52c-0.209,1.345 -0.408,2.693 -0.632,4.037c-0.05,0.301 0.046,0.424 0.324,0.5c1.841,0.504 3.44,1.41 4.669,2.9c0.591,0.715 0.984,1.535 1.2,2.43c0.489,2.018 0.093,3.863 -1.177,5.502Zm3.207,-10.6c-1.01,-1.222 -2.223,-2.226 -3.625,-3l0.174,-1.127c0.418,-2.754 -1.148,-4.879 -3.893,-5.3c-0.617,-0.098 -1.244,-0.194 -1.872,-0.291l-1.251,-0.194c-0.242,-0.037 -0.567,-0.088 -0.964,-0.088c-0.102,0 -0.418,0.008 -0.838,0.092c-0.452,-0.25 -1.007,-0.457 -1.677,-0.549c-1.048,-0.146 -2.121,-0.312 -3.175,-0.49c-0.305,-0.051 -0.577,-0.074 -0.85,-0.074c-2.292,0 -4.127,1.621 -4.46,3.941l-0.017,0.11c-1.321,-0.205 -2.642,-0.413 -3.962,-0.62c-0.281,-0.044 -0.536,-0.064 -0.79,-0.064c-2.277,0 -4.104,1.598 -4.444,3.883c-0.175,1.215 -0.363,2.394 -0.508,3.289c-0.203,1.258 0.086,2.484 0.813,3.459c0.487,0.654 1.14,1.152 1.896,1.459c-0.627,4.064 -1.256,8.125 -1.885,12.187l-0.061,0.389c-1.784,0.127 -3.664,1.346 -4.07,3.895c-0.168,1.076 -0.333,2.142 -0.498,3.209c-0.078,0.517 -0.312,2.056 0.773,3.523c1.079,1.455 2.611,1.687 3.115,1.764l3.812,0.589l0.092,0.014l-0.081,0.525l-0.635,4.137l4.136,0.639l2.08,0.322l1.989,0.308l1.077,0.166l1.471,0.229c1.357,0.211 2.715,0.42 4.071,0.629l4.133,0.638l0.644,-4.132l0.183,-1.162c0.023,-0.145 0.046,-0.29 0.068,-0.434c1.587,-0.277 3.033,-0.803 4.372,-1.584c3.814,-2.226 5.88,-5.668 5.976,-9.951c0.05,-2.302 -0.59,-4.443 -1.904,-6.369c0.241,-0.254 0.469,-0.519 0.686,-0.799c2.061,-2.656 2.731,-5.787 1.942,-9.054c-0.375,-1.543 -1.063,-2.926 -2.043,-4.114Z" style="fill:#ff6427;fill-rule:nonzero;"/><path d="M29.531,41.244c-1.929,0 -3.491,2.149 -3.491,4.799c-0,2.65 1.562,4.801 3.491,4.801c1.928,0 3.49,-2.151 3.49,-4.801c-0,-2.65 -1.562,-4.799 -3.49,-4.799Z" style="fill:#ff6427;fill-rule:nonzero;"/><path d="M76.02,46.305c-0.831,0 -1.505,1.017 -1.505,2.269c-0,1.254 0.674,2.27 1.505,2.27c0.831,0 1.505,-1.016 1.505,-2.27c-0,-1.252 -0.674,-2.269 -1.505,-2.269Z" style="fill:#ff6427;fill-rule:nonzero;"/><path d="M74.58,56.604c-1.146,0 -2.074,1.513 -2.074,3.381c-0,1.867 0.928,3.38 2.074,3.38c1.145,0 2.073,-1.513 2.073,-3.38c-0,-1.868 -0.928,-3.381 -2.073,-3.381Z" style="fill:#ff6427;fill-rule:nonzero;"/></g></svg>