<?xml version="1.0" encoding="utf-8"?>
<!-- Generator: Adobe Illustrator 16.0.0, SVG Export Plug-In . SVG Version: 6.00 Build 0)  -->
<!DOCTYPE svg PUBLIC "-//W3C//DTD SVG 1.1//EN" "http://www.w3.org/Graphics/SVG/1.1/DTD/svg11.dtd">
<svg version="1.1" xmlns="http://www.w3.org/2000/svg" xmlns:xlink="http://www.w3.org/1999/xlink" x="0px" y="0px"
	 width="164.667px" height="144px" viewBox="0 0 164.667 144" enable-background="new 0 0 164.667 144" xml:space="preserve">
<g id="podklad" display="none">
</g>
<g id="Layer_9">
</g>
<g id="Layer_1">
</g>
<g id="podklad_1_">
</g>
<g id="OBD_x5F_prvky">
</g>
<g id="Layer_7">
</g>
<g id="texty">
</g>
<g id="OTVR_x5F_hambac">
</g>
<g id="lista">
</g>
<g id="Layer_14">
</g>
<g id="_x33__x5F_ŘADEK_x5F_icon">
</g>
<g id="slunicko" display="none">
</g>
<g id="mesice">
</g>
<g id="kryti">
	<g>
		<g>
			<g>
				<path fill="#FF6427" d="M56.74,77.4H40.236c-1.385,0-2.508-1.122-2.508-2.506c0-1.386,1.123-2.508,2.508-2.508h13.998V42.874
					c0-1.384,1.122-2.506,2.506-2.506c1.386,0,2.508,1.122,2.508,2.506v32.021C59.248,76.278,58.126,77.4,56.74,77.4z"/>
			</g>
		</g>
		<g>
			<g>
				<line fill="#FFFFFF" x1="41.28" y1="52.224" x2="56.793" y2="52.224"/>
			</g>
			<g>
				<path fill="#FF6427" d="M56.793,54.104H41.28c-1.038,0-1.88-0.842-1.88-1.881c0-1.037,0.842-1.879,1.88-1.879h15.513
					c1.038,0,1.88,0.842,1.88,1.879C58.673,53.263,57.831,54.104,56.793,54.104z"/>
			</g>
		</g>
		<g>
			<g>
				<line fill="#FFFFFF" x1="41.28" y1="59.332" x2="56.793" y2="59.332"/>
			</g>
			<g>
				<path fill="#FF6427" d="M56.793,61.212H41.28c-1.038,0-1.88-0.842-1.88-1.88c0-1.04,0.842-1.881,1.88-1.881h15.513
					c1.038,0,1.88,0.841,1.88,1.881C58.673,60.37,57.831,61.212,56.793,61.212z"/>
			</g>
		</g>
		<g>
			<g>
				<line fill="#FFFFFF" x1="41.28" y1="66.438" x2="56.793" y2="66.438"/>
			</g>
			<g>
				<path fill="#FF6427" d="M56.793,68.318H41.28c-1.038,0-1.88-0.842-1.88-1.881c0-1.038,0.842-1.88,1.88-1.88h15.513
					c1.038,0,1.88,0.842,1.88,1.88C58.673,67.477,57.831,68.318,56.793,68.318z"/>
			</g>
		</g>
		<g>
			<g>
				<path fill="#FF6427" d="M77.954,78.871c-0.243,0-0.887,0-2.025-0.693c-1.909-1.2-8.093-5.388-9.229-9.882
					c-0.238-0.778-0.359-1.582-0.359-2.396c0-2.992,1.631-5.756,4.255-7.213c1.218-0.674,2.595-1.029,3.985-1.029
					c1.323,0,2.451,0.568,3.374,1.177c0.922-0.608,2.05-1.177,3.375-1.177c1.39,0,2.767,0.355,3.981,1.027
					c2.628,1.459,4.258,4.223,4.258,7.215c0,0.816-0.119,1.613-0.355,2.375c-1.145,4.523-7.328,8.705-9.206,9.886
					C78.841,78.871,78.197,78.871,77.954,78.871z M74.574,62.36c-0.592,0-1.182,0.151-1.702,0.439
					c-1.128,0.625-1.832,1.814-1.832,3.1c0,0.357,0.057,0.711,0.164,1.05l0.047,0.17c0.448,1.886,3.637,4.767,6.704,6.774
					c3.047-1.988,6.253-4.888,6.707-6.798l0.05-0.177c0.102-0.315,0.155-0.668,0.155-1.02c0-1.285-0.702-2.475-1.835-3.103
					c-0.516-0.285-1.106-0.437-1.703-0.437c-0.299,0.023-1.092,0.604-1.519,0.916c-0.172,0.126-0.341,0.25-0.506,0.365l-1.352,0.951
					L76.6,63.64c-0.162-0.113-0.329-0.236-0.499-0.361C75.674,62.966,74.879,62.384,74.574,62.36z"/>
			</g>
		</g>
		<g>
			<g>
				<path fill="#FF6427" d="M114.599,90.676c-0.279,0-0.731-0.049-1.418-0.466c-1.411-0.888-4.683-3.186-5.351-5.793
					c-0.146-0.48-0.221-0.978-0.221-1.478c0-1.861,1.014-3.582,2.646-4.489c0.761-0.418,1.617-0.641,2.482-0.641
					c0.723,0,1.347,0.25,1.861,0.547c0.514-0.297,1.139-0.547,1.86-0.547c0.864,0,1.722,0.221,2.479,0.639
					c1.636,0.909,2.649,2.63,2.649,4.491c0,0.505-0.073,0.998-0.218,1.469c-0.674,2.62-3.943,4.916-5.328,5.786
					C115.33,90.627,114.879,90.676,114.599,90.676z M112.648,81.574c-0.199,0.013-0.396,0.07-0.569,0.166
					c-0.437,0.242-0.708,0.702-0.708,1.199c0,0.136,0.021,0.271,0.063,0.402l0.037,0.134c0.168,0.708,1.517,2.056,3.124,3.165
					c1.623-1.117,2.965-2.466,3.134-3.178l0.04-0.145c0.038-0.113,0.058-0.246,0.058-0.379c0-0.498-0.272-0.959-0.711-1.202
					c-0.171-0.093-0.367-0.15-0.567-0.163c-0.145,0.07-0.412,0.267-0.579,0.388c-0.099,0.072-0.195,0.144-0.29,0.211l-1.082,0.76
					l-1.081-0.763c-0.094-0.065-0.188-0.133-0.285-0.205C113.063,81.842,112.795,81.645,112.648,81.574z"/>
			</g>
		</g>
		<g>
			<g>
				<g>
					<g>
						<path fill="#FF6427" d="M85.718,94.144H79.74v9.268h-5.684v-9.268h-5.978v7.521h-0.001v1.746c0,3.313,2.659,5.977,5.979,5.977
							h5.684c3.315,0,5.978-2.663,5.978-5.977V94.144z"/>
					</g>
				</g>
			</g>
			<g>
				<g>
					<g>
						<rect x="60.779" y="103.276" fill="#FF6427" width="32.234" height="6.425"/>
					</g>
				</g>
			</g>
		</g>
		<g>
			<g>
				<g>
					<path fill="#FF6427" d="M125.496,58.792l-21.396-0.04c-2.151,0-3.912,1.761-3.912,3.914v42.807
						c0,2.151,1.761,3.915,3.912,3.915h21.396c2.151,0,3.911-1.764,3.911-3.915V62.666
						C129.407,60.513,127.647,58.792,125.496,58.792z M125.496,102.601h-21.396V63.515h21.396V102.601z"/>
				</g>
				<g>
					<path fill="#FF6427" d="M125.496,110.015h-21.396c-2.503,0-4.538-2.037-4.538-4.542V62.666c0-2.504,2.035-4.54,4.538-4.54
						l21.396,0.039c2.502,0,4.537,2.018,4.537,4.501v42.807C130.034,107.978,127.999,110.015,125.496,110.015z M104.1,59.379
						c-1.811,0-3.284,1.476-3.284,3.287v42.807c0,1.813,1.474,3.288,3.285,3.288h21.396c1.811,0,3.285-1.475,3.285-3.288V62.666
						c0-1.791-1.475-3.247-3.285-3.247L104.1,59.379z M126.123,103.227h-22.649V62.888h22.649V103.227z M104.727,101.974h20.143
						V64.142h-20.143V101.974z"/>
				</g>
			</g>
		</g>
		<g>
			<g>
				<g>
					<path fill="#FF6427" d="M94.526,91.722H45.908c-1.422,0-2.579-1.158-2.579-2.579V48.467c0-1.421,1.157-2.577,2.579-2.577
						h61.978c1.422,0,2.579,1.156,2.579,2.577v4.008l6.425,0.014v-4.021c0-4.964-4.038-9.004-9.004-9.004H45.908
						c-4.965,0-9.004,4.04-9.004,9.004v40.676c0,4.965,4.039,9.004,9.004,9.004h48.618V91.722z"/>
				</g>
			</g>
		</g>
	</g>
</g>
</svg>
