<?xml version="1.0" encoding="utf-8"?>
<!-- Generator: Adobe Illustrator 16.0.0, SVG Export Plug-In . SVG Version: 6.00 Build 0)  -->
<!DOCTYPE svg PUBLIC "-//W3C//DTD SVG 1.1//EN" "http://www.w3.org/Graphics/SVG/1.1/DTD/svg11.dtd">
<svg version="1.1" xmlns="http://www.w3.org/2000/svg" xmlns:xlink="http://www.w3.org/1999/xlink" x="0px" y="0px"
	 width="164.667px" height="144px" viewBox="0 0 164.667 144" enable-background="new 0 0 164.667 144" xml:space="preserve">
<g id="podklad" display="none">
</g>
<g id="Layer_9">
</g>
<g id="Layer_1">
</g>
<g id="podklad_1_">
</g>
<g id="OBD_x5F_prvky">
</g>
<g id="Layer_7">
</g>
<g id="texty">
</g>
<g id="OTVR_x5F_hambac">
</g>
<g id="lista">
</g>
<g id="Layer_14">
</g>
<g id="_x33__x5F_ŘADEK_x5F_icon">
</g>
<g id="slunicko" display="none">
</g>
<g id="mesice">
</g>
<g id="kryti">
	<g>
		<g>
			<path fill="#FFFFFF" d="M77.679,97.405c0,1.915,1.553,3.468,3.468,3.468h4.817c1.915,0,3.468-1.553,3.468-3.468V80.258
				c0-1.916-1.553-3.469-3.468-3.469h-4.817c-1.915,0-3.468,1.553-3.468,3.469V97.405z"/>
			<path fill="#FF6427" d="M85.964,103.491h-4.817c-3.355,0-6.086-2.73-6.086-6.086V80.258c0-3.356,2.73-6.087,6.086-6.087h4.817
				c3.355,0,6.086,2.73,6.086,6.087v17.147C92.05,100.761,89.319,103.491,85.964,103.491z M81.146,79.406
				c-0.469,0-0.851,0.382-0.851,0.852v17.147c0,0.469,0.382,0.851,0.851,0.851h4.817c0.469,0,0.851-0.382,0.851-0.851V80.258
				c0-0.47-0.382-0.852-0.851-0.852H81.146z"/>
		</g>
		<g>
			<path fill="#FFFFFF" d="M57.434,97.405c0,1.915,1.553,3.468,3.468,3.468h4.817c1.915,0,3.468-1.553,3.468-3.468v-4.932
				c0-1.915-1.553-3.468-3.468-3.468h-4.817c-1.915,0-3.468,1.553-3.468,3.468V97.405z"/>
			<path fill="#FF6427" d="M65.719,103.491h-4.817c-3.355,0-6.086-2.73-6.086-6.086v-4.932c0-3.356,2.73-6.087,6.086-6.087h4.817
				c3.355,0,6.086,2.73,6.086,6.087v4.932C71.805,100.761,69.074,103.491,65.719,103.491z M60.901,91.623
				c-0.469,0-0.851,0.381-0.851,0.851v4.932c0,0.469,0.382,0.851,0.851,0.851h4.817c0.469,0,0.851-0.382,0.851-0.851v-4.932
				c0-0.47-0.382-0.851-0.851-0.851H60.901z"/>
		</g>
		<g>
			<path fill="#FFFFFF" d="M97.981,97.405c0,1.915,1.553,3.468,3.468,3.468h4.817c1.915,0,3.468-1.553,3.468-3.468V66.645
				c0-1.916-1.553-3.469-3.468-3.469h-4.817c-1.915,0-3.468,1.553-3.468,3.469V97.405z"/>
			<path fill="#FF6427" d="M106.267,103.491h-4.817c-3.355,0-6.086-2.73-6.086-6.086V66.645c0-3.356,2.73-6.087,6.086-6.087h4.817
				c3.355,0,6.086,2.73,6.086,6.087v30.761C112.353,100.761,109.622,103.491,106.267,103.491z M101.449,65.793
				c-0.469,0-0.851,0.382-0.851,0.852v30.761c0,0.469,0.382,0.851,0.851,0.851h4.817c0.469,0,0.851-0.382,0.851-0.851V66.645
				c0-0.47-0.382-0.852-0.851-0.852H101.449z"/>
		</g>
		<g>
			<g>
				<g>
					<g>
						<path fill="#FFFFFF" d="M61.822,69.215c-1.624,0-3.14-0.872-3.955-2.274c-0.615-1.056-0.781-2.288-0.469-3.47
							c0.313-1.182,1.066-2.17,2.123-2.783L90.51,42.664l-1.339-1.117c-0.811-0.678-1.135-1.773-0.823-2.783
							c0.312-1.008,1.198-1.73,2.249-1.832l15.709-1.518c0.077-0.008,0.154-0.011,0.23-0.011c0.909,0,1.761,0.474,2.237,1.261
							c0.518,0.852,0.505,1.924-0.03,2.766l-8.623,13.225c-0.488,0.749-1.318,1.188-2.192,1.188c-0.156,0-0.315-0.014-0.474-0.043
							c-1.038-0.191-1.86-0.987-2.085-2.019l-0.263-1.208L64.119,68.594C63.425,68.999,62.629,69.215,61.822,69.215z"/>
					</g>
				</g>
				<g>
					<g>
						<path fill="#FF6427" d="M106.535,38.021h0.003 M106.535,38.021l-0.075,0.119l-8.532,13.083l-1.028-4.723L62.803,66.33
							c-0.309,0.181-0.646,0.266-0.98,0.266c-0.674,0-1.33-0.348-1.692-0.973c-0.544-0.934-0.227-2.13,0.707-2.673l34.218-19.9
							l-4.206-3.513l15.547-1.504L106.535,38.021 M106.536,32.785c-0.05,0-0.101,0.001-0.151,0.002
							c-0.125,0.004-0.249,0.012-0.371,0.024l-0.077,0.007c-0.015,0.001-0.029,0.002-0.045,0.004l-15.547,1.503
							c-2.101,0.204-3.875,1.648-4.499,3.666c-0.431,1.396-0.253,2.876,0.436,4.104L58.205,58.424
							c-1.66,0.966-2.846,2.52-3.337,4.376c-0.492,1.858-0.23,3.796,0.736,5.458c1.283,2.205,3.665,3.574,6.218,3.574
							c1.27,0,2.521-0.338,3.619-0.979l28.313-16.466c0.774,1.021,1.914,1.745,3.226,1.986c0.317,0.059,0.634,0.087,0.948,0.087
							c1.747,0,3.406-0.878,4.384-2.376L110.846,41c0.01-0.015,0.02-0.029,0.028-0.044l0.013-0.021
							c0.56-0.833,0.886-1.836,0.886-2.914c0-2.844-2.267-5.16-5.094-5.234C106.632,32.786,106.584,32.785,106.536,32.785
							L106.536,32.785z"/>
					</g>
				</g>
			</g>
		</g>
	</g>
</g>
</svg>
