<?xml version="1.0" encoding="utf-8"?>
<!-- Generator: Adobe Illustrator 16.0.0, SVG Export Plug-In . SVG Version: 6.00 Build 0)  -->
<!DOCTYPE svg PUBLIC "-//W3C//DTD SVG 1.1//EN" "http://www.w3.org/Graphics/SVG/1.1/DTD/svg11.dtd">
<svg version="1.1" id="Isolation_Mode" xmlns="http://www.w3.org/2000/svg" xmlns:xlink="http://www.w3.org/1999/xlink" x="0px"
	 y="0px" width="60px" height="76px" viewBox="0 0 60 76" enable-background="new 0 0 60 76" xml:space="preserve">
<g>
	<g>
		<path fill="#FFFFFF" d="M29.622,67.616c-10.74,0-19.482-8.64-19.482-19.259V28.222c0-10.62,8.742-19.259,19.482-19.259h1.305
			c10.743,0,19.482,8.64,19.482,19.259v20.135c0,10.62-8.739,19.259-19.482,19.259H29.622z"/>
		<path fill="#FFFFFF" d="M30.927,12.462c8.813,0,15.982,7.069,15.982,15.759v20.135c0,8.69-7.17,15.759-15.982,15.759h-1.305
			c-8.813,0-15.982-7.069-15.982-15.759V28.222c0-8.69,7.17-15.759,15.982-15.759H30.927 M30.927,5.462h-1.305
			c-12.673,0-22.982,10.21-22.982,22.759v20.135c0,12.549,10.31,22.759,22.982,22.759h1.305c12.673,0,22.982-10.21,22.982-22.759
			V28.222C53.909,15.672,43.6,5.462,30.927,5.462L30.927,5.462z"/>
	</g>
	<g>
		<path fill="#FFFFFF" d="M29.623,62.616c-7.986,0-14.483-6.396-14.483-14.259V28.222c0-7.863,6.497-14.259,14.483-14.259h1.304
			c7.986,0,14.483,6.396,14.483,14.259v20.135c0,7.863-6.497,14.259-14.483,14.259H29.623z"/>
		<path fill="#48EFE7" d="M30.927,15.462c7.162,0,12.983,5.724,12.983,12.759v20.135c0,7.036-5.821,12.759-12.983,12.759h-1.304
			c-7.159,0-12.983-5.724-12.983-12.759V28.222c0-7.036,5.824-12.759,12.983-12.759H30.927 M30.927,12.462h-1.304
			c-8.813,0-15.983,7.069-15.983,15.759v20.135c0,8.69,7.17,15.759,15.983,15.759h1.304c8.813,0,15.983-7.069,15.983-15.759V28.222
			C46.91,19.532,39.74,12.462,30.927,12.462L30.927,12.462z"/>
	</g>
	<path fill="#48EFE7" d="M30.927,18.705h-1.304c-5.368,0-9.741,4.269-9.741,9.517v20.135c0,5.247,4.373,9.517,9.741,9.517h1.304
		c5.371,0,9.74-4.27,9.74-9.517V28.222C40.667,22.974,36.298,18.705,30.927,18.705z"/>
</g>
</svg>
