<?xml version="1.0" encoding="utf-8"?>
<!-- Generator: Adobe Illustrator 16.0.0, SVG Export Plug-In . SVG Version: 6.00 Build 0)  -->
<!DOCTYPE svg PUBLIC "-//W3C//DTD SVG 1.1//EN" "http://www.w3.org/Graphics/SVG/1.1/DTD/svg11.dtd">
<svg version="1.1" id="texty" xmlns="http://www.w3.org/2000/svg" xmlns:xlink="http://www.w3.org/1999/xlink" x="0px" y="0px"
	 width="51.334px" height="48.126px" viewBox="0 0 51.334 48.126" enable-background="new 0 0 51.334 48.126" xml:space="preserve">
<g>
	<path fill="#FFFFFF" d="M1403.75,1455.434h-342.035c-17.309,0-31.387,13.757-31.387,30.665v193.671
		c0,16.907,14.078,30.664,31.387,30.664h342.035c17.307,0,31.387-13.757,31.387-30.664v-193.671
		C1435.137,1469.19,1421.057,1455.434,1403.75,1455.434z"/>
	<path fill="#FFFFFF" d="M104.026,874.834h-345.498c-17.482,0-31.705,13.896-31.705,30.976v195.631
		c0,17.078,14.223,30.975,31.705,30.975h345.498c17.482,0,31.705-13.896,31.705-30.975V905.81
		C135.731,888.73,121.509,874.834,104.026,874.834z"/>
	<g>
		<rect x="-243.12" y="919.994" fill="none" width="480.932" height="109.908"/>
		<text transform="matrix(1 0 0 1 -243.1211 944.4941)"><tspan x="0" y="0" fill="#FF712E" font-family="'Gilroy-ExtraBold'" font-size="35">Web </tspan><tspan x="0" y="37.993" fill="#FF712E" font-family="'Gilroy-ExtraBold'" font-size="35">development</tspan></text>
	</g>
	<rect x="-243.443" y="1026.549" fill-rule="evenodd" clip-rule="evenodd" fill="none" width="343.59" height="207.569"/>
	<text transform="matrix(1 0 0 1 -243.4443 1042.3389)"><tspan x="0" y="0" fill="#7C7C7C" font-family="'Rubik-Regular'" font-size="22.2397">Dobře vypadající a bezchybně </tspan><tspan x="0" y="26.688" fill="#7C7C7C" font-family="'Rubik-Regular'" font-size="22.2397">fungující web je základem </tspan><tspan x="0" y="53.375" fill="#7C7C7C" font-family="'Rubik-Regular'" font-size="22.2397">každé úspěšné moderní firmy.</tspan></text>
	<path fill="#FFFFFF" d="M965.416,1165.434H623.381c-17.309,0-31.387,13.757-31.387,30.665v193.671
		c0,16.907,14.078,30.664,31.387,30.664h342.035c17.307,0,31.387-13.757,31.387-30.664v-193.671
		C996.803,1179.19,982.723,1165.434,965.416,1165.434z"/>
	<g>
		<rect x="626.204" y="1210.145" fill="none" width="476.115" height="108.807"/>
		<text transform="matrix(1 0 0 1 626.2051 1234.6445)"><tspan x="0" y="0" fill="#FF712E" font-family="'Gilroy-ExtraBold'" font-size="35">HR </tspan><tspan x="0" y="37.612" fill="#FF712E" font-family="'Gilroy-ExtraBold'" font-size="35">marketing</tspan></text>
	</g>
	<rect x="625.881" y="1315.628" fill="none" width="340.15" height="205.49"/>
	<text transform="matrix(1 0 0 1 625.8809 1331.418)"><tspan x="0" y="0" fill="#7C7C7C" font-family="'Rubik-Regular'" font-size="22.2397">Získejte nejlepší zaměstnance </tspan><tspan x="0" y="26.688" fill="#7C7C7C" font-family="'Rubik-Regular'" font-size="22.2397">a postarejte se o to, že u Vás </tspan><tspan x="0" y="53.375" fill="#7C7C7C" font-family="'Rubik-Regular'" font-size="22.2397">budou chtít zůstat.</tspan></text>
	<path fill="#FFFFFF" d="M96.121,1161.834h-342.035c-17.309,0-31.387,13.757-31.387,30.665v193.671
		c0,16.907,14.078,30.664,31.387,30.664H96.121c17.307,0,31.387-13.757,31.387-30.664v-193.671
		C127.508,1175.591,113.428,1161.834,96.121,1161.834z"/>
	<g>
		<rect x="-243.466" y="1206.545" fill="none" width="476.115" height="108.807"/>
		<text transform="matrix(1 0 0 1 -243.4648 1231.0449)"><tspan x="0" y="0" fill="#FF712E" font-family="'Gilroy-ExtraBold'" font-size="35">Korporátní </tspan><tspan x="0" y="37.612" fill="#FF712E" font-family="'Gilroy-ExtraBold'" font-size="35">identita</tspan></text>
	</g>
	<g>
		<rect x="-243.789" y="1312.028" fill="none" width="340.15" height="205.49"/>
		<text transform="matrix(1 0 0 1 -243.7891 1327.8184)"><tspan x="0" y="0" fill="#7C7C7C" font-family="'Rubik-Regular'" font-size="22.2397">Ujasněte si smysl a formu </tspan><tspan x="0" y="26.688" fill="#7C7C7C" font-family="'Rubik-Regular'" font-size="22.2397">vašeho jednání. Kým a proč </tspan><tspan x="0" y="53.375" fill="#7C7C7C" font-family="'Rubik-Regular'" font-size="22.2397">chcete doopravdy být?</tspan></text>
	</g>
	<path fill="#FFFFFF" d="M965.416,874.834H623.381c-17.309,0-31.387,13.757-31.387,30.665v193.671
		c0,16.907,14.078,30.664,31.387,30.664h342.035c17.307,0,31.387-13.757,31.387-30.664V905.499
		C996.803,888.591,982.723,874.834,965.416,874.834z"/>
	<g>
		<rect x="626.204" y="919.545" fill="none" width="476.115" height="108.807"/>
		<text transform="matrix(1 0 0 1 626.2051 944.0449)"><tspan x="0" y="0" fill="#FF712E" font-family="'Gilroy-ExtraBold'" font-size="35">Sociální </tspan><tspan x="0" y="37.612" fill="#FF712E" font-family="'Gilroy-ExtraBold'" font-size="35">sítě</tspan></text>
	</g>
	<g>
		<rect x="625.881" y="1025.028" fill="none" width="340.15" height="205.49"/>
		<text transform="matrix(1 0 0 1 625.8809 1040.8184)"><tspan x="0" y="0" fill="#7C7C7C" font-family="'Rubik-Regular'" font-size="22.2397">Neocenitelný nástroj pro </tspan><tspan x="0" y="26.688" fill="#7C7C7C" font-family="'Rubik-Regular'" font-size="22.2397">každého, kdo se chce se svým </tspan><tspan x="0" y="53.375" fill="#7C7C7C" font-family="'Rubik-Regular'" font-size="22.2397">produktem dostat mezi lidi.</tspan></text>
	</g>
	<path fill="#FFFFFF" d="M1403.752,878.434h-342.037c-17.307,0-31.387,13.757-31.387,30.665v193.671
		c0,16.907,14.08,30.664,31.387,30.664h342.037c17.307,0,31.387-13.757,31.387-30.664V909.099
		C1435.139,892.19,1421.059,878.434,1403.752,878.434z"/>
	<g>
		<rect x="1064.54" y="923.145" fill="none" width="476.115" height="108.807"/>
		<text transform="matrix(1 0 0 1 1064.541 947.6445)"><tspan x="0" y="0" fill="#FF712E" font-family="'Gilroy-ExtraBold'" font-size="35">Vývoj </tspan><tspan x="0" y="37.612" fill="#FF712E" font-family="'Gilroy-ExtraBold'" font-size="35">aplikací</tspan></text>
	</g>
	<g>
		<rect x="1064.217" y="1028.628" fill="none" width="340.148" height="205.49"/>
		<text transform="matrix(1 0 0 1 1064.2168 1044.418)"><tspan x="0" y="0" fill="#7C7C7C" font-family="'Rubik-Regular'" font-size="22.2397">Vyladěné aplikace Vás </tspan><tspan x="0" y="26.688" fill="#7C7C7C" font-family="'Rubik-Regular'" font-size="22.2397">dovedou k úspěchu a Vaše </tspan><tspan x="0" y="53.375" fill="#7C7C7C" font-family="'Rubik-Regular'" font-size="22.2397">klienty k pohodlnému životu.</tspan></text>
	</g>
	<path fill="#FFFFFF" d="M534.08,874.834H192.045c-17.309,0-31.387,13.757-31.387,30.665v193.671
		c0,16.907,14.078,30.664,31.387,30.664H534.08c17.307,0,31.387-13.757,31.387-30.664V905.499
		C565.467,888.591,551.387,874.834,534.08,874.834z"/>
	<g>
		<rect x="194.868" y="919.545" fill="none" width="476.115" height="108.807"/>
		<text transform="matrix(1 0 0 1 194.8691 944.0449)"><tspan x="0" y="0" fill="#FF712E" font-family="'Gilroy-ExtraBold'" font-size="35">Grafické </tspan><tspan x="0" y="37.612" fill="#FF712E" font-family="'Gilroy-ExtraBold'" font-size="35">studio</tspan></text>
	</g>
	<g>
		<polygon fill="none" points="534.695,1230.519 194.545,1230.519 194.545,1025.028 395.178,1025.028 534.695,1025.028 		"/>
		<text transform="matrix(1 0 0 1 194.5449 1040.8184)"><tspan x="0" y="0" fill="#7C7C7C" font-family="'Rubik-Regular'" font-size="22.2397">Protože vizuální stránka </tspan><tspan x="0" y="26.688" fill="#7C7C7C" font-family="'Rubik-Regular'" font-size="22.2397">je vždy až tím prvním, co </tspan><tspan x="0" y="53.375" fill="#7C7C7C" font-family="'Rubik-Regular'" font-size="22.2397">ovlivní zájem Vašich klientů.</tspan></text>
	</g>
	<path fill="#FFFFFF" d="M534.08,1161.834H192.045c-17.309,0-31.387,13.757-31.387,30.665v193.671
		c0,16.907,14.078,30.664,31.387,30.664H534.08c17.307,0,31.387-13.757,31.387-30.664v-193.671
		C565.467,1175.591,551.387,1161.834,534.08,1161.834z"/>
	<g>
		<rect x="194.868" y="1206.545" fill="none" width="476.115" height="108.807"/>
		<text transform="matrix(1 0 0 1 194.8691 1231.0449)"><tspan x="0" y="0" fill="#FF712E" font-family="'Gilroy-ExtraBold'" font-size="35">Offline </tspan><tspan x="0" y="37.612" fill="#FF712E" font-family="'Gilroy-ExtraBold'" font-size="35">marketing</tspan></text>
	</g>
	<g>
		<rect x="194.545" y="1312.028" fill="none" width="340.15" height="205.49"/>
		<text transform="matrix(1 0 0 1 194.5449 1327.8184)"><tspan x="0" y="0" fill="#7C7C7C" font-family="'Rubik-Regular'" font-size="22.2397">Oslovujte svět pomocí hmotné </tspan><tspan x="0" y="26.688" fill="#7C7C7C" font-family="'Rubik-Regular'" font-size="22.2397">reklamy. Ani v digitálním věku </tspan><tspan x="0" y="53.375" fill="#7C7C7C" font-family="'Rubik-Regular'" font-size="22.2397">nestačí být vidět pouze </tspan><tspan x="0" y="80.063" fill="#7C7C7C" font-family="'Rubik-Regular'" font-size="22.2397">online.</tspan></text>
	</g>
	<path fill="#FFFFFF" d="M1403.75,1165.434h-342.035c-17.309,0-31.387,13.757-31.387,30.665v193.671
		c0,16.907,14.078,30.664,31.387,30.664h342.035c17.307,0,31.387-13.757,31.387-30.664v-193.671
		C1435.137,1179.19,1421.057,1165.434,1403.75,1165.434z"/>
	<g>
		<circle fill="#F37337" cx="1194.5" cy="1283.934" r="8.441"/>
		<circle fill="#F37337" cx="1233.23" cy="1283.934" r="8.441"/>
		<circle fill="#F37337" cx="1270.967" cy="1283.934" r="8.441"/>
	</g>
	<g>
		<rect x="1064.215" y="1499.821" fill="none" width="476.115" height="108.807"/>
		<text transform="matrix(1 0 0 1 1064.2168 1524.3213)"><tspan x="0" y="0" fill="#FF712E" font-family="'Gilroy-ExtraBold'" font-size="35">Cloudové </tspan><tspan x="0" y="37.612" fill="#FF712E" font-family="'Gilroy-ExtraBold'" font-size="35">řešení</tspan></text>
	</g>
	<g>
		<rect x="1064.215" y="1605.628" fill="none" width="340.15" height="205.49"/>
		<text transform="matrix(1 0 0 1 1064.2168 1621.418)"><tspan x="0" y="0" fill="#7C7C7C" font-family="'Rubik-Regular'" font-size="22.2397">Cloudové systémy jsou i budou </tspan><tspan x="0" y="26.688" fill="#7C7C7C" font-family="'Rubik-Regular'" font-size="22.2397">ideálním řešením jak </tspan><tspan x="0" y="53.375" fill="#7C7C7C" font-family="'Rubik-Regular'" font-size="22.2397">minimalizovat firemní náklady.</tspan></text>
	</g>
	<path fill="#FFFFFF" d="M534.08,1451.834H192.045c-17.309,0-31.387,13.757-31.387,30.665v193.671
		c0,16.907,14.078,30.664,31.387,30.664H534.08c17.307,0,31.387-13.757,31.387-30.664v-193.671
		C565.467,1465.591,551.387,1451.834,534.08,1451.834z"/>
	<g>
		<rect x="194.868" y="1513.044" fill="none" width="476.115" height="108.807"/>
		<text transform="matrix(1 0 0 1 194.8691 1537.5439)" fill="#FF712E" font-family="'Gilroy-ExtraBold'" font-size="35">Animace</text>
	</g>
	<g>
		<rect x="194.545" y="1602.028" fill="none" width="340.15" height="205.49"/>
		<text transform="matrix(1 0 0 1 194.5449 1617.8184)"><tspan x="0" y="0" fill="#7C7C7C" font-family="'Rubik-Regular'" font-size="22.2397">Dynamická grafika baví svět. </tspan><tspan x="0" y="26.688" fill="#7C7C7C" font-family="'Rubik-Regular'" font-size="22.2397">Nespoléhejte na statický </tspan><tspan x="0" y="53.375" fill="#7C7C7C" font-family="'Rubik-Regular'" font-size="22.2397">vizuál, který patří do minulého </tspan><tspan x="0" y="80.063" fill="#7C7C7C" font-family="'Rubik-Regular'" font-size="22.2397">století.</tspan></text>
	</g>
	<path fill="#FFFFFF" d="M965.666,1451.668H623.631c-17.309,0-31.387,13.756-31.387,30.664v193.671
		c0,16.907,14.078,30.665,31.387,30.665h342.035c17.307,0,31.387-13.758,31.387-30.665v-193.671
		C997.053,1465.424,982.973,1451.668,965.666,1451.668z"/>
	<g>
		<rect x="625.881" y="1496.222" fill="none" width="476.115" height="108.807"/>
		<text transform="matrix(1 0 0 1 625.8809 1520.7217)"><tspan x="0" y="0" fill="#FF712E" font-family="'Gilroy-ExtraBold'" font-size="35">Foto/ </tspan><tspan x="0" y="37.612" fill="#FF712E" font-family="'Gilroy-ExtraBold'" font-size="35">video</tspan></text>
	</g>
	<g>
		<rect x="625.881" y="1602.028" fill="none" width="340.15" height="205.49"/>
		<text transform="matrix(1 0 0 1 625.8809 1617.8184)"><tspan x="0" y="0" fill="#7C7C7C" font-family="'Rubik-Regular'" font-size="22.2397">Nepromarněte jedinečnou </tspan><tspan x="0" y="26.688" fill="#7C7C7C" font-family="'Rubik-Regular'" font-size="22.2397">možnost zaznamenat důležité </tspan><tspan x="0" y="53.375" fill="#7C7C7C" font-family="'Rubik-Regular'" font-size="22.2397">momenty Vaší kariéry a </tspan><tspan x="0" y="80.063" fill="#7C7C7C" font-family="'Rubik-Regular'" font-size="22.2397">života.</tspan></text>
	</g>
	<path fill="#FFFFFF" d="M95.496,1455.809h-342.035c-17.309,0-31.387,13.757-31.387,30.665v193.671
		c0,16.907,14.078,30.664,31.387,30.664H95.496c17.307,0,31.387-13.757,31.387-30.664v-193.671
		C126.883,1469.565,112.803,1455.809,95.496,1455.809z"/>
	<g>
		<rect x="-243.466" y="1500.145" fill="none" width="476.115" height="108.807"/>
		<text transform="matrix(1 0 0 1 -243.4668 1524.6445)"><tspan x="0" y="0" fill="#FF712E" font-family="'Gilroy-ExtraBold'" font-size="35">Analýza/ </tspan><tspan x="0" y="37.612" fill="#FF712E" font-family="'Gilroy-ExtraBold'" font-size="35">strategie</tspan></text>
	</g>
	<g>
		<rect x="-243.789" y="1605.628" fill="none" width="340.15" height="205.49"/>
		<text transform="matrix(1 0 0 1 -243.7891 1621.418)"><tspan x="0" y="0" fill="#7C7C7C" font-family="'Rubik-Regular'" font-size="22.2397">Když vše nefunguje tak, jak </tspan><tspan x="0" y="26.688" fill="#7C7C7C" font-family="'Rubik-Regular'" font-size="22.2397">by mělo. Najděte s námi </tspan><tspan x="0" y="53.375" fill="#7C7C7C" font-family="'Rubik-Regular'" font-size="22.2397">příčinu </tspan><tspan x="0" y="80.063" fill="#7C7C7C" font-family="'Rubik-Regular'" font-size="22.2397">i řešení problému.</tspan></text>
	</g>
	<path fill="#FFFFFF" d="M1403.75,1165.434h-342.035c-17.309,0-31.387,13.757-31.387,30.665v193.671
		c0,16.907,14.078,30.664,31.387,30.664h342.035c17.307,0,31.387-13.757,31.387-30.664v-193.671
		C1435.137,1179.19,1421.057,1165.434,1403.75,1165.434z"/>
	<g>
		<rect x="1064.538" y="1210.145" fill="none" width="476.115" height="108.807"/>
		<text transform="matrix(1 0 0 1 1064.5391 1234.6445)"><tspan x="0" y="0" fill="#FF712E" font-family="'Gilroy-ExtraBold'" font-size="35">Školení </tspan><tspan x="0" y="37.612" fill="#FF712E" font-family="'Gilroy-ExtraBold'" font-size="35">online</tspan></text>
	</g>
	<g>
		<rect x="1064.215" y="1315.628" fill="none" width="340.15" height="205.49"/>
		<text transform="matrix(1 0 0 1 1064.2148 1331.418)"><tspan x="0" y="0" fill="#7C7C7C" font-family="'Rubik-Regular'" font-size="22.2397">Vzdělávejte se bez cestování </tspan><tspan x="0" y="26.688" fill="#7C7C7C" font-family="'Rubik-Regular'" font-size="22.2397">a řešit technické nesnáze. </tspan><tspan x="0" y="53.375" fill="#7C7C7C" font-family="'Rubik-Regular'" font-size="22.2397">Seberozvoj na dálku funguje.</tspan></text>
	</g>
	<g>
		<g>
			<path fill="#4AE5D9" d="M935.416,941.547c-0.364-1.139-1.423-1.912-2.619-1.912h-17.838l-5.739-17.737
				c-0.367-1.135-1.424-1.903-2.616-1.903s-2.25,0.77-2.616,1.904l-5.735,17.736h-17.84c-1.196,0-2.255,0.773-2.619,1.912
				c-0.364,1.14,0.049,2.383,1.023,3.078l14.533,10.355l-5.537,17.139c-0.366,1.134,0.039,2.374,1.004,3.073
				c0.481,0.349,1.048,0.522,1.613,0.522c0.568,0,1.137-0.176,1.619-0.527l14.555-10.605l14.559,10.605
				c0.963,0.701,2.268,0.703,3.232,0.004s1.37-1.939,1.003-3.073l-5.544-17.138l14.539-10.355
				C935.366,943.931,935.78,942.687,935.416,941.547z M915.021,951.67c-0.977,0.695-1.39,1.944-1.02,3.086l3.558,11.003
				l-9.337-6.802c-0.965-0.703-2.273-0.703-3.238,0l-9.337,6.804l3.556-11.006c0.368-1.142-0.045-2.39-1.021-3.085l-9.171-6.535
				h11.241c1.192,0,2.25-0.77,2.616-1.904l3.735-11.551l3.737,11.552c0.368,1.135,1.424,1.903,2.616,1.903h11.239L915.021,951.67z"
				/>
			<path fill="#4AE5D9" d="M880.928,959.799l-5.551-2.923l1.126-6.501c0.167-0.961-0.306-1.92-1.169-2.375
				c-0.865-0.455-1.922-0.301-2.619,0.381l-4.722,4.608l-5.553-2.923c-0.868-0.457-1.927-0.3-2.625,0.385
				c-0.698,0.687-0.872,1.745-0.432,2.619l2.825,5.6l-4.536,4.43c-0.697,0.681-0.877,1.733-0.444,2.607
				c0.432,0.873,1.38,1.369,2.342,1.229l6.277-0.916l2.796,5.693c0.382,0.778,1.17,1.259,2.019,1.259
				c0.106,0,0.213-0.007,0.32-0.022c0.965-0.139,1.73-0.883,1.897-1.843l1.085-6.249l6.216-0.838
				c0.97-0.131,1.744-0.873,1.915-1.837C882.266,961.219,881.794,960.256,880.928,959.799z M871.729,960.619
				c-0.973,0.131-1.748,0.877-1.916,1.845l-0.183,1.051l-0.467-0.95c-0.382-0.778-1.171-1.259-2.019-1.259
				c-0.108,0-0.217,0.008-0.326,0.023l-1.051,0.153l0.763-0.745c0.702-0.686,0.879-1.747,0.437-2.622l-0.397-0.789l0.775,0.408
				c0.861,0.455,1.921,0.3,2.619-0.381l0.917-0.895l-0.219,1.261c-0.167,0.962,0.305,1.921,1.169,2.375l0.771,0.406L871.729,960.619
				z"/>
		</g>
	</g>
	<g>
		<path fill="#4AE5D9" d="M81.348,1219.297h-2.701v-3.646h-3.283v3.646h-4.359v-3.557h0.002v-1.549c0-2.941-2.359-5.303-5.303-5.303
			H49.797c-2.942,0-5.303,2.361-5.303,5.303v5.105h-4.313v-3.646h-3.283v3.646h-2.744c-4.404,0-7.986,3.582-7.986,7.986v30.521
			c0,4.403,3.582,7.987,7.986,7.987h47.193c4.404,0,7.986-3.584,7.986-7.987v-30.521
			C89.334,1222.879,85.752,1219.297,81.348,1219.297z M49.797,1214.191h15.906v5.105H49.797V1214.191z M34.154,1224.996h2.744v3.643
			h3.283v-3.643h4.313v5.102h5.303v-5.102h15.906v5.102h5.301v-5.102h4.359v3.643h3.283v-3.643h2.701
			c1.262,0,2.287,1.025,2.287,2.287v14.009H31.866v-14.009C31.866,1226.021,32.893,1224.996,34.154,1224.996z M81.348,1260.092
			H34.154c-1.262,0-2.288-1.027-2.288-2.288v-5.114h51.769v5.114C83.635,1259.064,82.609,1260.092,81.348,1260.092z"/>
	</g>
	<g>
		<g>
			<path fill="#4AE5D9" d="M1350.846,919.152l-27.309,0.002c-3.279,0.006-5.941,2.68-5.935,5.959l0.015,7.854l5.462-0.011
				l-0.016-7.153l28.282-0.056l0.094,46.537l-28.281,0.058l-0.018-7.967l-5.459,0.01l0.024,11.972
				c0.007,3.28,2.679,5.944,5.958,5.938l27.309-0.057c3.279-0.006,5.941-2.68,5.936-5.961l-0.104-51.244
				C1356.799,921.782,1354.125,919.145,1350.846,919.152z"/>
			<polygon fill="#4AE5D9" points="1318.087,959.035 1318.072,951.893 1325.211,951.879 1325.199,945.439 1318.059,945.453 
				1318.045,938.313 1311.604,938.326 1311.618,945.466 1304.475,945.48 1304.487,951.921 1311.631,951.906 1311.646,959.051 			"/>
		</g>
	</g>
	<g>
		<g>
			<path fill="#4AE5D9" d="M488.173,1231.756h-0.005h-6.411l-2.063-6.374c-0.133-0.407-0.511-0.683-0.938-0.683
				c-0.427,0-0.805,0.276-0.938,0.683l-2.061,6.374h-6.412c-0.427,0-0.807,0.277-0.938,0.686c-0.131,0.409,0.018,0.854,0.367,1.104
				l5.222,3.722l-1.988,6.159c-0.13,0.406,0.016,0.851,0.361,1.102c0.173,0.124,0.375,0.187,0.578,0.187s0.407-0.063,0.58-0.188
				l5.229-3.81l5.231,3.81c0.173,0.126,0.377,0.188,0.58,0.188c0.205,0,0.406-0.063,0.579-0.188c0.346-0.25,0.491-0.695,0.36-1.102
				l-1.994-6.158l5.201-3.703c0.267-0.177,0.441-0.478,0.441-0.822C489.155,1232.197,488.716,1231.756,488.173,1231.756z"/>
			<path fill="#4AE5D9" d="M506.202,1211.384h-54.501c-4.309,0-7.814,3.629-7.814,8.088v31.422c0,4.46,3.506,8.088,7.814,8.088
				h7.845v8.089h4.538v-8.089h29.86v8.089h4.538v-8.089h7.72c4.311,0,7.816-3.628,7.816-8.088v-31.422
				C514.019,1215.013,510.513,1211.384,506.202,1211.384z M508.103,1250.894c0,1.197-0.853,2.172-1.9,2.172h-54.501
				c-1.046,0-1.898-0.975-1.898-2.172v-31.422c0-1.197,0.853-2.172,1.898-2.172h54.501c1.048,0,1.9,0.975,1.9,2.172V1250.894z"/>
		</g>
	</g>
	<g>
		<g>
			<g>
				<path fill="#4AE5D9" d="M39.337,1507.66H29.283c-1.381,0-2.5,1.119-2.5,2.5v37.524c0,1.381,1.119,2.5,2.5,2.5h10.054
					c1.381,0,2.5-1.119,2.5-2.5v-37.524C41.837,1508.779,40.718,1507.66,39.337,1507.66z M36.837,1545.185h-5.054v-32.524h5.054
					V1545.185z"/>
				<path fill="#4AE5D9" d="M58.598,1520.466H48.545c-1.381,0-2.5,1.12-2.5,2.5v24.719c0,1.381,1.119,2.5,2.5,2.5h10.053
					c1.381,0,2.5-1.119,2.5-2.5v-24.719C61.098,1521.586,59.979,1520.466,58.598,1520.466z M56.098,1545.185h-5.053v-19.719h5.053
					V1545.185z"/>
				<path fill="#4AE5D9" d="M78.479,1494.854H68.426c-1.381,0-2.5,1.119-2.5,2.5v50.331c0,1.381,1.119,2.5,2.5,2.5h10.054
					c1.381,0,2.5-1.119,2.5-2.5v-50.331C80.979,1495.973,79.86,1494.854,78.479,1494.854z M75.979,1545.185h-5.054v-45.331h5.054
					V1545.185z"/>
			</g>
		</g>
		<rect x="22.094" y="1556.733" fill="#4AE5D9" width="62.449" height="3.158"/>
	</g>
	<g>
		<g>
			<path fill="#4AE5D9" d="M473.509,1492.351c-17.755,0-32.199,14.445-32.199,32.201c0,0.65,0.026,1.295,0.063,1.937l-2.841,1.019
				l0.878,2.449l2.233-0.801c0.188,1.306,0.456,2.586,0.796,3.837l-2.396,0.859l0.878,2.449l2.3-0.825
				c4.483,12.395,16.366,21.276,30.288,21.276c17.755,0,32.2-14.445,32.2-32.2C505.709,1506.796,491.264,1492.351,473.509,1492.351z
				 M473.509,1550.752c-11.323,0-20.989-7.223-24.641-17.301l2.916-1.046l-0.877-2.449l-2.802,1.004
				c-0.318-1.26-0.544-2.556-0.672-3.881l2.841-1.019l-0.879-2.449l-2.081,0.746c0.105-14.357,11.813-26.007,26.194-26.007
				c14.446,0,26.2,11.754,26.2,26.201C499.709,1538.998,487.955,1550.752,473.509,1550.752z"/>
			<path fill="#4AE5D9" d="M484.533,1522.484l-14.217-9.479c-0.748-0.498-1.753-0.548-2.553-0.123
				c-0.808,0.435-1.31,1.274-1.31,2.191v18.953c0,0.918,0.502,1.757,1.311,2.189c0.359,0.192,0.766,0.295,1.174,0.295
				c0.495,0,0.972-0.146,1.378-0.418l14.217-9.477c0.691-0.462,1.104-1.234,1.104-2.065
				C485.638,1523.716,485.225,1522.943,484.533,1522.484z"/>
		</g>
	</g>
	<g>
		<g>
			<rect x="891.336" y="1524.039" fill="#4AE5D9" width="7.251" height="7.619"/>
			<rect x="891.336" y="1535.559" fill="#4AE5D9" width="7.251" height="7.62"/>
			<path fill="#4AE5D9" d="M897.656,1494.714h-37.733c-3.877,0-7.031,3.237-7.031,7.217v40.317c0,3.98,3.154,7.217,7.031,7.217
				h37.733c3.876,0,7.028-3.236,7.028-7.217v-40.317C904.685,1497.951,901.532,1494.714,897.656,1494.714z M858.16,1501.931
				c0-1.075,0.791-1.95,1.763-1.95h37.733c0.973,0,1.762,0.875,1.762,1.95v40.317c0,1.074-0.789,1.949-1.762,1.949h-37.733
				c-0.972,0-1.763-0.875-1.763-1.949V1501.931z"/>
		</g>
		<g>
			<path fill="#4AE5D9" d="M891.875,1509.098h5.186v-5.428h-5.186V1509.098 M868.547,1525.387h20.731v-21.717h-20.731V1525.387
				 M860.772,1509.098h5.185v-5.428h-5.185V1509.098 M891.875,1519.957h5.186v-5.428h-5.186V1519.957 M860.772,1519.957h5.185
				v-5.428h-5.185V1519.957 M891.875,1530.818h5.186v-5.432h-5.186V1530.818 M860.772,1530.818h5.185v-5.432h-5.185V1530.818
				 M868.547,1547.824h20.731v-19.721h-20.731v13.574 M891.875,1541.678h5.186v-5.432h-5.186V1541.678 M860.772,1541.678h5.185
				v-5.432h-5.185V1541.678 M871.824,1506.883h14.181v15.293h-14.181V1506.883L871.824,1506.883z M871.824,1531.313h14.181v13.301
				h-14.181V1531.313L871.824,1531.313z"/>
		</g>
		<g>
			<g>
				<path fill="#FFFFFF" d="M927.604,1519.861h-0.439v-1.762c0-1.389-1.125-2.514-2.516-2.514h-4.261
					c-1.39,0-2.515,1.125-2.515,2.514v1.762h-23.446c-3.669,0-6.653,3.102-6.653,6.916v19.869c0,3.813,2.984,6.916,6.653,6.916
					h33.177c3.672,0,6.656-3.103,6.656-6.916v-19.869C934.26,1522.963,931.275,1519.861,927.604,1519.861z"/>
				<path fill="#FFFFFF" d="M927.604,1556.818h-33.177c-5.464,0-9.909-4.563-9.909-10.172v-19.869
					c0-5.609,4.445-10.171,9.909-10.171h20.387c0.66-2.46,2.91-4.276,5.574-4.276h4.261c2.804,0,5.148,2.009,5.666,4.662
					c4.152,1.213,7.201,5.14,7.201,9.785v19.869C937.516,1552.256,933.069,1556.818,927.604,1556.818z M894.427,1523.117
					c-1.873,0-3.398,1.643-3.398,3.66v19.869c0,2.02,1.525,3.661,3.398,3.661h33.177c1.876,0,3.401-1.642,3.401-3.661v-19.869
					c0-2.018-1.525-3.66-3.401-3.66h-3.694v-4.277h-2.78v4.277H894.427z"/>
			</g>
			<g>
				<g>
					<path fill="#4AE5D9" d="M927.164,1520.556v-2.363c0-1.388-1.125-2.515-2.516-2.515h-4.261c-1.39,0-2.515,1.127-2.515,2.515
						v2.363H927.164z"/>
				</g>
				<g>
					<path fill="#FFFFFF" d="M927.604,1521.998h-9.145h-4.846h-19.187c-2.543,0-4.611,2.184-4.611,4.87v7.155v5.561v7.156
						c0,2.686,2.068,4.87,4.611,4.87h19.187h4.846h9.145c2.544,0,4.614-2.185,4.614-4.87v-7.156v-5.561v-7.155
						C932.218,1524.182,930.147,1521.998,927.604,1521.998z"/>
					<path fill="#4AE5D9" d="M927.604,1553.936h-33.177c-3.824,0-6.937-3.227-6.937-7.195v-19.872c0-3.968,3.112-7.196,6.937-7.196
						h33.177c3.827,0,6.939,3.229,6.939,7.196v19.872C934.543,1550.709,931.431,1553.936,927.604,1553.936z M894.427,1524.323
						c-1.261,0-2.286,1.142-2.286,2.545v19.872c0,1.402,1.025,2.545,2.286,2.545h33.177c1.262,0,2.289-1.143,2.289-2.545v-19.872
						c0-1.403-1.027-2.545-2.289-2.545H894.427z"/>
				</g>
				<g>
					<path fill="#4AE5D9" d="M898.533,1528.404c0.813,0,1.473,0.66,1.473,1.473c0,0.814-0.659,1.473-1.473,1.473
						c-0.814,0-1.473-0.658-1.473-1.473C897.061,1529.064,897.719,1528.404,898.533,1528.404z M911.793,1528.404
						c4.881,0,8.837,3.957,8.837,8.838c0,4.879-3.956,8.841-8.837,8.841c-4.885,0-8.841-3.962-8.841-8.841
						C902.952,1532.361,906.908,1528.404,911.793,1528.404z M911.793,1543.137c3.252,0,5.893-2.641,5.893-5.895
						c0-3.252-2.641-5.893-5.893-5.893c-3.255,0-5.896,2.641-5.896,5.893C905.897,1540.496,908.538,1543.137,911.793,1543.137z"/>
					<path fill="#4AE5D9" d="M911.793,1547.014c-5.389,0-9.77-4.384-9.77-9.771c0-5.387,4.381-9.768,9.77-9.768
						c5.386,0,9.768,4.381,9.768,9.768C921.561,1542.63,917.179,1547.014,911.793,1547.014z M911.793,1529.334
						c-4.363,0-7.91,3.549-7.91,7.908c0,4.362,3.547,7.91,7.91,7.91c4.359,0,7.906-3.548,7.906-7.91
						C919.699,1532.883,916.152,1529.334,911.793,1529.334z M911.793,1544.068c-3.764,0-6.826-3.063-6.826-6.826
						c0-3.763,3.063-6.822,6.826-6.822c3.762,0,6.822,3.06,6.822,6.822C918.615,1541.006,915.555,1544.068,911.793,1544.068z
						 M911.793,1532.279c-2.738,0-4.965,2.227-4.965,4.963c0,2.738,2.227,4.966,4.965,4.966c2.736,0,4.962-2.228,4.962-4.966
						C916.755,1534.506,914.529,1532.279,911.793,1532.279z M898.533,1532.279c-1.326,0-2.403-1.077-2.403-2.402
						c0-1.324,1.077-2.402,2.403-2.402c1.324,0,2.402,1.078,2.402,2.402C900.936,1531.202,899.857,1532.279,898.533,1532.279z
						 M898.533,1529.334c-0.299,0-0.543,0.244-0.543,0.543c0,0.301,0.244,0.543,0.543,0.543s0.543-0.242,0.543-0.543
						C899.076,1529.578,898.832,1529.334,898.533,1529.334z"/>
				</g>
			</g>
		</g>
	</g>
	<g>
		<g>
			<path fill="#4AE5D9" d="M897.492,1252.103c3.586-1.346,6.15-4.799,6.15-8.848c0-5.215-4.243-9.457-9.459-9.457
				s-9.459,4.242-9.459,9.457c0,4.049,2.563,7.502,6.149,8.848c-8.021,0.996-14.255,7.84-14.255,16.125c0,1.104,0.896,2,2,2h31.128
				c0.006,0,0.014,0,0.014,0c1.111,0,2.006-0.896,2.006-2c0-0.104-0.007-0.205-0.022-0.303
				C911.595,1259.776,905.416,1253.087,897.492,1252.103z M888.725,1243.255c0-3.01,2.449-5.457,5.459-5.457
				s5.459,2.447,5.459,5.457c0,3.009-2.449,5.457-5.459,5.457S888.725,1246.264,888.725,1243.255z M880.782,1266.228
				c0.958-5.814,6.021-10.264,12.104-10.264h2.594c6.083,0,11.146,4.449,12.104,10.264H880.782z"/>
			<path fill="#4AE5D9" d="M868.801,1224.089c3.836,0,6.955-3.121,6.955-6.955c0-3.836-3.119-6.955-6.955-6.955
				s-6.957,3.119-6.957,6.955C861.844,1220.968,864.965,1224.089,868.801,1224.089z"/>
			<path fill="#4AE5D9" d="M881.9,1237.224c0-6.682-5.436-12.115-12.118-12.115h-1.966c-6.682,0-12.118,5.434-12.118,12.115
				c0,0.717,0.582,1.299,1.3,1.299h23.604C881.319,1238.522,881.9,1237.94,881.9,1237.224z"/>
			<path fill="#4AE5D9" d="M918.844,1224.089c3.836,0,6.957-3.121,6.957-6.955c0-3.836-3.121-6.955-6.957-6.955
				c-3.834,0-6.954,3.119-6.954,6.955C911.89,1220.968,915.01,1224.089,918.844,1224.089z"/>
			<path fill="#4AE5D9" d="M919.828,1225.108h-1.967c-6.682,0-12.118,5.434-12.118,12.115c0,0.717,0.582,1.299,1.3,1.299h23.603
				c0.718,0,1.3-0.582,1.3-1.299C931.945,1230.542,926.51,1225.108,919.828,1225.108z"/>
			<rect x="885.275" y="1222.462" fill="#4AE5D9" width="18.15" height="3"/>
			
				<rect x="868.671" y="1246.45" transform="matrix(0.7071 0.7071 -0.7071 0.7071 1138.8062 -253.4216)" fill="#4AE5D9" width="13.279" height="3"/>
			
				<rect x="912.648" y="1241.31" transform="matrix(-0.7071 -0.7071 0.7071 -0.7071 678.1145 2776.7837)" fill="#4AE5D9" width="3" height="13.279"/>
		</g>
	</g>
	<g>
		<path fill="#4AE5D9" d="M482.778,932.202c-2.219,0.009-4.267,1.365-5.215,3.457c-1.329,2.956-0.12,6.528,2.697,7.962
			c0.8,0.406,1.655,0.612,2.546,0.612h0.02c2.223-0.011,4.27-1.366,5.211-3.456c1.334-2.955,0.127-6.527-2.691-7.961
			C484.549,932.408,483.692,932.202,482.778,932.202z M481.218,937.311c0.308-0.674,0.912-1.095,1.577-1.099l0.004-0.484l0,0v0.484
			c0.248,0,0.494,0.061,0.727,0.179c0.938,0.478,1.322,1.705,0.855,2.736c-0.295,0.66-0.925,1.088-1.603,1.088
			c-0.243,0-0.479-0.057-0.698-0.168C481.142,939.569,480.755,938.342,481.218,937.311z M482.807,943.749L482.807,943.749
			L482.807,943.749L482.807,943.749z"/>
		<path fill="#4AE5D9" d="M469.602,951.094c2.225-0.01,4.271-1.367,5.213-3.459c1.336-2.955,0.127-6.527-2.693-7.959
			c-0.801-0.41-1.657-0.615-2.564-0.615c-2.221,0.008-4.27,1.365-5.215,3.459c-1.33,2.953-0.121,6.525,2.697,7.963
			c0.801,0.404,1.656,0.611,2.543,0.611H469.602z M469.578,942.59v0.482c0.254,0,0.491,0.057,0.725,0.176
			c0.938,0.479,1.324,1.705,0.857,2.738c-0.406,0.898-1.483,1.337-2.301,0.921c-0.939-0.478-1.324-1.708-0.857-2.741
			c0.302-0.672,0.906-1.092,1.57-1.094L469.578,942.59L469.578,942.59z M469.582,950.609L469.582,950.609L469.582,950.609
			L469.582,950.609z"/>
		<path fill="#4AE5D9" d="M463.414,951.77c-2.225,0.008-4.27,1.364-5.212,3.455c-1.333,2.954-0.125,6.527,2.692,7.963
			c0.803,0.406,1.66,0.613,2.545,0.613h0.137l0.001-0.002c2.177-0.055,4.167-1.4,5.097-3.457c1.331-2.953,0.123-6.525-2.695-7.961
			C465.179,951.975,464.325,951.77,463.414,951.77z M463.441,955.297v0.482c0.246,0,0.488,0.059,0.717,0.176
			c0.938,0.479,1.324,1.706,0.858,2.738c-0.405,0.904-1.47,1.343-2.304,0.918c-0.938-0.477-1.321-1.705-0.854-2.738
			c0.304-0.672,0.906-1.092,1.573-1.094L463.441,955.297L463.441,955.297z"/>
		<path fill="#4AE5D9" d="M511.316,945.58c2.391,5.265,3.263,11.526,1.826,17.127c-0.787,3.062-2.748,7.971-6.783,6.99
			c-3.059-0.742-5.456-2.967-7.818-4.916c-2.436-2.009-4.957-4.004-7.841-5.337c-4.159-1.927-8.602-1.855-12.794-0.053
			c-5.133,2.203-8.801,6.433-13.474,9.331c-2.021,1.252-4.774,1.645-6.542-0.153c-1.447-1.47-2.129-3.608-2.596-5.567
			c-1.348-5.638-0.543-11.557,1.575-16.895c1.89-4.762,5.572-9.291,9.731-12.221c5.166-3.638,11.642-5.604,18.043-5.566
			c3.336,0.02,6.65,0.584,9.75,1.737c2.295,0.854,4.444,1.949,6.437,3.264c1.12-1.261,2.342-2.606,3.636-3.993
			c-2.586-1.834-5.123-3.182-7.691-4.093c-4.113-1.456-8.367-2.259-11.981-2.259c-0.28,0-0.56,0.006-0.825,0.016
			c-4.6,0.123-8.967,0.986-12.983,2.563c-8.659,3.398-15.781,10.349-19.056,18.591c-2.115,5.329-4.035,13.463-1.172,21.946
			c1.845,5.47,4.992,8.72,8.863,9.149c0.359,0.04,0.719,0.061,1.072,0.061c4.309,0,7.799-2.799,10.606-5.049l0.952-0.764
			c2.473-1.99,5.029-4.048,7.751-5.217c1.841-0.791,3.462-1.108,5.087-0.97c3.412,0.284,6.508,2.741,9.508,5.124l1.055,0.844
			c3.303,2.654,7.412,5.958,12.305,5.958c4.229-0.006,7.65-3.251,9.637-9.137c1.508-4.466,1.797-9.562,0.974-14.561
			c-0.533-3.23-1.531-6.422-2.969-9.374C513.945,943.508,512.467,944.682,511.316,945.58z"/>
		<path fill="#4AE5D9" d="M531.962,915.998c-0.756-1.043-1.923-1.618-3.288-1.618c-7.527,0-25.93,21.12-28.004,23.528l-0.668,0.777
			c-0.476-0.113-0.965-0.189-1.469-0.211l-0.219-0.005c-0.739,0-1.475,0.169-2.197,0.505c-0.117-0.01-0.237-0.014-0.352-0.014
			c-1.018,0-2.547,0.332-4.063,1.917c-1.623,1.697-3.407,5.167-3.193,7.479l-0.147,0.245c-0.418,0.707-0.852,1.433-1.299,2.174
			c-0.636,1.047-0.674,2.225-0.106,3.23c1.204,2.14,4.741,2.902,7.651,2.902h0.001c2.005,0,3.927-0.345,5.554-0.997
			c3.693-1.477,5.825-4.686,6.002-9.034c0.013-0.334,0-0.664-0.025-0.99l1.027-0.771c0.07-0.053,7.139-5.373,13.67-11.245
			C531.186,924.568,534.41,919.391,531.962,915.998z M494.143,943.216c0.092-0.098,0.186-0.167,0.275-0.248
			c-0.283,0.763-0.53,1.615-0.598,2.399c-0.439,0.167-0.922,0.371-1.41,0.613C492.803,945.047,493.394,943.997,494.143,943.216z
			 M498.906,952.775c-1.215,0.486-2.74,0.754-4.298,0.754h-0.001c-2.573,0-4.176-0.688-4.611-1.074
			c0.438-0.725,0.86-1.436,1.27-2.126l0.973-1.632l-0.003-0.009c1.228-0.862,3.101-1.503,3.872-1.706c0,0-0.898-2.722,1.09-4.756
			l0.085-0.05c0.372-0.22,0.706-0.327,1.093-0.327c0,0,0.002,0,0.005,0c2.534,0.117,4.513,2.311,4.408,4.891
			C502.663,949.764,501.358,951.793,498.906,952.775z M506.127,940.25l-0.76-0.871c7.563-8.548,18.762-19.33,22.748-20.405
			C527.105,922.248,517.644,931.414,506.127,940.25z"/>
		<path fill="#4AE5D9" d="M505.629,965.986c2.223,0,4.275-1.35,5.23-3.437c1.344-2.95,0.15-6.525-2.661-7.972
			c-0.808-0.414-1.669-0.625-2.562-0.625c-2.225,0-4.276,1.35-5.229,3.436c-1.346,2.949-0.152,6.525,2.658,7.973
			C503.871,965.775,504.734,965.986,505.629,965.986z M505.637,957.965c0.248,0,0.492,0.06,0.725,0.181
			c0.939,0.481,1.317,1.71,0.848,2.741c-0.408,0.896-1.485,1.329-2.308,0.909c-0.936-0.482-1.313-1.712-0.845-2.741
			C504.365,958.382,504.971,957.965,505.637,957.965z"/>
	</g>
	<g>
		<polygon fill="#4AE5D9" points="1291.431,1225.956 1334.192,1244.153 1378.538,1225.931 1335.1,1211.526 		"/>
		<g>
			<g>
				<path fill="#4AE5D9" d="M1307.264,1250.429c-0.828,0-1.5-0.671-1.5-1.5v-21.064c0-0.829,0.672-1.5,1.5-1.5s1.5,0.671,1.5,1.5
					v21.064C1308.764,1249.758,1308.092,1250.429,1307.264,1250.429z"/>
			</g>
		</g>
		<g>
			<g>
				<path fill="#4AE5D9" d="M1351.015,1241.484v19.602h-32v-19.131l-6-2.554v24.685c0,1.657,1.343,3,3,3h38c1.657,0,3-1.343,3-3
					v-25.067L1351.015,1241.484z"/>
			</g>
		</g>
	</g>
	<g>
		<path fill="#4AE5D9" d="M1358.971,1531.879c-0.504-3.688-3.583-6.535-7.296-6.535c-0.416,0-0.825,0.035-1.228,0.104
			c-1.907-2.087-4.462-3.419-7.225-3.784h0.003c-1.852-2.717-4.543-4.845-7.746-5.945c-1.389-8.423-8.725-14.785-17.436-14.785
			c-5.132,0-9.976,2.229-13.302,6.045c-0.811-0.205-1.646-0.309-2.501-0.309c-5.364,0-9.777,4.158-10.183,9.421
			c-5.66,2.39-9.469,7.991-9.469,14.234c0,8.154,6.377,14.924,14.539,15.412l0.208,0.012c0.436,0.032,0.877,0.034,1.314,0.007
			l25.22-0.006h-0.001c1.16,3.174,3.688,5.695,6.95,6.688c0.535,0.285,1.136,0.438,1.734,0.438l0.855,0.004
			c0.146,0.01,0.292,0.016,0.438,0.016c0.175,0,0.346-0.008,0.5-0.02l19.557,0.004c0.32,0.02,0.639,0.016,0.949-0.006l0.124-0.008
			c5.622-0.354,10.024-5.201,10.024-11.035C1365.002,1537.562,1362.598,1533.705,1358.971,1531.879z M1342.65,1521.603
			c-0.316-0.026-0.634-0.051-0.955-0.051C1342.017,1521.552,1342.336,1521.573,1342.65,1521.603z M1323.239,1542.998
			c-0.007-0.061-0.017-0.119-0.021-0.18C1323.223,1542.879,1323.233,1542.938,1323.239,1542.998z M1323.569,1544.798
			c0.004,0.014,0.008,0.027,0.012,0.042C1323.577,1544.825,1323.573,1544.812,1323.569,1544.798z M1323.348,1543.811
			c0.009,0.041,0.019,0.08,0.025,0.121C1323.366,1543.891,1323.356,1543.852,1323.348,1543.811z M1323.231,1540.75l-24.665,0.006
			l-0.18,0.007c-0.231,0.017-0.398,0.021-0.75-0.004l-0.055-0.001c-0.072-0.006-0.144-0.012-0.216-0.014
			c-5.485-0.351-9.776-4.92-9.776-10.419c0-4.67,3.155-8.81,7.674-10.067l2.097-0.584l-0.29-2.156
			c-0.027-0.211-0.042-0.423-0.042-0.636c0-2.874,2.339-5.212,5.213-5.212c0.793,0,1.555,0.175,2.263,0.52l1.928,0.939l1.222-1.763
			c2.357-3.401,6.242-5.433,10.391-5.433c6.684,0,12.239,5.224,12.647,11.892l0.116,1.896l1.856,0.396
			c1.752,0.375,3.325,1.19,4.619,2.311c-3.745,1.532-6.601,4.945-7.424,9.151C1326.216,1533.107,1323.625,1536.661,1323.231,1540.75
			z M1340.563,1521.609c-0.057,0.005-0.111,0.018-0.168,0.022C1340.452,1521.625,1340.507,1521.614,1340.563,1521.609z
			 M1339.437,1521.777c-0.027,0.006-0.055,0.014-0.082,0.02C1339.382,1521.791,1339.409,1521.783,1339.437,1521.777z
			 M1354.67,1547.875l-0.214,0.014c-0.09,0.008-0.179,0.007-0.267,0l-19.918-0.012l-0.424,0.02c-0.038,0-0.076-0.003-0.115-0.006
			l-0.728-0.012l-0.533-0.168c-2.532-0.67-4.299-3.088-4.299-5.879c0-2.85,1.896-5.342,4.508-5.926l1.842-0.411l0.109-1.884
			c0.229-3.959,3.332-7.06,7.063-7.06c2.331,0,4.435,1.16,5.772,3.183l1.231,1.863l1.99-1.016c0.311-0.158,0.642-0.238,0.985-0.238
			c1.306,0,2.368,1.166,2.368,2.6c0,0.115-0.008,0.229-0.021,0.343l-0.251,2.104l2.033,0.592c2.472,0.721,4.197,3.127,4.197,5.85
			C1360.002,1545.033,1357.658,1547.688,1354.67,1547.875z"/>
	</g>
	<g>
		<g>
			<g>
				<g>
					<g>
						<path fill="#4AE5D9" d="M63.343,949.098c-0.099,0-0.196-0.029-0.279-0.09l-5.318-3.873l-5.318,3.873
							c-0.083,0.061-0.181,0.09-0.279,0.09c-0.097,0-0.195-0.029-0.278-0.09c-0.166-0.12-0.236-0.334-0.174-0.529l2.023-6.266
							l-5.314-3.787c-0.168-0.119-0.24-0.334-0.178-0.529c0.063-0.197,0.246-0.331,0.453-0.331h6.521l2.092-6.47
							c0.063-0.195,0.246-0.329,0.452-0.329s0.39,0.134,0.452,0.329l2.092,6.47h6.522c0.207,0,0.39,0.134,0.452,0.331
							c0.063,0.195-0.009,0.41-0.176,0.529l-5.318,3.787l2.025,6.266c0.063,0.195-0.007,0.409-0.174,0.529
							C63.539,949.068,63.44,949.098,63.343,949.098z"/>
					</g>
				</g>
				<g>
					<g>
						<path fill="#4AE5D9" d="M57.745,931.242l2.199,6.799h6.867l-5.603,3.988l2.134,6.594l-5.598-4.077l-5.598,4.077l2.13-6.594
							l-5.598-3.988h6.867L57.745,931.242 M66.812,938.041h0.005 M57.745,930.292L57.745,930.292c-0.411,0-0.776,0.267-0.904,0.659
							l-1.985,6.14H48.68c-0.412,0-0.778,0.267-0.904,0.659c-0.127,0.395,0.018,0.824,0.354,1.064l5.031,3.584l-1.916,5.934
							c-0.126,0.392,0.014,0.82,0.348,1.062c0.164,0.12,0.361,0.18,0.556,0.18c0.196,0,0.394-0.06,0.56-0.182l5.038-3.669
							l5.038,3.669c0.166,0.122,0.363,0.182,0.56,0.182s0.392-0.06,0.558-0.18c0.333-0.241,0.473-0.67,0.346-1.062l-1.917-5.934
							l5.008-3.566c0.258-0.17,0.427-0.461,0.427-0.791c0-0.525-0.424-0.95-0.947-0.95h-0.005h-6.177l-1.985-6.14
							C58.521,930.559,58.157,930.292,57.745,930.292L57.745,930.292z"/>
					</g>
				</g>
			</g>
		</g>
		<g>
			<g>
				<path fill="#4AE5D9" d="M65.469,961.021h-5.301v8.221h-5.041v-8.221h-5.302v6.672h-0.001v1.549c0,2.939,2.359,5.302,5.303,5.302
					h5.041c2.941,0,5.301-2.362,5.301-5.302V961.021z"/>
			</g>
		</g>
		<g>
			<g>
				<rect x="43.352" y="969.123" fill="#4AE5D9" width="28.59" height="5.699"/>
			</g>
		</g>
		<g>
			<g>
				<path fill="#4AE5D9" d="M100.095,933.93l-17.856-0.035c-1.963,0-3.57,1.606-3.57,3.57v33.506c0,1.963,1.607,3.573,3.57,3.573
					h17.856c1.963,0,3.57-1.61,3.57-3.573v-33.506C103.665,935.501,102.058,933.93,100.095,933.93z M100.095,968.35H82.238V938.24
					h17.856V968.35z"/>
			</g>
		</g>
		<g>
			<g>
				<path fill="#4AE5D9" d="M74.395,958.875H34.052c-1.262,0-2.287-1.027-2.287-2.287V926.07c0-1.262,1.025-2.289,2.287-2.289H81.24
					c1.262,0,2.287,1.027,2.287,2.289v3.553l5.699,0.012v-3.564c0-4.404-3.582-7.987-7.986-7.987H34.052
					c-4.403,0-7.985,3.583-7.985,7.987v30.518c0,4.402,3.582,7.985,7.985,7.985h40.343V958.875z"/>
			</g>
		</g>
	</g>
</g>
<g>
	<path fill="#4AE5D9" d="M277.121-33.099c-0.21-0.652-0.817-1.095-1.504-1.093l-10.225,0.022l-3.314-10.162
		c-0.211-0.649-0.819-1.089-1.503-1.087c-0.684,0.001-1.288,0.443-1.497,1.095l-3.266,10.175l-10.229,0.023
		c-0.686,0.001-1.291,0.445-1.498,1.1c-0.207,0.652,0.031,1.366,0.59,1.762l8.346,5.92l-3.154,9.833
		c-0.207,0.649,0.027,1.361,0.58,1.761c0.276,0.198,0.603,0.297,0.927,0.297c0.325-0.001,0.652-0.103,0.927-0.305l8.33-6.1
		l8.361,6.063c0.553,0.402,1.301,0.4,1.854-0.002c0.551-0.402,0.783-1.113,0.57-1.762l-3.2-9.818l8.321-5.957
		C277.096-31.732,277.332-32.446,277.121-33.099z M265.441-27.269c-0.559,0.398-0.793,1.116-0.58,1.77l2.053,6.304l-5.361-3.887
		c-0.555-0.402-1.305-0.4-1.855,0.004l-5.346,3.911l2.025-6.313c0.209-0.655-0.028-1.371-0.589-1.768l-5.267-3.734l6.445-0.015
		c0.684-0.002,1.287-0.444,1.495-1.097l2.128-6.625l2.157,6.618c0.214,0.649,0.819,1.089,1.503,1.087l6.443-0.014L265.441-27.269z"
		/>
	<path fill="#4AE5D9" d="M245.906-22.566l-3.188-1.668l0.639-3.729c0.095-0.552-0.178-1.1-0.673-1.36
		c-0.497-0.26-1.103-0.169-1.501,0.222l-2.701,2.646l-3.188-1.666c-0.497-0.262-1.103-0.171-1.505,0.224
		c-0.399,0.395-0.498,1.001-0.242,1.502l1.628,3.205l-2.597,2.546c-0.396,0.392-0.5,0.995-0.25,1.496
		c0.248,0.5,0.791,0.783,1.344,0.701l3.596-0.534l1.611,3.263c0.22,0.444,0.672,0.72,1.158,0.719c0.063,0,0.121-0.005,0.184-0.015
		c0.553-0.081,0.99-0.507,1.086-1.058l0.614-3.585l3.562-0.488c0.557-0.075,1-0.503,1.098-1.056
		C246.676-21.753,246.403-22.305,245.906-22.566z M240.633-22.084c-0.557,0.076-1,0.505-1.096,1.06l-0.102,0.603l-0.271-0.544
		c-0.219-0.446-0.671-0.72-1.159-0.719c-0.061,0-0.125,0.006-0.188,0.013l-0.602,0.092l0.438-0.43
		c0.401-0.393,0.5-1.003,0.246-1.504l-0.229-0.451l0.445,0.232c0.494,0.26,1.102,0.17,1.502-0.222l0.522-0.514l-0.123,0.723
		c-0.095,0.552,0.177,1.102,0.674,1.36l0.442,0.232L240.633-22.084z"/>
</g>
<g>
	<path fill="#4AE5D9" d="M146.862,22.295h-0.005h-3.502l-1.127-3.481c-0.073-0.224-0.279-0.375-0.514-0.375
		s-0.438,0.152-0.512,0.375l-1.125,3.481h-3.506c-0.23,0-0.439,0.152-0.514,0.376c-0.069,0.223,0.011,0.467,0.202,0.603l2.853,2.033
		l-1.088,3.363c-0.069,0.223,0.012,0.467,0.201,0.603c0.092,0.069,0.205,0.103,0.313,0.103c0.111,0,0.225-0.033,0.318-0.103
		l2.856-2.081l2.86,2.081c0.094,0.069,0.205,0.103,0.315,0.103c0.111,0,0.223-0.033,0.316-0.103c0.191-0.136,0.269-0.38,0.195-0.603
		l-1.087-3.363l2.84-2.023c0.146-0.096,0.243-0.261,0.243-0.449C147.398,22.535,147.155,22.295,146.862,22.295z"/>
	<path fill="#4AE5D9" d="M156.247,11.091h-29.063c-2.297,0-4.166,1.935-4.166,4.313v16.754c0,2.379,1.869,4.313,4.166,4.313h3.682
		v4.313h3.374v-4.313h14.97v4.313h3.375v-4.313h3.663c2.298,0,4.168-1.935,4.168-4.313V15.404
		C160.415,13.025,158.545,11.091,156.247,11.091z M157.262,32.158c0,0.64-0.455,1.159-1.015,1.159h-29.063
		c-0.555,0-1.01-0.52-1.01-1.159V15.404c0-0.639,0.455-1.16,1.01-1.16h29.063c0.56,0,1.015,0.521,1.015,1.16V32.158z"/>
</g>
<g>
	<path fill="#4AE5D9" d="M185.531,34.713h5.25c0.722,0,1.307-0.584,1.307-1.306V16.752c0-0.721-0.585-1.305-1.307-1.305h-5.25
		c-0.721,0-1.307,0.584-1.307,1.305v16.655C184.225,34.129,184.811,34.713,185.531,34.713z M186.837,18.059h2.64v14.044h-2.64
		V18.059z"/>
	<path fill="#4AE5D9" d="M195.591,34.713h5.251c0.721,0,1.305-0.584,1.305-1.306V23.44c0-0.721-0.584-1.306-1.305-1.306h-5.251
		c-0.721,0-1.306,0.585-1.306,1.306v9.967C194.285,34.129,194.87,34.713,195.591,34.713z M196.896,24.746h2.639v7.356h-2.639V24.746
		z"/>
	<path fill="#4AE5D9" d="M211.225,8.758h-5.251c-0.722,0-1.304,0.585-1.304,1.306v23.344c0,0.722,0.582,1.306,1.304,1.306h5.251
		c0.721,0,1.306-0.584,1.306-1.306V10.063C212.53,9.343,211.945,8.758,211.225,8.758z M209.918,32.103h-2.639V11.37h2.639V32.103z"
		/>
	<path fill="#4AE5D9" d="M211.688,36.58h-26.666c-0.41,0-0.741,0.301-0.741,0.673v1.498c0,0.372,0.331,0.673,0.741,0.673h26.666
		c0.409,0,0.742-0.301,0.742-0.673v-1.498C212.43,36.881,212.097,36.58,211.688,36.58z"/>
</g>
<g>
	<path fill="#4AE5D9" d="M141.701-43.821c-9.031,0-16.375,7.347-16.375,16.376c0,0.331,0.012,0.66,0.031,0.985l-1.444,0.519
		l0.446,1.245l1.136-0.407c0.095,0.664,0.231,1.315,0.403,1.951l-1.219,0.438l0.447,1.245l1.17-0.419
		c2.279,6.303,8.323,10.82,15.404,10.82c9.029,0,16.376-7.347,16.376-16.377C158.077-36.475,150.73-43.821,141.701-43.821z
		 M141.701-14.119c-5.76,0-10.675-3.675-12.532-8.8l1.483-0.531l-0.446-1.246l-1.425,0.511c-0.162-0.642-0.277-1.3-0.342-1.974
		l1.443-0.518l-0.445-1.245l-1.059,0.378c0.053-7.302,6.008-13.226,13.322-13.226c7.346,0,13.324,5.978,13.324,13.324
		C155.025-20.098,149.047-14.119,141.701-14.119z"/>
	<path fill="#4AE5D9" d="M147.307-28.496l-7.229-4.82c-0.382-0.254-0.893-0.279-1.3-0.063c-0.411,0.221-0.665,0.647-0.665,1.114
		v9.64c0,0.466,0.254,0.893,0.666,1.113c0.183,0.098,0.389,0.15,0.598,0.15c0.252,0,0.493-0.074,0.701-0.214l7.229-4.819
		c0.353-0.234,0.563-0.627,0.563-1.051C147.869-27.87,147.659-28.263,147.307-28.496z"/>
</g>
<g>
	<path fill="#4AE5D9" d="M28.189,32.204c1.662-0.837,2.746-2.559,2.746-4.437c0-2.74-2.229-4.969-4.971-4.969
		s-4.969,2.229-4.969,4.969c0,1.879,1.081,3.6,2.74,4.436c-3.953,0.744-6.872,4.216-6.872,8.286c0,0.646,0.526,1.171,1.173,1.171
		h15.852c0.656,0,1.182-0.525,1.182-1.171c0-0.062-0.004-0.124-0.013-0.181C34.987,36.342,32.07,32.938,28.189,32.204z
		 M23.338,27.768c0-1.448,1.18-2.626,2.627-2.626s2.625,1.178,2.625,2.626s-1.178,2.627-2.625,2.627S23.338,29.216,23.338,27.768z
		 M19.322,39.314c0.555-2.862,3.041-4.92,5.981-4.92h1.321c2.938,0,5.424,2.058,5.98,4.92H19.322z"/>
	<path fill="#4AE5D9" d="M12.696,16.906c1.938,0,3.515-1.576,3.515-3.516c0-1.938-1.576-3.514-3.515-3.514
		c-1.938,0-3.515,1.576-3.515,3.514C9.182,15.33,10.759,16.906,12.696,16.906z"/>
	<path fill="#4AE5D9" d="M19.184,23.102c0-3.313-2.697-6.008-6.012-6.008h-0.951c-3.314,0-6.01,2.694-6.01,6.008
		c0,0.43,0.35,0.779,0.781,0.779h11.409C18.832,23.881,19.184,23.531,19.184,23.102z"/>
	<path fill="#4AE5D9" d="M39.063,16.906c1.938,0,3.515-1.576,3.515-3.516c0-1.938-1.576-3.514-3.515-3.514
		c-1.939,0-3.515,1.576-3.515,3.514C35.549,15.33,37.124,16.906,39.063,16.906z"/>
	<path fill="#4AE5D9" d="M39.539,17.094h-0.95c-3.315,0-6.011,2.694-6.011,6.008c0,0.43,0.35,0.779,0.781,0.779h11.409
		c0.431,0,0.78-0.35,0.78-0.779C45.549,19.788,42.854,17.094,39.539,17.094z"/>
	<path fill="#4AE5D9" d="M21.346,18.858h9.242c0.085,0,0.153-0.068,0.153-0.153v-1.527c0-0.084-0.068-0.152-0.153-0.152h-9.242
		c-0.085,0-0.152,0.068-0.152,0.152v1.527C21.193,18.79,21.261,18.858,21.346,18.858z"/>
	<path fill="#4AE5D9" d="M18.201,32.352c0.041,0,0.08-0.016,0.109-0.046l1.081-1.082c0.028-0.027,0.044-0.066,0.044-0.106
		c0-0.042-0.016-0.081-0.044-0.11l-4.784-4.78c-0.028-0.028-0.066-0.044-0.107-0.044c-0.042,0-0.08,0.016-0.109,0.046l-1.078,1.08
		c-0.061,0.059-0.061,0.156,0,0.216l4.779,4.781C18.121,32.336,18.16,32.352,18.201,32.352z"/>
	<path fill="#4AE5D9" d="M38.092,26.229c-0.03-0.03-0.07-0.046-0.109-0.046s-0.078,0.016-0.108,0.044l-4.782,4.78
		c-0.061,0.06-0.061,0.156,0,0.217l1.079,1.082c0.03,0.028,0.068,0.046,0.108,0.046c0.041,0,0.08-0.016,0.108-0.045l4.784-4.782
		c0.027-0.028,0.045-0.067,0.045-0.108c0-0.04-0.018-0.08-0.045-0.107L38.092,26.229z"/>
</g>
<g>
	<path fill="#4AE5D9" d="M194.857-34.101c-1.141-0.121-2.27,0.46-2.875,1.479c-0.849,1.443-0.429,3.347,0.936,4.242
		c0.387,0.253,0.814,0.408,1.272,0.458l0.011,0.002c1.141,0.12,2.271-0.461,2.871-1.48c0.854-1.441,0.437-3.346-0.932-4.241
		C195.754-33.895,195.326-34.049,194.857-34.101z M195.287-30.454c-0.188,0.321-0.537,0.507-0.883,0.469
		c-0.126-0.014-0.243-0.058-0.35-0.126c-0.455-0.298-0.584-0.952-0.289-1.455c0.197-0.328,0.531-0.51,0.873-0.475l0.029-0.248
		l-0.027,0.248c0.127,0.014,0.25,0.06,0.362,0.134C195.457-31.609,195.586-30.957,195.287-30.454z"/>
	<path fill="#4AE5D9" d="M187.059-25.659c1.145,0.12,2.271-0.461,2.873-1.482c0.854-1.442,0.434-3.345-0.934-4.239
		c-0.389-0.256-0.816-0.41-1.282-0.461c-1.143-0.121-2.269,0.461-2.876,1.481c-0.848,1.441-0.428,3.345,0.939,4.242
		c0.387,0.254,0.813,0.407,1.27,0.459H187.059z M186.629-29.309c0.192-0.326,0.527-0.508,0.867-0.471l0.031-0.248l-0.027,0.248
		c0.131,0.015,0.25,0.056,0.361,0.129c0.457,0.3,0.584,0.952,0.287,1.457c-0.26,0.438-0.838,0.601-1.233,0.34
		C186.458-28.15,186.33-28.805,186.629-29.309z"/>
	<path fill="#4AE5D9" d="M185.254-25c-0.388-0.252-0.814-0.407-1.283-0.459c-1.142-0.122-2.271,0.459-2.87,1.48
		c-0.853,1.441-0.434,3.345,0.931,4.242c0.391,0.254,0.818,0.409,1.273,0.459l0.068,0.008l0.001-0.002
		c1.122,0.095,2.222-0.484,2.815-1.488C187.04-22.2,186.62-24.102,185.254-25z M184.402-21.813
		c-0.257,0.442-0.829,0.607-1.233,0.343c-0.454-0.298-0.583-0.951-0.286-1.454c0.195-0.329,0.527-0.511,0.869-0.474l0.033-0.248
		l-0.027,0.249c0.129,0.014,0.249,0.057,0.358,0.131C184.572-22.968,184.701-22.316,184.402-21.813z"/>
	<path fill="#4AE5D9" d="M212.054-29.237c-0.922,0.753-1.744,1.406-2.386,1.907c1.333,2.931,1.817,6.418,1.019,9.538
		c-0.439,1.706-1.531,4.44-3.779,3.894c-1.704-0.413-3.038-1.652-4.354-2.738c-1.354-1.119-2.761-2.23-4.367-2.973
		c-2.317-1.072-4.792-1.033-7.126-0.029c-2.859,1.229-4.904,3.584-7.506,5.199c-1.125,0.697-2.658,0.916-3.645-0.086
		c-0.807-0.82-1.184-2.011-1.445-3.102c-0.75-3.141-0.302-6.438,0.878-9.41c1.052-2.652,3.104-5.176,5.421-6.809
		c2.877-2.025,6.484-3.119,10.051-3.1c1.857,0.012,3.701,0.326,5.43,0.969c1.279,0.475,2.477,1.085,3.586,1.817
		c0.623-0.703,1.303-1.452,2.023-2.224c-1.439-1.021-2.854-1.773-4.283-2.281c-2.29-0.811-4.661-1.256-6.674-1.256
		c-0.156,0-0.313,0.002-0.461,0.008c-2.561,0.067-4.992,0.549-7.23,1.428c-4.823,1.893-8.791,5.764-10.615,10.354
		c-1.178,2.969-2.246,7.499-0.651,12.225c1.027,3.047,2.779,4.857,4.937,5.096c0.199,0.022,0.401,0.034,0.598,0.034
		c2.398,0,4.344-1.559,5.906-2.813l0.531-0.425c1.377-1.109,2.801-2.255,4.317-2.906c1.024-0.44,1.929-0.618,2.834-0.54
		c1.9,0.158,3.624,1.527,5.296,2.854l0.588,0.47c1.839,1.477,4.129,3.317,6.854,3.317c2.354-0.003,4.262-1.81,5.367-5.088
		c0.84-2.487,1-5.326,0.541-8.111C213.41-25.815,212.854-27.593,212.054-29.237z"/>
	<path fill="#4AE5D9" d="M220.377-42.923c-0.39-0.536-0.992-0.835-1.698-0.835c-3.882,0-13.382,10.901-14.454,12.146l-0.344,0.399
		c-0.247-0.059-0.496-0.098-0.759-0.107l-0.112-0.004c-0.383,0-0.761,0.089-1.135,0.262c-0.059-0.004-0.121-0.008-0.18-0.008
		c-0.526,0-1.314,0.171-2.1,0.989c-0.836,0.878-1.758,2.669-1.648,3.861l-0.076,0.128c-0.215,0.363-0.438,0.737-0.669,1.121
		c-0.328,0.541-0.349,1.147-0.056,1.668c0.622,1.104,2.447,1.496,3.949,1.496h0.002c0.813,0,1.598-0.113,2.306-0.324
		c-0.078,0.101-0.153,0.204-0.22,0.315c-0.857,1.44-0.447,3.343,0.918,4.246c0.386,0.258,0.819,0.414,1.278,0.465
		c1.14,0.125,2.272-0.451,2.88-1.469c0.858-1.439,0.448-3.344-0.914-4.246c-0.393-0.257-0.822-0.415-1.281-0.465
		c-0.195-0.021-0.391-0.016-0.583,0.003c0.961-0.889,1.517-2.149,1.579-3.702c0.008-0.173,0-0.343-0.012-0.513l0.529-0.396
		c0.037-0.027,3.686-2.774,7.055-5.807C219.978-38.5,221.641-41.172,220.377-42.923z M201.098-23.549h-0.002
		c-1.329,0-2.153-0.357-2.379-0.557c0.226-0.374,0.444-0.741,0.654-1.098l0.502-0.842l-0.002-0.004c0.635-0.446,1.602-0.774,2-0.881
		c0,0-0.466-1.405,0.561-2.455l0.048-0.025c0.188-0.113,0.361-0.17,0.563-0.17c0,0,0,0,0.002,0c1.305,0.063,2.326,1.193,2.274,2.525
		c-0.064,1.561-0.739,2.608-2.006,3.116C202.689-23.688,201.9-23.549,201.098-23.549z M205.838-21.223
		c0.128,0.014,0.249,0.058,0.361,0.133c0.455,0.3,0.581,0.954,0.279,1.456c-0.258,0.437-0.836,0.598-1.234,0.336
		c-0.453-0.3-0.578-0.954-0.279-1.455C205.16-21.082,205.496-21.261,205.838-21.223z M207.042-30.404l-0.392-0.449
		c3.902-4.412,9.685-9.979,11.741-10.533C217.871-39.697,212.989-34.965,207.042-30.404z"/>
</g>
<path fill="#4AE5D9" d="M102.378,78.05c-0.32-1.877-1.931-3.276-3.798-3.276c-0.176,0-0.34,0.011-0.502,0.031
	c-0.93-0.971-2.156-1.61-3.473-1.813c-0.913-1.303-2.219-2.309-3.698-2.852c-0.772-4.229-4.425-7.283-8.742-7.283
	c-2.513,0-4.903,1.063-6.585,2.922c-0.363-0.08-0.742-0.122-1.127-0.122c-2.67,0-4.931,2.044-5.215,4.682
	c-2.822,1.254-4.638,4.033-4.638,7.124c0,4.12,3.226,7.537,7.341,7.779l0.102,0.008c0.221,0.016,0.475,0.017,0.658,0.004
	l12.129-0.003c0.631,1.565,1.924,2.774,3.448,3.236c0.303,0.159,0.639,0.242,0.97,0.242l0.394,0.001
	c0.081,0.008,0.16,0.009,0.237,0.009c0.09,0,0.184-0.003,0.242-0.01l9.53,0.001c0.172,0.01,0.29,0.011,0.56-0.008
	c2.88-0.18,5.135-2.658,5.135-5.644C105.346,80.977,104.186,79.016,102.378,78.05z M99.939,86.035l-0.13-0.261l-9.733-0.007
	l-0.248,0.011l-0.318-0.007l-0.234-0.076c-1.123-0.294-1.907-1.369-1.907-2.615c0-1.271,0.841-2.381,1.999-2.641l0.898-0.201
	c0.113-0.025,0.195-0.122,0.203-0.238l0.053-0.919c0.105-1.795,1.506-3.201,3.188-3.201c1.047,0,1.995,0.524,2.602,1.437l0.6,0.909
	c0.072,0.11,0.216,0.148,0.335,0.088l0.972-0.495c0.111-0.058,0.229-0.086,0.363-0.086c0.495,0,0.898,0.453,0.898,1.008
	c0,0.025-0.004,0.053-0.01,0.135l-0.122,1.029c-0.017,0.127,0.062,0.245,0.185,0.28l0.992,0.289c1.097,0.318,1.862,1.39,1.862,2.605
	c0,1.427-1.036,2.606-2.368,2.688l-0.102,0.009L99.939,86.035z M72.09,82.288c-2.537-0.163-4.527-2.282-4.527-4.825
	c0-2.162,1.463-4.08,3.555-4.662l1.023-0.284c0.125-0.035,0.207-0.156,0.189-0.285l-0.143-1.056
	c-0.014-0.091-0.018-0.183-0.018-0.273c0-1.26,1.024-2.283,2.283-2.283c0.348,0,0.681,0.076,0.989,0.224l0.938,0.461
	c0.113,0.056,0.256,0.021,0.328-0.086l0.599-0.861c1.103-1.591,2.919-2.54,4.857-2.54c3.126,0,5.726,2.441,5.914,5.559l0.054,0.927
	c0.008,0.118,0.093,0.215,0.207,0.239l0.905,0.192c0.655,0.142,1.276,0.419,1.817,0.813c-1.707,0.841-2.941,2.431-3.359,4.342
	c-1.727,0.78-2.971,2.478-3.238,4.403L72.65,82.294l-0.095,0.004c-0.102,0.007-0.13,0.009-0.376-0.003v0.26L72.09,82.288z"/>
<g>
	<path fill="#4AE5D9" d="M87.205-31.384c0-0.287-0.229-0.519-0.517-0.519h-0.003h-3.371l-1.083-3.351
		c-0.07-0.215-0.269-0.359-0.494-0.359c-0.225,0-0.424,0.145-0.494,0.359l-1.082,3.351H76.79c-0.225,0-0.424,0.146-0.494,0.359
		c-0.068,0.216,0.011,0.45,0.193,0.581l2.746,1.956l-1.045,3.237c-0.07,0.215,0.007,0.449,0.189,0.58
		c0.089,0.066,0.197,0.098,0.303,0.098c0.107,0,0.216-0.031,0.306-0.099l2.749-2.002l2.75,2.002c0.09,0.067,0.197,0.099,0.305,0.099
		s0.215-0.031,0.305-0.098c0.182-0.131,0.258-0.365,0.189-0.58l-1.047-3.237l2.734-1.946C87.113-31.045,87.205-31.204,87.205-31.384
		z"/>
	<path fill="#4AE5D9" d="M104.724-34.358l-9.533-0.018c-1.338,0-2.426,1.088-2.426,2.428v17.884c0,1.339,1.088,2.428,2.426,2.428
		h9.531c1.339,0,2.43-1.089,2.43-2.428v-17.884C107.151-33.277,106.061-34.358,104.724-34.358z M104.202-14.653h-8.49v-17.08h8.49
		V-14.653z"/>
	<path fill="#4AE5D9" d="M67.378-21.97v-16.654c0-0.688,0.56-1.25,1.247-1.25h25.753c0.688,0,1.248,0.562,1.248,1.25v1.938
		l3.11,0.007v-1.945c0-2.404-1.955-4.359-4.358-4.359H68.625c-2.403,0-4.357,1.955-4.357,4.359v16.654
		c0,2.403,1.954,4.358,4.357,4.358h8.608v1.704v0.779H73.7v3.11h15.604v-3.11h-3.533v-2.483h4.873v-3.109H68.625
		C67.938-20.721,67.378-21.281,67.378-21.97z M80.127-17.611h2.752v2.483h-2.752V-17.611z"/>
</g>
<g>
	<path fill="#4AE5D9" d="M93.908,36.213H79.457v-9.045l-2.711-1.208v11.672c0,0.784,0.606,1.42,1.355,1.42h17.16
		c0.749,0,1.355-0.636,1.355-1.42V25.778l-2.709,1.165V36.213z"/>
	<path fill="#4AE5D9" d="M106.961,18.13l-19.947-6.927c-0.072-0.024-0.146-0.037-0.22-0.037s-0.148,0.013-0.219,0.037l-20.052,6.938
		c-0.277,0.096-0.468,0.362-0.479,0.667c-0.01,0.306,0.162,0.586,0.432,0.701l4.926,2.118c0,0,0.004,8.187,0.004,8.273
		c0,0.654,0.506,1.185,1.133,1.185c0.623,0,1.129-0.53,1.129-1.185c0-0.087-0.002-7.202-0.002-7.202l12.439,5.557
		c0.086,0.039,0.179,0.059,0.272,0.059c0.091,0,0.181-0.019,0.266-0.056l20.362-8.761c0.27-0.115,0.443-0.395,0.432-0.7
		C107.428,18.492,107.238,18.227,106.961,18.13z"/>
</g>
<path fill="#4AE5D9" d="M39.496-37.998h-0.828v-1.933h-0.604h-1.738h-0.62v1.933h-1.691v-1.885h0.002v-0.82
	c0-1.559-1.249-2.81-2.81-2.81h-8.428c-1.561,0-2.81,1.251-2.81,2.81v2.705h-1.676v-1.933h-2.961v1.933h-0.841
	c-2.334,0-4.233,1.897-4.233,4.231v16.171c0,2.334,1.899,4.231,4.233,4.231h25.004c2.334,0,4.232-1.897,4.232-4.231v-16.171
	C43.729-36.101,41.83-37.998,39.496-37.998z M22.779-40.703h8.428v2.705h-8.428V-40.703z M40.708-17.596
	c0,0.668-0.544,1.212-1.212,1.212H14.492c-0.669,0-1.213-0.544-1.213-1.212v-2.71h27.429V-17.596z M40.708-23.769H13.279v-9.998
	c0-0.669,0.544-1.212,1.213-1.212h0.841v2.711h2.961v-2.711h1.676v2.702h2.81v-2.702h8.428v2.702h2.808v-2.702h1.691v2.711h2.962
	v-2.711h0.828c0.668,0,1.212,0.543,1.212,1.212V-23.769z"/>
<g>
	<polygon fill="#4AE5D9" points="248.406,25.375 251.88,25.368 251.877,22.232 248.401,22.239 248.395,18.765 245.26,18.771 
		245.267,22.246 241.789,22.254 241.797,25.389 245.273,25.381 245.279,28.858 248.414,28.851 	"/>
	<path fill="#4AE5D9" d="M262.92,9.646l-13.533-0.018c-1.43,0-2.596,1.164-2.596,2.598v3.258l1.597-0.004l1.896-0.004V12.85h11.737
		v24.127h-11.737v-4.848l-1.858,0.006l-1.634,0.002v5.796c0,1.433,1.166,2.598,2.596,2.598h13.531c1.43,0,2.598-1.165,2.598-2.598
		V12.227C265.516,10.805,264.35,9.646,262.92,9.646z"/>
</g>
<g>
	<path fill="#4AE5D9" d="M44.675,74.494h-0.356v-0.843c0-0.791-0.641-1.434-1.434-1.434h-2.429c-0.791,0-1.433,0.643-1.433,1.434
		v0.843l-13.256,0.001c-2.18,0-3.953,1.839-3.953,4.101v11.325c0,2.262,1.773,4.101,3.953,4.101l18.907-0.001
		c2.183,0,3.956-1.838,3.956-4.1V78.595C48.631,76.333,46.857,74.494,44.675,74.494z M45.98,89.921c0,0.799-0.584,1.451-1.306,1.451
		H25.768c-0.719,0-1.302-0.651-1.302-1.451V78.596c0-0.8,0.583-1.45,1.302-1.45l18.907-0.001c0.722,0,1.306,0.65,1.306,1.45V89.921z
		"/>
	<path fill="#4AE5D9" d="M35.665,78.941c-3.071,0-5.569,2.495-5.569,5.566s2.498,5.569,5.569,5.569c3.069,0,5.567-2.498,5.567-5.569
		S38.734,78.941,35.665,78.941z M35.665,87.337c-1.56,0-2.829-1.27-2.829-2.829c0-1.561,1.27-2.827,2.829-2.827
		s2.827,1.267,2.827,2.827C38.492,86.067,37.225,87.337,35.665,87.337z"/>
	<circle fill="#4AE5D9" cx="27.906" cy="80.311" r="1.37"/>
	<rect x="7.84" y="66.718" fill="#4AE5D9" width="3.367" height="3.366"/>
	<rect x="23.841" y="66.718" fill="#4AE5D9" width="3.366" height="3.366"/>
	<rect x="7.84" y="77.701" fill="#4AE5D9" width="3.367" height="3.366"/>
	<rect x="7.84" y="72.673" fill="#4AE5D9" width="3.367" height="3.367"/>
	<rect x="7.84" y="83.308" fill="#4AE5D9" width="3.367" height="3.367"/>
	<path fill="#4AE5D9" d="M19.541,88.962H6.92c-0.545,0-0.984-0.487-0.984-1.085L5.934,65.386c0-0.599,0.441-1.087,0.984-1.087
		h21.046c0.543,0,0.984,0.488,0.984,1.087v6.836h2.938v-6.837c0-2.218-1.76-4.025-3.923-4.024H6.918
		c-2.164,0-3.923,1.807-3.923,4.025v22.491c0,2.218,1.759,4.022,3.925,4.022h12.934c-0.2-0.624-0.313-1.287-0.313-1.979V88.962z"/>
	<path fill="#4AE5D9" d="M19.541,79.807v-0.737c0-0.471,0.053-0.927,0.148-1.368h-6.486v8.974h6.338v-2.105h-4.203v-4.763H19.541z"
		/>
	<path fill="#4AE5D9" d="M22.143,66.718h-8.939v9.322h6.864c0.452-1.052,1.173-1.951,2.075-2.616V66.718z M20.013,73.936h-4.675
		l-0.002-5.112h4.677V73.936z"/>
</g>
</svg>
