<?xml version="1.0" encoding="utf-8"?>
<!-- Generator: Adobe Illustrator 16.0.0, SVG Export Plug-In . SVG Version: 6.00 Build 0)  -->
<!DOCTYPE svg PUBLIC "-//W3C//DTD SVG 1.1//EN" "http://www.w3.org/Graphics/SVG/1.1/DTD/svg11.dtd">
<svg version="1.1" xmlns="http://www.w3.org/2000/svg" xmlns:xlink="http://www.w3.org/1999/xlink" x="0px" y="0px" width="122.5px"
	 height="107px" viewBox="0 0 122.5 107" enable-background="new 0 0 122.5 107" xml:space="preserve">
<g id="podklad" display="none">
</g>
<g id="Layer_9">
</g>
<g id="Layer_1">
</g>
<g id="podklad_1_">
</g>
<g id="OBD_x5F_prvky">
</g>
<g id="Layer_7">
</g>
<g id="texty">
	<g>
		<path fill="#FFFFFF" d="M81.009,26.51c-0.075-0.064-0.187-0.073-0.269-0.016c-1.234,0.819-2.564,1.483-3.971,1.976
			c1.341-1.414,2.213-3.206,2.49-5.138c0.012-0.093-0.033-0.184-0.117-0.229c-0.08-0.046-0.183-0.035-0.25,0.024
			c-1.557,1.32-3.309,2.359-5.207,3.094c-2.051-1.513-4.658-2.138-7.176-1.711c-5.121,0.868-8.584,5.742-7.716,10.864
			c0.104,0.62,0.267,1.225,0.487,1.799c-7.167,0.764-14.38-1.518-19.826-6.287c-0.057-0.047-0.131-0.069-0.205-0.05
			c-0.07,0.018-0.129,0.072-0.154,0.14c-0.584,1.551-0.746,3.24-0.468,4.883c0.482,2.849,2.228,5.291,4.729,6.675
			c-1.158,0.054-2.328-0.115-3.421-0.5c-0.073-0.026-0.157-0.01-0.217,0.039c-0.061,0.049-0.093,0.128-0.079,0.208l0.021,0.12
			c0.692,4.088,3.995,7.222,8.032,7.767c-0.984,0.335-2.033,0.499-3.098,0.476c-0.078,0-0.152,0.041-0.193,0.108
			c-0.041,0.067-0.045,0.149-0.011,0.221c1.758,3.394,5.381,5.372,9.152,5.052c-2.718,2.798-6.181,4.618-10.056,5.274
			c-0.715,0.121-1.441,0.201-2.156,0.237c-0.104,0.004-0.191,0.083-0.211,0.185c-0.02,0.104,0.035,0.207,0.134,0.247
			c4.647,1.977,9.737,2.576,14.714,1.732c16.289-2.76,23.781-17.638,21.615-30.428c-0.061-0.357-0.129-0.708-0.203-1.062
			c1.541-1.583,2.781-3.412,3.689-5.438C81.111,26.681,81.088,26.575,81.009,26.51z"/>
		<path fill="#FFFFFF" d="M59.679,101.755c-2.35,0-4.518-1.415-5.938-3.879L43.053,79.357l-18.666-0.003
			C14.055,79.353,5.648,70.943,5.65,60.611l0.006-35.661C5.658,14.616,14.066,6.21,24.398,6.211l73.584,0.012
			c10.336,0.001,18.742,8.409,18.741,18.745l-0.005,35.661c-0.002,10.331-8.41,18.737-18.746,18.736l-21.666-0.004l-10.69,18.516
			C64.193,100.341,62.027,101.756,59.679,101.755z M24.397,12.321c-6.964,0-12.63,5.664-12.632,12.63l-0.005,35.662
			c-0.001,6.963,5.663,12.63,12.627,12.631l22.191,0.003L59.032,94.82c0.269,0.469,0.516,0.702,0.647,0.791
			c0.128-0.089,0.376-0.321,0.645-0.791l12.457-21.57l25.191,0.004c6.967,0.001,12.635-5.664,12.635-12.627l0.005-35.661
			c0.001-6.967-5.664-12.634-12.63-12.634L24.397,12.321z"/>
	</g>
</g>
<g id="OTVR_x5F_hambac">
</g>
<g id="lista">
</g>
<g id="Layer_14">
</g>
<g id="_x33__x5F_ŘADEK_x5F_icon">
</g>
<g id="slunicko" display="none">
</g>
<g id="mesice">
</g>
<g id="kryti">
</g>
</svg>
