<?xml version="1.0" encoding="utf-8"?>
<!-- Generator: Adobe Illustrator 16.0.0, SVG Export Plug-In . SVG Version: 6.00 Build 0)  -->
<!DOCTYPE svg PUBLIC "-//W3C//DTD SVG 1.1//EN" "http://www.w3.org/Graphics/SVG/1.1/DTD/svg11.dtd">
<svg version="1.1" xmlns="http://www.w3.org/2000/svg" xmlns:xlink="http://www.w3.org/1999/xlink" x="0px" y="0px" width="122.5px"
	 height="107px" viewBox="0 0 122.5 107" enable-background="new 0 0 122.5 107" xml:space="preserve">
<g id="podklad" display="none">
</g>
<g id="Layer_9">
</g>
<g id="Layer_1">
</g>
<g id="podklad_1_">
</g>
<g id="OBD_x5F_prvky">
</g>
<g id="Layer_7">
</g>
<g id="texty">
	<g>
		<g>
			<path fill="#FFFFFF" d="M59.679,102.755c-2.35,0-4.518-1.415-5.938-3.88L43.053,80.357l-18.666-0.004
				C14.055,80.352,5.648,71.943,5.65,61.611l0.006-35.661C5.658,15.616,14.066,7.21,24.398,7.211l73.584,0.012
				c10.336,0.001,18.742,8.409,18.741,18.745l-0.005,35.661c-0.002,10.331-8.41,18.737-18.746,18.736l-21.666-0.004l-10.69,18.516
				C64.193,101.341,62.027,102.756,59.679,102.755z M24.397,13.321c-6.964,0-12.63,5.664-12.632,12.63l-0.005,35.662
				c-0.001,6.963,5.663,12.63,12.627,12.631l22.191,0.003L59.032,95.82c0.269,0.469,0.516,0.701,0.647,0.791
				c0.128-0.089,0.376-0.321,0.645-0.791L72.781,74.25l25.191,0.005c6.967,0.001,12.635-5.664,12.635-12.627l0.005-35.661
				c0.001-6.967-5.664-12.634-12.63-12.635L24.397,13.321z"/>
		</g>
		<g>
			<path fill="#FFFFFF" d="M61.098,20.758c-12.985,0-23.55,10.565-23.55,23.551s10.564,23.551,23.55,23.551
				c12.986,0,23.552-10.565,23.552-23.551S74.084,20.758,61.098,20.758z M61.098,62.359c-9.953,0-18.05-8.098-18.05-18.051
				s8.097-18.051,18.05-18.051c9.954,0,18.052,8.098,18.052,18.051S71.052,62.359,61.098,62.359z"/>
			<path fill="#FFFFFF" d="M48.749,36.644c0.299,0.159,0.619,0.234,0.936,0.234c0.717,0,1.409-0.386,1.769-1.063
				c0.007-0.014,0.802-1.353,2.734-1.487c1.102-0.077,1.933-1.032,1.856-2.134S55,30.261,53.91,30.338
				c-3.343,0.232-5.338,2.373-5.99,3.601C47.402,34.915,47.773,36.126,48.749,36.644z"/>
			<path fill="#FFFFFF" d="M68.012,34.329c1.89,0.131,2.69,1.417,2.749,1.515c0.363,0.659,1.047,1.034,1.753,1.034
				c0.316,0,0.637-0.075,0.936-0.234c0.976-0.518,1.347-1.729,0.829-2.705c-0.652-1.228-2.647-3.369-5.989-3.601
				c-1.091-0.077-2.058,0.754-2.134,1.856S66.91,34.252,68.012,34.329z"/>
			<path fill="#FFFFFF" d="M60.973,53.503c-0.024,0-0.049,0-0.072,0c-4.635,0-6.033-4.95-6.091-5.162l-3.868,1.019
				c0.737,2.828,3.763,8.143,9.955,8.143c0.04,0,0.08,0,0.12,0c6.466-0.071,9.524-5.275,10.239-8.016l-3.871-1.009
				C67.372,48.528,66.032,53.448,60.973,53.503z"/>
			<path fill="#FFFFFF" d="M72.08,38.603c-1.094-0.057-2.045,0.788-2.103,1.892c0,0.004-0.082,0.386-1.068,0.397
				c-0.978,0.013-1.008-0.339-1.027-0.47l0.006,0.078L63.894,40.7c0.085,1.693,1.482,4.191,4.978,4.191c0.027,0,0.056,0,0.083,0
				c3.521-0.04,4.93-2.525,5.018-4.186C74.03,39.602,73.183,38.661,72.08,38.603z"/>
			<path fill="#FFFFFF" d="M53.288,44.891c3.524-0.04,4.932-2.526,5.018-4.188c0.058-1.103-0.79-2.043-1.894-2.101
				c-1.115-0.058-2.044,0.791-2.101,1.894c0,0.004-0.082,0.384-1.068,0.395c-0.981,0.015-1.009-0.34-1.029-0.472l0.006,0.078
				l-3.994,0.205c0.087,1.692,1.485,4.189,4.979,4.189C53.232,44.892,53.261,44.891,53.288,44.891z"/>
		</g>
	</g>
</g>
<g id="OTVR_x5F_hambac">
</g>
<g id="lista">
</g>
<g id="Layer_14">
</g>
<g id="_x33__x5F_ŘADEK_x5F_icon">
</g>
<g id="slunicko" display="none">
</g>
<g id="mesice">
</g>
<g id="kryti">
</g>
</svg>
