<?xml version="1.0" encoding="utf-8"?>
<!-- Generator: Adobe Illustrator 16.0.0, SVG Export Plug-In . SVG Version: 6.00 Build 0)  -->
<!DOCTYPE svg PUBLIC "-//W3C//DTD SVG 1.1//EN" "http://www.w3.org/Graphics/SVG/1.1/DTD/svg11.dtd">
<svg version="1.1" xmlns="http://www.w3.org/2000/svg" xmlns:xlink="http://www.w3.org/1999/xlink" x="0px" y="0px" width="122.5px"
	 height="107px" viewBox="0 0 122.5 107" enable-background="new 0 0 122.5 107" xml:space="preserve">
<g id="podklad" display="none">
</g>
<g id="Layer_9">
</g>
<g id="Layer_1">
</g>
<g id="podklad_1_">
</g>
<g id="OBD_x5F_prvky">
</g>
<g id="Layer_7">
</g>
<g id="texty">
	<g>
		<path fill="#FFFFFF" d="M59.678,102.755c-2.35,0-4.518-1.415-5.938-3.88L43.053,80.357l-18.666-0.004
			C14.055,80.352,5.648,71.943,5.65,61.611l0.006-35.661C5.658,15.616,14.066,7.21,24.398,7.211l73.584,0.012
			c10.336,0.001,18.742,8.409,18.74,18.745l-0.004,35.661c-0.002,10.331-8.41,18.737-18.746,18.736l-21.666-0.004L65.615,98.877
			C64.193,101.341,62.027,102.756,59.678,102.755z M24.396,13.321c-6.963,0-12.629,5.664-12.631,12.63L11.76,61.613
			c0,6.963,5.664,12.63,12.627,12.631l22.191,0.003L59.031,95.82c0.27,0.469,0.516,0.701,0.648,0.791
			c0.127-0.089,0.375-0.321,0.645-0.791L72.781,74.25l25.191,0.005c6.967,0.001,12.635-5.664,12.635-12.627l0.004-35.661
			c0.002-6.967-5.664-12.634-12.629-12.635L24.396,13.321z"/>
	</g>
	<path fill="#FFFFFF" d="M77.777,40.672c1.657-0.007,2.995-1.355,2.988-3.012c-0.007-1.653-1.349-2.988-3-2.988
		c-0.004,0-0.008,0-0.012,0l-4.271,0.017l0.854-5.249c0.267-1.635-0.844-3.177-2.479-3.443c-1.646-0.267-3.178,0.844-3.443,2.479
		l-1.016,6.237l-8.723,0.035l0.864-5.309c0.267-1.635-0.844-3.177-2.479-3.443c-1.644-0.267-3.178,0.844-3.443,2.479l-1.025,6.297
		l-7.303,0.029c-1.657,0.007-2.995,1.355-2.988,3.012c0.007,1.653,1.349,2.988,3,2.988c0.004,0,0.008,0,0.012,0l6.302-0.025
		l-1.382,8.484l-6.123,0.025c-1.657,0.007-2.995,1.355-2.988,3.012c0.007,1.653,1.349,2.988,3,2.988c0.004,0,0.008,0,0.012,0
		l5.123-0.021l-0.855,5.252c-0.267,1.635,0.844,3.177,2.479,3.443c0.164,0.027,0.326,0.04,0.486,0.04
		c1.444,0,2.718-1.046,2.957-2.519l1.016-6.241l8.725-0.035l-0.865,5.313c-0.267,1.635,0.844,3.177,2.479,3.443
		c0.164,0.027,0.326,0.04,0.486,0.04c1.444,0,2.718-1.046,2.957-2.519l1.025-6.301l6.451-0.026c1.657-0.007,2.995-1.355,2.988-3.012
		c-0.007-1.653-1.349-2.988-3-2.988c-0.004,0-0.008,0-0.012,0l-5.45,0.022l1.381-8.484L77.777,40.672z M65.041,49.202l-8.723,0.035
		l1.381-8.484l8.723-0.035L65.041,49.202z"/>
</g>
<g id="OTVR_x5F_hambac">
</g>
<g id="lista">
</g>
<g id="Layer_14">
</g>
<g id="_x33__x5F_ŘADEK_x5F_icon">
</g>
<g id="slunicko" display="none">
</g>
<g id="mesice">
</g>
<g id="kryti">
</g>
</svg>
