<?xml version="1.0" encoding="utf-8"?>
<!-- Generator: Adobe Illustrator 16.0.0, SVG Export Plug-In . SVG Version: 6.00 Build 0)  -->
<!DOCTYPE svg PUBLIC "-//W3C//DTD SVG 1.1//EN" "http://www.w3.org/Graphics/SVG/1.1/DTD/svg11.dtd">
<svg version="1.1" xmlns="http://www.w3.org/2000/svg" xmlns:xlink="http://www.w3.org/1999/xlink" x="0px" y="0px" width="122.5px"
	 height="107px" viewBox="0 0 122.5 107" enable-background="new 0 0 122.5 107" xml:space="preserve">
<g id="podklad" display="none">
</g>
<g id="Layer_9">
</g>
<g id="Layer_1">
</g>
<g id="podklad_1_">
</g>
<g id="OBD_x5F_prvky">
</g>
<g id="Layer_7">
</g>
<g id="texty">
	<g>
		<path fill="#FFFFFF" d="M59.679,103.255c-2.35,0-4.518-1.415-5.938-3.879L43.053,80.857l-18.666-0.004
			C14.055,80.853,5.648,72.443,5.65,62.111l0.006-35.661C5.658,16.116,14.066,7.71,24.398,7.711l73.584,0.012
			c10.336,0.001,18.742,8.409,18.741,18.745l-0.005,35.661c-0.002,10.331-8.41,18.737-18.746,18.736l-21.666-0.004l-10.69,18.516
			C64.193,101.841,62.027,103.256,59.679,103.255z M24.397,13.821c-6.964,0-12.63,5.664-12.632,12.63l-0.005,35.662
			c-0.001,6.963,5.663,12.63,12.627,12.631l22.191,0.003L59.032,96.32c0.269,0.469,0.516,0.701,0.647,0.791
			c0.128-0.089,0.376-0.321,0.645-0.791l12.457-21.57l25.191,0.005c6.967,0.001,12.635-5.664,12.635-12.627l0.005-35.661
			c0.001-6.967-5.664-12.634-12.63-12.635L24.397,13.821z"/>
	</g>
	<g>
		<path fill="#FFFFFF" d="M82.161,34.521c-0.102-2.193-0.43-3.898-1.063-5.531c-0.632-1.622-1.458-2.888-2.677-4.105
			c-1.216-1.22-2.484-2.046-4.111-2.679c-1.638-0.635-3.342-0.963-5.526-1.063c-2.385-0.108-3.172-0.133-9.073-0.133
			s-6.688,0.025-9.07,0.133c-2.186,0.1-3.892,0.427-5.533,1.063c-1.624,0.632-2.891,1.458-4.105,2.677
			c-1.223,1.219-2.048,2.486-2.676,4.106c-0.637,1.627-0.965,3.333-1.066,5.533c-0.107,2.375-0.133,3.161-0.133,9.07
			c0,5.91,0.025,6.696,0.133,9.075c0.102,2.199,0.431,3.904,1.065,5.525c0.629,1.624,1.454,2.893,2.676,4.113
			c1.221,1.22,2.486,2.045,4.106,2.675c1.632,0.633,3.338,0.961,5.532,1.063c2.343,0.108,3.049,0.131,9.071,0.131
			s6.729-0.023,9.074-0.131c2.193-0.103,3.897-0.431,5.525-1.063c1.623-0.631,2.891-1.456,4.111-2.675
			c1.219-1.221,2.045-2.489,2.677-4.112c0.633-1.629,0.961-3.333,1.063-5.525c0.107-2.315,0.133-3.089,0.133-9.075
			C82.294,37.588,82.271,36.879,82.161,34.521z M76.914,52.427c-0.093,2.051-0.429,3.143-0.713,3.867
			c-0.365,0.944-0.783,1.587-1.492,2.295c-0.702,0.701-1.367,1.134-2.299,1.496c-0.724,0.283-1.816,0.619-3.865,0.712
			c-2.301,0.105-2.992,0.128-8.834,0.128c-5.841,0-6.532-0.022-8.833-0.128c-2.051-0.093-3.145-0.429-3.868-0.712
			c-0.931-0.362-1.597-0.795-2.298-1.495c-0.703-0.703-1.122-1.347-1.493-2.296c-0.282-0.725-0.617-1.819-0.711-3.866
			c-0.104-2.265-0.126-2.949-0.126-8.835c0-5.882,0.021-6.566,0.126-8.831c0.094-2.049,0.429-3.143,0.711-3.867
			c0.37-0.95,0.789-1.595,1.493-2.3c0.706-0.705,1.351-1.123,2.298-1.492c0.724-0.282,1.818-0.617,3.868-0.712
			c2.311-0.106,3.002-0.128,8.833-0.128c5.832,0,6.523,0.022,8.833,0.128c2.049,0.095,3.143,0.43,3.867,0.711
			c0.946,0.369,1.591,0.788,2.297,1.492c0.71,0.71,1.129,1.355,1.494,2.302c0.283,0.721,0.619,1.812,0.712,3.866
			c0.105,2.3,0.128,2.991,0.128,8.831C77.042,49.436,77.02,50.126,76.914,52.427z"/>
		<path fill="#FFFFFF" d="M59.711,31.68c-6.568,0-11.913,5.344-11.913,11.912c0,6.569,5.345,11.914,11.913,11.914
			s11.913-5.345,11.913-11.914C71.624,37.023,66.279,31.68,59.711,31.68z M59.711,50.253c-3.673,0-6.66-2.988-6.66-6.662
			c0-3.672,2.987-6.659,6.66-6.659s6.661,2.987,6.661,6.659C66.372,47.265,63.384,50.253,59.711,50.253z"/>
		<path fill="#FFFFFF" d="M71.42,28.602c-1.811,0-3.283,1.473-3.283,3.284c0,1.809,1.473,3.281,3.283,3.281
			c1.81,0,3.282-1.472,3.282-3.281C74.702,30.075,73.229,28.602,71.42,28.602z"/>
	</g>
</g>
<g id="OTVR_x5F_hambac">
</g>
<g id="lista">
</g>
<g id="Layer_14">
</g>
<g id="_x33__x5F_ŘADEK_x5F_icon">
</g>
<g id="slunicko" display="none">
</g>
<g id="mesice">
</g>
<g id="kryti">
</g>
</svg>
