<?xml version="1.0" encoding="utf-8"?>
<!-- Generator: Adobe Illustrator 16.0.0, SVG Export Plug-In . SVG Version: 6.00 Build 0)  -->
<!DOCTYPE svg PUBLIC "-//W3C//DTD SVG 1.1//EN" "http://www.w3.org/Graphics/SVG/1.1/DTD/svg11.dtd">
<svg version="1.1" xmlns="http://www.w3.org/2000/svg" xmlns:xlink="http://www.w3.org/1999/xlink" x="0px" y="0px" width="122.5px"
	 height="107px" viewBox="0 0 122.5 107" enable-background="new 0 0 122.5 107" xml:space="preserve">
<g id="podklad" display="none">
</g>
<g id="Layer_9">
</g>
<g id="Layer_1">
</g>
<g id="podklad_1_">
</g>
<g id="OBD_x5F_prvky">
</g>
<g id="Layer_7">
</g>
<g id="texty">
	<g>
		<path fill="#FFFFFF" d="M97.982,7.224L24.398,7.211C14.066,7.21,5.658,15.616,5.656,25.951L5.65,61.611
			c-0.002,10.332,8.404,18.741,18.736,18.742l18.666,0.004L53.74,98.875c1.421,2.465,3.589,3.879,5.938,3.88
			c2.349,0.001,4.515-1.414,5.938-3.877l10.69-18.516l21.666,0.004c10.336,0.001,18.744-8.405,18.746-18.736l0.005-35.661
			C116.725,15.633,108.318,7.225,97.982,7.224z M110.607,61.628c0,6.963-5.668,12.628-12.635,12.627L72.781,74.25L60.324,95.821
			c-0.269,0.469-0.517,0.701-0.645,0.791c-0.132-0.09-0.379-0.322-0.647-0.791L46.579,74.247l-22.191-0.003
			c-6.964-0.001-12.628-5.668-12.627-12.631l0.005-35.662c0.002-6.967,5.668-12.631,12.632-12.63l73.585,0.011
			c6.966,0.001,12.631,5.668,12.63,12.635L110.607,61.628z"/>
		<path fill="#FFFFFF" d="M61.25,21.29c-12.986,0-23.551,10.565-23.551,23.551S48.264,68.391,61.25,68.391
			S84.801,57.826,84.801,44.84S74.236,21.29,61.25,21.29z M61.25,62.891c-9.953,0-18.051-8.098-18.051-18.051
			S51.297,26.79,61.25,26.79s18.051,8.098,18.051,18.051S71.203,62.891,61.25,62.891z"/>
		<path fill="#FFFFFF" d="M51.865,40.103c0.032,0.001,0.063,0.002,0.096,0.002c1.062,0,1.946-0.835,1.996-1.907
			c0.008-0.171,0.146-0.376,0.761-0.384c0.547-0.004,0.675,0.134,0.712,0.433c0.077,1.079,1.01,1.905,2.086,1.856
			c1.104-0.05,1.957-0.985,1.907-2.089c-0.077-1.697-1.387-4.201-4.675-4.201c-0.026,0-0.054,0-0.081,0
			c-3.311,0.042-4.628,2.533-4.706,4.198C49.909,39.115,50.763,40.051,51.865,40.103z"/>
		<path fill="#FFFFFF" d="M65.943,40.103c0.032,0.001,0.063,0.002,0.095,0.002c1.062,0,1.946-0.836,1.996-1.908
			c0.008-0.17,0.146-0.375,0.762-0.383c0.521-0.007,0.675,0.135,0.714,0.435c0.077,1.079,0.987,1.905,2.088,1.854
			c1.103-0.051,1.956-0.987,1.905-2.09c-0.078-1.697-1.39-4.199-4.677-4.199c-0.026,0-0.054,0-0.081,0
			c-3.313,0.042-4.63,2.534-4.707,4.199C63.987,39.116,64.84,40.052,65.943,40.103z"/>
		<path fill="#FFFFFF" d="M61.731,44.486H49.502c0,0-0.147,1.567,0.387,3.394c1.044,3.569,3.598,8.91,11.75,8.91
			c0.032,0,0.062-0.004,0.093-0.004s0.062,0.004,0.093,0.004c8.152,0,10.706-5.341,11.75-8.91c0.534-1.827,0.388-3.394,0.388-3.394
			H61.731z M67.426,51.832c-1.371-1.105-3.339-1.803-5.537-1.803c-0.053,0-0.104,0.005-0.157,0.006
			c-0.053-0.001-0.104-0.006-0.157-0.006c-2.197,0-4.166,0.698-5.537,1.803c-1.703-1.373-2.551-3.373-2.551-4.808h8.245h8.245
			C69.977,48.459,69.13,50.459,67.426,51.832z"/>
	</g>
</g>
<g id="OTVR_x5F_hambac">
</g>
<g id="lista">
</g>
<g id="Layer_14">
</g>
<g id="_x33__x5F_ŘADEK_x5F_icon">
</g>
<g id="slunicko" display="none">
</g>
<g id="mesice">
</g>
<g id="kryti">
</g>
</svg>
