<?xml version="1.0" encoding="utf-8"?>
<!-- Generator: Adobe Illustrator 16.0.0, SVG Export Plug-In . SVG Version: 6.00 Build 0)  -->
<!DOCTYPE svg PUBLIC "-//W3C//DTD SVG 1.1//EN" "http://www.w3.org/Graphics/SVG/1.1/DTD/svg11.dtd">
<svg version="1.1" xmlns="http://www.w3.org/2000/svg" xmlns:xlink="http://www.w3.org/1999/xlink" x="0px" y="0px" width="122.5px"
	 height="107px" viewBox="0 0 122.5 107" enable-background="new 0 0 122.5 107" xml:space="preserve">
<g id="podklad" display="none">
</g>
<g id="Layer_9">
</g>
<g id="Layer_1">
</g>
<g id="podklad_1_">
</g>
<g id="OBD_x5F_prvky">
</g>
<g id="Layer_7">
</g>
<g id="texty">
	<g>
		<path fill="#FFFFFF" d="M59.678,102.755c-2.35,0-4.518-1.415-5.938-3.88L43.053,80.357l-18.666-0.004
			C14.055,80.352,5.648,71.943,5.65,61.611l0.006-35.661C5.658,15.616,14.066,7.21,24.398,7.211l73.584,0.012
			c10.336,0.001,18.742,8.409,18.74,18.745l-0.004,35.661c-0.002,10.331-8.41,18.737-18.746,18.736l-21.666-0.004L65.615,98.877
			C64.193,101.341,62.027,102.756,59.678,102.755z M24.396,13.321c-6.963,0-12.629,5.664-12.631,12.63L11.76,61.613
			c0,6.963,5.664,12.63,12.627,12.631l22.191,0.003L59.031,95.82c0.27,0.469,0.516,0.701,0.648,0.791
			c0.127-0.089,0.375-0.321,0.645-0.791L72.781,74.25l25.191,0.005c6.967,0.001,12.635-5.664,12.635-12.627l0.004-35.661
			c0.002-6.967-5.664-12.634-12.629-12.635L24.396,13.321z"/>
	</g>
	<path fill="#FFFFFF" d="M71.57,35.46l-0.436-0.245c-1.533-0.859-4.467-1.482-6.978-1.482c-8.922,0-13.737,7.049-13.737,13.682
		c0,4.755,2.795,7.95,6.952,7.95c2.769,0,5.128-1.156,6.903-3.362c0.735,2.157,2.552,3.362,5.169,3.362
		c6.647,0,11.289-5.741,11.289-13.96c0-9.732-7.366-16.796-17.517-16.796c-12.275,0-21.531,9.422-21.531,21.917
		c0,11.978,9.094,18.245,18.078,18.245c3.633,0,6.807-0.352,10.49-2.069l0.568-0.266l-1.45-4.57l-0.749,0.374
		c-2.065,1.032-4.961,1.648-7.746,1.648c-8.346,0-13.53-5.312-13.53-13.863c0-10.892,7.673-16.591,15.254-16.591
		c7.646,0,12.588,4.766,12.588,12.14c0,5.994-2.702,8.689-4.66,8.689c-0.378-0.013-0.528-0.139-0.616-0.248
		c-0.275-0.337-0.516-1.264-0.095-3.764L71.57,35.46z M63.51,44.243c-0.48,3.086-2.506,5.237-4.021,5.237
		c-1.708,0-2.066-1.487-2.066-2.735c0-3.962,2.623-7.185,5.848-7.185c0.35,0,0.656,0.029,0.922,0.07L63.51,44.243z"/>
</g>
<g id="OTVR_x5F_hambac">
</g>
<g id="lista">
</g>
<g id="Layer_14">
</g>
<g id="_x33__x5F_ŘADEK_x5F_icon">
</g>
<g id="slunicko" display="none">
</g>
<g id="mesice">
</g>
<g id="kryti">
</g>
</svg>
