<?xml version="1.0" encoding="utf-8"?>
<!-- Generator: Adobe Illustrator 16.0.0, SVG Export Plug-In . SVG Version: 6.00 Build 0)  -->
<!DOCTYPE svg PUBLIC "-//W3C//DTD SVG 1.1//EN" "http://www.w3.org/Graphics/SVG/1.1/DTD/svg11.dtd">
<svg version="1.1" xmlns="http://www.w3.org/2000/svg" xmlns:xlink="http://www.w3.org/1999/xlink" x="0px" y="0px" width="122.5px"
	 height="107px" viewBox="0 0 122.5 107" enable-background="new 0 0 122.5 107" xml:space="preserve">
<g id="podklad" display="none">
</g>
<g id="Layer_9">
</g>
<g id="Layer_1">
</g>
<g id="podklad_1_">
</g>
<g id="OBD_x5F_prvky">
</g>
<g id="Layer_7">
</g>
<g id="texty">
	<g>
		<path fill="#FFFFFF" d="M59.679,101.755c-2.35,0-4.518-1.415-5.938-3.879L43.053,79.357l-18.666-0.004
			C14.055,79.353,5.648,70.943,5.65,60.611l0.006-35.661C5.658,14.616,14.066,6.21,24.398,6.211l73.584,0.012
			c10.336,0.001,18.742,8.409,18.741,18.745l-0.005,35.661c-0.002,10.331-8.41,18.737-18.746,18.736l-21.666-0.004l-10.69,18.516
			C64.193,100.341,62.027,101.756,59.679,101.755z M24.397,12.321c-6.964,0-12.63,5.664-12.632,12.63l-0.005,35.662
			c-0.001,6.963,5.663,12.63,12.627,12.631l22.191,0.003L59.032,94.82c0.269,0.469,0.516,0.701,0.647,0.791
			c0.128-0.089,0.376-0.321,0.645-0.791l12.457-21.57l25.191,0.005c6.967,0.001,12.635-5.664,12.635-12.627l0.005-35.661
			c0.001-6.967-5.664-12.634-12.63-12.635L24.397,12.321z"/>
		<path fill-rule="evenodd" clip-rule="evenodd" fill="#FFFFFF" d="M63.828,66.28c0.001-6.387,0.001-17.939,0.004-18.225
			c0-0.007,0.004-0.015,0.004-0.022v-0.03c0-0.011,0.004-0.02,0.006-0.03c0.004-0.032,0.01-0.063,0.018-0.093
			c0.008-0.028,0.016-0.054,0.027-0.08c0.02-0.042,0.045-0.08,0.078-0.115c0.008-0.009,0.017-0.015,0.025-0.022
			c0.022-0.022,0.044-0.044,0.071-0.063c0.007,0,0.016-0.001,0.024-0.001c0.063-0.034,0.134-0.059,0.213-0.059l5.469-0.019
			c0.256,0,0.464-0.196,0.464-0.439l1.04-5.789c0-0.241-0.207-0.438-0.463-0.438l-6.4,0.041c-0.256,0-0.463-0.286-0.463-0.531
			c0-0.017,0-0.047,0-0.091c-0.011-0.649-0.163-4.109,0.119-5.705c0.281-1.592,1.127-2.822,2.969-3.239
			c0.739-0.168,1.488-0.143,2.238-0.149c0.742-0.005,2.209-0.018,2.209-0.018l0.002-6.26c0,0-5.09-0.659-7.654-0.385
			c-1.725,0.184-3.51,1.047-4.886,2.303c-1.978,1.7-2.963,4.673-2.999,12.24c0.014,0.041,0.019,1.185,0.019,1.185
			c-0.036,0.416-0.31,0.577-0.456,0.577l-5.586,0.033c-0.256,0-0.463,0.197-0.463,0.438v3.642c0,0.006,0,2.155,0,2.155
			c0,0.242,0.207,0.439,0.463,0.439l5.713,0.01c0.256,0,0.464,0.208,0.464,0.463c0,0,0.003,10.043,0.008,18.289
			c1.246,0.18,2.519,0.277,3.814,0.277C61.248,66.57,62.552,66.469,63.828,66.28z"/>
	</g>
</g>
<g id="OTVR_x5F_hambac">
</g>
<g id="lista">
</g>
<g id="Layer_14">
</g>
<g id="_x33__x5F_ŘADEK_x5F_icon">
</g>
<g id="slunicko" display="none">
</g>
<g id="mesice">
</g>
<g id="kryti">
</g>
</svg>
