<?xml version="1.0" encoding="utf-8"?>
<!-- Generator: Adobe Illustrator 16.0.0, SVG Export Plug-In . SVG Version: 6.00 Build 0)  -->
<!DOCTYPE svg PUBLIC "-//W3C//DTD SVG 1.1//EN" "http://www.w3.org/Graphics/SVG/1.1/DTD/svg11.dtd">
<svg version="1.1" xmlns="http://www.w3.org/2000/svg" xmlns:xlink="http://www.w3.org/1999/xlink" x="0px" y="0px" width="122.5px"
	 height="107px" viewBox="0 0 122.5 107" enable-background="new 0 0 122.5 107" xml:space="preserve">
<g id="podklad" display="none">
</g>
<g id="Layer_9">
</g>
<g id="Layer_1">
</g>
<g id="podklad_1_">
</g>
<g id="OBD_x5F_prvky">
</g>
<g id="Layer_7">
</g>
<g id="texty">
	<g>
		<path fill="#FFFFFF" d="M59.678,102.755c-2.35,0-4.518-1.415-5.938-3.88L43.053,80.357l-18.666-0.004
			C14.055,80.352,5.648,71.943,5.65,61.611l0.006-35.661C5.658,15.616,14.066,7.21,24.398,7.211l73.584,0.012
			c10.336,0.001,18.742,8.409,18.74,18.745l-0.004,35.661c-0.002,10.331-8.41,18.737-18.746,18.736l-21.666-0.004L65.615,98.877
			C64.193,101.341,62.027,102.756,59.678,102.755z M24.396,13.321c-6.963,0-12.629,5.664-12.631,12.63L11.76,61.613
			c0,6.963,5.664,12.63,12.627,12.631l22.191,0.003L59.031,95.82c0.27,0.469,0.516,0.701,0.648,0.791
			c0.127-0.089,0.375-0.321,0.645-0.791L72.781,74.25l25.191,0.005c6.967,0.001,12.635-5.664,12.635-12.627l0.004-35.661
			c0.002-6.967-5.664-12.634-12.629-12.635L24.396,13.321z"/>
	</g>
	<path fill="#FFFFFF" d="M66.791,38.752l-6.582-7.811l-6.581,7.811L41.586,23.57v38.265h37.247V23.57L66.791,38.752z M53.493,47.864
		l6.716-7.972l6.717,7.972l6.139-7.741v10.835H47.354V40.123L53.493,47.864z M60.249,56.058h-0.04H60.17l-12.816,0.007v-2.107
		h25.711v2.107L60.249,56.058z"/>
</g>
<g id="OTVR_x5F_hambac">
</g>
<g id="lista">
</g>
<g id="Layer_14">
</g>
<g id="_x33__x5F_ŘADEK_x5F_icon">
</g>
<g id="slunicko" display="none">
</g>
<g id="mesice">
</g>
<g id="kryti">
</g>
</svg>
