<?xml version="1.0" encoding="utf-8"?>
<!-- Generator: Adobe Illustrator 16.0.0, SVG Export Plug-In . SVG Version: 6.00 Build 0)  -->
<!DOCTYPE svg PUBLIC "-//W3C//DTD SVG 1.1//EN" "http://www.w3.org/Graphics/SVG/1.1/DTD/svg11.dtd">
<svg version="1.1" xmlns="http://www.w3.org/2000/svg" xmlns:xlink="http://www.w3.org/1999/xlink" x="0px" y="0px" width="122.5px"
	 height="107px" viewBox="0 0 122.5 107" enable-background="new 0 0 122.5 107" xml:space="preserve">
<g id="podklad" display="none">
</g>
<g id="Layer_9">
</g>
<g id="Layer_1">
</g>
<g id="podklad_1_">
</g>
<g id="OBD_x5F_prvky">
</g>
<g id="Layer_7">
</g>
<g id="texty">
	<path fill="#FFFFFF" d="M79.836,35.965c-0.93-3.399-3.086-6.118-6.232-7.862c-1.623-0.897-3.354-1.352-5.148-1.352
		c-3.461,0-6.365,1.667-8.225,3.102c-1.863-1.466-4.789-3.179-8.291-3.179c-1.758,0-3.463,0.439-5.061,1.305
		c-3.164,1.713-5.346,4.412-6.307,7.803c-1.033,3.645-0.504,7.812,1.416,11.146c3.037,5.283,14.834,15.998,16.17,17.203l1.906,1.72
		l1.924-1.703c1.346-1.192,13.24-11.797,16.326-17.05C80.266,43.781,80.834,39.619,79.836,35.965z M73.359,44.188
		c-1.891,3.218-9.029,10.059-13.26,13.926c-4.193-3.906-11.268-10.812-13.131-14.051c-1.145-1.989-1.477-4.561-0.867-6.712
		c0.535-1.892,1.719-3.344,3.514-4.316c0.762-0.412,1.521-0.612,2.324-0.612c2.68,0,5.318,2.322,6.102,3.207l2.15,2.476l2.174-2.456
		c0.723-0.817,3.393-3.15,6.09-3.15c0.82,0,1.594,0.208,2.363,0.634c1.787,0.989,2.955,2.451,3.473,4.348
		C74.881,39.637,74.523,42.207,73.359,44.188z"/>
	<g>
		<path fill="#FFFFFF" d="M59.679,102.755c-2.35,0-4.518-1.415-5.938-3.879L43.053,80.357l-18.666-0.004
			C14.055,80.353,5.648,71.943,5.65,61.611l0.006-35.661C5.658,15.616,14.066,7.21,24.398,7.211l73.584,0.012
			c10.336,0.001,18.742,8.409,18.741,18.745l-0.005,35.661c-0.002,10.331-8.41,18.737-18.746,18.736l-21.666-0.004l-10.69,18.516
			C64.193,101.341,62.027,102.756,59.679,102.755z M24.397,13.321c-6.964,0-12.63,5.664-12.632,12.63l-0.005,35.662
			c-0.001,6.963,5.663,12.63,12.627,12.631l22.191,0.003L59.032,95.82c0.269,0.469,0.516,0.701,0.647,0.791
			c0.128-0.089,0.376-0.321,0.645-0.791l12.457-21.57l25.191,0.005c6.967,0.001,12.635-5.664,12.635-12.627l0.005-35.661
			c0.001-6.967-5.664-12.634-12.63-12.635L24.397,13.321z"/>
	</g>
</g>
<g id="OTVR_x5F_hambac">
</g>
<g id="lista">
</g>
<g id="Layer_14">
</g>
<g id="_x33__x5F_ŘADEK_x5F_icon">
</g>
<g id="slunicko" display="none">
</g>
<g id="mesice">
</g>
<g id="kryti">
</g>
</svg>
