<?xml version="1.0" encoding="utf-8"?>
<!-- Generator: Adobe Illustrator 16.0.0, SVG Export Plug-In . SVG Version: 6.00 Build 0)  -->
<!DOCTYPE svg PUBLIC "-//W3C//DTD SVG 1.1//EN" "http://www.w3.org/Graphics/SVG/1.1/DTD/svg11.dtd">
<svg version="1.1" xmlns="http://www.w3.org/2000/svg" xmlns:xlink="http://www.w3.org/1999/xlink" x="0px" y="0px" width="122.5px"
	 height="107px" viewBox="0 0 122.5 107" enable-background="new 0 0 122.5 107" xml:space="preserve">
<g id="podklad" display="none">
</g>
<g id="Layer_9">
</g>
<g id="Layer_1">
</g>
<g id="podklad_1_">
</g>
<g id="OBD_x5F_prvky">
</g>
<g id="Layer_7">
</g>
<g id="texty">
	<g>
		<path fill="#FFFFFF" d="M83.043,38.34c-1.393-2.48-5.104-3.737-11.031-3.737c-1.033,0-2.008,0.038-2.861,0.091
			c0.631-4.988,0.011-8.633-1.85-10.851c-1.298-1.548-3.157-2.366-5.375-2.366c-1.274,0-2.278,0.276-2.475,0.338
			c-1.073,0.263-1.775,1.286-1.634,2.372c1.042,8.413-2.709,12.542-4.828,14.169c-0.691-0.465-1.504-0.716-2.354-0.716h-8.619
			c-1.128,0-2.191,0.441-2.995,1.243c-0.801,0.802-1.242,1.865-1.242,2.993v16.29c0,1.128,0.441,2.191,1.243,2.994
			c0.802,0.801,1.865,1.242,2.994,1.242h8.619c1.069,0,2.073-0.407,2.855-1.129l1.648,0.905c0.347,0.218,0.745,0.333,1.154,0.333
			h16.314c0.304,0.035,0.595,0.051,0.871,0.051c3.843,0,5.576-3.041,5.969-6.134c1.556-1.21,2.263-3.195,1.973-5.551
			c0.919-0.746,1.508-1.65,1.754-2.698c0.348-1.479-0.089-2.872-0.579-3.856C83.817,42,83.969,39.991,83.043,38.34z M78.409,45.742
			c0.244,0.329,0.572,0.972,0.473,1.398c-0.071,0.304-0.42,0.551-0.736,0.718l-0.105,0.052c-1.013,0.493-1.477,1.66-1.099,2.661
			c0.007,0.021,0.672,2.049-0.374,2.569l-0.051,0.022c-0.839,0.358-1.357,1.191-1.314,2.094c-0.01,0.601-0.157,2.968-1.814,2.968
			c-0.089,0-0.179-0.005-0.275-0.015l-0.089-0.012c-0.1-0.014-0.201-0.021-0.313-0.021h-0.002H56.847l-1.975-1.086V42.313
			c2.582-1.761,7.869-6.585,7.435-16.435c0.668,0.105,1.2,0.406,1.615,0.912c0.742,0.903,1.796,3.389,0.513,9.893
			c-0.114,0.568,0.001,1.147,0.324,1.629c0.322,0.482,0.813,0.809,1.381,0.921c0.273,0.054,0.535,0.054,0.797,0.008
			c0.503-0.063,2.627-0.311,5.058-0.311c4.492,0,6.559,0.859,6.994,1.664c0.348,0.64-0.212,1.74-0.64,2.426l-0.092,0.139
			C77.73,43.961,77.796,45.011,78.409,45.742z M50.536,41.975v16.091h-8.42L42.09,41.975H50.536z"/>
		<g>
			<path fill="#FFFFFF" d="M59.679,102.755c-2.35,0-4.518-1.415-5.938-3.879L43.053,80.357l-18.666-0.004
				C14.055,80.353,5.648,71.943,5.65,61.611l0.006-35.661C5.658,15.616,14.066,7.21,24.398,7.211l73.584,0.012
				c10.336,0.001,18.742,8.409,18.741,18.745l-0.005,35.661c-0.002,10.331-8.41,18.737-18.746,18.736l-21.666-0.004l-10.69,18.516
				C64.193,101.341,62.027,102.756,59.679,102.755z M24.397,13.321c-6.964,0-12.63,5.664-12.632,12.63l-0.005,35.662
				c-0.001,6.963,5.663,12.63,12.627,12.631l22.191,0.003L59.032,95.82c0.269,0.469,0.516,0.701,0.647,0.791
				c0.128-0.089,0.376-0.321,0.645-0.791l12.457-21.57l25.191,0.005c6.967,0.001,12.635-5.664,12.635-12.627l0.005-35.661
				c0.001-6.967-5.664-12.634-12.63-12.635L24.397,13.321z"/>
		</g>
	</g>
</g>
<g id="OTVR_x5F_hambac">
</g>
<g id="lista">
</g>
<g id="Layer_14">
</g>
<g id="_x33__x5F_ŘADEK_x5F_icon">
</g>
<g id="slunicko" display="none">
</g>
<g id="mesice">
</g>
<g id="kryti">
</g>
</svg>
