<?xml version="1.0" encoding="utf-8"?>
<!-- Generator: Adobe Illustrator 16.0.0, SVG Export Plug-In . SVG Version: 6.00 Build 0)  -->
<!DOCTYPE svg PUBLIC "-//W3C//DTD SVG 1.1//EN" "http://www.w3.org/Graphics/SVG/1.1/DTD/svg11.dtd">
<svg version="1.1" xmlns="http://www.w3.org/2000/svg" xmlns:xlink="http://www.w3.org/1999/xlink" x="0px" y="0px" width="122.5px"
	 height="107px" viewBox="0 0 122.5 107" enable-background="new 0 0 122.5 107" xml:space="preserve">
<g id="podklad" display="none">
</g>
<g id="Layer_9">
</g>
<g id="Layer_1">
</g>
<g id="podklad_1_">
</g>
<g id="OBD_x5F_prvky">
</g>
<g id="Layer_7">
</g>
<g id="texty">
	<g>
		<path fill="#FFFFFF" d="M59.678,102.755c-2.35,0-4.518-1.415-5.938-3.88L43.053,80.357l-18.666-0.004
			C14.055,80.352,5.648,71.943,5.65,61.611l0.006-35.661C5.658,15.616,14.066,7.21,24.398,7.211l73.584,0.012
			c10.336,0.001,18.742,8.409,18.74,18.745l-0.004,35.661c-0.002,10.331-8.41,18.737-18.746,18.736l-21.666-0.004L65.615,98.877
			C64.193,101.341,62.027,102.756,59.678,102.755z M24.396,13.321c-6.963,0-12.629,5.664-12.631,12.63L11.76,61.613
			c0,6.963,5.664,12.63,12.627,12.631l22.191,0.003L59.031,95.82c0.27,0.469,0.516,0.701,0.648,0.791
			c0.127-0.089,0.375-0.321,0.645-0.791L72.781,74.25l25.191,0.005c6.967,0.001,12.635-5.664,12.635-12.627l0.004-35.661
			c0.002-6.967-5.664-12.634-12.629-12.635L24.396,13.321z"/>
	</g>
	<path fill="#FFFFFF" d="M70.711,39.441c1.512,0,2.741-1.23,2.741-2.743c0-0.002-0.001-0.004-0.001-0.006h0.001
		c0-5.78-3.753-9.506-10.183-10.313v-3.963h-5.502v3.963c-6.428,0.806-10.18,4.533-10.18,10.313c0,5.779,3.752,9.506,10.18,10.312
		v9.91c-4.678-0.808-4.678-3.711-4.678-4.766h-0.027c-0.147-1.413-1.303-2.521-2.723-2.521c-1.418,0-2.575,1.109-2.723,2.521h-0.029
		c0,0.072,0.008,0.139,0.009,0.21c-0.001,0.03-0.009,0.058-0.009,0.088c0,0.073,0.016,0.142,0.021,0.214
		c0.219,5.483,3.924,9.019,10.158,9.8v3.963h5.502V62.46c6.43-0.806,10.183-4.533,10.183-10.312c0-5.78-3.753-9.505-10.183-10.312
		v-9.911c4.68,0.808,4.68,3.711,4.68,4.767h0.02c0,0.002-0.001,0.004-0.001,0.006C67.968,38.211,69.197,39.441,70.711,39.441z
		 M57.768,41.458c-4.678-0.807-4.678-3.711-4.678-4.766c0-1.056,0-3.958,4.678-4.767V41.458z M67.949,52.148
		c0,1.055,0,3.958-4.68,4.766v-9.534C67.949,48.189,67.949,51.093,67.949,52.148z"/>
</g>
<g id="OTVR_x5F_hambac">
</g>
<g id="lista">
</g>
<g id="Layer_14">
</g>
<g id="_x33__x5F_ŘADEK_x5F_icon">
</g>
<g id="slunicko" display="none">
</g>
<g id="mesice">
</g>
<g id="kryti">
</g>
</svg>
