<?xml version="1.0" encoding="utf-8"?>
<!-- Generator: Adobe Illustrator 16.0.0, SVG Export Plug-In . SVG Version: 6.00 Build 0)  -->
<!DOCTYPE svg PUBLIC "-//W3C//DTD SVG 1.1//EN" "http://www.w3.org/Graphics/SVG/1.1/DTD/svg11.dtd">
<svg version="1.1" xmlns="http://www.w3.org/2000/svg" xmlns:xlink="http://www.w3.org/1999/xlink" x="0px" y="0px" width="122.5px"
	 height="107px" viewBox="0 0 122.5 107" enable-background="new 0 0 122.5 107" xml:space="preserve">
<g id="podklad" display="none">
</g>
<g id="Layer_9">
</g>
<g id="Layer_1">
</g>
<g id="podklad_1_">
</g>
<g id="OBD_x5F_prvky">
</g>
<g id="Layer_7">
</g>
<g id="texty">
	<g>
		<g>
			<path fill="#FFFFFF" d="M59.679,101.755c-2.35,0-4.518-1.415-5.938-3.879L43.053,79.357l-18.666-0.004
				C14.055,79.353,5.648,70.943,5.65,60.611l0.006-35.661C5.658,14.616,14.066,6.21,24.398,6.211l73.584,0.012
				c10.336,0.001,18.742,8.409,18.741,18.745l-0.005,35.661c-0.002,10.331-8.41,18.737-18.746,18.736l-21.666-0.004l-10.69,18.516
				C64.193,100.341,62.027,101.756,59.679,101.755z M24.397,12.321c-6.964,0-12.63,5.664-12.632,12.63l-0.005,35.662
				c-0.001,6.963,5.663,12.63,12.627,12.631l22.191,0.003L59.032,94.82c0.269,0.469,0.516,0.701,0.647,0.791
				c0.128-0.089,0.376-0.321,0.645-0.791l12.457-21.57l25.191,0.005c6.967,0.001,12.635-5.664,12.635-12.627l0.005-35.661
				c0.001-6.967-5.664-12.634-12.63-12.635L24.397,12.321z"/>
		</g>
		<path fill="#FFFFFF" d="M61.889,60.788c11.922,0,21.586-9.017,21.586-20.139S73.811,20.51,61.889,20.51
			c-11.92,0-21.585,9.016-21.585,20.139c0,6.299,3.099,11.923,7.952,15.615v7.582c0.044,0.029,0.088,0.061,0.133,0.09l7.111-4.042
			C57.52,60.475,59.668,60.788,61.889,60.788z M47.943,47.458l11.641-12.325l5.588,5.71l10.477-5.71L64.074,47.458l-5.537-5.812
			L47.943,47.458z"/>
	</g>
</g>
<g id="OTVR_x5F_hambac">
</g>
<g id="lista">
</g>
<g id="Layer_14">
</g>
<g id="_x33__x5F_ŘADEK_x5F_icon">
</g>
<g id="slunicko" display="none">
</g>
<g id="mesice">
</g>
<g id="kryti">
</g>
</svg>
