<?xml version="1.0" encoding="utf-8"?>
<!-- Generator: Adobe Illustrator 16.0.0, SVG Export Plug-In . SVG Version: 6.00 Build 0)  -->
<!DOCTYPE svg PUBLIC "-//W3C//DTD SVG 1.1//EN" "http://www.w3.org/Graphics/SVG/1.1/DTD/svg11.dtd">
<svg version="1.1" id="texty" xmlns="http://www.w3.org/2000/svg" xmlns:xlink="http://www.w3.org/1999/xlink" x="0px" y="0px"
	 width="51.334px" height="48.126px" viewBox="0 0 51.334 48.126" enable-background="new 0 0 51.334 48.126" xml:space="preserve">
<g>
	<path fill="#FFFFFF" d="M1344.75,1403.101h-342.035c-17.309,0-31.387,13.757-31.387,30.665v193.671
		c0,16.907,14.078,30.664,31.387,30.664h342.035c17.307,0,31.387-13.757,31.387-30.664v-193.671
		C1376.137,1416.857,1362.057,1403.101,1344.75,1403.101z"/>
	<path fill="#FFFFFF" d="M45.026,822.501h-345.498c-17.482,0-31.705,13.896-31.705,30.976v195.631
		c0,17.078,14.223,30.975,31.705,30.975H45.026c17.482,0,31.705-13.896,31.705-30.975V853.477
		C76.731,836.397,62.509,822.501,45.026,822.501z"/>
	<g>
		<rect x="-302.12" y="867.661" fill="none" width="480.932" height="109.908"/>
		<text transform="matrix(1 0 0 1 -302.1211 892.1611)"><tspan x="0" y="0" fill="#FF712E" font-family="'Gilroy-ExtraBold'" font-size="35">Web </tspan><tspan x="0" y="37.993" fill="#FF712E" font-family="'Gilroy-ExtraBold'" font-size="35">development</tspan></text>
	</g>
	<rect x="-302.443" y="974.216" fill-rule="evenodd" clip-rule="evenodd" fill="none" width="343.59" height="207.569"/>
	<text transform="matrix(1 0 0 1 -302.4443 990.0059)"><tspan x="0" y="0" fill="#7C7C7C" font-family="'Rubik-Regular'" font-size="22.2397">Dobře vypadající a bezchybně </tspan><tspan x="0" y="26.688" fill="#7C7C7C" font-family="'Rubik-Regular'" font-size="22.2397">fungující web je základem </tspan><tspan x="0" y="53.375" fill="#7C7C7C" font-family="'Rubik-Regular'" font-size="22.2397">každé úspěšné moderní firmy.</tspan></text>
	<path fill="#FFFFFF" d="M906.416,1113.101H564.381c-17.309,0-31.387,13.757-31.387,30.665v193.671
		c0,16.907,14.078,30.664,31.387,30.664h342.035c17.307,0,31.387-13.757,31.387-30.664v-193.671
		C937.803,1126.857,923.723,1113.101,906.416,1113.101z"/>
	<g>
		<rect x="567.204" y="1157.812" fill="none" width="476.115" height="108.807"/>
		<text transform="matrix(1 0 0 1 567.2051 1182.3115)"><tspan x="0" y="0" fill="#FF712E" font-family="'Gilroy-ExtraBold'" font-size="35">HR </tspan><tspan x="0" y="37.612" fill="#FF712E" font-family="'Gilroy-ExtraBold'" font-size="35">marketing</tspan></text>
	</g>
	<rect x="566.881" y="1263.295" fill="none" width="340.15" height="205.49"/>
	<text transform="matrix(1 0 0 1 566.8809 1279.085)"><tspan x="0" y="0" fill="#7C7C7C" font-family="'Rubik-Regular'" font-size="22.2397">Získejte nejlepší zaměstnance </tspan><tspan x="0" y="26.688" fill="#7C7C7C" font-family="'Rubik-Regular'" font-size="22.2397">a postarejte se o to, že u Vás </tspan><tspan x="0" y="53.375" fill="#7C7C7C" font-family="'Rubik-Regular'" font-size="22.2397">budou chtít zůstat.</tspan></text>
	<path fill="#FFFFFF" d="M37.121,1109.501h-342.035c-17.309,0-31.387,13.757-31.387,30.665v193.671
		c0,16.907,14.078,30.664,31.387,30.664H37.121c17.307,0,31.387-13.757,31.387-30.664v-193.671
		C68.508,1123.258,54.428,1109.501,37.121,1109.501z"/>
	<g>
		<rect x="-302.466" y="1154.212" fill="none" width="476.115" height="108.807"/>
		<text transform="matrix(1 0 0 1 -302.4648 1178.7119)"><tspan x="0" y="0" fill="#FF712E" font-family="'Gilroy-ExtraBold'" font-size="35">Korporátní </tspan><tspan x="0" y="37.612" fill="#FF712E" font-family="'Gilroy-ExtraBold'" font-size="35">identita</tspan></text>
	</g>
	<g>
		<rect x="-302.789" y="1259.695" fill="none" width="340.15" height="205.49"/>
		<text transform="matrix(1 0 0 1 -302.7891 1275.4854)"><tspan x="0" y="0" fill="#7C7C7C" font-family="'Rubik-Regular'" font-size="22.2397">Ujasněte si smysl a formu </tspan><tspan x="0" y="26.688" fill="#7C7C7C" font-family="'Rubik-Regular'" font-size="22.2397">vašeho jednání. Kým a proč </tspan><tspan x="0" y="53.375" fill="#7C7C7C" font-family="'Rubik-Regular'" font-size="22.2397">chcete doopravdy být?</tspan></text>
	</g>
	<path fill="#FFFFFF" d="M906.416,822.501H564.381c-17.309,0-31.387,13.757-31.387,30.665v193.671
		c0,16.907,14.078,30.664,31.387,30.664h342.035c17.307,0,31.387-13.757,31.387-30.664V853.166
		C937.803,836.258,923.723,822.501,906.416,822.501z"/>
	<g>
		<rect x="567.204" y="867.212" fill="none" width="476.115" height="108.807"/>
		<text transform="matrix(1 0 0 1 567.2051 891.7119)"><tspan x="0" y="0" fill="#FF712E" font-family="'Gilroy-ExtraBold'" font-size="35">Sociální </tspan><tspan x="0" y="37.612" fill="#FF712E" font-family="'Gilroy-ExtraBold'" font-size="35">sítě</tspan></text>
	</g>
	<g>
		<rect x="566.881" y="972.695" fill="none" width="340.15" height="205.49"/>
		<text transform="matrix(1 0 0 1 566.8809 988.4854)"><tspan x="0" y="0" fill="#7C7C7C" font-family="'Rubik-Regular'" font-size="22.2397">Neocenitelný nástroj pro </tspan><tspan x="0" y="26.688" fill="#7C7C7C" font-family="'Rubik-Regular'" font-size="22.2397">každého, kdo se chce se svým </tspan><tspan x="0" y="53.375" fill="#7C7C7C" font-family="'Rubik-Regular'" font-size="22.2397">produktem dostat mezi lidi.</tspan></text>
	</g>
	<path fill="#FFFFFF" d="M1344.752,826.101h-342.037c-17.307,0-31.387,13.757-31.387,30.665v193.671
		c0,16.907,14.08,30.664,31.387,30.664h342.037c17.307,0,31.387-13.757,31.387-30.664V856.766
		C1376.139,839.857,1362.059,826.101,1344.752,826.101z"/>
	<g>
		<rect x="1005.54" y="870.812" fill="none" width="476.115" height="108.807"/>
		<text transform="matrix(1 0 0 1 1005.541 895.3115)"><tspan x="0" y="0" fill="#FF712E" font-family="'Gilroy-ExtraBold'" font-size="35">Vývoj </tspan><tspan x="0" y="37.612" fill="#FF712E" font-family="'Gilroy-ExtraBold'" font-size="35">aplikací</tspan></text>
	</g>
	<g>
		<rect x="1005.217" y="976.295" fill="none" width="340.148" height="205.49"/>
		<text transform="matrix(1 0 0 1 1005.2168 992.085)"><tspan x="0" y="0" fill="#7C7C7C" font-family="'Rubik-Regular'" font-size="22.2397">Vyladěné aplikace Vás </tspan><tspan x="0" y="26.688" fill="#7C7C7C" font-family="'Rubik-Regular'" font-size="22.2397">dovedou k úspěchu a Vaše </tspan><tspan x="0" y="53.375" fill="#7C7C7C" font-family="'Rubik-Regular'" font-size="22.2397">klienty k pohodlnému životu.</tspan></text>
	</g>
	<path fill="#FFFFFF" d="M475.08,822.501H133.045c-17.309,0-31.387,13.757-31.387,30.665v193.671
		c0,16.907,14.078,30.664,31.387,30.664H475.08c17.307,0,31.387-13.757,31.387-30.664V853.166
		C506.467,836.258,492.387,822.501,475.08,822.501z"/>
	<g>
		<rect x="135.868" y="867.212" fill="none" width="476.115" height="108.807"/>
		<text transform="matrix(1 0 0 1 135.8691 891.7119)"><tspan x="0" y="0" fill="#FF712E" font-family="'Gilroy-ExtraBold'" font-size="35">Grafické </tspan><tspan x="0" y="37.612" fill="#FF712E" font-family="'Gilroy-ExtraBold'" font-size="35">studio</tspan></text>
	</g>
	<g>
		<polygon fill="none" points="475.695,1178.186 135.545,1178.186 135.545,972.695 336.178,972.695 475.695,972.695 		"/>
		<text transform="matrix(1 0 0 1 135.5449 988.4854)"><tspan x="0" y="0" fill="#7C7C7C" font-family="'Rubik-Regular'" font-size="22.2397">Protože vizuální stránka </tspan><tspan x="0" y="26.688" fill="#7C7C7C" font-family="'Rubik-Regular'" font-size="22.2397">je vždy až tím prvním, co </tspan><tspan x="0" y="53.375" fill="#7C7C7C" font-family="'Rubik-Regular'" font-size="22.2397">ovlivní zájem Vašich klientů.</tspan></text>
	</g>
	<path fill="#FFFFFF" d="M475.08,1109.501H133.045c-17.309,0-31.387,13.757-31.387,30.665v193.671
		c0,16.907,14.078,30.664,31.387,30.664H475.08c17.307,0,31.387-13.757,31.387-30.664v-193.671
		C506.467,1123.258,492.387,1109.501,475.08,1109.501z"/>
	<g>
		<rect x="135.868" y="1154.212" fill="none" width="476.115" height="108.807"/>
		<text transform="matrix(1 0 0 1 135.8691 1178.7119)"><tspan x="0" y="0" fill="#FF712E" font-family="'Gilroy-ExtraBold'" font-size="35">Offline </tspan><tspan x="0" y="37.612" fill="#FF712E" font-family="'Gilroy-ExtraBold'" font-size="35">marketing</tspan></text>
	</g>
	<g>
		<rect x="135.545" y="1259.695" fill="none" width="340.15" height="205.49"/>
		<text transform="matrix(1 0 0 1 135.5449 1275.4854)"><tspan x="0" y="0" fill="#7C7C7C" font-family="'Rubik-Regular'" font-size="22.2397">Oslovujte svět pomocí hmotné </tspan><tspan x="0" y="26.688" fill="#7C7C7C" font-family="'Rubik-Regular'" font-size="22.2397">reklamy. Ani v digitálním věku </tspan><tspan x="0" y="53.375" fill="#7C7C7C" font-family="'Rubik-Regular'" font-size="22.2397">nestačí být vidět pouze </tspan><tspan x="0" y="80.063" fill="#7C7C7C" font-family="'Rubik-Regular'" font-size="22.2397">online.</tspan></text>
	</g>
	<path fill="#FFFFFF" d="M1344.75,1113.101h-342.035c-17.309,0-31.387,13.757-31.387,30.665v193.671
		c0,16.907,14.078,30.664,31.387,30.664h342.035c17.307,0,31.387-13.757,31.387-30.664v-193.671
		C1376.137,1126.857,1362.057,1113.101,1344.75,1113.101z"/>
	<g>
		<circle fill="#F37337" cx="1135.5" cy="1231.601" r="8.441"/>
		<circle fill="#F37337" cx="1174.23" cy="1231.601" r="8.441"/>
		<circle fill="#F37337" cx="1211.967" cy="1231.601" r="8.441"/>
	</g>
	<g>
		<rect x="1005.215" y="1447.488" fill="none" width="476.115" height="108.807"/>
		<text transform="matrix(1 0 0 1 1005.2168 1471.9883)"><tspan x="0" y="0" fill="#FF712E" font-family="'Gilroy-ExtraBold'" font-size="35">Cloudové </tspan><tspan x="0" y="37.612" fill="#FF712E" font-family="'Gilroy-ExtraBold'" font-size="35">řešení</tspan></text>
	</g>
	<g>
		<rect x="1005.215" y="1553.295" fill="none" width="340.15" height="205.49"/>
		<text transform="matrix(1 0 0 1 1005.2168 1569.085)"><tspan x="0" y="0" fill="#7C7C7C" font-family="'Rubik-Regular'" font-size="22.2397">Cloudové systémy jsou i budou </tspan><tspan x="0" y="26.688" fill="#7C7C7C" font-family="'Rubik-Regular'" font-size="22.2397">ideálním řešením jak </tspan><tspan x="0" y="53.375" fill="#7C7C7C" font-family="'Rubik-Regular'" font-size="22.2397">minimalizovat firemní náklady.</tspan></text>
	</g>
	<path fill="#FFFFFF" d="M475.08,1399.501H133.045c-17.309,0-31.387,13.757-31.387,30.665v193.671
		c0,16.907,14.078,30.664,31.387,30.664H475.08c17.307,0,31.387-13.757,31.387-30.664v-193.671
		C506.467,1413.258,492.387,1399.501,475.08,1399.501z"/>
	<g>
		<rect x="135.868" y="1460.711" fill="none" width="476.115" height="108.807"/>
		<text transform="matrix(1 0 0 1 135.8691 1485.2109)" fill="#FF712E" font-family="'Gilroy-ExtraBold'" font-size="35">Animace</text>
	</g>
	<g>
		<rect x="135.545" y="1549.695" fill="none" width="340.15" height="205.49"/>
		<text transform="matrix(1 0 0 1 135.5449 1565.4854)"><tspan x="0" y="0" fill="#7C7C7C" font-family="'Rubik-Regular'" font-size="22.2397">Dynamická grafika baví svět. </tspan><tspan x="0" y="26.688" fill="#7C7C7C" font-family="'Rubik-Regular'" font-size="22.2397">Nespoléhejte na statický </tspan><tspan x="0" y="53.375" fill="#7C7C7C" font-family="'Rubik-Regular'" font-size="22.2397">vizuál, který patří do minulého </tspan><tspan x="0" y="80.063" fill="#7C7C7C" font-family="'Rubik-Regular'" font-size="22.2397">století.</tspan></text>
	</g>
	<path fill="#FFFFFF" d="M906.666,1399.335H564.631c-17.309,0-31.387,13.756-31.387,30.664v193.671
		c0,16.907,14.078,30.665,31.387,30.665h342.035c17.307,0,31.387-13.758,31.387-30.665v-193.671
		C938.053,1413.091,923.973,1399.335,906.666,1399.335z"/>
	<g>
		<rect x="566.881" y="1443.889" fill="none" width="476.115" height="108.807"/>
		<text transform="matrix(1 0 0 1 566.8809 1468.3887)"><tspan x="0" y="0" fill="#FF712E" font-family="'Gilroy-ExtraBold'" font-size="35">Foto/ </tspan><tspan x="0" y="37.612" fill="#FF712E" font-family="'Gilroy-ExtraBold'" font-size="35">video</tspan></text>
	</g>
	<g>
		<rect x="566.881" y="1549.695" fill="none" width="340.15" height="205.49"/>
		<text transform="matrix(1 0 0 1 566.8809 1565.4854)"><tspan x="0" y="0" fill="#7C7C7C" font-family="'Rubik-Regular'" font-size="22.2397">Nepromarněte jedinečnou </tspan><tspan x="0" y="26.688" fill="#7C7C7C" font-family="'Rubik-Regular'" font-size="22.2397">možnost zaznamenat důležité </tspan><tspan x="0" y="53.375" fill="#7C7C7C" font-family="'Rubik-Regular'" font-size="22.2397">momenty Vaší kariéry a </tspan><tspan x="0" y="80.063" fill="#7C7C7C" font-family="'Rubik-Regular'" font-size="22.2397">života.</tspan></text>
	</g>
	<path fill="#FFFFFF" d="M36.496,1403.476h-342.035c-17.309,0-31.387,13.757-31.387,30.665v193.671
		c0,16.907,14.078,30.664,31.387,30.664H36.496c17.307,0,31.387-13.757,31.387-30.664v-193.671
		C67.883,1417.232,53.803,1403.476,36.496,1403.476z"/>
	<g>
		<rect x="-302.466" y="1447.812" fill="none" width="476.115" height="108.807"/>
		<text transform="matrix(1 0 0 1 -302.4668 1472.3115)"><tspan x="0" y="0" fill="#FF712E" font-family="'Gilroy-ExtraBold'" font-size="35">Analýza/ </tspan><tspan x="0" y="37.612" fill="#FF712E" font-family="'Gilroy-ExtraBold'" font-size="35">strategie</tspan></text>
	</g>
	<g>
		<rect x="-302.789" y="1553.295" fill="none" width="340.15" height="205.49"/>
		<text transform="matrix(1 0 0 1 -302.7891 1569.085)"><tspan x="0" y="0" fill="#7C7C7C" font-family="'Rubik-Regular'" font-size="22.2397">Když vše nefunguje tak, jak </tspan><tspan x="0" y="26.688" fill="#7C7C7C" font-family="'Rubik-Regular'" font-size="22.2397">by mělo. Najděte s námi </tspan><tspan x="0" y="53.375" fill="#7C7C7C" font-family="'Rubik-Regular'" font-size="22.2397">příčinu </tspan><tspan x="0" y="80.063" fill="#7C7C7C" font-family="'Rubik-Regular'" font-size="22.2397">i řešení problému.</tspan></text>
	</g>
	<path fill="#FFFFFF" d="M1344.75,1113.101h-342.035c-17.309,0-31.387,13.757-31.387,30.665v193.671
		c0,16.907,14.078,30.664,31.387,30.664h342.035c17.307,0,31.387-13.757,31.387-30.664v-193.671
		C1376.137,1126.857,1362.057,1113.101,1344.75,1113.101z"/>
	<g>
		<rect x="1005.538" y="1157.812" fill="none" width="476.115" height="108.807"/>
		<text transform="matrix(1 0 0 1 1005.5391 1182.3115)"><tspan x="0" y="0" fill="#FF712E" font-family="'Gilroy-ExtraBold'" font-size="35">Školení </tspan><tspan x="0" y="37.612" fill="#FF712E" font-family="'Gilroy-ExtraBold'" font-size="35">online</tspan></text>
	</g>
	<g>
		<rect x="1005.215" y="1263.295" fill="none" width="340.15" height="205.49"/>
		<text transform="matrix(1 0 0 1 1005.2148 1279.085)"><tspan x="0" y="0" fill="#7C7C7C" font-family="'Rubik-Regular'" font-size="22.2397">Vzdělávejte se bez cestování </tspan><tspan x="0" y="26.688" fill="#7C7C7C" font-family="'Rubik-Regular'" font-size="22.2397">a řešit technické nesnáze. </tspan><tspan x="0" y="53.375" fill="#7C7C7C" font-family="'Rubik-Regular'" font-size="22.2397">Seberozvoj na dálku funguje.</tspan></text>
	</g>
	<g>
		<g>
			<path fill="#4AE5D9" d="M876.416,889.214c-0.364-1.139-1.423-1.912-2.619-1.912h-17.838l-5.739-17.737
				c-0.367-1.135-1.424-1.903-2.616-1.903s-2.25,0.77-2.616,1.904l-5.735,17.736h-17.84c-1.196,0-2.255,0.773-2.619,1.912
				c-0.364,1.14,0.049,2.383,1.023,3.078l14.533,10.355l-5.537,17.139c-0.366,1.134,0.039,2.374,1.004,3.073
				c0.481,0.349,1.048,0.522,1.613,0.522c0.568,0,1.137-0.176,1.619-0.527l14.555-10.605l14.559,10.605
				c0.963,0.701,2.268,0.703,3.232,0.004s1.37-1.939,1.003-3.073l-5.544-17.138l14.539-10.355
				C876.366,891.598,876.78,890.354,876.416,889.214z M856.021,899.337c-0.977,0.695-1.39,1.944-1.02,3.086l3.558,11.003
				l-9.337-6.802c-0.965-0.703-2.273-0.703-3.238,0l-9.337,6.804l3.556-11.006c0.368-1.142-0.045-2.39-1.021-3.085l-9.171-6.535
				h11.241c1.192,0,2.25-0.77,2.616-1.904l3.735-11.551l3.737,11.552c0.368,1.135,1.424,1.903,2.616,1.903h11.239L856.021,899.337z"
				/>
			<path fill="#4AE5D9" d="M821.928,907.466l-5.551-2.923l1.126-6.501c0.167-0.961-0.306-1.92-1.169-2.375
				c-0.865-0.455-1.922-0.301-2.619,0.381l-4.722,4.608l-5.553-2.923c-0.868-0.457-1.927-0.3-2.625,0.385
				c-0.698,0.687-0.872,1.745-0.432,2.619l2.825,5.6l-4.536,4.43c-0.697,0.681-0.877,1.733-0.444,2.607
				c0.432,0.873,1.38,1.369,2.342,1.229l6.277-0.916l2.796,5.693c0.382,0.778,1.17,1.259,2.019,1.259
				c0.106,0,0.213-0.007,0.32-0.022c0.965-0.139,1.73-0.883,1.897-1.843l1.085-6.249l6.216-0.838
				c0.97-0.131,1.744-0.873,1.915-1.837C823.266,908.886,822.794,907.923,821.928,907.466z M812.729,908.286
				c-0.973,0.131-1.748,0.877-1.916,1.845l-0.183,1.051l-0.467-0.95c-0.382-0.778-1.171-1.259-2.019-1.259
				c-0.108,0-0.217,0.008-0.326,0.023l-1.051,0.153l0.763-0.745c0.702-0.686,0.879-1.747,0.437-2.622l-0.397-0.789l0.775,0.408
				c0.861,0.455,1.921,0.3,2.619-0.381l0.917-0.895l-0.219,1.261c-0.167,0.962,0.305,1.921,1.169,2.375l0.771,0.406L812.729,908.286
				z"/>
		</g>
	</g>
	<g>
		<path fill="#4AE5D9" d="M22.348,1166.964h-2.701v-3.646h-3.283v3.646h-4.359v-3.557h0.002v-1.549c0-2.941-2.359-5.303-5.303-5.303
			H-9.203c-2.942,0-5.303,2.361-5.303,5.303v5.105h-4.313v-3.646h-3.283v3.646h-2.744c-4.404,0-7.986,3.582-7.986,7.986v30.521
			c0,4.403,3.582,7.987,7.986,7.987h47.193c4.404,0,7.986-3.584,7.986-7.987v-30.521
			C30.334,1170.546,26.752,1166.964,22.348,1166.964z M-9.203,1161.858H6.703v5.105H-9.203V1161.858z M-24.846,1172.663h2.744v3.643
			h3.283v-3.643h4.313v5.102h5.303v-5.102H6.703v5.102h5.301v-5.102h4.359v3.643h3.283v-3.643h2.701
			c1.262,0,2.287,1.025,2.287,2.287v14.009h-51.769v-14.009C-27.134,1173.688-26.107,1172.663-24.846,1172.663z M22.348,1207.759
			h-47.193c-1.262,0-2.288-1.027-2.288-2.288v-5.114h51.769v5.114C24.635,1206.731,23.609,1207.759,22.348,1207.759z"/>
	</g>
	<g>
		<g>
			<path fill="#4AE5D9" d="M1291.846,866.819l-27.309,0.002c-3.279,0.006-5.941,2.68-5.935,5.959l0.015,7.854l5.462-0.011
				l-0.016-7.153l28.282-0.056l0.094,46.537l-28.281,0.058l-0.018-7.967l-5.459,0.01l0.024,11.972
				c0.007,3.28,2.679,5.944,5.958,5.938l27.309-0.057c3.279-0.006,5.941-2.68,5.936-5.961l-0.104-51.244
				C1297.799,869.449,1295.125,866.812,1291.846,866.819z"/>
			<polygon fill="#4AE5D9" points="1259.087,906.702 1259.072,899.56 1266.211,899.546 1266.199,893.106 1259.059,893.12 
				1259.045,885.979 1252.604,885.993 1252.618,893.133 1245.475,893.147 1245.487,899.588 1252.631,899.573 1252.646,906.718 			
				"/>
		</g>
	</g>
	<g>
		<g>
			<path fill="#4AE5D9" d="M429.173,1179.423h-0.005h-6.411l-2.063-6.374c-0.133-0.407-0.511-0.683-0.938-0.683
				c-0.427,0-0.805,0.276-0.938,0.683l-2.061,6.374h-6.412c-0.427,0-0.807,0.277-0.938,0.686c-0.131,0.409,0.018,0.854,0.367,1.104
				l5.222,3.722l-1.988,6.159c-0.13,0.406,0.016,0.851,0.361,1.102c0.173,0.124,0.375,0.187,0.578,0.187s0.407-0.063,0.58-0.188
				l5.229-3.81l5.231,3.81c0.173,0.126,0.377,0.188,0.58,0.188c0.205,0,0.406-0.063,0.579-0.188c0.346-0.25,0.491-0.695,0.36-1.102
				l-1.994-6.158l5.201-3.703c0.267-0.177,0.441-0.478,0.441-0.822C430.155,1179.864,429.716,1179.423,429.173,1179.423z"/>
			<path fill="#4AE5D9" d="M447.202,1159.051h-54.501c-4.309,0-7.814,3.629-7.814,8.088v31.422c0,4.46,3.506,8.088,7.814,8.088
				h7.845v8.089h4.538v-8.089h29.86v8.089h4.538v-8.089h7.72c4.311,0,7.816-3.628,7.816-8.088v-31.422
				C455.019,1162.68,451.513,1159.051,447.202,1159.051z M449.103,1198.561c0,1.197-0.853,2.172-1.9,2.172h-54.501
				c-1.046,0-1.898-0.975-1.898-2.172v-31.422c0-1.197,0.853-2.172,1.898-2.172h54.501c1.048,0,1.9,0.975,1.9,2.172V1198.561z"/>
		</g>
	</g>
	<g>
		<g>
			<g>
				<path fill="#4AE5D9" d="M-19.663,1455.327h-10.054c-1.381,0-2.5,1.119-2.5,2.5v37.524c0,1.381,1.119,2.5,2.5,2.5h10.054
					c1.381,0,2.5-1.119,2.5-2.5v-37.524C-17.163,1456.446-18.282,1455.327-19.663,1455.327z M-22.163,1492.852h-5.054v-32.524h5.054
					V1492.852z"/>
				<path fill="#4AE5D9" d="M-0.402,1468.133h-10.053c-1.381,0-2.5,1.12-2.5,2.5v24.719c0,1.381,1.119,2.5,2.5,2.5h10.053
					c1.381,0,2.5-1.119,2.5-2.5v-24.719C2.098,1469.253,0.979,1468.133-0.402,1468.133z M-2.902,1492.852h-5.053v-19.719h5.053
					V1492.852z"/>
				<path fill="#4AE5D9" d="M19.479,1442.521H9.426c-1.381,0-2.5,1.119-2.5,2.5v50.331c0,1.381,1.119,2.5,2.5,2.5h10.054
					c1.381,0,2.5-1.119,2.5-2.5v-50.331C21.979,1443.64,20.86,1442.521,19.479,1442.521z M16.979,1492.852h-5.054v-45.331h5.054
					V1492.852z"/>
			</g>
		</g>
		<rect x="-36.906" y="1504.4" fill="#4AE5D9" width="62.449" height="3.158"/>
	</g>
	<g>
		<g>
			<path fill="#4AE5D9" d="M414.509,1440.018c-17.755,0-32.199,14.445-32.199,32.201c0,0.65,0.026,1.295,0.063,1.937l-2.841,1.019
				l0.878,2.449l2.233-0.801c0.188,1.306,0.456,2.586,0.796,3.837l-2.396,0.859l0.878,2.449l2.3-0.825
				c4.483,12.395,16.366,21.276,30.288,21.276c17.755,0,32.2-14.445,32.2-32.2C446.709,1454.463,432.264,1440.018,414.509,1440.018z
				 M414.509,1498.419c-11.323,0-20.989-7.223-24.641-17.301l2.916-1.046l-0.877-2.449l-2.802,1.004
				c-0.318-1.26-0.544-2.556-0.672-3.881l2.841-1.019l-0.879-2.449l-2.081,0.746c0.105-14.357,11.813-26.007,26.194-26.007
				c14.446,0,26.2,11.754,26.2,26.201C440.709,1486.665,428.955,1498.419,414.509,1498.419z"/>
			<path fill="#4AE5D9" d="M425.533,1470.151l-14.217-9.479c-0.748-0.498-1.753-0.548-2.553-0.123
				c-0.808,0.435-1.31,1.274-1.31,2.191v18.953c0,0.918,0.502,1.757,1.311,2.189c0.359,0.192,0.766,0.295,1.174,0.295
				c0.495,0,0.972-0.146,1.378-0.418l14.217-9.477c0.691-0.462,1.104-1.234,1.104-2.065
				C426.638,1471.383,426.225,1470.61,425.533,1470.151z"/>
		</g>
	</g>
	<g>
		<g>
			<rect x="832.336" y="1471.706" fill="#4AE5D9" width="7.251" height="7.619"/>
			<rect x="832.336" y="1483.226" fill="#4AE5D9" width="7.251" height="7.62"/>
			<path fill="#4AE5D9" d="M838.656,1442.381h-37.733c-3.877,0-7.031,3.237-7.031,7.217v40.317c0,3.98,3.154,7.217,7.031,7.217
				h37.733c3.876,0,7.028-3.236,7.028-7.217v-40.317C845.685,1445.618,842.532,1442.381,838.656,1442.381z M799.16,1449.598
				c0-1.075,0.791-1.95,1.763-1.95h37.733c0.973,0,1.762,0.875,1.762,1.95v40.317c0,1.074-0.789,1.949-1.762,1.949h-37.733
				c-0.972,0-1.763-0.875-1.763-1.949V1449.598z"/>
		</g>
		<g>
			<path fill="#4AE5D9" d="M832.875,1456.765h5.186v-5.428h-5.186V1456.765 M809.547,1473.054h20.731v-21.717h-20.731V1473.054
				 M801.772,1456.765h5.185v-5.428h-5.185V1456.765 M832.875,1467.624h5.186v-5.428h-5.186V1467.624 M801.772,1467.624h5.185
				v-5.428h-5.185V1467.624 M832.875,1478.485h5.186v-5.432h-5.186V1478.485 M801.772,1478.485h5.185v-5.432h-5.185V1478.485
				 M809.547,1495.491h20.731v-19.721h-20.731v13.574 M832.875,1489.345h5.186v-5.432h-5.186V1489.345 M801.772,1489.345h5.185
				v-5.432h-5.185V1489.345 M812.824,1454.55h14.181v15.293h-14.181V1454.55L812.824,1454.55z M812.824,1478.979h14.181v13.301
				h-14.181V1478.979L812.824,1478.979z"/>
		</g>
		<g>
			<g>
				<path fill="#FFFFFF" d="M868.604,1467.528h-0.439v-1.762c0-1.389-1.125-2.514-2.516-2.514h-4.261
					c-1.39,0-2.515,1.125-2.515,2.514v1.762h-23.446c-3.669,0-6.653,3.102-6.653,6.916v19.869c0,3.813,2.984,6.916,6.653,6.916
					h33.177c3.672,0,6.656-3.103,6.656-6.916v-19.869C875.26,1470.63,872.275,1467.528,868.604,1467.528z"/>
				<path fill="#FFFFFF" d="M868.604,1504.485h-33.177c-5.464,0-9.909-4.563-9.909-10.172v-19.869
					c0-5.609,4.445-10.171,9.909-10.171h20.387c0.66-2.46,2.91-4.276,5.574-4.276h4.261c2.804,0,5.148,2.009,5.666,4.662
					c4.152,1.213,7.201,5.14,7.201,9.785v19.869C878.516,1499.923,874.069,1504.485,868.604,1504.485z M835.427,1470.784
					c-1.873,0-3.398,1.643-3.398,3.66v19.869c0,2.02,1.525,3.661,3.398,3.661h33.177c1.876,0,3.401-1.642,3.401-3.661v-19.869
					c0-2.018-1.525-3.66-3.401-3.66h-3.694v-4.277h-2.78v4.277H835.427z"/>
			</g>
			<g>
				<g>
					<path fill="#4AE5D9" d="M868.164,1468.223v-2.363c0-1.388-1.125-2.515-2.516-2.515h-4.261c-1.39,0-2.515,1.127-2.515,2.515
						v2.363H868.164z"/>
				</g>
				<g>
					<path fill="#FFFFFF" d="M868.604,1469.665h-9.145h-4.846h-19.187c-2.543,0-4.611,2.184-4.611,4.87v7.155v5.561v7.156
						c0,2.686,2.068,4.87,4.611,4.87h19.187h4.846h9.145c2.544,0,4.614-2.185,4.614-4.87v-7.156v-5.561v-7.155
						C873.218,1471.849,871.147,1469.665,868.604,1469.665z"/>
					<path fill="#4AE5D9" d="M868.604,1501.603h-33.177c-3.824,0-6.937-3.227-6.937-7.195v-19.872c0-3.968,3.112-7.196,6.937-7.196
						h33.177c3.827,0,6.939,3.229,6.939,7.196v19.872C875.543,1498.376,872.431,1501.603,868.604,1501.603z M835.427,1471.99
						c-1.261,0-2.286,1.142-2.286,2.545v19.872c0,1.402,1.025,2.545,2.286,2.545h33.177c1.262,0,2.289-1.143,2.289-2.545v-19.872
						c0-1.403-1.027-2.545-2.289-2.545H835.427z"/>
				</g>
				<g>
					<path fill="#4AE5D9" d="M839.533,1476.071c0.813,0,1.473,0.66,1.473,1.473c0,0.814-0.659,1.473-1.473,1.473
						c-0.814,0-1.473-0.658-1.473-1.473C838.061,1476.731,838.719,1476.071,839.533,1476.071z M852.793,1476.071
						c4.881,0,8.837,3.957,8.837,8.838c0,4.879-3.956,8.841-8.837,8.841c-4.885,0-8.841-3.962-8.841-8.841
						C843.952,1480.028,847.908,1476.071,852.793,1476.071z M852.793,1490.804c3.252,0,5.893-2.641,5.893-5.895
						c0-3.252-2.641-5.893-5.893-5.893c-3.255,0-5.896,2.641-5.896,5.893C846.897,1488.163,849.538,1490.804,852.793,1490.804z"/>
					<path fill="#4AE5D9" d="M852.793,1494.681c-5.389,0-9.77-4.384-9.77-9.771c0-5.387,4.381-9.768,9.77-9.768
						c5.386,0,9.768,4.381,9.768,9.768C862.561,1490.297,858.179,1494.681,852.793,1494.681z M852.793,1477.001
						c-4.363,0-7.91,3.549-7.91,7.908c0,4.362,3.547,7.91,7.91,7.91c4.359,0,7.906-3.548,7.906-7.91
						C860.699,1480.55,857.152,1477.001,852.793,1477.001z M852.793,1491.735c-3.764,0-6.826-3.063-6.826-6.826
						c0-3.763,3.063-6.822,6.826-6.822c3.762,0,6.822,3.06,6.822,6.822C859.615,1488.673,856.555,1491.735,852.793,1491.735z
						 M852.793,1479.946c-2.738,0-4.965,2.227-4.965,4.963c0,2.738,2.227,4.966,4.965,4.966c2.736,0,4.962-2.228,4.962-4.966
						C857.755,1482.173,855.529,1479.946,852.793,1479.946z M839.533,1479.946c-1.326,0-2.403-1.077-2.403-2.402
						c0-1.324,1.077-2.402,2.403-2.402c1.324,0,2.402,1.078,2.402,2.402C841.936,1478.869,840.857,1479.946,839.533,1479.946z
						 M839.533,1477.001c-0.299,0-0.543,0.244-0.543,0.543c0,0.301,0.244,0.543,0.543,0.543s0.543-0.242,0.543-0.543
						C840.076,1477.245,839.832,1477.001,839.533,1477.001z"/>
				</g>
			</g>
		</g>
	</g>
	<g>
		<g>
			<path fill="#4AE5D9" d="M838.492,1199.77c3.586-1.346,6.15-4.799,6.15-8.848c0-5.215-4.243-9.457-9.459-9.457
				s-9.459,4.242-9.459,9.457c0,4.049,2.563,7.502,6.149,8.848c-8.021,0.996-14.255,7.84-14.255,16.125c0,1.104,0.896,2,2,2h31.128
				c0.006,0,0.014,0,0.014,0c1.111,0,2.006-0.896,2.006-2c0-0.104-0.007-0.205-0.022-0.303
				C852.595,1207.443,846.416,1200.754,838.492,1199.77z M829.725,1190.922c0-3.01,2.449-5.457,5.459-5.457s5.459,2.447,5.459,5.457
				c0,3.009-2.449,5.457-5.459,5.457S829.725,1193.931,829.725,1190.922z M821.782,1213.895c0.958-5.814,6.021-10.264,12.104-10.264
				h2.594c6.083,0,11.146,4.449,12.104,10.264H821.782z"/>
			<path fill="#4AE5D9" d="M809.801,1171.756c3.836,0,6.955-3.121,6.955-6.955c0-3.836-3.119-6.955-6.955-6.955
				s-6.957,3.119-6.957,6.955C802.844,1168.635,805.965,1171.756,809.801,1171.756z"/>
			<path fill="#4AE5D9" d="M822.9,1184.891c0-6.682-5.436-12.115-12.118-12.115h-1.966c-6.682,0-12.118,5.434-12.118,12.115
				c0,0.717,0.582,1.299,1.3,1.299h23.604C822.319,1186.189,822.9,1185.607,822.9,1184.891z"/>
			<path fill="#4AE5D9" d="M859.844,1171.756c3.836,0,6.957-3.121,6.957-6.955c0-3.836-3.121-6.955-6.957-6.955
				c-3.834,0-6.954,3.119-6.954,6.955C852.89,1168.635,856.01,1171.756,859.844,1171.756z"/>
			<path fill="#4AE5D9" d="M860.828,1172.775h-1.967c-6.682,0-12.118,5.434-12.118,12.115c0,0.717,0.582,1.299,1.3,1.299h23.603
				c0.718,0,1.3-0.582,1.3-1.299C872.945,1178.209,867.51,1172.775,860.828,1172.775z"/>
			<rect x="826.275" y="1170.129" fill="#4AE5D9" width="18.15" height="3"/>
			
				<rect x="809.671" y="1194.117" transform="matrix(0.7071 0.7071 -0.7071 0.7071 1084.5204 -227.0303)" fill="#4AE5D9" width="13.279" height="3"/>
			
				<rect x="853.648" y="1188.977" transform="matrix(-0.7071 -0.7071 0.7071 -0.7071 614.4002 2645.7263)" fill="#4AE5D9" width="3" height="13.279"/>
		</g>
	</g>
	<g>
		<path fill="#4AE5D9" d="M423.778,879.869c-2.219,0.009-4.267,1.365-5.215,3.457c-1.329,2.956-0.12,6.528,2.697,7.962
			c0.8,0.406,1.655,0.612,2.546,0.612h0.02c2.223-0.011,4.27-1.366,5.211-3.456c1.334-2.955,0.127-6.527-2.691-7.961
			C425.549,880.075,424.692,879.869,423.778,879.869z M422.218,884.978c0.308-0.674,0.912-1.095,1.577-1.099l0.004-0.484l0,0v0.484
			c0.248,0,0.494,0.061,0.727,0.179c0.938,0.478,1.322,1.705,0.855,2.736c-0.295,0.66-0.925,1.088-1.603,1.088
			c-0.243,0-0.479-0.057-0.698-0.168C422.142,887.236,421.755,886.009,422.218,884.978z M423.807,891.416L423.807,891.416
			L423.807,891.416L423.807,891.416z"/>
		<path fill="#4AE5D9" d="M410.602,898.761c2.225-0.01,4.271-1.367,5.213-3.459c1.336-2.955,0.127-6.527-2.693-7.959
			c-0.801-0.41-1.657-0.615-2.564-0.615c-2.221,0.008-4.27,1.365-5.215,3.459c-1.33,2.953-0.121,6.525,2.697,7.963
			c0.801,0.404,1.656,0.611,2.543,0.611H410.602z M410.578,890.257v0.482c0.254,0,0.491,0.057,0.725,0.176
			c0.938,0.479,1.324,1.705,0.857,2.738c-0.406,0.898-1.483,1.337-2.301,0.921c-0.939-0.478-1.324-1.708-0.857-2.741
			c0.302-0.672,0.906-1.092,1.57-1.094L410.578,890.257L410.578,890.257z M410.582,898.276L410.582,898.276L410.582,898.276
			L410.582,898.276z"/>
		<path fill="#4AE5D9" d="M404.414,899.437c-2.225,0.008-4.27,1.364-5.212,3.455c-1.333,2.954-0.125,6.527,2.692,7.963
			c0.803,0.406,1.66,0.613,2.545,0.613h0.137l0.001-0.002c2.177-0.055,4.167-1.4,5.097-3.457c1.331-2.953,0.123-6.525-2.695-7.961
			C406.179,899.642,405.325,899.437,404.414,899.437z M404.441,902.964v0.482c0.246,0,0.488,0.059,0.717,0.176
			c0.938,0.479,1.324,1.706,0.858,2.738c-0.405,0.904-1.47,1.343-2.304,0.918c-0.938-0.477-1.321-1.705-0.854-2.738
			c0.304-0.672,0.906-1.092,1.573-1.094L404.441,902.964L404.441,902.964z"/>
		<path fill="#4AE5D9" d="M452.316,893.247c2.391,5.265,3.263,11.526,1.826,17.127c-0.787,3.062-2.748,7.971-6.783,6.99
			c-3.059-0.742-5.456-2.967-7.818-4.916c-2.436-2.009-4.957-4.004-7.841-5.337c-4.159-1.927-8.602-1.855-12.794-0.053
			c-5.133,2.203-8.801,6.433-13.474,9.331c-2.021,1.252-4.774,1.645-6.542-0.153c-1.447-1.47-2.129-3.608-2.596-5.567
			c-1.348-5.638-0.543-11.557,1.575-16.895c1.89-4.762,5.572-9.291,9.731-12.221c5.166-3.638,11.642-5.604,18.043-5.566
			c3.336,0.02,6.65,0.584,9.75,1.737c2.295,0.854,4.444,1.949,6.437,3.264c1.12-1.261,2.342-2.606,3.636-3.993
			c-2.586-1.834-5.123-3.182-7.691-4.093c-4.113-1.456-8.367-2.259-11.981-2.259c-0.28,0-0.56,0.006-0.825,0.016
			c-4.6,0.123-8.967,0.986-12.983,2.563c-8.659,3.398-15.781,10.349-19.056,18.591c-2.115,5.329-4.035,13.463-1.172,21.946
			c1.845,5.47,4.992,8.72,8.863,9.149c0.359,0.04,0.719,0.061,1.072,0.061c4.309,0,7.799-2.799,10.606-5.049l0.952-0.764
			c2.473-1.99,5.029-4.048,7.751-5.217c1.841-0.791,3.462-1.108,5.087-0.97c3.412,0.284,6.508,2.741,9.508,5.124l1.055,0.844
			c3.303,2.654,7.412,5.958,12.305,5.958c4.229-0.006,7.65-3.251,9.637-9.137c1.508-4.466,1.797-9.562,0.974-14.561
			c-0.533-3.23-1.531-6.422-2.969-9.374C454.945,891.175,453.467,892.349,452.316,893.247z"/>
		<path fill="#4AE5D9" d="M472.962,863.665c-0.756-1.043-1.923-1.618-3.288-1.618c-7.527,0-25.93,21.12-28.004,23.528l-0.668,0.777
			c-0.476-0.113-0.965-0.189-1.469-0.211l-0.219-0.005c-0.739,0-1.475,0.169-2.197,0.505c-0.117-0.01-0.237-0.014-0.352-0.014
			c-1.018,0-2.547,0.332-4.063,1.917c-1.623,1.697-3.407,5.167-3.193,7.479l-0.147,0.245c-0.418,0.707-0.852,1.433-1.299,2.174
			c-0.636,1.047-0.674,2.225-0.106,3.23c1.204,2.14,4.741,2.902,7.651,2.902h0.001c2.005,0,3.927-0.345,5.554-0.997
			c3.693-1.477,5.825-4.686,6.002-9.034c0.013-0.334,0-0.664-0.025-0.99l1.027-0.771c0.07-0.053,7.139-5.373,13.67-11.245
			C472.186,872.235,475.41,867.058,472.962,863.665z M435.143,890.883c0.092-0.098,0.186-0.167,0.275-0.248
			c-0.283,0.763-0.53,1.615-0.598,2.399c-0.439,0.167-0.922,0.371-1.41,0.613C433.803,892.714,434.394,891.664,435.143,890.883z
			 M439.906,900.442c-1.215,0.486-2.74,0.754-4.298,0.754h-0.001c-2.573,0-4.176-0.688-4.611-1.074
			c0.438-0.725,0.86-1.436,1.27-2.126l0.973-1.632l-0.003-0.009c1.228-0.862,3.101-1.503,3.872-1.706c0,0-0.898-2.722,1.09-4.756
			l0.085-0.05c0.372-0.22,0.706-0.327,1.093-0.327c0,0,0.002,0,0.005,0c2.534,0.117,4.513,2.311,4.408,4.891
			C443.663,897.431,442.358,899.46,439.906,900.442z M447.127,887.917l-0.76-0.871c7.563-8.548,18.762-19.33,22.748-20.405
			C468.105,869.915,458.644,879.081,447.127,887.917z"/>
		<path fill="#4AE5D9" d="M446.629,913.653c2.223,0,4.275-1.35,5.23-3.437c1.344-2.95,0.15-6.525-2.661-7.972
			c-0.808-0.414-1.669-0.625-2.562-0.625c-2.225,0-4.276,1.35-5.229,3.436c-1.346,2.949-0.152,6.525,2.658,7.973
			C444.871,913.442,445.734,913.653,446.629,913.653z M446.637,905.632c0.248,0,0.492,0.06,0.725,0.181
			c0.939,0.481,1.317,1.71,0.848,2.741c-0.408,0.896-1.485,1.329-2.308,0.909c-0.936-0.482-1.313-1.712-0.845-2.741
			C445.365,906.049,445.971,905.632,446.637,905.632z"/>
	</g>
	<g>
		<polygon fill="#4AE5D9" points="1232.431,1173.623 1275.192,1191.82 1319.538,1173.598 1276.1,1159.193 		"/>
		<g>
			<g>
				<path fill="#4AE5D9" d="M1248.264,1198.096c-0.828,0-1.5-0.671-1.5-1.5v-21.064c0-0.829,0.672-1.5,1.5-1.5s1.5,0.671,1.5,1.5
					v21.064C1249.764,1197.425,1249.092,1198.096,1248.264,1198.096z"/>
			</g>
		</g>
		<g>
			<g>
				<path fill="#4AE5D9" d="M1292.015,1189.151v19.602h-32v-19.131l-6-2.554v24.685c0,1.657,1.343,3,3,3h38c1.657,0,3-1.343,3-3
					v-25.067L1292.015,1189.151z"/>
			</g>
		</g>
	</g>
	<g>
		<path fill="#4AE5D9" d="M1299.971,1479.546c-0.504-3.688-3.583-6.535-7.296-6.535c-0.416,0-0.825,0.035-1.228,0.104
			c-1.907-2.087-4.462-3.419-7.225-3.784h0.003c-1.852-2.717-4.543-4.845-7.746-5.945c-1.389-8.423-8.725-14.785-17.436-14.785
			c-5.132,0-9.976,2.229-13.302,6.045c-0.811-0.205-1.646-0.309-2.501-0.309c-5.364,0-9.777,4.158-10.183,9.421
			c-5.66,2.39-9.469,7.991-9.469,14.234c0,8.154,6.377,14.924,14.539,15.412l0.208,0.012c0.436,0.032,0.877,0.034,1.314,0.007
			l25.22-0.006h-0.001c1.16,3.174,3.688,5.695,6.95,6.688c0.535,0.285,1.136,0.438,1.734,0.438l0.855,0.004
			c0.146,0.01,0.292,0.016,0.438,0.016c0.175,0,0.346-0.008,0.5-0.02l19.557,0.004c0.32,0.02,0.639,0.016,0.949-0.006l0.124-0.008
			c5.622-0.354,10.024-5.201,10.024-11.035C1306.002,1485.229,1303.598,1481.372,1299.971,1479.546z M1283.65,1469.27
			c-0.316-0.026-0.634-0.051-0.955-0.051C1283.017,1469.219,1283.336,1469.24,1283.65,1469.27z M1264.239,1490.665
			c-0.007-0.061-0.017-0.119-0.021-0.18C1264.223,1490.546,1264.233,1490.604,1264.239,1490.665z M1264.569,1492.465
			c0.004,0.014,0.008,0.027,0.012,0.042C1264.577,1492.492,1264.573,1492.479,1264.569,1492.465z M1264.348,1491.478
			c0.009,0.041,0.019,0.08,0.025,0.121C1264.366,1491.558,1264.356,1491.519,1264.348,1491.478z M1264.231,1488.417l-24.665,0.006
			l-0.18,0.007c-0.231,0.017-0.398,0.021-0.75-0.004l-0.055-0.001c-0.072-0.006-0.144-0.012-0.216-0.014
			c-5.485-0.351-9.776-4.92-9.776-10.419c0-4.67,3.155-8.81,7.674-10.067l2.097-0.584l-0.29-2.156
			c-0.027-0.211-0.042-0.423-0.042-0.636c0-2.874,2.339-5.212,5.213-5.212c0.793,0,1.555,0.175,2.263,0.52l1.928,0.939l1.222-1.763
			c2.357-3.401,6.242-5.433,10.391-5.433c6.684,0,12.239,5.224,12.647,11.892l0.116,1.896l1.856,0.396
			c1.752,0.375,3.325,1.19,4.619,2.311c-3.745,1.532-6.601,4.945-7.424,9.151
			C1267.216,1480.774,1264.625,1484.328,1264.231,1488.417z M1281.563,1469.276c-0.057,0.005-0.111,0.018-0.168,0.022
			C1281.452,1469.292,1281.507,1469.281,1281.563,1469.276z M1280.437,1469.444c-0.027,0.006-0.055,0.014-0.082,0.02
			C1280.382,1469.458,1280.409,1469.45,1280.437,1469.444z M1295.67,1495.542l-0.214,0.014c-0.09,0.008-0.179,0.007-0.267,0
			l-19.918-0.012l-0.424,0.02c-0.038,0-0.076-0.003-0.115-0.006l-0.728-0.012l-0.533-0.168c-2.532-0.67-4.299-3.088-4.299-5.879
			c0-2.85,1.896-5.342,4.508-5.926l1.842-0.411l0.109-1.884c0.229-3.959,3.332-7.06,7.063-7.06c2.331,0,4.435,1.16,5.772,3.183
			l1.231,1.863l1.99-1.016c0.311-0.158,0.642-0.238,0.985-0.238c1.306,0,2.368,1.166,2.368,2.6c0,0.115-0.008,0.229-0.021,0.343
			l-0.251,2.104l2.033,0.592c2.472,0.721,4.197,3.127,4.197,5.85C1301.002,1492.7,1298.658,1495.354,1295.67,1495.542z"/>
	</g>
	<g>
		<g>
			<g>
				<g>
					<g>
						<path fill="#4AE5D9" d="M4.343,896.765c-0.099,0-0.196-0.029-0.279-0.09l-5.318-3.873l-5.318,3.873
							c-0.083,0.061-0.181,0.09-0.279,0.09c-0.097,0-0.195-0.029-0.278-0.09c-0.166-0.12-0.236-0.334-0.174-0.529l2.023-6.266
							l-5.314-3.787c-0.168-0.119-0.24-0.334-0.178-0.529c0.063-0.197,0.246-0.331,0.453-0.331h6.521l2.092-6.47
							c0.063-0.195,0.246-0.329,0.452-0.329s0.39,0.134,0.452,0.329l2.092,6.47h6.522c0.207,0,0.39,0.134,0.452,0.331
							c0.063,0.195-0.009,0.41-0.176,0.529L2.77,889.88l2.025,6.266c0.063,0.195-0.007,0.409-0.174,0.529
							C4.539,896.735,4.44,896.765,4.343,896.765z"/>
					</g>
				</g>
				<g>
					<g>
						<path fill="#4AE5D9" d="M-1.255,878.909l2.199,6.799h6.867l-5.603,3.988l2.134,6.594l-5.598-4.077l-5.598,4.077l2.13-6.594
							l-5.598-3.988h6.867L-1.255,878.909 M7.812,885.708h0.005 M-1.255,877.959L-1.255,877.959c-0.411,0-0.776,0.267-0.904,0.659
							l-1.985,6.14h-6.176c-0.412,0-0.778,0.267-0.904,0.659c-0.127,0.395,0.018,0.824,0.354,1.064l5.031,3.584l-1.916,5.934
							c-0.126,0.392,0.014,0.82,0.348,1.062c0.164,0.12,0.361,0.18,0.556,0.18c0.196,0,0.394-0.06,0.56-0.182l5.038-3.669
							l5.038,3.669c0.166,0.122,0.363,0.182,0.56,0.182s0.392-0.06,0.558-0.18c0.333-0.241,0.473-0.67,0.346-1.062l-1.917-5.934
							l5.008-3.566c0.258-0.17,0.427-0.461,0.427-0.791c0-0.525-0.424-0.95-0.947-0.95H7.812H1.635l-1.985-6.14
							C-0.479,878.226-0.843,877.959-1.255,877.959L-1.255,877.959z"/>
					</g>
				</g>
			</g>
		</g>
		<g>
			<g>
				<path fill="#4AE5D9" d="M6.469,908.688H1.168v8.221h-5.041v-8.221h-5.302v6.672h-0.001v1.549c0,2.939,2.359,5.302,5.303,5.302
					h5.041c2.941,0,5.301-2.362,5.301-5.302V908.688z"/>
			</g>
		</g>
		<g>
			<g>
				<rect x="-15.648" y="916.79" fill="#4AE5D9" width="28.59" height="5.699"/>
			</g>
		</g>
		<g>
			<g>
				<path fill="#4AE5D9" d="M41.095,881.597l-17.856-0.035c-1.963,0-3.57,1.606-3.57,3.57v33.506c0,1.963,1.607,3.573,3.57,3.573
					h17.856c1.963,0,3.57-1.61,3.57-3.573v-33.506C44.665,883.168,43.058,881.597,41.095,881.597z M41.095,916.017H23.238v-30.109
					h17.856V916.017z"/>
			</g>
		</g>
		<g>
			<g>
				<path fill="#4AE5D9" d="M15.395,906.542h-40.343c-1.262,0-2.287-1.027-2.287-2.287v-30.518c0-1.262,1.025-2.289,2.287-2.289
					H22.24c1.262,0,2.287,1.027,2.287,2.289v3.553l5.699,0.012v-3.564c0-4.404-3.582-7.987-7.986-7.987h-47.188
					c-4.403,0-7.985,3.583-7.985,7.987v30.518c0,4.402,3.582,7.985,7.985,7.985h40.343V906.542z"/>
			</g>
		</g>
	</g>
</g>
<g>
	<path fill="#4AE5D9" d="M218.121-85.432c-0.21-0.652-0.817-1.095-1.504-1.093l-10.225,0.022l-3.314-10.162
		c-0.211-0.649-0.819-1.089-1.503-1.087c-0.684,0.001-1.288,0.443-1.497,1.095l-3.266,10.175l-10.229,0.023
		c-0.686,0.001-1.291,0.445-1.498,1.1c-0.207,0.652,0.031,1.366,0.59,1.762l8.346,5.92l-3.154,9.833
		c-0.207,0.649,0.027,1.361,0.58,1.761c0.276,0.198,0.603,0.297,0.927,0.297c0.325-0.001,0.652-0.103,0.927-0.305l8.33-6.1
		l8.361,6.063c0.553,0.402,1.301,0.4,1.854-0.002c0.551-0.402,0.783-1.113,0.57-1.762l-3.2-9.818l8.321-5.957
		C218.096-84.065,218.332-84.779,218.121-85.432z M206.441-79.602c-0.559,0.398-0.793,1.116-0.58,1.77l2.053,6.304l-5.361-3.887
		c-0.555-0.402-1.305-0.4-1.855,0.004l-5.346,3.911l2.025-6.313c0.209-0.655-0.028-1.371-0.589-1.768l-5.267-3.734l6.445-0.015
		c0.684-0.002,1.287-0.444,1.495-1.097l2.128-6.625l2.157,6.618c0.214,0.649,0.819,1.089,1.503,1.087l6.443-0.014L206.441-79.602z"
		/>
	<path fill="#4AE5D9" d="M186.906-74.899l-3.188-1.668l0.639-3.729c0.095-0.552-0.178-1.1-0.673-1.36
		c-0.497-0.26-1.103-0.169-1.501,0.222l-2.701,2.646l-3.188-1.666c-0.497-0.262-1.103-0.171-1.505,0.224
		c-0.399,0.395-0.498,1.001-0.242,1.502l1.628,3.205l-2.597,2.546c-0.396,0.392-0.5,0.995-0.25,1.496
		c0.248,0.5,0.791,0.783,1.344,0.701l3.596-0.534l1.611,3.263c0.22,0.444,0.672,0.72,1.158,0.719c0.063,0,0.121-0.005,0.184-0.015
		c0.553-0.081,0.99-0.507,1.086-1.058l0.614-3.585l3.562-0.488c0.557-0.075,1-0.503,1.098-1.056
		C187.676-74.086,187.403-74.638,186.906-74.899z M181.633-74.417c-0.557,0.076-1,0.505-1.096,1.06l-0.102,0.603l-0.271-0.544
		c-0.219-0.446-0.671-0.72-1.159-0.719c-0.061,0-0.125,0.006-0.188,0.013l-0.602,0.092l0.438-0.43
		c0.401-0.393,0.5-1.003,0.246-1.504l-0.229-0.451l0.445,0.232c0.494,0.26,1.102,0.17,1.502-0.222l0.522-0.514l-0.123,0.723
		c-0.095,0.552,0.177,1.102,0.674,1.36l0.442,0.232L181.633-74.417z"/>
</g>
<g>
	<path fill="#4AE5D9" d="M87.862-30.038h-0.005h-3.502l-1.127-3.481c-0.073-0.224-0.279-0.375-0.514-0.375s-0.438,0.152-0.512,0.375
		l-1.125,3.481h-3.506c-0.23,0-0.439,0.152-0.514,0.376c-0.069,0.223,0.011,0.467,0.202,0.603l2.853,2.033l-1.088,3.363
		c-0.069,0.223,0.012,0.467,0.201,0.603c0.092,0.069,0.205,0.103,0.313,0.103c0.111,0,0.225-0.033,0.318-0.103l2.856-2.081
		l2.86,2.081c0.094,0.069,0.205,0.103,0.315,0.103c0.111,0,0.223-0.033,0.316-0.103c0.191-0.136,0.269-0.38,0.195-0.603
		l-1.087-3.363l2.84-2.023c0.146-0.096,0.243-0.261,0.243-0.449C88.398-29.798,88.155-30.038,87.862-30.038z"/>
	<path fill="#4AE5D9" d="M97.247-41.242H68.184c-2.297,0-4.166,1.935-4.166,4.313v16.754c0,2.379,1.869,4.313,4.166,4.313h3.682
		v4.313h3.374v-4.313h14.97v4.313h3.375v-4.313h3.663c2.298,0,4.168-1.935,4.168-4.313v-16.754
		C101.415-39.308,99.545-41.242,97.247-41.242z M98.262-20.175c0,0.64-0.455,1.159-1.015,1.159H68.184
		c-0.555,0-1.01-0.52-1.01-1.159v-16.754c0-0.639,0.455-1.16,1.01-1.16h29.063c0.56,0,1.015,0.521,1.015,1.16V-20.175z"/>
</g>
<g>
	<path fill="#4AE5D9" d="M124.417-15.588h5.662c0.777,0,1.408-0.63,1.408-1.408v-17.959c0-0.777-0.631-1.407-1.408-1.407h-5.662
		c-0.777,0-1.408,0.63-1.408,1.407v17.959C123.009-16.218,123.64-15.588,124.417-15.588z M125.825-33.547h2.846v15.144h-2.846
		V-33.547z"/>
	<path fill="#4AE5D9" d="M135.265-15.588h5.662c0.777,0,1.407-0.63,1.407-1.408v-10.747c0-0.777-0.63-1.408-1.407-1.408h-5.662
		c-0.777,0-1.408,0.631-1.408,1.408v10.747C133.856-16.218,134.487-15.588,135.265-15.588z M136.673-26.335h2.845v7.932h-2.845
		V-26.335z"/>
	<path fill="#4AE5D9" d="M152.122-43.575h-5.662c-0.777,0-1.406,0.631-1.406,1.408v25.171c0,0.778,0.629,1.408,1.406,1.408h5.662
		c0.777,0,1.408-0.63,1.408-1.408v-25.171C153.53-42.944,152.899-43.575,152.122-43.575z M150.714-18.403h-2.846v-22.355h2.846
		V-18.403z"/>
	<path fill="#4AE5D9" d="M152.621-13.575h-28.753c-0.442,0-0.8,0.324-0.8,0.726v1.615c0,0.401,0.357,0.726,0.8,0.726h28.753
		c0.441,0,0.8-0.324,0.8-0.726v-1.615C153.421-13.251,153.063-13.575,152.621-13.575z"/>
</g>
<g>
	<path fill="#4AE5D9" d="M82.701-96.154c-9.031,0-16.375,7.347-16.375,16.376c0,0.331,0.012,0.66,0.031,0.985l-1.444,0.519
		l0.446,1.245l1.136-0.407c0.095,0.664,0.231,1.315,0.403,1.951l-1.219,0.438l0.447,1.245l1.17-0.419
		c2.279,6.303,8.323,10.82,15.404,10.82c9.029,0,16.376-7.347,16.376-16.377C99.077-88.808,91.73-96.154,82.701-96.154z
		 M82.701-66.452c-5.76,0-10.675-3.675-12.532-8.8l1.483-0.531l-0.446-1.246l-1.425,0.511c-0.162-0.642-0.277-1.3-0.342-1.974
		l1.443-0.518l-0.445-1.245l-1.059,0.378c0.053-7.302,6.008-13.226,13.322-13.226c7.346,0,13.324,5.978,13.324,13.324
		C96.025-72.431,90.047-66.452,82.701-66.452z"/>
	<path fill="#4AE5D9" d="M88.307-80.829l-7.229-4.82c-0.382-0.254-0.893-0.279-1.3-0.063c-0.411,0.221-0.665,0.647-0.665,1.114v9.64
		c0,0.466,0.254,0.893,0.666,1.113c0.183,0.098,0.389,0.15,0.598,0.15c0.252,0,0.493-0.074,0.701-0.214l7.229-4.819
		c0.353-0.234,0.563-0.627,0.563-1.051C88.869-80.203,88.659-80.596,88.307-80.829z"/>
</g>
<g>
	<path fill="#4AE5D9" d="M-31.675-19.757c1.597-0.805,2.638-2.458,2.638-4.262c0-2.633-2.142-4.773-4.775-4.773
		c-2.633,0-4.773,2.141-4.773,4.773c0,1.805,1.039,3.457,2.633,4.261c-3.798,0.715-6.602,4.05-6.602,7.96
		c0,0.62,0.506,1.125,1.127,1.125h15.229c0.63,0,1.135-0.505,1.135-1.125c0-0.059-0.004-0.119-0.013-0.174
		C-25.145-15.782-27.946-19.052-31.675-19.757z M-36.336-24.019c0-1.392,1.133-2.523,2.523-2.523s2.522,1.132,2.522,2.523
		c0,1.391-1.132,2.523-2.522,2.523S-36.336-22.628-36.336-24.019z M-40.193-12.926c0.533-2.75,2.922-4.728,5.746-4.728h1.27
		c2.821,0,5.211,1.978,5.745,4.728H-40.193z"/>
	<path fill="#4AE5D9" d="M-46.559-34.453c1.861,0,3.376-1.515,3.376-3.378c0-1.861-1.515-3.375-3.376-3.375
		s-3.377,1.514-3.377,3.375C-49.936-35.968-48.42-34.453-46.559-34.453z"/>
	<path fill="#4AE5D9" d="M-40.327-28.502c0-3.183-2.591-5.771-5.774-5.771h-0.914c-3.184,0-5.773,2.589-5.773,5.771
		c0,0.413,0.336,0.749,0.75,0.749h10.961C-40.664-27.753-40.327-28.089-40.327-28.502z"/>
	<path fill="#4AE5D9" d="M-21.229-34.453c1.862,0,3.377-1.515,3.377-3.378c0-1.861-1.515-3.375-3.377-3.375
		c-1.863,0-3.377,1.514-3.377,3.375C-24.605-35.968-23.092-34.453-21.229-34.453z"/>
	<path fill="#4AE5D9" d="M-20.771-34.273h-0.913c-3.185,0-5.774,2.589-5.774,5.771c0,0.413,0.336,0.749,0.75,0.749h10.961
		c0.414,0,0.75-0.336,0.75-0.749C-14.998-31.685-17.588-34.273-20.771-34.273z"/>
	<path fill="#4AE5D9" d="M-38.25-32.578h8.879c0.082,0,0.147-0.065,0.147-0.146v-1.468c0-0.081-0.065-0.146-0.147-0.146h-8.879
		c-0.081,0-0.146,0.065-0.146,0.146v1.468C-38.396-32.644-38.331-32.578-38.25-32.578z"/>
	<path fill="#4AE5D9" d="M-41.271-19.615c0.039,0,0.077-0.015,0.104-0.044l1.039-1.04c0.027-0.026,0.043-0.063,0.043-0.103
		c0-0.04-0.016-0.077-0.043-0.105l-4.596-4.592c-0.027-0.027-0.064-0.043-0.104-0.043c-0.04,0-0.077,0.016-0.105,0.044l-1.035,1.038
		c-0.059,0.057-0.059,0.15,0,0.207l4.592,4.594C-41.348-19.63-41.31-19.615-41.271-19.615z"/>
	<path fill="#4AE5D9" d="M-22.162-25.498c-0.029-0.028-0.067-0.044-0.104-0.044c-0.038,0-0.075,0.016-0.104,0.043l-4.594,4.592
		c-0.059,0.058-0.059,0.15,0,0.208l1.036,1.04c0.028,0.027,0.065,0.044,0.104,0.044s0.076-0.015,0.104-0.043l4.596-4.595
		c0.027-0.027,0.043-0.064,0.043-0.104s-0.016-0.077-0.043-0.104L-22.162-25.498z"/>
</g>
<g>
	<path fill="#4AE5D9" d="M135.857-86.434c-1.141-0.121-2.27,0.46-2.875,1.479c-0.849,1.443-0.429,3.347,0.936,4.242
		c0.387,0.253,0.814,0.408,1.272,0.458l0.011,0.002c1.141,0.12,2.271-0.461,2.871-1.48c0.854-1.441,0.437-3.346-0.932-4.241
		C136.754-86.228,136.326-86.382,135.857-86.434z M136.287-82.787c-0.188,0.321-0.537,0.507-0.883,0.469
		c-0.126-0.014-0.243-0.058-0.35-0.126c-0.455-0.298-0.584-0.952-0.289-1.455c0.197-0.328,0.531-0.51,0.873-0.475l0.029-0.248
		l-0.027,0.248c0.127,0.014,0.25,0.06,0.362,0.134C136.457-83.942,136.586-83.29,136.287-82.787z"/>
	<path fill="#4AE5D9" d="M128.059-77.992c1.145,0.12,2.271-0.461,2.873-1.482c0.854-1.442,0.434-3.345-0.934-4.239
		c-0.389-0.256-0.816-0.41-1.282-0.461c-1.143-0.121-2.269,0.461-2.876,1.481c-0.848,1.441-0.428,3.345,0.939,4.242
		c0.387,0.254,0.813,0.407,1.27,0.459H128.059z M127.629-81.642c0.192-0.326,0.527-0.508,0.867-0.471l0.031-0.248l-0.027,0.248
		c0.131,0.015,0.25,0.056,0.361,0.129c0.457,0.3,0.584,0.952,0.287,1.457c-0.26,0.438-0.838,0.601-1.233,0.34
		C127.458-80.483,127.33-81.138,127.629-81.642z"/>
	<path fill="#4AE5D9" d="M126.254-77.333c-0.388-0.252-0.814-0.407-1.283-0.459c-1.142-0.122-2.271,0.459-2.87,1.48
		c-0.853,1.441-0.434,3.345,0.931,4.242c0.391,0.254,0.818,0.409,1.273,0.459l0.068,0.008l0.001-0.002
		c1.122,0.095,2.222-0.484,2.815-1.488C128.04-74.533,127.62-76.435,126.254-77.333z M125.402-74.146
		c-0.257,0.442-0.829,0.607-1.233,0.343c-0.454-0.298-0.583-0.951-0.286-1.454c0.195-0.329,0.527-0.511,0.869-0.474l0.033-0.248
		l-0.027,0.249c0.129,0.014,0.249,0.057,0.358,0.131C125.572-75.301,125.701-74.649,125.402-74.146z"/>
	<path fill="#4AE5D9" d="M153.054-81.57c-0.922,0.753-1.744,1.406-2.386,1.907c1.333,2.931,1.817,6.418,1.019,9.538
		c-0.439,1.706-1.531,4.44-3.779,3.894c-1.704-0.413-3.038-1.652-4.354-2.738c-1.354-1.119-2.761-2.23-4.367-2.973
		c-2.317-1.072-4.792-1.033-7.126-0.029c-2.859,1.229-4.904,3.584-7.506,5.199c-1.125,0.697-2.658,0.916-3.645-0.086
		c-0.807-0.82-1.184-2.011-1.445-3.102c-0.75-3.141-0.302-6.438,0.878-9.41c1.052-2.652,3.104-5.176,5.421-6.809
		c2.877-2.025,6.484-3.119,10.051-3.1c1.857,0.012,3.701,0.326,5.43,0.969c1.279,0.475,2.477,1.085,3.586,1.817
		c0.623-0.703,1.303-1.452,2.023-2.224c-1.439-1.021-2.854-1.773-4.283-2.281c-2.29-0.811-4.661-1.256-6.674-1.256
		c-0.156,0-0.313,0.002-0.461,0.008c-2.561,0.067-4.992,0.549-7.23,1.428c-4.823,1.893-8.791,5.764-10.615,10.354
		c-1.178,2.969-2.246,7.499-0.651,12.225c1.027,3.047,2.779,4.857,4.937,5.096c0.199,0.022,0.401,0.034,0.598,0.034
		c2.398,0,4.344-1.559,5.906-2.813l0.531-0.425c1.377-1.109,2.801-2.255,4.317-2.906c1.024-0.44,1.929-0.618,2.834-0.54
		c1.9,0.158,3.624,1.527,5.296,2.854l0.588,0.47c1.839,1.477,4.129,3.317,6.854,3.317c2.354-0.003,4.262-1.81,5.367-5.088
		c0.84-2.487,1-5.326,0.541-8.111C154.41-78.148,153.854-79.926,153.054-81.57z"/>
	<path fill="#4AE5D9" d="M161.377-95.256c-0.39-0.536-0.992-0.835-1.698-0.835c-3.882,0-13.382,10.901-14.454,12.146l-0.344,0.399
		c-0.247-0.059-0.496-0.098-0.759-0.107l-0.112-0.004c-0.383,0-0.761,0.089-1.135,0.262c-0.059-0.004-0.121-0.008-0.18-0.008
		c-0.526,0-1.314,0.171-2.1,0.989c-0.836,0.878-1.758,2.669-1.648,3.861l-0.076,0.128c-0.215,0.363-0.438,0.737-0.669,1.121
		c-0.328,0.541-0.349,1.147-0.056,1.668c0.622,1.104,2.447,1.496,3.949,1.496h0.002c0.813,0,1.598-0.113,2.306-0.324
		c-0.078,0.101-0.153,0.204-0.22,0.315c-0.857,1.44-0.447,3.343,0.918,4.246c0.386,0.258,0.819,0.414,1.278,0.465
		c1.14,0.125,2.272-0.451,2.88-1.469c0.858-1.439,0.448-3.344-0.914-4.246c-0.393-0.257-0.822-0.415-1.281-0.465
		c-0.195-0.021-0.391-0.016-0.583,0.003c0.961-0.889,1.517-2.149,1.579-3.702c0.008-0.173,0-0.343-0.012-0.513l0.529-0.396
		c0.037-0.027,3.686-2.774,7.055-5.807C160.978-90.833,162.641-93.505,161.377-95.256z M142.098-75.882h-0.002
		c-1.329,0-2.153-0.357-2.379-0.557c0.226-0.374,0.444-0.741,0.654-1.098l0.502-0.842l-0.002-0.004c0.635-0.446,1.602-0.774,2-0.881
		c0,0-0.466-1.405,0.561-2.455l0.048-0.025c0.188-0.113,0.361-0.17,0.563-0.17c0,0,0,0,0.002,0c1.305,0.063,2.326,1.193,2.274,2.525
		c-0.064,1.561-0.739,2.608-2.006,3.116C143.689-76.021,142.9-75.882,142.098-75.882z M146.838-73.556
		c0.128,0.014,0.249,0.058,0.361,0.133c0.455,0.3,0.581,0.954,0.279,1.456c-0.258,0.437-0.836,0.598-1.234,0.336
		c-0.453-0.3-0.578-0.954-0.279-1.455C146.16-73.415,146.496-73.594,146.838-73.556z M148.042-82.737l-0.392-0.449
		c3.902-4.412,9.685-9.979,11.741-10.533C158.871-92.03,153.989-87.298,148.042-82.737z"/>
</g>
<path fill="#4AE5D9" d="M43.378,25.717c-0.32-1.877-1.931-3.276-3.798-3.276c-0.176,0-0.34,0.011-0.502,0.031
	c-0.93-0.971-2.156-1.61-3.473-1.813c-0.913-1.303-2.219-2.309-3.698-2.852c-0.772-4.229-4.425-7.283-8.742-7.283
	c-2.513,0-4.903,1.063-6.585,2.922c-0.363-0.08-0.742-0.122-1.127-0.122c-2.67,0-4.931,2.044-5.215,4.682
	c-2.822,1.254-4.638,4.033-4.638,7.124c0,4.12,3.226,7.537,7.341,7.779l0.102,0.008c0.221,0.016,0.475,0.017,0.658,0.004
	l12.129-0.003c0.631,1.565,1.924,2.774,3.448,3.236c0.303,0.159,0.639,0.242,0.97,0.242l0.394,0.001
	c0.081,0.008,0.16,0.009,0.237,0.009c0.09,0,0.184-0.003,0.242-0.01l9.53,0.001c0.172,0.01,0.29,0.011,0.56-0.008
	c2.88-0.18,5.135-2.658,5.135-5.644C46.346,28.644,45.186,26.683,43.378,25.717z M40.939,33.702l-0.13-0.261l-9.733-0.007
	l-0.248,0.011l-0.318-0.007l-0.234-0.076c-1.123-0.294-1.907-1.369-1.907-2.615c0-1.271,0.841-2.381,1.999-2.641l0.898-0.201
	c0.113-0.025,0.195-0.122,0.203-0.238l0.053-0.919c0.105-1.795,1.506-3.201,3.188-3.201c1.047,0,1.995,0.524,2.602,1.437l0.6,0.909
	c0.072,0.11,0.216,0.148,0.335,0.088l0.972-0.495c0.111-0.058,0.229-0.086,0.363-0.086c0.495,0,0.898,0.453,0.898,1.008
	c0,0.025-0.004,0.053-0.01,0.135l-0.122,1.029c-0.017,0.127,0.062,0.245,0.185,0.28l0.992,0.289c1.097,0.318,1.862,1.39,1.862,2.605
	c0,1.427-1.036,2.606-2.368,2.688l-0.102,0.009L40.939,33.702z M13.09,29.955c-2.537-0.163-4.527-2.282-4.527-4.825
	c0-2.162,1.463-4.08,3.555-4.662l1.023-0.284c0.125-0.035,0.207-0.156,0.189-0.285l-0.143-1.056
	c-0.014-0.091-0.018-0.183-0.018-0.273c0-1.26,1.024-2.283,2.283-2.283c0.348,0,0.681,0.076,0.989,0.224l0.938,0.461
	c0.113,0.056,0.256,0.021,0.328-0.086l0.599-0.861c1.103-1.591,2.919-2.54,4.857-2.54c3.126,0,5.726,2.441,5.914,5.559l0.054,0.927
	c0.008,0.118,0.093,0.215,0.207,0.239l0.905,0.192c0.655,0.142,1.276,0.419,1.817,0.813c-1.707,0.841-2.941,2.431-3.359,4.342
	c-1.727,0.78-2.971,2.478-3.238,4.403L13.65,29.961l-0.095,0.004c-0.102,0.007-0.13,0.009-0.376-0.003v0.26L13.09,29.955z"/>
<g>
	<path fill="#4AE5D9" d="M28.205-83.717c0-0.287-0.229-0.519-0.517-0.519h-0.003h-3.371l-1.083-3.351
		c-0.07-0.215-0.269-0.359-0.494-0.359c-0.225,0-0.424,0.145-0.494,0.359l-1.082,3.351H17.79c-0.225,0-0.424,0.146-0.494,0.359
		c-0.068,0.216,0.011,0.45,0.193,0.581l2.746,1.956l-1.045,3.237c-0.07,0.215,0.007,0.449,0.189,0.58
		c0.089,0.066,0.197,0.098,0.303,0.098c0.107,0,0.216-0.031,0.306-0.099l2.749-2.002l2.75,2.002c0.09,0.067,0.197,0.099,0.305,0.099
		s0.215-0.031,0.305-0.098c0.182-0.131,0.258-0.365,0.189-0.58l-1.047-3.237l2.734-1.946C28.113-83.378,28.205-83.537,28.205-83.717
		z"/>
	<path fill="#4AE5D9" d="M45.724-86.691l-9.533-0.018c-1.338,0-2.426,1.088-2.426,2.428v17.884c0,1.339,1.088,2.428,2.426,2.428
		h9.531c1.339,0,2.43-1.089,2.43-2.428v-17.884C48.151-85.61,47.061-86.691,45.724-86.691z M45.202-66.986h-8.49v-17.08h8.49
		V-66.986z"/>
	<path fill="#4AE5D9" d="M8.378-74.303v-16.654c0-0.688,0.56-1.25,1.247-1.25h25.753c0.688,0,1.248,0.562,1.248,1.25v1.938
		l3.11,0.007v-1.945c0-2.404-1.955-4.359-4.358-4.359H9.625c-2.403,0-4.357,1.955-4.357,4.359v16.654
		c0,2.403,1.954,4.358,4.357,4.358h8.608v1.704v0.779H14.7v3.11h15.604v-3.11h-3.533v-2.483h4.873v-3.109H9.625
		C8.938-73.054,8.378-73.614,8.378-74.303z M21.127-69.944h2.752v2.483h-2.752V-69.944z"/>
</g>
<g>
	<path fill="#4AE5D9" d="M35.004-15.446H19.466v-9.289l-2.915-1.24v11.986c0,0.805,0.652,1.458,1.457,1.458h18.45
		c0.807,0,1.459-0.653,1.459-1.458v-12.173l-2.913,1.197V-15.446z"/>
	<path fill="#4AE5D9" d="M49.038-34.016l-21.447-7.113c-0.077-0.025-0.157-0.038-0.236-0.038s-0.159,0.013-0.235,0.038L5.56-34.004
		c-0.298,0.099-0.503,0.372-0.515,0.686c-0.011,0.313,0.175,0.601,0.465,0.72l5.297,2.175c0,0,0.003,8.407,0.003,8.496
		c0,0.672,0.545,1.217,1.218,1.217c0.671,0,1.215-0.545,1.215-1.217c0-0.089-0.002-7.396-0.002-7.396l13.373,5.705
		c0.094,0.041,0.193,0.061,0.294,0.061c0.097,0,0.194-0.019,0.285-0.057l21.895-8.996c0.29-0.119,0.476-0.406,0.464-0.72
		C49.541-33.644,49.336-33.917,49.038-34.016z"/>
</g>
<path fill="#4AE5D9" d="M-19.504-90.331h-0.828v-1.933h-0.604h-1.738h-0.62v1.933h-1.691v-1.885h0.002v-0.82
	c0-1.559-1.249-2.81-2.81-2.81h-8.428c-1.561,0-2.81,1.251-2.81,2.81v2.705h-1.676v-1.933h-2.961v1.933h-0.841
	c-2.334,0-4.233,1.897-4.233,4.231v16.171c0,2.334,1.899,4.231,4.233,4.231h25.004c2.334,0,4.232-1.897,4.232-4.231V-86.1
	C-15.271-88.434-17.17-90.331-19.504-90.331z M-36.221-93.036h8.428v2.705h-8.428V-93.036z M-18.292-69.929
	c0,0.668-0.544,1.212-1.212,1.212h-25.004c-0.669,0-1.213-0.544-1.213-1.212v-2.71h27.429V-69.929z M-18.292-76.102h-27.429V-86.1
	c0-0.669,0.544-1.212,1.213-1.212h0.841v2.711h2.961v-2.711h1.676v2.702h2.81v-2.702h8.428v2.702h2.808v-2.702h1.691v2.711h2.962
	v-2.711h0.828c0.668,0,1.212,0.543,1.212,1.212V-76.102z"/>
<g>
	<polygon fill="#4AE5D9" points="189.942,-28.185 193.696,-28.191 193.692,-31.581 189.937,-31.573 189.93,-35.329 186.54,-35.322 
		186.548,-31.566 182.789,-31.558 182.797,-28.169 186.556,-28.178 186.562,-24.419 189.95,-24.428 	"/>
	<path fill="#4AE5D9" d="M205.629-45.186l-14.628-0.019c-1.545,0-2.805,1.259-2.805,2.808v3.521l1.726-0.004l2.049-0.004v-2.84
		h12.687v26.079h-12.687v-5.24l-2.009,0.006l-1.766,0.003v6.265c0,1.549,1.26,2.808,2.805,2.808h14.626
		c1.546,0,2.808-1.259,2.808-2.808v-27.786C208.435-43.934,207.175-45.186,205.629-45.186z"/>
</g>
<g>
	<path fill="#4AE5D9" d="M-14.325,22.161h-0.356v-0.843c0-0.791-0.641-1.434-1.434-1.434h-2.429c-0.791,0-1.433,0.643-1.433,1.434
		v0.843l-13.256,0.001c-2.18,0-3.953,1.839-3.953,4.101v11.325c0,2.262,1.773,4.101,3.953,4.101l18.907-0.001
		c2.183,0,3.956-1.838,3.956-4.1V26.262C-10.369,24-12.143,22.161-14.325,22.161z M-13.02,37.588c0,0.799-0.584,1.451-1.306,1.451
		h-18.907c-0.719,0-1.302-0.651-1.302-1.451V26.263c0-0.8,0.583-1.45,1.302-1.45l18.907-0.001c0.722,0,1.306,0.65,1.306,1.45V37.588
		z"/>
	<path fill="#4AE5D9" d="M-23.335,26.608c-3.071,0-5.569,2.495-5.569,5.566s2.498,5.569,5.569,5.569
		c3.069,0,5.567-2.498,5.567-5.569S-20.266,26.608-23.335,26.608z M-23.335,35.004c-1.56,0-2.829-1.27-2.829-2.829
		c0-1.561,1.27-2.827,2.829-2.827s2.827,1.267,2.827,2.827C-20.508,33.734-21.775,35.004-23.335,35.004z"/>
	<circle fill="#4AE5D9" cx="-31.094" cy="27.978" r="1.37"/>
	<rect x="-51.16" y="14.385" fill="#4AE5D9" width="3.367" height="3.366"/>
	<rect x="-35.159" y="14.385" fill="#4AE5D9" width="3.366" height="3.366"/>
	<rect x="-51.16" y="25.368" fill="#4AE5D9" width="3.367" height="3.366"/>
	<rect x="-51.16" y="20.34" fill="#4AE5D9" width="3.367" height="3.367"/>
	<rect x="-51.16" y="30.975" fill="#4AE5D9" width="3.367" height="3.367"/>
	<path fill="#4AE5D9" d="M-39.459,36.629H-52.08c-0.545,0-0.984-0.487-0.984-1.085l-0.002-22.491c0-0.599,0.441-1.087,0.984-1.087
		h21.046c0.543,0,0.984,0.488,0.984,1.087v6.836h2.938v-6.837c0-2.218-1.76-4.025-3.923-4.024h-21.046
		c-2.164,0-3.923,1.807-3.923,4.025v22.491c0,2.218,1.759,4.022,3.925,4.022h12.934c-0.2-0.624-0.313-1.287-0.313-1.979V36.629z"/>
	<path fill="#4AE5D9" d="M-39.459,27.474v-0.737c0-0.471,0.053-0.927,0.148-1.368h-6.486v8.974h6.338v-2.105h-4.203v-4.763H-39.459z
		"/>
	<path fill="#4AE5D9" d="M-36.857,14.385h-8.939v9.322h6.864c0.452-1.052,1.173-1.951,2.075-2.616V14.385z M-38.987,21.603h-4.675
		l-0.002-5.112h4.677V21.603z"/>
</g>
</svg>
