<?xml version="1.0" encoding="utf-8"?>
<!-- Generator: Adobe Illustrator 16.0.0, SVG Export Plug-In . SVG Version: 6.00 Build 0)  -->
<!DOCTYPE svg PUBLIC "-//W3C//DTD SVG 1.1//EN" "http://www.w3.org/Graphics/SVG/1.1/DTD/svg11.dtd">
<svg version="1.1" xmlns="http://www.w3.org/2000/svg" xmlns:xlink="http://www.w3.org/1999/xlink" x="0px" y="0px"
	 width="164.667px" height="144px" viewBox="0 0 164.667 144" enable-background="new 0 0 164.667 144" xml:space="preserve">
<g id="podklad" display="none">
</g>
<g id="Layer_9">
</g>
<g id="Layer_1">
</g>
<g id="podklad_1_">
</g>
<g id="OBD_x5F_prvky">
</g>
<g id="Layer_7">
</g>
<g id="texty">
</g>
<g id="OTVR_x5F_hambac">
</g>
<g id="lista">
</g>
<g id="Layer_14">
</g>
<g id="_x33__x5F_ŘADEK_x5F_icon">
</g>
<g id="slunicko" display="none">
</g>
<g id="mesice">
</g>
<g id="kryti">
	<g>
		<g>
			<path fill="#FFFFFF" d="M82.223,36.953l-26.727,2.486c-7.472,0.695-12.987,7.289-12.298,14.699l3.964,42.584
				c0.688,7.408,7.327,12.871,14.799,12.176l26.727-2.488c7.471-0.695,12.987-7.289,12.298-14.698l-3.964-42.583
				C96.331,41.719,89.693,36.258,82.223,36.953z"/>
			<path fill="#FF6427" d="M60.679,111.576c-8.417-0.001-15.349-6.282-16.123-14.611l-3.964-42.584
				c-0.398-4.283,0.911-8.471,3.688-11.789c2.771-3.313,6.668-5.357,10.974-5.759l26.728-2.487c0.506-0.047,1.019-0.07,1.524-0.07
				c8.416,0,15.348,6.281,16.123,14.611l3.964,42.582c0.398,4.285-0.911,8.471-3.688,11.791c-2.771,3.313-6.669,5.357-10.975,5.758
				l-26.727,2.486C61.697,111.552,61.185,111.576,60.679,111.576z M83.505,39.511c-0.345,0-0.694,0.017-1.039,0.049l-26.728,2.487
				c-2.921,0.271-5.564,1.658-7.443,3.904c-1.874,2.24-2.758,5.063-2.489,7.945l3.963,42.583c0.515,5.528,5.307,9.86,10.91,9.86
				c0.345,0,0.694-0.017,1.039-0.049l26.727-2.487c2.921-0.271,5.564-1.658,7.444-3.904c1.874-2.24,2.758-5.062,2.489-7.944
				l-3.964-42.583C93.899,43.842,89.107,39.511,83.505,39.511z"/>
		</g>
		<g>
			<g>
				<path fill-rule="evenodd" clip-rule="evenodd" fill="#FFFFFF" d="M116.698,83.344c-0.61,0.689-1.404,0.741-2.118,0.152
					c-0.202-0.164-0.396-0.338-0.594-0.508l-1.464-1.258c-0.676,0.785-1.307,1.504-1.912,2.24c-0.082,0.103-0.114,0.342-0.052,0.453
					c1.079,1.955,2.177,3.9,3.3,5.896c1.646-0.705,3.303-0.803,4.966-0.14c0.713-1.63,1.398-3.185,2.07-4.745
					c0.054-0.125,0.077-0.337,0.009-0.43c-0.859-1.15-1.738-2.287-2.645-3.473C117.716,82.164,117.216,82.76,116.698,83.344z"/>
			</g>
			<g>
				<path fill-rule="evenodd" clip-rule="evenodd" fill="#FFFFFF" d="M108.384,45.604c-1.019,1.588-0.299,10.553-0.204,11.846
					c0.541,7.504,1.089,15.008,1.635,22.512c0.011,0.144,0.038,0.283,0.069,0.515c0.436-0.507,0.808-0.94,1.181-1.372
					c0.834-0.965,1.532-1.021,2.49-0.2c0.615,0.528,1.229,1.056,1.87,1.608c0.574-0.668,1.104-1.287,1.635-1.903
					c0.867-1.002,1.781-0.97,2.592,0.089c0.367,0.482,0.73,0.967,1.097,1.447c0.034-0.01,0.068-0.021,0.102-0.031
					c-0.007-0.169-0.007-0.338-0.021-0.506c-0.479-6.359-0.959-12.72-1.44-19.08c-0.115-1.541-0.192-3.088-0.367-4.623
					c-0.183-1.6-0.538-7.589-0.647-8.319c-0.331-2.215-2.082-3.994-4.281-4.431C111.841,42.707,109.607,43.696,108.384,45.604z"/>
			</g>
			<g>
				<path fill-rule="evenodd" clip-rule="evenodd" fill="#FF6427" d="M115.493,40.639c-3.387-1.074-6.326-0.106-8.528,2.191
					c-1.754,2.092-2.37,4.189-2.195,6.559c0.842,11.456,1.665,22.914,2.515,34.371c0.035,0.464,0.205,0.953,0.432,1.365
					c1.372,2.495,2.778,4.971,4.174,7.453c1.177,2.088,2.346,4.18,3.539,6.256c0.174,0.304,0.43,0.616,0.725,0.781
					c0.791,0.44,1.588,0.053,2.019-0.928c1.861-4.246,3.73-8.488,5.563-12.746c0.203-0.473,0.304-1.043,0.266-1.555
					c-0.66-9.031-1.345-18.06-2.028-27.088c-0.25-3.275-0.406-6.562-0.791-9.821C120.774,44.035,118.782,41.681,115.493,40.639z
					 M120.903,85.006c0.068,0.093,0.045,0.305-0.009,0.43c-0.672,1.561-1.357,3.115-2.07,4.745c-1.663-0.663-3.319-0.565-4.966,0.14
					c-1.123-1.996-2.221-3.941-3.3-5.896c-0.063-0.111-0.03-0.351,0.052-0.453c0.605-0.736,1.236-1.455,1.912-2.24l1.464,1.258
					c0.197,0.17,0.392,0.344,0.594,0.508c0.714,0.589,1.508,0.537,2.118-0.152c0.518-0.584,1.018-1.18,1.561-1.811
					C119.165,82.719,120.044,83.855,120.903,85.006z M118.374,47.585c0.109,0.73,0.465,6.72,0.647,8.319
					c0.175,1.535,0.252,3.082,0.367,4.623c0.481,6.36,0.962,12.721,1.44,19.08c0.014,0.168,0.014,0.337,0.021,0.506
					c-0.033,0.011-0.067,0.021-0.102,0.031c-0.366-0.48-0.729-0.965-1.097-1.447c-0.811-1.059-1.725-1.091-2.592-0.089
					c-0.531,0.616-1.061,1.235-1.635,1.903c-0.642-0.553-1.255-1.08-1.87-1.608c-0.958-0.82-1.656-0.765-2.49,0.2
					c-0.373,0.432-0.745,0.865-1.181,1.372c-0.031-0.231-0.059-0.371-0.069-0.515c-0.546-7.504-1.094-15.008-1.635-22.512
					c-0.095-1.293-0.814-10.258,0.204-11.846c1.224-1.907,3.457-2.896,5.709-2.449C116.292,43.591,118.043,45.37,118.374,47.585z"/>
				<path fill="#FF6427" d="M116.804,100.319L116.804,100.319c-0.307,0-0.611-0.083-0.905-0.246
					c-0.465-0.261-0.778-0.725-0.924-0.979c-0.938-1.634-1.862-3.276-2.786-4.919l-1.729-3.07c-1.074-1.905-2.148-3.811-3.202-5.729
					c-0.281-0.51-0.458-1.07-0.496-1.578c-0.497-6.7-0.984-13.4-1.472-20.101c-0.348-4.757-0.693-9.515-1.043-14.271
					c-0.193-2.616,0.543-4.819,2.316-6.934c2.485-2.596,5.715-3.423,9.088-2.355c3.527,1.119,5.619,3.635,6.05,7.277
					c0.273,2.322,0.435,4.689,0.59,6.98c0.064,0.954,0.13,1.908,0.202,2.862l0.12,1.589c0.644,8.5,1.288,17,1.909,25.5
					c0.043,0.59-0.068,1.246-0.307,1.801c-1.514,3.519-3.078,7.084-4.592,10.531l-0.973,2.217
					C118.256,99.801,117.581,100.319,116.804,100.319z M112.795,40.725c-2.02,0-3.904,0.854-5.452,2.468
					c-1.563,1.866-2.223,3.831-2.051,6.158c0.35,4.757,0.695,9.515,1.042,14.271c0.487,6.7,0.976,13.399,1.472,20.099
					c0.027,0.355,0.162,0.775,0.369,1.15c1.053,1.916,2.125,3.817,3.197,5.721l1.729,3.07c0.923,1.641,1.845,3.28,2.782,4.911
					c0.153,0.269,0.351,0.487,0.526,0.585c0.502,0.281,0.98,0.01,1.283-0.682l0.973-2.217c1.513-3.447,3.076-7.01,4.589-10.525
					c0.172-0.398,0.255-0.889,0.224-1.309c-0.621-8.502-1.265-17-1.908-25.498l-0.12-1.59c-0.073-0.956-0.138-1.913-0.203-2.871
					c-0.155-2.277-0.314-4.631-0.585-6.928c-0.379-3.203-2.22-5.418-5.326-6.402C114.471,40.863,113.616,40.725,112.795,40.725z
					 M113.633,90.986l-0.629-1.118c-0.985-1.75-1.952-3.468-2.903-5.192c-0.165-0.295-0.119-0.759,0.103-1.033
					c0.468-0.57,0.947-1.125,1.451-1.707l0.813-0.943l2.022,1.74c0.14,0.121,0.278,0.242,0.422,0.358
					c0.495,0.409,0.977,0.378,1.396-0.095c0.351-0.395,0.693-0.797,1.048-1.211l0.928-1.082l0.987,1.289
					c0.699,0.911,1.382,1.802,2.053,2.701c0.231,0.312,0.143,0.743,0.054,0.949c-0.488,1.134-0.983,2.264-1.491,3.423l-0.783,1.789
					l-0.471-0.188c-1.469-0.585-2.991-0.54-4.566,0.134L113.633,90.986z M111.06,84.249c0.938,1.696,1.889,3.385,2.857,5.106
					l0.174,0.309c1.514-0.551,3.006-0.6,4.45-0.141l0.384-0.879c0.507-1.156,1.002-2.285,1.489-3.416c0,0,0-0.001,0.001-0.002
					c-0.646-0.863-1.304-1.721-1.977-2.598l-0.202-0.264l-0.086,0.1c-0.358,0.42-0.705,0.826-1.061,1.226
					c-0.778,0.882-1.922,0.968-2.843,0.211c-0.149-0.122-0.297-0.251-0.445-0.38l-1.224-1.053l-0.132,0.152
					C111.965,83.178,111.506,83.709,111.06,84.249z M109.538,81.68l-0.204-1.352c-0.02-0.125-0.034-0.226-0.041-0.327l-0.208-2.849
					c-0.478-6.556-0.955-13.111-1.428-19.666l-0.016-0.211c-0.768-10.288,0.037-11.543,0.301-11.955
					c1.124-1.75,3.021-2.797,5.073-2.797c0.394,0,0.79,0.04,1.179,0.117c2.447,0.486,4.335,2.441,4.697,4.867
					c0.055,0.368,0.161,1.881,0.284,3.632c0.128,1.819,0.271,3.88,0.366,4.705c0.126,1.106,0.202,2.231,0.276,3.319
					c0.03,0.441,0.06,0.883,0.093,1.324c0.481,6.359,0.962,12.721,1.44,19.079c0.009,0.122,0.013,0.244,0.017,0.367l0.021,0.556
					l-0.837,0.26l-1.317-1.734c-0.213-0.279-0.542-0.613-0.896-0.613c-0.338,0-0.666,0.299-0.883,0.549
					c-0.338,0.391-0.676,0.784-1.023,1.191l-0.953,1.107l-2.266-1.949c-0.352-0.301-0.634-0.447-0.864-0.447
					c-0.254,0-0.545,0.194-0.889,0.593L109.538,81.68z M112.35,77.807c0.498,0,0.988,0.223,1.546,0.699l1.473,1.268l0.269-0.313
					c0.35-0.407,0.688-0.802,1.027-1.194c1.079-1.247,2.396-1.203,3.403,0.113l0.161,0.213c-0.453-6.008-0.907-12.016-1.361-18.024
					c-0.033-0.444-0.063-0.888-0.094-1.333c-0.073-1.075-0.148-2.188-0.272-3.271c-0.097-0.847-0.242-2.92-0.37-4.75
					c-0.111-1.584-0.226-3.222-0.275-3.551c-0.297-1.989-1.85-3.594-3.864-3.994c-0.322-0.064-0.65-0.097-0.976-0.097
					c-1.694,0-3.262,0.866-4.191,2.315c-0.206,0.321-0.826,2.088-0.139,11.312l0.016,0.213c0.474,6.555,0.951,13.11,1.429,19.665
					l0.154,2.131l0.384-0.445C111.022,78.352,111.582,77.807,112.35,77.807z"/>
			</g>
		</g>
		<g>
			<g>
				<path fill="#FF6427" d="M53.771,61.309c-1.067,0-1.979-0.811-2.083-1.895c-0.109-1.152,0.734-2.174,1.886-2.284l34.099-3.258
					c1.164-0.112,2.174,0.734,2.284,1.886s-0.734,2.174-1.886,2.283l-34.099,3.258C53.905,61.306,53.838,61.309,53.771,61.309z"/>
			</g>
			<g>
				<path fill="#FF6427" d="M54.581,69.789c-1.066,0-1.979-0.811-2.082-1.895c-0.11-1.151,0.734-2.174,1.886-2.284l34.098-3.259
					c1.156-0.117,2.175,0.734,2.284,1.885c0.11,1.152-0.733,2.174-1.885,2.284l-34.099,3.259
					C54.716,69.787,54.647,69.789,54.581,69.789z"/>
			</g>
			<g>
				<path fill="#FF6427" d="M55.392,78.27c-1.066,0-1.979-0.811-2.082-1.895c-0.11-1.151,0.734-2.174,1.886-2.283l34.099-3.26
					c1.156-0.112,2.174,0.734,2.283,1.885c0.111,1.152-0.733,2.175-1.885,2.285L55.594,78.26
					C55.526,78.268,55.458,78.27,55.392,78.27z"/>
			</g>
			<g>
				<path fill="#FF6427" d="M56.202,86.749c-1.066,0-1.979-0.812-2.082-1.895c-0.11-1.151,0.734-2.175,1.886-2.284l34.098-3.258
					c1.157-0.117,2.175,0.734,2.284,1.885c0.11,1.152-0.734,2.175-1.886,2.285L56.404,86.74
					C56.336,86.746,56.269,86.749,56.202,86.749z"/>
			</g>
			<g>
				<path fill="#FF6427" d="M57.013,95.227c-1.067,0-1.979-0.812-2.082-1.895c-0.111-1.152,0.733-2.175,1.885-2.285l18.707-1.787
					c1.158-0.115,2.174,0.735,2.284,1.886c0.11,1.151-0.734,2.175-1.886,2.284l-18.707,1.787
					C57.146,95.223,57.079,95.227,57.013,95.227z"/>
			</g>
		</g>
		<g>
			<path fill="#FF6427" d="M115.423,82.344c-0.955,0-1.759-0.738-1.826-1.704l-2.656-38.046c-0.07-1.01,0.691-1.885,1.7-1.956
				c1.013-0.071,1.886,0.69,1.956,1.7l2.655,38.046c0.071,1.01-0.69,1.886-1.7,1.956C115.509,82.343,115.465,82.344,115.423,82.344z
				"/>
		</g>
		<g>
			<path fill="#FF6427" d="M59.137,46.507c-2.294,0-4.241-1.763-4.431-4.089l-0.488-6.008c-0.199-2.449,1.625-4.597,4.074-4.796
				c2.444-0.208,4.598,1.625,4.797,4.075l0.488,6.006c0.2,2.449-1.625,4.598-4.074,4.797C59.38,46.502,59.258,46.507,59.137,46.507z
				"/>
		</g>
	</g>
</g>
</svg>
