<?xml version="1.0" encoding="UTF-8" standalone="no"?><!DOCTYPE svg PUBLIC "-//W3C//DTD SVG 1.1//EN" "http://www.w3.org/Graphics/SVG/1.1/DTD/svg11.dtd"><svg width="100%" height="100%" viewBox="0 0 85 80" version="1.1" xmlns="http://www.w3.org/2000/svg" xmlns:xlink="http://www.w3.org/1999/xlink" xml:space="preserve" xmlnsserif="http://www.serif.com/" style="fill-rule:evenodd;clip-rule:evenodd;stroke-linejoin:round;stroke-miterlimit:2;"><g><path d="M55.367,68.301c-1.88,2.246 -4.524,3.632 -7.445,3.904l-26.726,2.488c-0.345,0.031 -0.695,0.049 -1.039,0.049c-5.604,-0 -10.396,-4.332 -10.91,-9.861l-3.963,-42.582c-0.269,-2.883 0.615,-5.705 2.489,-7.945c1.65,-1.975 3.893,-3.283 6.393,-3.756l0.018,0.223c0.19,2.326 2.137,4.087 4.431,4.087c0.121,-0 0.243,-0.003 0.366,-0.013c2.449,-0.199 4.274,-2.348 4.074,-4.797l-0.03,-0.375l18.919,-1.762c0.345,-0.031 0.694,-0.049 1.039,-0.049c5.602,-0 10.394,4.332 10.909,9.862l3.964,42.583c0.269,2.883 -0.615,5.703 -2.489,7.944Zm3.739,-51.012c-0.775,-8.33 -7.707,-14.611 -16.123,-14.611c-0.506,-0 -1.019,0.023 -1.525,0.07l-18.858,1.756l-0.033,-0.412c-0.199,-2.451 -2.353,-4.283 -4.797,-4.076c-2.449,0.199 -4.273,2.348 -4.074,4.797l0.046,0.564c-3.909,0.602 -7.428,2.561 -9.985,5.617c-2.776,3.319 -4.086,7.506 -3.687,11.789l3.964,42.584c0.774,8.328 7.706,14.609 16.123,14.611c0.506,-0 1.018,-0.025 1.524,-0.072l26.727,-2.486c4.305,-0.401 8.203,-2.446 10.974,-5.758c2.777,-3.32 4.086,-7.506 3.688,-11.791l-3.964,-42.582Z" style="fill:#ff6427;fill-rule:nonzero;"/><path d="M79.892,53.631c-0.487,1.131 -0.982,2.26 -1.489,3.416l-0.384,0.879c-1.444,-0.459 -2.936,-0.41 -4.45,0.141l-0.174,-0.309c-0.969,-1.723 -1.92,-3.41 -2.857,-5.105c0.446,-0.541 0.905,-1.073 1.386,-1.629l0.132,-0.153l1.224,1.053c0.148,0.129 0.296,0.258 0.445,0.379c0.921,0.758 2.065,0.672 2.843,-0.211c0.355,-0.398 0.702,-0.805 1.06,-1.225l0.086,-0.099l0.203,0.264c0.672,0.876 1.33,1.734 1.976,2.597l-0.001,0.002Zm-9.746,-6.467l-0.384,0.446l-0.154,-2.131c-0.478,-6.555 -0.955,-13.112 -1.429,-19.666l-0.015,-0.213c-0.688,-9.223 -0.068,-10.988 0.138,-11.311c0.549,-0.857 1.324,-1.502 2.214,-1.892l2.386,34.164c-0.372,-0.235 -0.722,-0.352 -1.074,-0.352c-0.768,-0 -1.328,0.545 -1.682,0.955Zm7.187,-31.099c0.05,0.328 0.165,1.967 0.276,3.55c0.128,1.831 0.273,3.903 0.37,4.75c0.124,1.083 0.199,2.196 0.272,3.272c0.031,0.445 0.061,0.889 0.094,1.332c0.454,6.01 0.908,12.018 1.362,18.025l-0.162,-0.212c-0.881,-1.153 -2.002,-1.331 -2.991,-0.518l-2.373,-33.994c1.661,0.597 2.892,2.047 3.152,3.795Zm6.667,36.685c-0.621,-8.5 -1.265,-17 -1.909,-25.5l-0.12,-1.59c-0.072,-0.953 -0.138,-1.908 -0.202,-2.861c-0.155,-2.291 -0.316,-4.658 -0.59,-6.98c-0.43,-3.643 -2.522,-6.159 -6.05,-7.278c-3.373,-1.068 -6.602,-0.24 -9.087,2.356c-1.774,2.113 -2.51,4.316 -2.317,6.933c0.35,4.756 0.695,9.514 1.043,14.27c0.487,6.701 0.975,13.4 1.472,20.101c0.038,0.508 0.215,1.069 0.496,1.579c1.054,1.918 2.128,3.822 3.202,5.728l1.729,3.07c0.923,1.643 1.847,3.285 2.786,4.918c0.145,0.254 0.459,0.719 0.923,0.978c0.294,0.164 0.599,0.247 0.906,0.247c0.777,-0 1.452,-0.518 1.847,-1.422l0.973,-2.217c1.514,-3.447 3.078,-7.011 4.592,-10.531c0.238,-0.555 0.349,-1.211 0.306,-1.801Z" style="fill:#ff6427;fill-rule:nonzero;"/><path d="M13.451,29.701l34.098,-3.257c1.152,-0.11 1.996,-1.133 1.886,-2.284c-0.11,-1.152 -1.12,-1.998 -2.284,-1.886l-34.099,3.258c-1.151,0.111 -1.995,1.132 -1.885,2.285c0.103,1.084 1.015,1.894 2.083,1.894l0.201,-0.01Z" style="fill:#ff6427;fill-rule:nonzero;"/><path d="M14.261,38.182l34.099,-3.26c1.151,-0.109 1.995,-1.131 1.885,-2.283c-0.11,-1.15 -1.128,-2.002 -2.285,-1.885l-34.097,3.258c-1.152,0.111 -1.996,1.133 -1.886,2.285c0.104,1.084 1.016,1.895 2.082,1.895l0.202,-0.01Z" style="fill:#ff6427;fill-rule:nonzero;"/><path d="M15.072,46.662l34.098,-3.257c1.152,-0.112 1.997,-1.133 1.885,-2.286c-0.109,-1.15 -1.127,-1.998 -2.283,-1.884l-34.099,3.259c-1.151,0.11 -1.996,1.131 -1.885,2.284c0.103,1.084 1.015,1.894 2.082,1.894l0.202,-0.01Z" style="fill:#ff6427;fill-rule:nonzero;"/><path d="M49.582,47.715l-34.098,3.258c-1.151,0.109 -1.996,1.133 -1.886,2.283c0.104,1.084 1.016,1.897 2.082,1.897l0.202,-0.01l34.098,-3.258c1.151,-0.111 1.996,-1.133 1.886,-2.285c-0.11,-1.151 -1.127,-2.002 -2.284,-1.885Z" style="fill:#ff6427;fill-rule:nonzero;"/><path d="M35,57.662l-18.707,1.787c-1.151,0.109 -1.996,1.133 -1.884,2.285c0.102,1.084 1.014,1.895 2.082,1.895l0.201,-0.01l18.707,-1.787c1.151,-0.11 1.996,-1.133 1.886,-2.285c-0.111,-1.15 -1.126,-2 -2.285,-1.885Z" style="fill:#ff6427;fill-rule:nonzero;"/></g></svg>