<?xml version="1.0" encoding="utf-8"?>
<!-- Generator: Adobe Illustrator 16.0.0, SVG Export Plug-In . SVG Version: 6.00 Build 0)  -->
<!DOCTYPE svg PUBLIC "-//W3C//DTD SVG 1.1//EN" "http://www.w3.org/Graphics/SVG/1.1/DTD/svg11.dtd">
<svg version="1.1" xmlns="http://www.w3.org/2000/svg" xmlns:xlink="http://www.w3.org/1999/xlink" x="0px" y="0px" width="61.5px"
	 height="58px" viewBox="0 0 61.5 58" enable-background="new 0 0 61.5 58" xml:space="preserve">
<g id="OTVR_x5F_hambac">
</g>
<g id="lista">
	<g>
		<path fill="#4AE4D8" d="M30.414,3.329c-14.15,0-25.623,11.473-25.623,25.624l0,0c0,14.152,11.473,25.624,25.623,25.624l0,0
			c14.151,0,25.623-11.472,25.623-25.624C56.037,14.802,44.565,3.329,30.414,3.329z M38.6,17.429c0,0-2.765,0-3.865,0
			c-1.367,0-1.647,0.559-1.647,1.971c0,1.177,0,3.411,0,3.411H38.6l-0.529,5.991h-4.983v17.893h-7.143V28.876h-3.719v-6.066h3.719
			c0,0,0-0.872,0-4.775c0-4.482,2.396-6.822,7.712-6.822c0.871,0,4.943,0,4.943,0V17.429z"/>
	</g>
</g>
</svg>
