<?xml version="1.0" encoding="utf-8"?>
<!-- Generator: Adobe Illustrator 16.0.0, SVG Export Plug-In . SVG Version: 6.00 Build 0)  -->
<!DOCTYPE svg PUBLIC "-//W3C//DTD SVG 1.1//EN" "http://www.w3.org/Graphics/SVG/1.1/DTD/svg11.dtd">
<svg version="1.1" id="texty" xmlns="http://www.w3.org/2000/svg" xmlns:xlink="http://www.w3.org/1999/xlink" x="0px" y="0px"
	 width="51.334px" height="48.126px" viewBox="0 0 51.334 48.126" enable-background="new 0 0 51.334 48.126" xml:space="preserve">
<g>
	<path fill="#FFFFFF" d="M1231.75,1508.767H889.715c-17.309,0-31.387,13.757-31.387,30.665v193.671
		c0,16.907,14.078,30.664,31.387,30.664h342.035c17.307,0,31.387-13.757,31.387-30.664v-193.671
		C1263.137,1522.523,1249.057,1508.767,1231.75,1508.767z"/>
	<path fill="#FFFFFF" d="M-67.974,928.167h-345.498c-17.482,0-31.705,13.896-31.705,30.976v195.631
		c0,17.078,14.223,30.975,31.705,30.975h345.498c17.482,0,31.705-13.896,31.705-30.975V959.143
		C-36.269,942.063-50.491,928.167-67.974,928.167z"/>
	<g>
		<rect x="-415.12" y="973.327" fill="none" width="480.932" height="109.908"/>
		<text transform="matrix(1 0 0 1 -415.1211 997.8271)"><tspan x="0" y="0" fill="#FF712E" font-family="'Gilroy-ExtraBold'" font-size="35">Web </tspan><tspan x="0" y="37.993" fill="#FF712E" font-family="'Gilroy-ExtraBold'" font-size="35">development</tspan></text>
	</g>
	<rect x="-415.443" y="1079.882" fill-rule="evenodd" clip-rule="evenodd" fill="none" width="343.59" height="207.569"/>
	<text transform="matrix(1 0 0 1 -415.4443 1095.6719)"><tspan x="0" y="0" fill="#7C7C7C" font-family="'Rubik-Regular'" font-size="22.2397">Dobře vypadající a bezchybně </tspan><tspan x="0" y="26.688" fill="#7C7C7C" font-family="'Rubik-Regular'" font-size="22.2397">fungující web je základem </tspan><tspan x="0" y="53.375" fill="#7C7C7C" font-family="'Rubik-Regular'" font-size="22.2397">každé úspěšné moderní firmy.</tspan></text>
	<path fill="#FFFFFF" d="M793.416,1218.767H451.381c-17.309,0-31.387,13.757-31.387,30.665v193.671
		c0,16.907,14.078,30.664,31.387,30.664h342.035c17.307,0,31.387-13.757,31.387-30.664v-193.671
		C824.803,1232.523,810.723,1218.767,793.416,1218.767z"/>
	<g>
		<rect x="454.204" y="1263.478" fill="none" width="476.115" height="108.807"/>
		<text transform="matrix(1 0 0 1 454.2051 1287.9775)"><tspan x="0" y="0" fill="#FF712E" font-family="'Gilroy-ExtraBold'" font-size="35">HR </tspan><tspan x="0" y="37.612" fill="#FF712E" font-family="'Gilroy-ExtraBold'" font-size="35">marketing</tspan></text>
	</g>
	<rect x="453.881" y="1368.961" fill="none" width="340.15" height="205.49"/>
	<text transform="matrix(1 0 0 1 453.8809 1384.751)"><tspan x="0" y="0" fill="#7C7C7C" font-family="'Rubik-Regular'" font-size="22.2397">Získejte nejlepší zaměstnance </tspan><tspan x="0" y="26.688" fill="#7C7C7C" font-family="'Rubik-Regular'" font-size="22.2397">a postarejte se o to, že u Vás </tspan><tspan x="0" y="53.375" fill="#7C7C7C" font-family="'Rubik-Regular'" font-size="22.2397">budou chtít zůstat.</tspan></text>
	<path fill="#FFFFFF" d="M-75.879,1215.167h-342.035c-17.309,0-31.387,13.757-31.387,30.665v193.671
		c0,16.907,14.078,30.664,31.387,30.664h342.035c17.307,0,31.387-13.757,31.387-30.664v-193.671
		C-44.492,1228.924-58.572,1215.167-75.879,1215.167z"/>
	<g>
		<rect x="-415.466" y="1259.878" fill="none" width="476.115" height="108.807"/>
		<text transform="matrix(1 0 0 1 -415.4648 1284.3779)"><tspan x="0" y="0" fill="#FF712E" font-family="'Gilroy-ExtraBold'" font-size="35">Korporátní </tspan><tspan x="0" y="37.612" fill="#FF712E" font-family="'Gilroy-ExtraBold'" font-size="35">identita</tspan></text>
	</g>
	<g>
		<rect x="-415.789" y="1365.361" fill="none" width="340.15" height="205.49"/>
		<text transform="matrix(1 0 0 1 -415.7891 1381.1514)"><tspan x="0" y="0" fill="#7C7C7C" font-family="'Rubik-Regular'" font-size="22.2397">Ujasněte si smysl a formu </tspan><tspan x="0" y="26.688" fill="#7C7C7C" font-family="'Rubik-Regular'" font-size="22.2397">vašeho jednání. Kým a proč </tspan><tspan x="0" y="53.375" fill="#7C7C7C" font-family="'Rubik-Regular'" font-size="22.2397">chcete doopravdy být?</tspan></text>
	</g>
	<path fill="#FFFFFF" d="M793.416,928.167H451.381c-17.309,0-31.387,13.757-31.387,30.665v193.671
		c0,16.907,14.078,30.664,31.387,30.664h342.035c17.307,0,31.387-13.757,31.387-30.664V958.832
		C824.803,941.924,810.723,928.167,793.416,928.167z"/>
	<g>
		<rect x="454.204" y="972.878" fill="none" width="476.115" height="108.807"/>
		<text transform="matrix(1 0 0 1 454.2051 997.3779)"><tspan x="0" y="0" fill="#FF712E" font-family="'Gilroy-ExtraBold'" font-size="35">Sociální </tspan><tspan x="0" y="37.612" fill="#FF712E" font-family="'Gilroy-ExtraBold'" font-size="35">sítě</tspan></text>
	</g>
	<g>
		<rect x="453.881" y="1078.361" fill="none" width="340.15" height="205.49"/>
		<text transform="matrix(1 0 0 1 453.8809 1094.1514)"><tspan x="0" y="0" fill="#7C7C7C" font-family="'Rubik-Regular'" font-size="22.2397">Neocenitelný nástroj pro </tspan><tspan x="0" y="26.688" fill="#7C7C7C" font-family="'Rubik-Regular'" font-size="22.2397">každého, kdo se chce se svým </tspan><tspan x="0" y="53.375" fill="#7C7C7C" font-family="'Rubik-Regular'" font-size="22.2397">produktem dostat mezi lidi.</tspan></text>
	</g>
	<path fill="#FFFFFF" d="M1231.752,931.767H889.715c-17.307,0-31.387,13.757-31.387,30.665v193.671
		c0,16.907,14.08,30.664,31.387,30.664h342.037c17.307,0,31.387-13.757,31.387-30.664V962.432
		C1263.139,945.523,1249.059,931.767,1231.752,931.767z"/>
	<g>
		<rect x="892.54" y="976.478" fill="none" width="476.115" height="108.807"/>
		<text transform="matrix(1 0 0 1 892.541 1000.9775)"><tspan x="0" y="0" fill="#FF712E" font-family="'Gilroy-ExtraBold'" font-size="35">Vývoj </tspan><tspan x="0" y="37.612" fill="#FF712E" font-family="'Gilroy-ExtraBold'" font-size="35">aplikací</tspan></text>
	</g>
	<g>
		<rect x="892.217" y="1081.961" fill="none" width="340.148" height="205.49"/>
		<text transform="matrix(1 0 0 1 892.2168 1097.751)"><tspan x="0" y="0" fill="#7C7C7C" font-family="'Rubik-Regular'" font-size="22.2397">Vyladěné aplikace Vás </tspan><tspan x="0" y="26.688" fill="#7C7C7C" font-family="'Rubik-Regular'" font-size="22.2397">dovedou k úspěchu a Vaše </tspan><tspan x="0" y="53.375" fill="#7C7C7C" font-family="'Rubik-Regular'" font-size="22.2397">klienty k pohodlnému životu.</tspan></text>
	</g>
	<path fill="#FFFFFF" d="M362.08,928.167H20.045c-17.309,0-31.387,13.757-31.387,30.665v193.671
		c0,16.907,14.078,30.664,31.387,30.664H362.08c17.307,0,31.387-13.757,31.387-30.664V958.832
		C393.467,941.924,379.387,928.167,362.08,928.167z"/>
	<g>
		<rect x="22.868" y="972.878" fill="none" width="476.115" height="108.807"/>
		<text transform="matrix(1 0 0 1 22.8691 997.3779)"><tspan x="0" y="0" fill="#FF712E" font-family="'Gilroy-ExtraBold'" font-size="35">Grafické </tspan><tspan x="0" y="37.612" fill="#FF712E" font-family="'Gilroy-ExtraBold'" font-size="35">studio</tspan></text>
	</g>
	<g>
		<polygon fill="none" points="362.695,1283.852 22.545,1283.852 22.545,1078.361 223.178,1078.361 362.695,1078.361 		"/>
		<text transform="matrix(1 0 0 1 22.5449 1094.1514)"><tspan x="0" y="0" fill="#7C7C7C" font-family="'Rubik-Regular'" font-size="22.2397">Protože vizuální stránka </tspan><tspan x="0" y="26.688" fill="#7C7C7C" font-family="'Rubik-Regular'" font-size="22.2397">je vždy až tím prvním, co </tspan><tspan x="0" y="53.375" fill="#7C7C7C" font-family="'Rubik-Regular'" font-size="22.2397">ovlivní zájem Vašich klientů.</tspan></text>
	</g>
	<path fill="#FFFFFF" d="M362.08,1215.167H20.045c-17.309,0-31.387,13.757-31.387,30.665v193.671
		c0,16.907,14.078,30.664,31.387,30.664H362.08c17.307,0,31.387-13.757,31.387-30.664v-193.671
		C393.467,1228.924,379.387,1215.167,362.08,1215.167z"/>
	<g>
		<rect x="22.868" y="1259.878" fill="none" width="476.115" height="108.807"/>
		<text transform="matrix(1 0 0 1 22.8691 1284.3779)"><tspan x="0" y="0" fill="#FF712E" font-family="'Gilroy-ExtraBold'" font-size="35">Offline </tspan><tspan x="0" y="37.612" fill="#FF712E" font-family="'Gilroy-ExtraBold'" font-size="35">marketing</tspan></text>
	</g>
	<g>
		<rect x="22.545" y="1365.361" fill="none" width="340.15" height="205.49"/>
		<text transform="matrix(1 0 0 1 22.5449 1381.1514)"><tspan x="0" y="0" fill="#7C7C7C" font-family="'Rubik-Regular'" font-size="22.2397">Oslovujte svět pomocí hmotné </tspan><tspan x="0" y="26.688" fill="#7C7C7C" font-family="'Rubik-Regular'" font-size="22.2397">reklamy. Ani v digitálním věku </tspan><tspan x="0" y="53.375" fill="#7C7C7C" font-family="'Rubik-Regular'" font-size="22.2397">nestačí být vidět pouze </tspan><tspan x="0" y="80.063" fill="#7C7C7C" font-family="'Rubik-Regular'" font-size="22.2397">online.</tspan></text>
	</g>
	<path fill="#FFFFFF" d="M1231.75,1218.767H889.715c-17.309,0-31.387,13.757-31.387,30.665v193.671
		c0,16.907,14.078,30.664,31.387,30.664h342.035c17.307,0,31.387-13.757,31.387-30.664v-193.671
		C1263.137,1232.523,1249.057,1218.767,1231.75,1218.767z"/>
	<g>
		<circle fill="#F37337" cx="1022.5" cy="1337.267" r="8.441"/>
		<circle fill="#F37337" cx="1061.23" cy="1337.267" r="8.441"/>
		<circle fill="#F37337" cx="1098.967" cy="1337.267" r="8.441"/>
	</g>
	<g>
		<rect x="892.215" y="1553.154" fill="none" width="476.115" height="108.807"/>
		<text transform="matrix(1 0 0 1 892.2168 1577.6543)"><tspan x="0" y="0" fill="#FF712E" font-family="'Gilroy-ExtraBold'" font-size="35">Cloudové </tspan><tspan x="0" y="37.612" fill="#FF712E" font-family="'Gilroy-ExtraBold'" font-size="35">řešení</tspan></text>
	</g>
	<g>
		<rect x="892.215" y="1658.961" fill="none" width="340.15" height="205.49"/>
		<text transform="matrix(1 0 0 1 892.2168 1674.751)"><tspan x="0" y="0" fill="#7C7C7C" font-family="'Rubik-Regular'" font-size="22.2397">Cloudové systémy jsou i budou </tspan><tspan x="0" y="26.688" fill="#7C7C7C" font-family="'Rubik-Regular'" font-size="22.2397">ideálním řešením jak </tspan><tspan x="0" y="53.375" fill="#7C7C7C" font-family="'Rubik-Regular'" font-size="22.2397">minimalizovat firemní náklady.</tspan></text>
	</g>
	<path fill="#FFFFFF" d="M362.08,1505.167H20.045c-17.309,0-31.387,13.757-31.387,30.665v193.671
		c0,16.907,14.078,30.664,31.387,30.664H362.08c17.307,0,31.387-13.757,31.387-30.664v-193.671
		C393.467,1518.924,379.387,1505.167,362.08,1505.167z"/>
	<g>
		<rect x="22.868" y="1566.377" fill="none" width="476.115" height="108.807"/>
		<text transform="matrix(1 0 0 1 22.8691 1590.877)" fill="#FF712E" font-family="'Gilroy-ExtraBold'" font-size="35">Animace</text>
	</g>
	<g>
		<rect x="22.545" y="1655.361" fill="none" width="340.15" height="205.49"/>
		<text transform="matrix(1 0 0 1 22.5449 1671.1514)"><tspan x="0" y="0" fill="#7C7C7C" font-family="'Rubik-Regular'" font-size="22.2397">Dynamická grafika baví svět. </tspan><tspan x="0" y="26.688" fill="#7C7C7C" font-family="'Rubik-Regular'" font-size="22.2397">Nespoléhejte na statický </tspan><tspan x="0" y="53.375" fill="#7C7C7C" font-family="'Rubik-Regular'" font-size="22.2397">vizuál, který patří do minulého </tspan><tspan x="0" y="80.063" fill="#7C7C7C" font-family="'Rubik-Regular'" font-size="22.2397">století.</tspan></text>
	</g>
	<path fill="#FFFFFF" d="M793.666,1505.001H451.631c-17.309,0-31.387,13.756-31.387,30.664v193.671
		c0,16.907,14.078,30.665,31.387,30.665h342.035c17.307,0,31.387-13.758,31.387-30.665v-193.671
		C825.053,1518.757,810.973,1505.001,793.666,1505.001z"/>
	<g>
		<rect x="453.881" y="1549.555" fill="none" width="476.115" height="108.807"/>
		<text transform="matrix(1 0 0 1 453.8809 1574.0547)"><tspan x="0" y="0" fill="#FF712E" font-family="'Gilroy-ExtraBold'" font-size="35">Foto/ </tspan><tspan x="0" y="37.612" fill="#FF712E" font-family="'Gilroy-ExtraBold'" font-size="35">video</tspan></text>
	</g>
	<g>
		<rect x="453.881" y="1655.361" fill="none" width="340.15" height="205.49"/>
		<text transform="matrix(1 0 0 1 453.8809 1671.1514)"><tspan x="0" y="0" fill="#7C7C7C" font-family="'Rubik-Regular'" font-size="22.2397">Nepromarněte jedinečnou </tspan><tspan x="0" y="26.688" fill="#7C7C7C" font-family="'Rubik-Regular'" font-size="22.2397">možnost zaznamenat důležité </tspan><tspan x="0" y="53.375" fill="#7C7C7C" font-family="'Rubik-Regular'" font-size="22.2397">momenty Vaší kariéry a </tspan><tspan x="0" y="80.063" fill="#7C7C7C" font-family="'Rubik-Regular'" font-size="22.2397">života.</tspan></text>
	</g>
	<path fill="#FFFFFF" d="M-76.504,1509.142h-342.035c-17.309,0-31.387,13.757-31.387,30.665v193.671
		c0,16.907,14.078,30.664,31.387,30.664h342.035c17.307,0,31.387-13.757,31.387-30.664v-193.671
		C-45.117,1522.898-59.197,1509.142-76.504,1509.142z"/>
	<g>
		<rect x="-415.466" y="1553.478" fill="none" width="476.115" height="108.807"/>
		<text transform="matrix(1 0 0 1 -415.4668 1577.9775)"><tspan x="0" y="0" fill="#FF712E" font-family="'Gilroy-ExtraBold'" font-size="35">Analýza/ </tspan><tspan x="0" y="37.612" fill="#FF712E" font-family="'Gilroy-ExtraBold'" font-size="35">strategie</tspan></text>
	</g>
	<g>
		<rect x="-415.789" y="1658.961" fill="none" width="340.15" height="205.49"/>
		<text transform="matrix(1 0 0 1 -415.7891 1674.751)"><tspan x="0" y="0" fill="#7C7C7C" font-family="'Rubik-Regular'" font-size="22.2397">Když vše nefunguje tak, jak </tspan><tspan x="0" y="26.688" fill="#7C7C7C" font-family="'Rubik-Regular'" font-size="22.2397">by mělo. Najděte s námi </tspan><tspan x="0" y="53.375" fill="#7C7C7C" font-family="'Rubik-Regular'" font-size="22.2397">příčinu </tspan><tspan x="0" y="80.063" fill="#7C7C7C" font-family="'Rubik-Regular'" font-size="22.2397">i řešení problému.</tspan></text>
	</g>
	<path fill="#FFFFFF" d="M1231.75,1218.767H889.715c-17.309,0-31.387,13.757-31.387,30.665v193.671
		c0,16.907,14.078,30.664,31.387,30.664h342.035c17.307,0,31.387-13.757,31.387-30.664v-193.671
		C1263.137,1232.523,1249.057,1218.767,1231.75,1218.767z"/>
	<g>
		<rect x="892.538" y="1263.478" fill="none" width="476.115" height="108.807"/>
		<text transform="matrix(1 0 0 1 892.5391 1287.9775)"><tspan x="0" y="0" fill="#FF712E" font-family="'Gilroy-ExtraBold'" font-size="35">Školení </tspan><tspan x="0" y="37.612" fill="#FF712E" font-family="'Gilroy-ExtraBold'" font-size="35">online</tspan></text>
	</g>
	<g>
		<rect x="892.215" y="1368.961" fill="none" width="340.15" height="205.49"/>
		<text transform="matrix(1 0 0 1 892.2148 1384.751)"><tspan x="0" y="0" fill="#7C7C7C" font-family="'Rubik-Regular'" font-size="22.2397">Vzdělávejte se bez cestování </tspan><tspan x="0" y="26.688" fill="#7C7C7C" font-family="'Rubik-Regular'" font-size="22.2397">a řešit technické nesnáze. </tspan><tspan x="0" y="53.375" fill="#7C7C7C" font-family="'Rubik-Regular'" font-size="22.2397">Seberozvoj na dálku funguje.</tspan></text>
	</g>
	<g>
		<g>
			<path fill="#4AE5D9" d="M763.416,994.88c-0.364-1.139-1.423-1.912-2.619-1.912h-17.838l-5.739-17.737
				c-0.367-1.135-1.424-1.903-2.616-1.903s-2.25,0.77-2.616,1.904l-5.735,17.736h-17.84c-1.196,0-2.255,0.773-2.619,1.912
				c-0.364,1.14,0.049,2.383,1.023,3.078l14.533,10.355l-5.537,17.139c-0.366,1.134,0.039,2.374,1.004,3.073
				c0.481,0.349,1.048,0.522,1.613,0.522c0.568,0,1.137-0.176,1.619-0.527l14.555-10.605l14.559,10.605
				c0.963,0.701,2.268,0.703,3.232,0.004s1.37-1.939,1.003-3.073l-5.544-17.138l14.539-10.355
				C763.366,997.264,763.78,996.02,763.416,994.88z M743.021,1005.003c-0.977,0.695-1.39,1.944-1.02,3.086l3.558,11.003
				l-9.337-6.802c-0.965-0.703-2.273-0.703-3.238,0l-9.337,6.804l3.556-11.006c0.368-1.142-0.045-2.39-1.021-3.085l-9.171-6.535
				h11.241c1.192,0,2.25-0.77,2.616-1.904l3.735-11.551l3.737,11.552c0.368,1.135,1.424,1.903,2.616,1.903h11.239L743.021,1005.003z
				"/>
			<path fill="#4AE5D9" d="M708.928,1013.132l-5.551-2.923l1.126-6.501c0.167-0.961-0.306-1.92-1.169-2.375
				c-0.865-0.455-1.922-0.301-2.619,0.381l-4.722,4.608l-5.553-2.923c-0.868-0.457-1.927-0.3-2.625,0.385
				c-0.698,0.687-0.872,1.745-0.432,2.619l2.825,5.6l-4.536,4.43c-0.697,0.681-0.877,1.733-0.444,2.607
				c0.432,0.873,1.38,1.369,2.342,1.229l6.277-0.916l2.796,5.693c0.382,0.778,1.17,1.259,2.019,1.259
				c0.106,0,0.213-0.007,0.32-0.022c0.965-0.139,1.73-0.883,1.897-1.843l1.085-6.249l6.216-0.838
				c0.97-0.131,1.744-0.873,1.915-1.837C710.266,1014.552,709.794,1013.589,708.928,1013.132z M699.729,1013.952
				c-0.973,0.131-1.748,0.877-1.916,1.845l-0.183,1.051l-0.467-0.95c-0.382-0.778-1.171-1.259-2.019-1.259
				c-0.108,0-0.217,0.008-0.326,0.023l-1.051,0.153l0.763-0.745c0.702-0.686,0.879-1.747,0.437-2.622l-0.397-0.789l0.775,0.408
				c0.861,0.455,1.921,0.3,2.619-0.381l0.917-0.895l-0.219,1.261c-0.167,0.962,0.305,1.921,1.169,2.375l0.771,0.406
				L699.729,1013.952z"/>
		</g>
	</g>
	<g>
		<path fill="#4AE5D9" d="M-90.652,1272.63h-2.701v-3.646h-3.283v3.646h-4.359v-3.557h0.002v-1.549c0-2.941-2.359-5.303-5.303-5.303
			h-15.906c-2.942,0-5.303,2.361-5.303,5.303v5.105h-4.313v-3.646h-3.283v3.646h-2.744c-4.404,0-7.986,3.582-7.986,7.986v30.521
			c0,4.403,3.582,7.987,7.986,7.987h47.193c4.404,0,7.986-3.584,7.986-7.987v-30.521
			C-82.666,1276.212-86.248,1272.63-90.652,1272.63z M-122.203,1267.524h15.906v5.105h-15.906V1267.524z M-137.846,1278.329h2.744
			v3.643h3.283v-3.643h4.313v5.102h5.303v-5.102h15.906v5.102h5.301v-5.102h4.359v3.643h3.283v-3.643h2.701
			c1.262,0,2.287,1.025,2.287,2.287v14.009h-51.769v-14.009C-140.134,1279.354-139.107,1278.329-137.846,1278.329z
			 M-90.652,1313.425h-47.193c-1.262,0-2.288-1.027-2.288-2.288v-5.114h51.769v5.114
			C-88.365,1312.397-89.391,1313.425-90.652,1313.425z"/>
	</g>
	<g>
		<g>
			<path fill="#4AE5D9" d="M1178.846,972.485l-27.309,0.002c-3.279,0.006-5.941,2.68-5.935,5.959l0.015,7.854l5.462-0.011
				l-0.016-7.153l28.282-0.056l0.094,46.537l-28.281,0.058l-0.018-7.967l-5.459,0.01l0.024,11.972
				c0.007,3.28,2.679,5.944,5.958,5.938l27.309-0.057c3.279-0.006,5.941-2.68,5.936-5.961l-0.104-51.244
				C1184.799,975.115,1182.125,972.478,1178.846,972.485z"/>
			<polygon fill="#4AE5D9" points="1146.087,1012.368 1146.072,1005.226 1153.211,1005.212 1153.199,998.772 1146.059,998.786 
				1146.045,991.646 1139.604,991.659 1139.618,998.799 1132.475,998.813 1132.487,1005.254 1139.631,1005.239 1139.646,1012.384 
							"/>
		</g>
	</g>
	<g>
		<g>
			<path fill="#4AE5D9" d="M316.173,1285.089h-0.005h-6.411l-2.063-6.374c-0.133-0.407-0.511-0.683-0.938-0.683
				c-0.427,0-0.805,0.276-0.938,0.683l-2.061,6.374h-6.412c-0.427,0-0.807,0.277-0.938,0.686c-0.131,0.409,0.018,0.854,0.367,1.104
				l5.222,3.722l-1.988,6.159c-0.13,0.406,0.016,0.851,0.361,1.102c0.173,0.124,0.375,0.187,0.578,0.187s0.407-0.063,0.58-0.188
				l5.229-3.81l5.231,3.81c0.173,0.126,0.377,0.188,0.58,0.188c0.205,0,0.406-0.063,0.579-0.188c0.346-0.25,0.491-0.695,0.36-1.102
				l-1.994-6.158l5.201-3.703c0.267-0.177,0.441-0.478,0.441-0.822C317.155,1285.53,316.716,1285.089,316.173,1285.089z"/>
			<path fill="#4AE5D9" d="M334.202,1264.717h-54.501c-4.309,0-7.814,3.629-7.814,8.088v31.422c0,4.46,3.506,8.088,7.814,8.088
				h7.845v8.089h4.538v-8.089h29.86v8.089h4.538v-8.089h7.72c4.311,0,7.816-3.628,7.816-8.088v-31.422
				C342.019,1268.346,338.513,1264.717,334.202,1264.717z M336.103,1304.227c0,1.197-0.853,2.172-1.9,2.172h-54.501
				c-1.046,0-1.898-0.975-1.898-2.172v-31.422c0-1.197,0.853-2.172,1.898-2.172h54.501c1.048,0,1.9,0.975,1.9,2.172V1304.227z"/>
		</g>
	</g>
	<g>
		<g>
			<g>
				<path fill="#4AE5D9" d="M-132.663,1560.993h-10.054c-1.381,0-2.5,1.119-2.5,2.5v37.524c0,1.381,1.119,2.5,2.5,2.5h10.054
					c1.381,0,2.5-1.119,2.5-2.5v-37.524C-130.163,1562.112-131.282,1560.993-132.663,1560.993z M-135.163,1598.518h-5.054v-32.524
					h5.054V1598.518z"/>
				<path fill="#4AE5D9" d="M-113.402,1573.799h-10.053c-1.381,0-2.5,1.12-2.5,2.5v24.719c0,1.381,1.119,2.5,2.5,2.5h10.053
					c1.381,0,2.5-1.119,2.5-2.5v-24.719C-110.902,1574.919-112.021,1573.799-113.402,1573.799z M-115.902,1598.518h-5.053v-19.719
					h5.053V1598.518z"/>
				<path fill="#4AE5D9" d="M-93.521,1548.187h-10.054c-1.381,0-2.5,1.119-2.5,2.5v50.331c0,1.381,1.119,2.5,2.5,2.5h10.054
					c1.381,0,2.5-1.119,2.5-2.5v-50.331C-91.021,1549.306-92.14,1548.187-93.521,1548.187z M-96.021,1598.518h-5.054v-45.331h5.054
					V1598.518z"/>
			</g>
		</g>
		<rect x="-149.906" y="1610.066" fill="#4AE5D9" width="62.449" height="3.158"/>
	</g>
	<g>
		<g>
			<path fill="#4AE5D9" d="M301.509,1545.684c-17.755,0-32.199,14.445-32.199,32.201c0,0.65,0.026,1.295,0.063,1.937l-2.841,1.019
				l0.878,2.449l2.233-0.801c0.188,1.306,0.456,2.586,0.796,3.837l-2.396,0.859l0.878,2.449l2.3-0.825
				c4.483,12.395,16.366,21.276,30.288,21.276c17.755,0,32.2-14.445,32.2-32.2C333.709,1560.129,319.264,1545.684,301.509,1545.684z
				 M301.509,1604.085c-11.323,0-20.989-7.223-24.641-17.301l2.916-1.046l-0.877-2.449l-2.802,1.004
				c-0.318-1.26-0.544-2.556-0.672-3.881l2.841-1.019l-0.879-2.449l-2.081,0.746c0.105-14.357,11.813-26.007,26.194-26.007
				c14.446,0,26.2,11.754,26.2,26.201C327.709,1592.331,315.955,1604.085,301.509,1604.085z"/>
			<path fill="#4AE5D9" d="M312.533,1575.817l-14.217-9.479c-0.748-0.498-1.753-0.548-2.553-0.123
				c-0.808,0.435-1.31,1.274-1.31,2.191v18.953c0,0.918,0.502,1.757,1.311,2.189c0.359,0.192,0.766,0.295,1.174,0.295
				c0.495,0,0.972-0.146,1.378-0.418l14.217-9.477c0.691-0.462,1.104-1.234,1.104-2.065
				C313.638,1577.049,313.225,1576.276,312.533,1575.817z"/>
		</g>
	</g>
	<g>
		<g>
			<rect x="719.336" y="1577.372" fill="#4AE5D9" width="7.251" height="7.619"/>
			<rect x="719.336" y="1588.892" fill="#4AE5D9" width="7.251" height="7.62"/>
			<path fill="#4AE5D9" d="M725.656,1548.047h-37.733c-3.877,0-7.031,3.237-7.031,7.217v40.317c0,3.98,3.154,7.217,7.031,7.217
				h37.733c3.876,0,7.028-3.236,7.028-7.217v-40.317C732.685,1551.284,729.532,1548.047,725.656,1548.047z M686.16,1555.264
				c0-1.075,0.791-1.95,1.763-1.95h37.733c0.973,0,1.762,0.875,1.762,1.95v40.317c0,1.074-0.789,1.949-1.762,1.949h-37.733
				c-0.972,0-1.763-0.875-1.763-1.949V1555.264z"/>
		</g>
		<g>
			<path fill="#4AE5D9" d="M719.875,1562.431h5.186v-5.428h-5.186V1562.431 M696.547,1578.72h20.731v-21.717h-20.731V1578.72
				 M688.772,1562.431h5.185v-5.428h-5.185V1562.431 M719.875,1573.29h5.186v-5.428h-5.186V1573.29 M688.772,1573.29h5.185v-5.428
				h-5.185V1573.29 M719.875,1584.151h5.186v-5.432h-5.186V1584.151 M688.772,1584.151h5.185v-5.432h-5.185V1584.151
				 M696.547,1601.157h20.731v-19.721h-20.731v13.574 M719.875,1595.011h5.186v-5.432h-5.186V1595.011 M688.772,1595.011h5.185
				v-5.432h-5.185V1595.011 M699.824,1560.216h14.181v15.293h-14.181V1560.216L699.824,1560.216z M699.824,1584.646h14.181v13.301
				h-14.181V1584.646L699.824,1584.646z"/>
		</g>
		<g>
			<g>
				<path fill="#FFFFFF" d="M755.604,1573.194h-0.439v-1.762c0-1.389-1.125-2.514-2.516-2.514h-4.261
					c-1.39,0-2.515,1.125-2.515,2.514v1.762h-23.446c-3.669,0-6.653,3.102-6.653,6.916v19.869c0,3.813,2.984,6.916,6.653,6.916
					h33.177c3.672,0,6.656-3.103,6.656-6.916v-19.869C762.26,1576.296,759.275,1573.194,755.604,1573.194z"/>
				<path fill="#FFFFFF" d="M755.604,1610.151h-33.177c-5.464,0-9.909-4.563-9.909-10.172v-19.869
					c0-5.609,4.445-10.171,9.909-10.171h20.387c0.66-2.46,2.91-4.276,5.574-4.276h4.261c2.804,0,5.148,2.009,5.666,4.662
					c4.152,1.213,7.201,5.14,7.201,9.785v19.869C765.516,1605.589,761.069,1610.151,755.604,1610.151z M722.427,1576.45
					c-1.873,0-3.398,1.643-3.398,3.66v19.869c0,2.02,1.525,3.661,3.398,3.661h33.177c1.876,0,3.401-1.642,3.401-3.661v-19.869
					c0-2.018-1.525-3.66-3.401-3.66h-3.694v-4.277h-2.78v4.277H722.427z"/>
			</g>
			<g>
				<g>
					<path fill="#4AE5D9" d="M755.164,1573.889v-2.363c0-1.388-1.125-2.515-2.516-2.515h-4.261c-1.39,0-2.515,1.127-2.515,2.515
						v2.363H755.164z"/>
				</g>
				<g>
					<path fill="#FFFFFF" d="M755.604,1575.331h-9.145h-4.846h-19.187c-2.543,0-4.611,2.184-4.611,4.87v7.155v5.561v7.156
						c0,2.686,2.068,4.87,4.611,4.87h19.187h4.846h9.145c2.544,0,4.614-2.185,4.614-4.87v-7.156v-5.561v-7.155
						C760.218,1577.515,758.147,1575.331,755.604,1575.331z"/>
					<path fill="#4AE5D9" d="M755.604,1607.269h-33.177c-3.824,0-6.937-3.227-6.937-7.195v-19.872c0-3.968,3.112-7.196,6.937-7.196
						h33.177c3.827,0,6.939,3.229,6.939,7.196v19.872C762.543,1604.042,759.431,1607.269,755.604,1607.269z M722.427,1577.656
						c-1.261,0-2.286,1.142-2.286,2.545v19.872c0,1.402,1.025,2.545,2.286,2.545h33.177c1.262,0,2.289-1.143,2.289-2.545v-19.872
						c0-1.403-1.027-2.545-2.289-2.545H722.427z"/>
				</g>
				<g>
					<path fill="#4AE5D9" d="M726.533,1581.737c0.813,0,1.473,0.66,1.473,1.473c0,0.814-0.659,1.473-1.473,1.473
						c-0.814,0-1.473-0.658-1.473-1.473C725.061,1582.397,725.719,1581.737,726.533,1581.737z M739.793,1581.737
						c4.881,0,8.837,3.957,8.837,8.838c0,4.879-3.956,8.841-8.837,8.841c-4.885,0-8.841-3.962-8.841-8.841
						C730.952,1585.694,734.908,1581.737,739.793,1581.737z M739.793,1596.47c3.252,0,5.893-2.641,5.893-5.895
						c0-3.252-2.641-5.893-5.893-5.893c-3.255,0-5.896,2.641-5.896,5.893C733.897,1593.829,736.538,1596.47,739.793,1596.47z"/>
					<path fill="#4AE5D9" d="M739.793,1600.347c-5.389,0-9.77-4.384-9.77-9.771c0-5.387,4.381-9.768,9.77-9.768
						c5.386,0,9.768,4.381,9.768,9.768C749.561,1595.963,745.179,1600.347,739.793,1600.347z M739.793,1582.667
						c-4.363,0-7.91,3.549-7.91,7.908c0,4.362,3.547,7.91,7.91,7.91c4.359,0,7.906-3.548,7.906-7.91
						C747.699,1586.216,744.152,1582.667,739.793,1582.667z M739.793,1597.401c-3.764,0-6.826-3.063-6.826-6.826
						c0-3.763,3.063-6.822,6.826-6.822c3.762,0,6.822,3.06,6.822,6.822C746.615,1594.339,743.555,1597.401,739.793,1597.401z
						 M739.793,1585.612c-2.738,0-4.965,2.227-4.965,4.963c0,2.738,2.227,4.966,4.965,4.966c2.736,0,4.962-2.228,4.962-4.966
						C744.755,1587.839,742.529,1585.612,739.793,1585.612z M726.533,1585.612c-1.326,0-2.403-1.077-2.403-2.402
						c0-1.324,1.077-2.402,2.403-2.402c1.324,0,2.402,1.078,2.402,2.402C728.936,1584.535,727.857,1585.612,726.533,1585.612z
						 M726.533,1582.667c-0.299,0-0.543,0.244-0.543,0.543c0,0.301,0.244,0.543,0.543,0.543s0.543-0.242,0.543-0.543
						C727.076,1582.911,726.832,1582.667,726.533,1582.667z"/>
				</g>
			</g>
		</g>
	</g>
	<g>
		<g>
			<path fill="#4AE5D9" d="M725.492,1305.436c3.586-1.346,6.15-4.799,6.15-8.848c0-5.215-4.243-9.457-9.459-9.457
				s-9.459,4.242-9.459,9.457c0,4.049,2.563,7.502,6.149,8.848c-8.021,0.996-14.255,7.84-14.255,16.125c0,1.104,0.896,2,2,2h31.128
				c0.006,0,0.014,0,0.014,0c1.111,0,2.006-0.896,2.006-2c0-0.104-0.007-0.205-0.022-0.303
				C739.595,1313.109,733.416,1306.42,725.492,1305.436z M716.725,1296.588c0-3.01,2.449-5.457,5.459-5.457s5.459,2.447,5.459,5.457
				c0,3.009-2.449,5.457-5.459,5.457S716.725,1299.597,716.725,1296.588z M708.782,1319.561c0.958-5.814,6.021-10.264,12.104-10.264
				h2.594c6.083,0,11.146,4.449,12.104,10.264H708.782z"/>
			<path fill="#4AE5D9" d="M696.801,1277.422c3.836,0,6.955-3.121,6.955-6.955c0-3.836-3.119-6.955-6.955-6.955
				s-6.957,3.119-6.957,6.955C689.844,1274.301,692.965,1277.422,696.801,1277.422z"/>
			<path fill="#4AE5D9" d="M709.9,1290.557c0-6.682-5.436-12.115-12.118-12.115h-1.966c-6.682,0-12.118,5.434-12.118,12.115
				c0,0.717,0.582,1.299,1.3,1.299h23.604C709.319,1291.855,709.9,1291.273,709.9,1290.557z"/>
			<path fill="#4AE5D9" d="M746.844,1277.422c3.836,0,6.957-3.121,6.957-6.955c0-3.836-3.121-6.955-6.957-6.955
				c-3.834,0-6.954,3.119-6.954,6.955C739.89,1274.301,743.01,1277.422,746.844,1277.422z"/>
			<path fill="#4AE5D9" d="M747.828,1278.441h-1.967c-6.682,0-12.118,5.434-12.118,12.115c0,0.717,0.582,1.299,1.3,1.299h23.603
				c0.718,0,1.3-0.582,1.3-1.299C759.945,1283.875,754.51,1278.441,747.828,1278.441z"/>
			<rect x="713.275" y="1275.795" fill="#4AE5D9" width="18.15" height="3"/>
			
				<rect x="696.671" y="1299.783" transform="matrix(0.7071 0.7071 -0.7071 0.7071 1126.1406 -116.1783)" fill="#4AE5D9" width="13.279" height="3"/>
			
				<rect x="740.648" y="1294.643" transform="matrix(-0.7071 -0.7071 0.7071 -0.7071 346.78 2746.2065)" fill="#4AE5D9" width="3" height="13.279"/>
		</g>
	</g>
	<g>
		<path fill="#4AE5D9" d="M310.778,985.535c-2.219,0.009-4.267,1.365-5.215,3.457c-1.329,2.956-0.12,6.528,2.697,7.962
			c0.8,0.406,1.655,0.612,2.546,0.612h0.02c2.223-0.011,4.27-1.366,5.211-3.456c1.334-2.955,0.127-6.527-2.691-7.961
			C312.549,985.741,311.692,985.535,310.778,985.535z M309.218,990.644c0.308-0.674,0.912-1.095,1.577-1.099l0.004-0.484l0,0v0.484
			c0.248,0,0.494,0.061,0.727,0.179c0.938,0.478,1.322,1.705,0.855,2.736c-0.295,0.66-0.925,1.088-1.603,1.088
			c-0.243,0-0.479-0.057-0.698-0.168C309.142,992.902,308.755,991.675,309.218,990.644z M310.807,997.082L310.807,997.082
			L310.807,997.082L310.807,997.082z"/>
		<path fill="#4AE5D9" d="M297.602,1004.427c2.225-0.01,4.271-1.367,5.213-3.459c1.336-2.955,0.127-6.527-2.693-7.959
			c-0.801-0.41-1.657-0.615-2.564-0.615c-2.221,0.008-4.27,1.365-5.215,3.459c-1.33,2.953-0.121,6.525,2.697,7.963
			c0.801,0.404,1.656,0.611,2.543,0.611H297.602z M297.578,995.923v0.482c0.254,0,0.491,0.057,0.725,0.176
			c0.938,0.479,1.324,1.705,0.857,2.738c-0.406,0.898-1.483,1.337-2.301,0.921c-0.939-0.478-1.324-1.708-0.857-2.741
			c0.302-0.672,0.906-1.092,1.57-1.094L297.578,995.923L297.578,995.923z M297.582,1003.942L297.582,1003.942L297.582,1003.942
			L297.582,1003.942z"/>
		<path fill="#4AE5D9" d="M291.414,1005.103c-2.225,0.008-4.27,1.364-5.212,3.455c-1.333,2.954-0.125,6.527,2.692,7.963
			c0.803,0.406,1.66,0.613,2.545,0.613h0.137l0.001-0.002c2.177-0.055,4.167-1.4,5.097-3.457c1.331-2.953,0.123-6.525-2.695-7.961
			C293.179,1005.308,292.325,1005.103,291.414,1005.103z M291.441,1008.63v0.482c0.246,0,0.488,0.059,0.717,0.176
			c0.938,0.479,1.324,1.706,0.858,2.738c-0.405,0.904-1.47,1.343-2.304,0.918c-0.938-0.477-1.321-1.705-0.854-2.738
			c0.304-0.672,0.906-1.092,1.573-1.094L291.441,1008.63L291.441,1008.63z"/>
		<path fill="#4AE5D9" d="M339.316,998.913c2.391,5.265,3.263,11.526,1.826,17.127c-0.787,3.062-2.748,7.971-6.783,6.99
			c-3.059-0.742-5.456-2.967-7.818-4.916c-2.436-2.009-4.957-4.004-7.841-5.337c-4.159-1.927-8.602-1.855-12.794-0.053
			c-5.133,2.203-8.801,6.433-13.474,9.331c-2.021,1.252-4.774,1.645-6.542-0.153c-1.447-1.47-2.129-3.608-2.596-5.567
			c-1.348-5.638-0.543-11.557,1.575-16.895c1.89-4.762,5.572-9.291,9.731-12.221c5.166-3.638,11.642-5.604,18.043-5.566
			c3.336,0.02,6.65,0.584,9.75,1.737c2.295,0.854,4.444,1.949,6.437,3.264c1.12-1.261,2.342-2.606,3.636-3.993
			c-2.586-1.834-5.123-3.182-7.691-4.093c-4.113-1.456-8.367-2.259-11.981-2.259c-0.28,0-0.56,0.006-0.825,0.016
			c-4.6,0.123-8.967,0.986-12.983,2.563c-8.659,3.398-15.781,10.349-19.056,18.591c-2.115,5.329-4.035,13.463-1.172,21.946
			c1.845,5.47,4.992,8.72,8.863,9.149c0.359,0.04,0.719,0.061,1.072,0.061c4.309,0,7.799-2.799,10.606-5.049l0.952-0.764
			c2.473-1.99,5.029-4.048,7.751-5.217c1.841-0.791,3.462-1.108,5.087-0.97c3.412,0.284,6.508,2.741,9.508,5.124l1.055,0.844
			c3.303,2.654,7.412,5.958,12.305,5.958c4.229-0.006,7.65-3.251,9.637-9.137c1.508-4.466,1.797-9.562,0.974-14.561
			c-0.533-3.23-1.531-6.422-2.969-9.374C341.945,996.841,340.467,998.015,339.316,998.913z"/>
		<path fill="#4AE5D9" d="M359.962,969.331c-0.756-1.043-1.923-1.618-3.288-1.618c-7.527,0-25.93,21.12-28.004,23.528l-0.668,0.777
			c-0.476-0.113-0.965-0.189-1.469-0.211l-0.219-0.005c-0.739,0-1.475,0.169-2.197,0.505c-0.117-0.01-0.237-0.014-0.352-0.014
			c-1.018,0-2.547,0.332-4.063,1.917c-1.623,1.697-3.407,5.167-3.193,7.479l-0.147,0.245c-0.418,0.707-0.852,1.433-1.299,2.174
			c-0.636,1.047-0.674,2.225-0.106,3.23c1.204,2.14,4.741,2.902,7.651,2.902h0.001c2.005,0,3.927-0.345,5.554-0.997
			c3.693-1.477,5.825-4.686,6.002-9.034c0.013-0.334,0-0.664-0.025-0.99l1.027-0.771c0.07-0.053,7.139-5.373,13.67-11.245
			C359.186,977.901,362.41,972.724,359.962,969.331z M322.143,996.549c0.092-0.098,0.186-0.167,0.275-0.248
			c-0.283,0.763-0.53,1.615-0.598,2.399c-0.439,0.167-0.922,0.371-1.41,0.613C320.803,998.38,321.394,997.33,322.143,996.549z
			 M326.906,1006.108c-1.215,0.486-2.74,0.754-4.298,0.754h-0.001c-2.573,0-4.176-0.688-4.611-1.074
			c0.438-0.725,0.86-1.436,1.27-2.126l0.973-1.632l-0.003-0.009c1.228-0.862,3.101-1.503,3.872-1.706c0,0-0.898-2.722,1.09-4.756
			l0.085-0.05c0.372-0.22,0.706-0.327,1.093-0.327c0,0,0.002,0,0.005,0c2.534,0.117,4.513,2.311,4.408,4.891
			C330.663,1003.097,329.358,1005.126,326.906,1006.108z M334.127,993.583l-0.76-0.871c7.563-8.548,18.762-19.33,22.748-20.405
			C355.105,975.581,345.644,984.747,334.127,993.583z"/>
		<path fill="#4AE5D9" d="M333.629,1019.319c2.223,0,4.275-1.35,5.23-3.437c1.344-2.95,0.15-6.525-2.661-7.972
			c-0.808-0.414-1.669-0.625-2.562-0.625c-2.225,0-4.276,1.35-5.229,3.436c-1.346,2.949-0.152,6.525,2.658,7.973
			C331.871,1019.108,332.734,1019.319,333.629,1019.319z M333.637,1011.298c0.248,0,0.492,0.06,0.725,0.181
			c0.939,0.481,1.317,1.71,0.848,2.741c-0.408,0.896-1.485,1.329-2.308,0.909c-0.936-0.482-1.313-1.712-0.845-2.741
			C332.365,1011.715,332.971,1011.298,333.637,1011.298z"/>
	</g>
	<g>
		<polygon fill="#4AE5D9" points="1119.431,1279.289 1162.192,1297.486 1206.538,1279.264 1163.1,1264.859 		"/>
		<g>
			<g>
				<path fill="#4AE5D9" d="M1135.264,1303.762c-0.828,0-1.5-0.671-1.5-1.5v-21.064c0-0.829,0.672-1.5,1.5-1.5s1.5,0.671,1.5,1.5
					v21.064C1136.764,1303.091,1136.092,1303.762,1135.264,1303.762z"/>
			</g>
		</g>
		<g>
			<g>
				<path fill="#4AE5D9" d="M1179.015,1294.817v19.602h-32v-19.131l-6-2.554v24.685c0,1.657,1.343,3,3,3h38c1.657,0,3-1.343,3-3
					v-25.067L1179.015,1294.817z"/>
			</g>
		</g>
	</g>
	<g>
		<path fill="#4AE5D9" d="M1186.971,1585.212c-0.504-3.688-3.583-6.535-7.296-6.535c-0.416,0-0.825,0.035-1.228,0.104
			c-1.907-2.087-4.462-3.419-7.225-3.784h0.003c-1.852-2.717-4.543-4.845-7.746-5.945c-1.389-8.423-8.725-14.785-17.436-14.785
			c-5.132,0-9.976,2.229-13.302,6.045c-0.811-0.205-1.646-0.309-2.501-0.309c-5.364,0-9.777,4.158-10.183,9.421
			c-5.66,2.39-9.469,7.991-9.469,14.234c0,8.154,6.377,14.924,14.539,15.412l0.208,0.012c0.436,0.032,0.877,0.034,1.314,0.007
			l25.22-0.006h-0.001c1.16,3.174,3.688,5.695,6.95,6.688c0.535,0.285,1.136,0.438,1.734,0.438l0.855,0.004
			c0.146,0.01,0.292,0.016,0.438,0.016c0.175,0,0.346-0.008,0.5-0.02l19.557,0.004c0.32,0.02,0.639,0.016,0.949-0.006l0.124-0.008
			c5.622-0.354,10.024-5.201,10.024-11.035C1193.002,1590.895,1190.598,1587.038,1186.971,1585.212z M1170.65,1574.936
			c-0.316-0.026-0.634-0.051-0.955-0.051C1170.017,1574.885,1170.336,1574.906,1170.65,1574.936z M1151.239,1596.331
			c-0.007-0.061-0.017-0.119-0.021-0.18C1151.223,1596.212,1151.233,1596.271,1151.239,1596.331z M1151.569,1598.131
			c0.004,0.014,0.008,0.027,0.012,0.042C1151.577,1598.158,1151.573,1598.145,1151.569,1598.131z M1151.348,1597.144
			c0.009,0.041,0.019,0.08,0.025,0.121C1151.366,1597.224,1151.356,1597.185,1151.348,1597.144z M1151.231,1594.083l-24.665,0.006
			l-0.18,0.007c-0.231,0.017-0.398,0.021-0.75-0.004l-0.055-0.001c-0.072-0.006-0.144-0.012-0.216-0.014
			c-5.485-0.351-9.776-4.92-9.776-10.419c0-4.67,3.155-8.81,7.674-10.067l2.097-0.584l-0.29-2.156
			c-0.027-0.211-0.042-0.423-0.042-0.636c0-2.874,2.339-5.212,5.213-5.212c0.793,0,1.555,0.175,2.263,0.52l1.928,0.939l1.222-1.763
			c2.357-3.401,6.242-5.433,10.391-5.433c6.684,0,12.239,5.224,12.647,11.892l0.116,1.896l1.856,0.396
			c1.752,0.375,3.325,1.19,4.619,2.311c-3.745,1.532-6.601,4.945-7.424,9.151C1154.216,1586.44,1151.625,1589.994,1151.231,1594.083
			z M1168.563,1574.942c-0.057,0.005-0.111,0.018-0.168,0.022C1168.452,1574.958,1168.507,1574.947,1168.563,1574.942z
			 M1167.437,1575.11c-0.027,0.006-0.055,0.014-0.082,0.02C1167.382,1575.124,1167.409,1575.116,1167.437,1575.11z
			 M1182.67,1601.208l-0.214,0.014c-0.09,0.008-0.179,0.007-0.267,0l-19.918-0.012l-0.424,0.02c-0.038,0-0.076-0.003-0.115-0.006
			l-0.728-0.012l-0.533-0.168c-2.532-0.67-4.299-3.088-4.299-5.879c0-2.85,1.896-5.342,4.508-5.926l1.842-0.411l0.109-1.884
			c0.229-3.959,3.332-7.06,7.063-7.06c2.331,0,4.435,1.16,5.772,3.183l1.231,1.863l1.99-1.016c0.311-0.158,0.642-0.238,0.985-0.238
			c1.306,0,2.368,1.166,2.368,2.6c0,0.115-0.008,0.229-0.021,0.343l-0.251,2.104l2.033,0.592c2.472,0.721,4.197,3.127,4.197,5.85
			C1188.002,1598.366,1185.658,1601.021,1182.67,1601.208z"/>
	</g>
	<g>
		<g>
			<g>
				<g>
					<g>
						<path fill="#4AE5D9" d="M-108.657,1002.431c-0.099,0-0.196-0.029-0.279-0.09l-5.318-3.873l-5.318,3.873
							c-0.083,0.061-0.181,0.09-0.279,0.09c-0.097,0-0.195-0.029-0.278-0.09c-0.166-0.12-0.236-0.334-0.174-0.529l2.023-6.266
							l-5.314-3.787c-0.168-0.119-0.24-0.334-0.178-0.529c0.063-0.197,0.246-0.331,0.453-0.331h6.521l2.092-6.47
							c0.063-0.195,0.246-0.329,0.452-0.329s0.39,0.134,0.452,0.329l2.092,6.47h6.522c0.207,0,0.39,0.134,0.452,0.331
							c0.063,0.195-0.009,0.41-0.176,0.529l-5.318,3.787l2.025,6.266c0.063,0.195-0.007,0.409-0.174,0.529
							C-108.461,1002.401-108.56,1002.431-108.657,1002.431z"/>
					</g>
				</g>
				<g>
					<g>
						<path fill="#4AE5D9" d="M-114.255,984.575l2.199,6.799h6.867l-5.603,3.988l2.134,6.594l-5.598-4.077l-5.598,4.077l2.13-6.594
							l-5.598-3.988h6.867L-114.255,984.575 M-105.188,991.374h0.005 M-114.255,983.625L-114.255,983.625
							c-0.411,0-0.776,0.267-0.904,0.659l-1.985,6.14h-6.176c-0.412,0-0.778,0.267-0.904,0.659
							c-0.127,0.395,0.018,0.824,0.354,1.064l5.031,3.584l-1.916,5.934c-0.126,0.392,0.014,0.82,0.348,1.062
							c0.164,0.12,0.361,0.18,0.556,0.18c0.196,0,0.394-0.06,0.56-0.182l5.038-3.669l5.038,3.669
							c0.166,0.122,0.363,0.182,0.56,0.182s0.392-0.06,0.558-0.18c0.333-0.241,0.473-0.67,0.346-1.062l-1.917-5.934l5.008-3.566
							c0.258-0.17,0.427-0.461,0.427-0.791c0-0.525-0.424-0.95-0.947-0.95h-0.005h-6.177l-1.985-6.14
							C-113.479,983.892-113.843,983.625-114.255,983.625L-114.255,983.625z"/>
					</g>
				</g>
			</g>
		</g>
		<g>
			<g>
				<path fill="#4AE5D9" d="M-106.531,1014.354h-5.301v8.221h-5.041v-8.221h-5.302v6.672h-0.001v1.549
					c0,2.939,2.359,5.302,5.303,5.302h5.041c2.941,0,5.301-2.362,5.301-5.302V1014.354z"/>
			</g>
		</g>
		<g>
			<g>
				<rect x="-128.648" y="1022.456" fill="#4AE5D9" width="28.59" height="5.699"/>
			</g>
		</g>
		<g>
			<g>
				<path fill="#4AE5D9" d="M-71.905,987.263l-17.856-0.035c-1.963,0-3.57,1.606-3.57,3.57v33.506c0,1.963,1.607,3.573,3.57,3.573
					h17.856c1.963,0,3.57-1.61,3.57-3.573v-33.506C-68.335,988.834-69.942,987.263-71.905,987.263z M-71.905,1021.683h-17.856
					v-30.109h17.856V1021.683z"/>
			</g>
		</g>
		<g>
			<g>
				<path fill="#4AE5D9" d="M-97.605,1012.208h-40.343c-1.262,0-2.287-1.027-2.287-2.287v-30.518c0-1.262,1.025-2.289,2.287-2.289
					h47.188c1.262,0,2.287,1.027,2.287,2.289v3.553l5.699,0.012v-3.564c0-4.404-3.582-7.987-7.986-7.987h-47.188
					c-4.403,0-7.985,3.583-7.985,7.987v30.518c0,4.402,3.582,7.985,7.985,7.985h40.343V1012.208z"/>
			</g>
		</g>
	</g>
</g>
<g>
	<path fill="#4AE5D9" d="M105.121,20.234c-0.21-0.652-0.817-1.095-1.504-1.093l-10.225,0.022L90.078,9.002
		c-0.211-0.649-0.819-1.089-1.503-1.087c-0.684,0.001-1.288,0.443-1.497,1.095l-3.266,10.175l-10.229,0.023
		c-0.686,0.001-1.291,0.445-1.498,1.1c-0.207,0.652,0.031,1.366,0.59,1.762l8.346,5.92l-3.154,9.833
		c-0.207,0.649,0.027,1.361,0.58,1.761c0.276,0.198,0.603,0.297,0.927,0.297c0.325-0.001,0.652-0.103,0.927-0.305l8.33-6.1
		l8.361,6.063c0.553,0.402,1.301,0.4,1.854-0.002c0.551-0.402,0.783-1.113,0.57-1.762l-3.2-9.818l8.321-5.957
		C105.096,21.601,105.332,20.887,105.121,20.234z M93.441,26.064c-0.559,0.398-0.793,1.116-0.58,1.77l2.053,6.304l-5.361-3.887
		c-0.555-0.402-1.305-0.4-1.855,0.004l-5.346,3.911l2.025-6.313c0.209-0.655-0.028-1.371-0.589-1.768l-5.267-3.734l6.445-0.015
		c0.684-0.002,1.287-0.444,1.495-1.097l2.128-6.625l2.157,6.618c0.214,0.649,0.819,1.089,1.503,1.087l6.443-0.014L93.441,26.064z"/>
	<path fill="#4AE5D9" d="M73.906,30.767l-3.188-1.668l0.639-3.729c0.095-0.552-0.178-1.1-0.673-1.36
		c-0.497-0.26-1.103-0.169-1.501,0.222l-2.701,2.646l-3.188-1.666c-0.497-0.262-1.103-0.171-1.505,0.224
		c-0.399,0.395-0.498,1.001-0.242,1.502l1.628,3.205l-2.597,2.546c-0.396,0.392-0.5,0.995-0.25,1.496
		c0.248,0.5,0.791,0.783,1.344,0.701l3.596-0.534l1.611,3.263c0.22,0.444,0.672,0.72,1.158,0.719c0.063,0,0.121-0.005,0.184-0.015
		c0.553-0.081,0.99-0.507,1.086-1.058l0.614-3.585l3.562-0.488c0.557-0.075,1-0.503,1.098-1.056
		C74.676,31.58,74.403,31.028,73.906,30.767z M68.633,31.249c-0.557,0.076-1,0.505-1.096,1.06l-0.102,0.603l-0.271-0.544
		c-0.219-0.446-0.671-0.72-1.159-0.719c-0.061,0-0.125,0.006-0.188,0.013l-0.602,0.092l0.438-0.43
		c0.401-0.393,0.5-1.003,0.246-1.504l-0.229-0.451l0.445,0.232c0.494,0.26,1.102,0.17,1.502-0.222l0.522-0.514l-0.123,0.723
		c-0.095,0.552,0.177,1.102,0.674,1.36l0.442,0.232L68.633,31.249z"/>
</g>
<g>
	<path fill="#4AE5D9" d="M-25.138,75.628h-0.005h-3.502l-1.127-3.481c-0.073-0.224-0.279-0.375-0.514-0.375
		s-0.438,0.152-0.512,0.375l-1.125,3.481h-3.506c-0.23,0-0.439,0.152-0.514,0.376c-0.069,0.223,0.011,0.467,0.202,0.603l2.853,2.033
		l-1.088,3.363c-0.069,0.223,0.012,0.467,0.201,0.603c0.092,0.069,0.205,0.103,0.313,0.103c0.111,0,0.225-0.033,0.318-0.103
		l2.856-2.081l2.86,2.081c0.094,0.069,0.205,0.103,0.315,0.103c0.111,0,0.223-0.033,0.316-0.103c0.191-0.136,0.269-0.38,0.195-0.603
		l-1.087-3.363l2.84-2.023c0.146-0.096,0.243-0.261,0.243-0.449C-24.602,75.868-24.845,75.628-25.138,75.628z"/>
	<path fill="#4AE5D9" d="M-15.753,64.424h-29.063c-2.297,0-4.166,1.935-4.166,4.313v16.754c0,2.379,1.869,4.313,4.166,4.313h3.682
		v4.313h3.374v-4.313h14.97v4.313h3.375v-4.313h3.663c2.298,0,4.168-1.935,4.168-4.313V68.737
		C-11.585,66.358-13.455,64.424-15.753,64.424z M-14.738,85.491c0,0.64-0.455,1.159-1.015,1.159h-29.063
		c-0.555,0-1.01-0.52-1.01-1.159V68.737c0-0.639,0.455-1.16,1.01-1.16h29.063c0.56,0,1.015,0.521,1.015,1.16V85.491z"/>
</g>
<g>
	<path fill="#4AE5D9" d="M11.417,90.078h5.662c0.777,0,1.408-0.63,1.408-1.408V67.538c0-0.777-0.631-1.407-1.408-1.407h-5.662
		c-0.777,0-1.408,0.63-1.408,1.407V88.67C10.009,89.448,10.64,90.078,11.417,90.078z M12.825,68.946h2.846v18.316h-2.846V68.946z"/>
	<path fill="#4AE5D9" d="M22.265,90.078h5.662c0.777,0,1.407-0.63,1.407-1.408V74.75c0-0.777-0.63-1.408-1.407-1.408h-5.662
		c-0.777,0-1.408,0.631-1.408,1.408v13.92C20.856,89.448,21.487,90.078,22.265,90.078z M23.673,76.158h2.845v11.104h-2.845V76.158z"
		/>
	<path fill="#4AE5D9" d="M39.122,58.918H33.46c-0.777,0-1.406,0.631-1.406,1.408V88.67c0,0.778,0.629,1.408,1.406,1.408h5.662
		c0.777,0,1.408-0.63,1.408-1.408V60.326C40.53,59.549,39.899,58.918,39.122,58.918z M37.714,87.263h-2.846V61.734h2.846V87.263z"/>
	<path fill="#4AE5D9" d="M39.621,92.091H10.868c-0.442,0-0.8,0.324-0.8,0.726v1.615c0,0.401,0.357,0.726,0.8,0.726h28.753
		c0.441,0,0.8-0.324,0.8-0.726v-1.615C40.421,92.415,40.063,92.091,39.621,92.091z"/>
</g>
<g>
	<path fill="#4AE5D9" d="M-30.299,9.512c-9.031,0-16.375,7.347-16.375,16.376c0,0.331,0.012,0.66,0.031,0.985l-1.444,0.519
		l0.446,1.245l1.136-0.407c0.095,0.664,0.231,1.315,0.403,1.951l-1.219,0.438l0.447,1.245l1.17-0.419
		c2.279,6.303,8.323,10.82,15.404,10.82c9.029,0,16.376-7.347,16.376-16.377C-13.923,16.858-21.27,9.512-30.299,9.512z
		 M-30.299,39.214c-5.76,0-10.675-3.675-12.532-8.8l1.483-0.531l-0.446-1.246l-1.425,0.511c-0.162-0.642-0.277-1.3-0.342-1.974
		l1.443-0.518l-0.445-1.245l-1.059,0.378c0.053-7.302,6.008-13.226,13.322-13.226c7.346,0,13.324,5.978,13.324,13.324
		C-16.975,33.235-22.953,39.214-30.299,39.214z"/>
	<path fill="#4AE5D9" d="M-24.693,24.837l-7.229-4.82c-0.382-0.254-0.893-0.279-1.3-0.063c-0.411,0.221-0.665,0.647-0.665,1.114
		v9.64c0,0.466,0.254,0.893,0.666,1.113c0.183,0.098,0.389,0.15,0.598,0.15c0.252,0,0.493-0.074,0.701-0.214l7.229-4.819
		c0.353-0.234,0.563-0.627,0.563-1.051C-24.131,25.463-24.341,25.07-24.693,24.837z"/>
</g>
<g>
	<path fill="#4AE5D9" d="M-144.675,85.909c1.597-0.805,2.638-2.458,2.638-4.262c0-2.633-2.142-4.773-4.775-4.773
		c-2.633,0-4.773,2.141-4.773,4.773c0,1.805,1.039,3.457,2.633,4.261c-3.798,0.715-6.602,4.05-6.602,7.96
		c0,0.62,0.506,1.125,1.127,1.125h15.229c0.63,0,1.135-0.505,1.135-1.125c0-0.059-0.004-0.119-0.013-0.174
		C-138.145,89.884-140.946,86.614-144.675,85.909z M-149.336,81.647c0-1.392,1.133-2.523,2.523-2.523s2.522,1.132,2.522,2.523
		c0,1.391-1.132,2.523-2.522,2.523S-149.336,83.038-149.336,81.647z M-153.193,92.74c0.533-2.75,2.922-4.728,5.746-4.728h1.27
		c2.821,0,5.211,1.978,5.745,4.728H-153.193z"/>
	<path fill="#4AE5D9" d="M-159.559,71.213c1.861,0,3.376-1.515,3.376-3.378c0-1.861-1.515-3.375-3.376-3.375
		s-3.377,1.514-3.377,3.375C-162.936,69.698-161.42,71.213-159.559,71.213z"/>
	<path fill="#4AE5D9" d="M-153.327,77.164c0-3.183-2.591-5.771-5.774-5.771h-0.914c-3.184,0-5.773,2.589-5.773,5.771
		c0,0.413,0.336,0.749,0.75,0.749h10.961C-153.664,77.913-153.327,77.577-153.327,77.164z"/>
	<path fill="#4AE5D9" d="M-134.229,71.213c1.862,0,3.377-1.515,3.377-3.378c0-1.861-1.515-3.375-3.377-3.375
		c-1.863,0-3.377,1.514-3.377,3.375C-137.605,69.698-136.092,71.213-134.229,71.213z"/>
	<path fill="#4AE5D9" d="M-133.771,71.393h-0.913c-3.185,0-5.774,2.589-5.774,5.771c0,0.413,0.336,0.749,0.75,0.749h10.961
		c0.414,0,0.75-0.336,0.75-0.749C-127.998,73.981-130.588,71.393-133.771,71.393z"/>
	<path fill="#4AE5D9" d="M-151.25,73.088h8.879c0.082,0,0.147-0.065,0.147-0.146v-1.468c0-0.081-0.065-0.146-0.147-0.146h-8.879
		c-0.081,0-0.146,0.065-0.146,0.146v1.468C-151.396,73.022-151.331,73.088-151.25,73.088z"/>
	<path fill="#4AE5D9" d="M-154.271,86.051c0.039,0,0.077-0.015,0.104-0.044l1.039-1.04c0.027-0.026,0.043-0.063,0.043-0.103
		c0-0.04-0.016-0.077-0.043-0.105l-4.596-4.592c-0.027-0.027-0.064-0.043-0.104-0.043c-0.04,0-0.077,0.016-0.105,0.044l-1.035,1.038
		c-0.059,0.057-0.059,0.15,0,0.207l4.592,4.594C-154.348,86.036-154.31,86.051-154.271,86.051z"/>
	<path fill="#4AE5D9" d="M-135.162,80.168c-0.029-0.028-0.067-0.044-0.104-0.044c-0.038,0-0.075,0.016-0.104,0.043l-4.594,4.592
		c-0.059,0.058-0.059,0.15,0,0.208l1.036,1.04c0.028,0.027,0.065,0.044,0.104,0.044s0.076-0.015,0.104-0.043l4.596-4.595
		c0.027-0.027,0.043-0.064,0.043-0.104s-0.016-0.077-0.043-0.104L-135.162,80.168z"/>
</g>
<g>
	<path fill="#4AE5D9" d="M22.857,19.232c-1.141-0.121-2.27,0.46-2.875,1.479c-0.849,1.443-0.429,3.347,0.936,4.242
		c0.387,0.253,0.814,0.408,1.272,0.458l0.011,0.002c1.141,0.12,2.271-0.461,2.871-1.48c0.854-1.441,0.437-3.346-0.932-4.241
		C23.754,19.438,23.326,19.284,22.857,19.232z M23.287,22.879c-0.188,0.321-0.537,0.507-0.883,0.469
		c-0.126-0.014-0.243-0.058-0.35-0.126c-0.455-0.298-0.584-0.952-0.289-1.455c0.197-0.328,0.531-0.51,0.873-0.475l0.029-0.248
		l-0.027,0.248c0.127,0.014,0.25,0.06,0.362,0.134C23.457,21.724,23.586,22.376,23.287,22.879z"/>
	<path fill="#4AE5D9" d="M15.059,27.674c1.145,0.12,2.271-0.461,2.873-1.482c0.854-1.442,0.434-3.345-0.934-4.239
		c-0.389-0.256-0.816-0.41-1.282-0.461c-1.143-0.121-2.269,0.461-2.876,1.481c-0.848,1.441-0.428,3.345,0.939,4.242
		c0.387,0.254,0.813,0.407,1.27,0.459H15.059z M14.629,24.024c0.192-0.326,0.527-0.508,0.867-0.471l0.031-0.248L15.5,23.554
		c0.131,0.015,0.25,0.056,0.361,0.129c0.457,0.3,0.584,0.952,0.287,1.457c-0.26,0.438-0.838,0.601-1.233,0.34
		C14.458,25.183,14.33,24.528,14.629,24.024z"/>
	<path fill="#4AE5D9" d="M13.254,28.333c-0.388-0.252-0.814-0.407-1.283-0.459c-1.142-0.122-2.271,0.459-2.87,1.48
		c-0.853,1.441-0.434,3.345,0.931,4.242c0.391,0.254,0.818,0.409,1.273,0.459l0.068,0.008l0.001-0.002
		c1.122,0.095,2.222-0.484,2.815-1.488C15.04,31.133,14.62,29.231,13.254,28.333z M12.402,31.52
		c-0.257,0.442-0.829,0.607-1.233,0.343c-0.454-0.298-0.583-0.951-0.286-1.454c0.195-0.329,0.527-0.511,0.869-0.474l0.033-0.248
		l-0.027,0.249c0.129,0.014,0.249,0.057,0.358,0.131C12.572,30.365,12.701,31.017,12.402,31.52z"/>
	<path fill="#4AE5D9" d="M40.054,24.096c-0.922,0.753-1.744,1.406-2.386,1.907c1.333,2.931,1.817,6.418,1.019,9.538
		c-0.439,1.706-1.531,4.44-3.779,3.894c-1.704-0.413-3.038-1.652-4.354-2.738c-1.354-1.119-2.761-2.23-4.367-2.973
		c-2.317-1.072-4.792-1.033-7.126-0.029c-2.859,1.229-4.904,3.584-7.506,5.199c-1.125,0.697-2.658,0.916-3.645-0.086
		c-0.807-0.82-1.184-2.011-1.445-3.102c-0.75-3.141-0.302-6.438,0.878-9.41c1.052-2.652,3.104-5.176,5.421-6.809
		c2.877-2.025,6.484-3.119,10.051-3.1c1.857,0.012,3.701,0.326,5.43,0.969c1.279,0.475,2.477,1.085,3.586,1.817
		c0.623-0.703,1.303-1.452,2.023-2.224c-1.439-1.021-2.854-1.773-4.283-2.281c-2.29-0.811-4.661-1.256-6.674-1.256
		c-0.156,0-0.313,0.002-0.461,0.008c-2.561,0.067-4.992,0.549-7.23,1.428c-4.823,1.893-8.791,5.764-10.615,10.354
		c-1.178,2.969-2.246,7.499-0.651,12.225c1.027,3.047,2.779,4.857,4.937,5.096c0.199,0.022,0.401,0.034,0.598,0.034
		c2.398,0,4.344-1.559,5.906-2.813l0.531-0.425c1.377-1.109,2.801-2.255,4.317-2.906c1.024-0.44,1.929-0.618,2.834-0.54
		c1.9,0.158,3.624,1.527,5.296,2.854l0.588,0.47c1.839,1.477,4.129,3.317,6.854,3.317c2.354-0.003,4.262-1.81,5.367-5.088
		c0.84-2.487,1-5.326,0.541-8.111C41.41,27.518,40.854,25.74,40.054,24.096z"/>
	<path fill="#4AE5D9" d="M48.377,10.41c-0.39-0.536-0.992-0.835-1.698-0.835c-3.882,0-13.382,10.901-14.454,12.146l-0.344,0.399
		c-0.247-0.059-0.496-0.098-0.759-0.107l-0.112-0.004c-0.383,0-0.761,0.089-1.135,0.262c-0.059-0.004-0.121-0.008-0.18-0.008
		c-0.526,0-1.314,0.171-2.1,0.989c-0.836,0.878-1.758,2.669-1.648,3.861l-0.076,0.128c-0.215,0.363-0.438,0.737-0.669,1.121
		c-0.328,0.541-0.349,1.147-0.056,1.668c0.622,1.104,2.447,1.496,3.949,1.496h0.002c0.813,0,1.598-0.113,2.306-0.324
		c-0.078,0.101-0.153,0.204-0.22,0.315c-0.857,1.44-0.447,3.343,0.918,4.246c0.386,0.258,0.819,0.414,1.278,0.465
		c1.14,0.125,2.272-0.451,2.88-1.469c0.858-1.439,0.448-3.344-0.914-4.246c-0.393-0.257-0.822-0.415-1.281-0.465
		c-0.195-0.021-0.391-0.016-0.583,0.003c0.961-0.889,1.517-2.149,1.579-3.702c0.008-0.173,0-0.343-0.012-0.513l0.529-0.396
		c0.037-0.027,3.686-2.774,7.055-5.807C47.978,14.833,49.641,12.161,48.377,10.41z M29.098,29.784h-0.002
		c-1.329,0-2.153-0.357-2.379-0.557c0.226-0.374,0.444-0.741,0.654-1.098l0.502-0.842l-0.002-0.004c0.635-0.446,1.602-0.774,2-0.881
		c0,0-0.466-1.405,0.561-2.455l0.048-0.025c0.188-0.113,0.361-0.17,0.563-0.17c0,0,0,0,0.002,0c1.305,0.063,2.326,1.193,2.274,2.525
		c-0.064,1.561-0.739,2.608-2.006,3.116C30.689,29.646,29.9,29.784,29.098,29.784z M33.838,32.11
		c0.128,0.014,0.249,0.058,0.361,0.133c0.455,0.3,0.581,0.954,0.279,1.456c-0.258,0.437-0.836,0.598-1.234,0.336
		c-0.453-0.3-0.578-0.954-0.279-1.455C33.16,32.251,33.496,32.072,33.838,32.11z M35.042,22.929l-0.392-0.449
		c3.902-4.412,9.685-9.979,11.741-10.533C45.871,13.636,40.989,18.368,35.042,22.929z"/>
</g>
<path fill="#4AE5D9" d="M-71.081,132.796c-0.309-1.805-1.856-3.15-3.651-3.15c-0.169,0-0.327,0.011-0.482,0.031
	c-0.895-0.934-2.072-1.549-3.339-1.743c-0.878-1.252-2.133-2.219-3.556-2.741c-0.742-4.066-4.253-7.002-8.404-7.002
	c-2.416,0-4.714,1.022-6.33,2.81c-0.35-0.078-0.714-0.117-1.084-0.117c-2.566,0-4.74,1.965-5.013,4.5
	c-2.714,1.206-4.459,3.878-4.459,6.849c0,3.961,3.102,7.246,7.058,7.479l0.097,0.007c0.214,0.016,0.457,0.017,0.633,0.004
	l11.661-0.003c0.606,1.505,1.849,2.667,3.315,3.111c0.291,0.152,0.613,0.233,0.932,0.233l0.379,0.001
	c0.077,0.007,0.153,0.008,0.228,0.008c0.087,0,0.177-0.003,0.232-0.009l9.163,0.001c0.165,0.009,0.278,0.01,0.537-0.008
	c2.769-0.173,4.937-2.556,4.937-5.426C-68.229,135.609-69.344,133.726-71.081,132.796z M-73.426,140.473l-0.125-0.25l-9.357-0.007
	l-0.238,0.01l-0.306-0.006l-0.227-0.073c-1.079-0.283-1.833-1.317-1.833-2.515c0-1.222,0.809-2.289,1.922-2.538l0.863-0.193
	c0.109-0.024,0.188-0.118,0.195-0.229l0.051-0.884c0.102-1.726,1.448-3.077,3.065-3.077c1.006,0,1.918,0.504,2.501,1.381
	l0.576,0.874c0.069,0.106,0.208,0.143,0.322,0.085l0.934-0.477c0.106-0.055,0.221-0.082,0.35-0.082c0.476,0,0.863,0.435,0.863,0.968
	c0,0.025-0.003,0.052-0.009,0.131l-0.118,0.989c-0.015,0.121,0.061,0.235,0.178,0.27l0.954,0.277c1.054,0.307,1.79,1.336,1.79,2.505
	c0,1.371-0.996,2.506-2.275,2.584l-0.099,0.009L-73.426,140.473z M-100.199,136.871c-2.439-0.158-4.352-2.195-4.352-4.64
	c0-2.079,1.405-3.923,3.416-4.482l0.984-0.272c0.121-0.033,0.198-0.15,0.182-0.274l-0.137-1.015
	c-0.013-0.087-0.017-0.176-0.017-0.264c0-1.21,0.984-2.194,2.194-2.194c0.335,0,0.655,0.073,0.951,0.216l0.903,0.442
	c0.108,0.054,0.245,0.02,0.315-0.082l0.575-0.828c1.06-1.529,2.805-2.442,4.669-2.442c3.006,0,5.504,2.348,5.686,5.344l0.053,0.892
	c0.007,0.112,0.088,0.206,0.198,0.229l0.87,0.186c0.63,0.135,1.227,0.402,1.747,0.781c-1.641,0.809-2.828,2.337-3.229,4.175
	c-1.659,0.75-2.856,2.382-3.113,4.232l-11.358,0.002l-0.09,0.004c-0.098,0.006-0.125,0.009-0.362-0.003v0.25L-100.199,136.871z"/>
<g>
	<path fill="#4AE5D9" d="M-84.795,21.949c0-0.287-0.229-0.519-0.517-0.519h-0.003h-3.371l-1.083-3.351
		c-0.07-0.215-0.269-0.359-0.494-0.359c-0.225,0-0.424,0.145-0.494,0.359l-1.082,3.351h-3.371c-0.225,0-0.424,0.146-0.494,0.359
		c-0.068,0.216,0.011,0.45,0.193,0.581l2.746,1.956l-1.045,3.237c-0.07,0.215,0.007,0.449,0.189,0.58
		c0.089,0.066,0.197,0.098,0.303,0.098c0.107,0,0.216-0.031,0.306-0.099l2.749-2.002l2.75,2.002c0.09,0.067,0.197,0.099,0.305,0.099
		s0.215-0.031,0.305-0.098c0.182-0.131,0.258-0.365,0.189-0.58l-1.047-3.237l2.734-1.946
		C-84.887,22.288-84.795,22.129-84.795,21.949z"/>
	<path fill="#4AE5D9" d="M-67.276,18.975l-9.533-0.018c-1.338,0-2.426,1.088-2.426,2.428v17.884c0,1.339,1.088,2.428,2.426,2.428
		h9.531c1.339,0,2.43-1.089,2.43-2.428V21.385C-64.849,20.056-65.939,18.975-67.276,18.975z M-67.798,38.68h-8.49V21.6h8.49V38.68z"
		/>
	<path fill="#4AE5D9" d="M-104.622,31.363V14.709c0-0.688,0.56-1.25,1.247-1.25h25.753c0.688,0,1.248,0.562,1.248,1.25v1.938
		l3.11,0.007v-1.945c0-2.404-1.955-4.359-4.358-4.359h-25.753c-2.403,0-4.357,1.955-4.357,4.359v16.654
		c0,2.403,1.954,4.358,4.357,4.358h8.608v1.704v0.779H-98.3v3.11h15.604v-3.11h-3.533v-2.483h4.873v-3.109h-22.019
		C-104.063,32.612-104.622,32.052-104.622,31.363z M-91.873,35.722h2.752v2.483h-2.752V35.722z"/>
</g>
<g>
	<path fill="#4AE5D9" d="M-77.996,90.22h-15.538v-9.289l-2.915-1.24v11.986c0,0.805,0.652,1.458,1.457,1.458h18.45
		c0.807,0,1.459-0.653,1.459-1.458V79.504l-2.913,1.197V90.22z"/>
	<path fill="#4AE5D9" d="M-63.962,71.65l-21.447-7.113c-0.077-0.025-0.157-0.038-0.236-0.038s-0.159,0.013-0.235,0.038l-21.56,7.125
		c-0.298,0.099-0.503,0.372-0.515,0.686c-0.011,0.313,0.175,0.601,0.465,0.72l5.297,2.175c0,0,0.003,8.407,0.003,8.496
		c0,0.672,0.545,1.217,1.218,1.217c0.671,0,1.215-0.545,1.215-1.217c0-0.089-0.002-7.396-0.002-7.396l13.373,5.705
		c0.094,0.041,0.193,0.061,0.294,0.061c0.097,0,0.194-0.019,0.285-0.057l21.895-8.996c0.29-0.119,0.476-0.406,0.464-0.72
		C-63.459,72.022-63.664,71.749-63.962,71.65z"/>
</g>
<path fill="#4AE5D9" d="M-131.919,13.973h-0.874v-2.039h-0.637h-1.834h-0.654v2.039h-1.785v-1.988h0.002v-0.866
	c0-1.645-1.317-2.965-2.965-2.965h-8.894c-1.646,0-2.965,1.32-2.965,2.965v2.854h-1.769v-2.039h-3.125v2.039h-0.888
	c-2.463,0-4.467,2.003-4.467,4.466v17.064c0,2.463,2.004,4.466,4.467,4.466h26.387c2.463,0,4.467-2.003,4.467-4.466V18.438
	C-127.452,15.976-129.456,13.973-131.919,13.973z M-149.56,11.118h8.894v2.854h-8.894V11.118z M-130.64,35.503
	c0,0.705-0.574,1.279-1.279,1.279h-26.387c-0.705,0-1.279-0.574-1.279-1.279v-2.859h28.945V35.503z M-130.64,28.989h-28.945V18.438
	c0-0.706,0.574-1.279,1.279-1.279h0.888v2.861h3.125v-2.861h1.769v2.852h2.965v-2.852h8.894v2.852h2.963v-2.852h1.785v2.861h3.125
	v-2.861h0.874c0.705,0,1.279,0.573,1.279,1.279V28.989z"/>
<g>
	<polygon fill="#4AE5D9" points="76.942,77.481 80.696,77.475 80.692,74.085 76.937,74.093 76.93,70.337 73.54,70.344 73.548,74.1 
		69.789,74.108 69.797,77.497 73.556,77.488 73.562,81.247 76.95,81.238 	"/>
	<path fill="#4AE5D9" d="M92.629,60.48l-14.628-0.019c-1.545,0-2.805,1.259-2.805,2.808v3.521l1.726-0.004l2.049-0.004v-2.84h12.687
		v26.079H78.971v-5.24l-2.009,0.006l-1.766,0.003v6.265c0,1.549,1.26,2.808,2.805,2.808h14.626c1.546,0,2.808-1.259,2.808-2.808
		V63.27C95.435,61.732,94.175,60.48,92.629,60.48z"/>
</g>
<g>
	<path fill="#4AE5D9" d="M-128.615,127.247h-0.322v-0.763c0-0.716-0.58-1.298-1.298-1.298h-2.198c-0.716,0-1.297,0.582-1.297,1.298
		v0.763l-11.996,0.001c-1.974,0-3.578,1.664-3.578,3.711v10.25c0,2.047,1.604,3.711,3.578,3.711l17.111-0.001
		c1.975,0,3.58-1.663,3.58-3.711v-10.25C-125.035,128.911-126.641,127.247-128.615,127.247z M-127.434,141.208
		c0,0.724-0.529,1.313-1.182,1.313l-17.111,0.001c-0.651,0-1.179-0.59-1.179-1.313v-10.25c0-0.724,0.527-1.313,1.179-1.313
		l17.111-0.001c0.652,0,1.182,0.589,1.182,1.313V141.208z"/>
	<path fill="#4AE5D9" d="M-136.77,131.271c-2.779,0-5.04,2.259-5.04,5.038s2.261,5.04,5.04,5.04c2.777,0,5.039-2.261,5.039-5.04
		S-133.992,131.271-136.77,131.271z M-136.77,138.87c-1.412,0-2.561-1.149-2.561-2.561c0-1.412,1.148-2.559,2.561-2.559
		c1.411,0,2.559,1.146,2.559,2.559C-134.211,137.721-135.358,138.87-136.77,138.87z"/>
	<circle fill="#4AE5D9" cx="-143.791" cy="132.511" r="1.24"/>
	<rect x="-161.952" y="120.209" fill="#4AE5D9" width="3.047" height="3.047"/>
	<rect x="-147.471" y="120.209" fill="#4AE5D9" width="3.047" height="3.047"/>
	<rect x="-161.952" y="130.149" fill="#4AE5D9" width="3.047" height="3.047"/>
	<rect x="-161.952" y="125.599" fill="#4AE5D9" width="3.047" height="3.047"/>
	<rect x="-161.952" y="135.224" fill="#4AE5D9" width="3.047" height="3.047"/>
	<path fill="#4AE5D9" d="M-151.362,140.341h-11.423c-0.492,0-0.891-0.441-0.891-0.982l-0.002-20.354c0-0.542,0.4-0.984,0.891-0.984
		h19.048c0.491,0,0.891,0.442,0.891,0.984v6.187h2.659v-6.188c0-2.008-1.592-3.644-3.55-3.643h-19.048
		c-1.958,0-3.55,1.635-3.55,3.644v20.354c0,2.008,1.592,3.641,3.552,3.641h11.705c-0.181-0.564-0.282-1.165-0.282-1.79V140.341z"/>
	<path fill="#4AE5D9" d="M-151.362,132.055v-0.667c0-0.426,0.048-0.839,0.134-1.238h-5.869v8.121h5.735v-1.905h-3.804v-4.311
		H-151.362z"/>
	<path fill="#4AE5D9" d="M-149.008,120.209h-8.09v8.437h6.212c0.409-0.951,1.062-1.766,1.878-2.367V120.209z M-150.936,126.741
		h-4.23l-0.002-4.627h4.232V126.741z"/>
</g>
</svg>
