<?xml version="1.0" encoding="utf-8"?>
<!-- Generator: Adobe Illustrator 16.0.0, SVG Export Plug-In . SVG Version: 6.00 Build 0)  -->
<!DOCTYPE svg PUBLIC "-//W3C//DTD SVG 1.1//EN" "http://www.w3.org/Graphics/SVG/1.1/DTD/svg11.dtd">
<svg version="1.1" xmlns="http://www.w3.org/2000/svg" xmlns:xlink="http://www.w3.org/1999/xlink" x="0px" y="0px" width="70px"
	 height="48.333px" viewBox="0 0 70 48.333" enable-background="new 0 0 70 48.333" xml:space="preserve">
<g id="podklad" display="none">
</g>
<g id="Layer_9">
</g>
<g id="Layer_1">
</g>
<g id="podklad_1_">
</g>
<g id="OBD_x5F_prvky">
</g>
<g id="Layer_7">
</g>
<g id="texty">
</g>
<g id="OTVR_x5F_hambac">
</g>
<g id="lista">
	<g>
		<path fill="#FF6427" d="M61.811,20.894h-2.385h-2.423h-2.384H15.527h-2.385h-2.422H8.336c-2.082,0-3.769,1.758-3.769,3.925
			c0,2.168,1.687,3.925,3.769,3.925h2.385h2.422h2.385h39.092h2.384h2.423h2.385c2.082,0,3.769-1.756,3.769-3.925
			C65.579,22.651,63.893,20.894,61.811,20.894z"/>
		<path fill="#FF6427" d="M61.811,35.652h-2.385h-2.423h-2.384H15.527h-2.385h-2.422H8.336c-2.082,0-3.769,1.757-3.769,3.924
			c0,2.168,1.687,3.925,3.769,3.925h2.385h2.422h2.385h39.092h2.384h2.423h2.385c2.082,0,3.769-1.757,3.769-3.925
			C65.579,37.409,63.893,35.652,61.811,35.652z"/>
		<path fill="#FF6427" d="M8.336,13.986h2.385h2.422h2.385h39.092h2.384h2.423h2.385c2.082,0,3.769-1.758,3.769-3.925
			c0-2.167-1.687-3.924-3.769-3.924h-2.385h-2.423h-2.384H15.527h-2.385h-2.422H8.336c-2.082,0-3.769,1.757-3.769,3.924
			C4.567,12.228,6.254,13.986,8.336,13.986z"/>
	</g>
</g>
<g id="Layer_14">
</g>
<g id="_x33__x5F_ŘADEK_x5F_icon">
</g>
<g id="slunicko" display="none">
</g>
<g id="mesice">
</g>
<g id="kryti">
</g>
</svg>
