<?xml version="1.0" encoding="utf-8"?>
<!-- Generator: Adobe Illustrator 16.0.0, SVG Export Plug-In . SVG Version: 6.00 Build 0)  -->
<!DOCTYPE svg PUBLIC "-//W3C//DTD SVG 1.1//EN" "http://www.w3.org/Graphics/SVG/1.1/DTD/svg11.dtd">
<svg version="1.1" xmlns="http://www.w3.org/2000/svg" xmlns:xlink="http://www.w3.org/1999/xlink" x="0px" y="0px" width="63.5px"
	 height="63px" viewBox="0 0 63.5 63" enable-background="new 0 0 63.5 63" xml:space="preserve">
<g id="OTVR_x5F_hambac">
</g>
<g id="lista">
	<g>
		<path fill="#4AE4D8" d="M43.535,5.127H21.033c-8.61,0-15.616,7.006-15.616,15.618v22.503c0,8.612,7.006,15.618,15.616,15.618
			h22.502c8.612,0,15.619-7.006,15.619-15.618V20.746C59.154,12.134,52.147,5.127,43.535,5.127z M43.535,52.888H21.033
			c-5.315,0-9.64-4.324-9.64-9.64V20.746c0-5.315,4.324-9.64,9.64-9.64h22.502c5.317,0,9.643,4.324,9.643,9.64v22.503
			C53.178,48.564,48.853,52.888,43.535,52.888z"/>
		<path fill="#4AE4D8" d="M32.286,17.871c-7.787,0-14.123,6.336-14.123,14.125c0,7.789,6.336,14.126,14.123,14.126
			c7.788,0,14.124-6.337,14.124-14.126C46.41,24.208,40.074,17.871,32.286,17.871z M32.286,40.146c-4.492,0-8.147-3.656-8.147-8.149
			c0-4.492,3.655-8.146,8.147-8.146c4.491,0,8.146,3.654,8.146,8.146C40.432,36.49,36.777,40.146,32.286,40.146z"/>
		<path fill="#4AE4D8" d="M46.234,13.892c-2.186,0-3.964,1.778-3.964,3.964s1.778,3.964,3.964,3.964
			c2.187,0,3.965-1.778,3.965-3.964S48.421,13.892,46.234,13.892z"/>
	</g>
</g>
</svg>
