<?xml version="1.0" encoding="utf-8"?>
<!-- Generator: Adobe Illustrator 16.0.0, SVG Export Plug-In . SVG Version: 6.00 Build 0)  -->
<!DOCTYPE svg PUBLIC "-//W3C//DTD SVG 1.1//EN" "http://www.w3.org/Graphics/SVG/1.1/DTD/svg11.dtd">
<svg version="1.1" xmlns="http://www.w3.org/2000/svg" xmlns:xlink="http://www.w3.org/1999/xlink" x="0px" y="0px" width="59px"
	 height="58.5px" viewBox="0 0 59 58.5" enable-background="new 0 0 59 58.5" xml:space="preserve">
<g id="OTVR_x5F_hambac">
</g>
<g id="lista">
	<g>
		<path fill="#4AE4D8" d="M47.107,4.615H12.025c-4.308,0-7.795,3.491-7.795,7.796v35.083c0,4.306,3.487,7.796,7.795,7.796h35.082
			c4.306,0,7.799-3.49,7.799-7.796V12.411C54.906,8.105,51.413,4.615,47.107,4.615z M22.126,44.572h-6.069v-19.53h6.069V44.572z
			 M19.093,22.373c-1.944,0-3.52-1.578-3.52-3.52c0-1.94,1.575-3.519,3.52-3.519c1.939,0,3.514,1.579,3.514,3.519
			C22.606,20.795,21.032,22.373,19.093,22.373z M44.858,44.572h-6.067v-9.5c0-2.263-0.038-5.179-3.15-5.179
			c-3.157,0-3.642,2.47-3.642,5.016v9.662h-6.066v-19.53l0,0h5.821v2.667h0.083c0.81-1.535,2.787-3.154,5.739-3.154
			c6.15,0,7.282,4.046,7.282,9.303V44.572z"/>
	</g>
</g>
</svg>
