<?xml version="1.0" encoding="utf-8"?>
<!-- Generator: Adobe Illustrator 16.0.0, SVG Export Plug-In . SVG Version: 6.00 Build 0)  -->
<!DOCTYPE svg PUBLIC "-//W3C//DTD SVG 1.1//EN" "http://www.w3.org/Graphics/SVG/1.1/DTD/svg11.dtd">
<svg version="1.1" xmlns="http://www.w3.org/2000/svg" xmlns:xlink="http://www.w3.org/1999/xlink" x="0px" y="0px" width="280px"
	 height="70px" viewBox="0 0 280 70" enable-background="new 0 0 280 70" xml:space="preserve">
<g id="podklad" display="none">
</g>
<g id="Layer_9">
</g>
<g id="Layer_1">
</g>
<g id="podklad_1_">
</g>
<g id="OBD_x5F_prvky">
</g>
<g id="Layer_7">
</g>
<g id="texty">
</g>
<g id="OTVR_x5F_hambac">
</g>
<g id="lista">
	<g>
		<g>
			<g>
				<g>
					<path fill-rule="evenodd" clip-rule="evenodd" fill="#4AE5D9" d="M115.453,3.436c0.698,0.187,1.405,0.346,2.094,0.565
						c4.417,1.405,7.45,5.564,7.45,10.205c0.001,13.956,0.001,27.91,0,41.865c0,5.847-4.639,10.616-10.486,10.75
						c-2.183,0.049-4.367,0.024-6.551,0.024c-13.813,0.001-27.625,0.001-41.438,0c-0.309,0-0.616-0.016-0.924-0.024
						c-0.251-0.247-0.208-0.57-0.209-0.872c-0.005-5.127-0.006-10.256,0.001-15.383c0.001-0.324-0.097-0.777,0.229-0.908
						c0.354-0.142,0.532,0.301,0.731,0.542c0.963,1.163,2.191,1.964,3.553,2.555c1.935,0.842,3.967,1.25,6.08,1.354
						c2.668,0.13,5.265-0.154,7.746-1.153c5.205-2.096,8.313-6.015,9.598-11.391c0.967-4.04,0.868-8.088-0.715-11.968
						c-2.541-6.234-7.252-9.657-13.932-10.44c-3.016-0.353-5.867,0.121-8.564,1.49c-1.453,0.738-2.738,1.706-3.753,3.001
						c-0.044,0.056-0.087,0.115-0.138,0.163c-0.184,0.171-0.323,0.488-0.619,0.39c-0.268-0.089-0.318-0.394-0.34-0.659
						c-0.078-0.924-0.24-1.836-0.319-2.759c-0.083-0.97-0.16-1.037-1.126-1.039c-1.781-0.004-3.561-0.003-5.342-0.001
						c-1.066,0.001-1.077,0.01-1.077,1.066c-0.001,7.953-0.001,15.907-0.001,23.859c0,6.861,0,13.722,0,20.583
						c0,0.261,0.006,0.522-0.002,0.784c-0.029,0.821-0.07,0.86-0.917,0.86c-11.157,0-22.315,0-33.474,0
						c-0.85,0-0.92-0.054-0.922-0.933c-0.01-5.176-0.007-10.351-0.002-15.525c0-0.167,0.006-0.333,0.043-0.497
						c0.093-0.408,0.305-0.437,0.603-0.189c0.093,0.076,0.171,0.166,0.247,0.256c1.626,1.937,3.762,3.015,6.171,3.587
						c4.063,0.964,8.06,0.76,11.929-0.872c3.172-1.336,5.566-3.573,7.262-6.56c1.799-3.168,2.48-6.621,2.352-10.211
						c-0.164-4.538-1.617-8.63-4.83-11.937c-2.178-2.243-4.824-3.745-7.898-4.443c-3.064-0.695-6.107-0.796-9.125,0.254
						c-2.199,0.766-4.096,1.974-5.624,3.742c-0.077,0.09-0.148,0.187-0.231,0.271c-0.18,0.183-0.349,0.453-0.639,0.36
						c-0.262-0.083-0.229-0.387-0.266-0.614c-0.162-1.031-0.265-2.071-0.379-3.109c-0.059-0.52-0.271-0.744-0.813-0.739
						c-1.971,0.017-3.939,0.016-5.91,0c-0.568-0.004-0.769,0.246-0.737,0.776c0.015,0.236,0.001,0.475,0.001,0.712
						c0,14.742,0.001,29.485-0.002,44.228c0,0.424,0.058,0.857-0.096,1.271c-0.113,0.217-0.318,0.161-0.502,0.17
						c-2.626,0.132-4.881-0.803-6.86-2.452c-1.643-1.368-2.765-3.102-3.419-5.144c-0.168-0.523-0.131-1.073-0.3-1.59
						c0-15.004,0-30.009,0-45.014c0.265-2.51,1.368-4.622,3.179-6.337c1.765-1.671,3.808-2.817,6.331-2.848c0.251,0,0.501,0,0.753,0
						c29.966,0,59.932,0,89.898,0.007c0.286,0,0.615-0.146,0.865,0.135c-0.017,0.151-0.09,0.277-0.205,0.364
						c-1.487,1.119-1.841,2.751-2.012,4.461c-0.305,3.031-0.094,6.072-0.146,9.108c-0.026,1.555-0.051,1.601-1.594,1.604
						c-1.282,0.003-2.565-0.011-3.846,0.005c-0.742,0.009-0.823,0.088-0.827,0.821c-0.013,1.733,0.006,3.466-0.012,5.2
						c-0.006,0.588,0.242,0.796,0.811,0.79c1.352-0.014,2.705-0.008,4.059-0.003c1.296,0.005,1.403,0.112,1.403,1.436
						c0.003,8.285,0.002,16.569,0.002,24.854c0,1.344,0.001,1.345,1.376,1.345c1.828,0,3.654,0.003,5.483-0.001
						c1.059-0.002,1.091-0.036,1.091-1.146c0.002-6.243,0-12.487,0.002-18.729c0-2.184-0.008-4.368,0.002-6.551
						c0.006-1.047,0.158-1.199,1.199-1.203c2.587-0.01,5.174,0,7.762-0.006c0.955-0.001,1.002-0.049,1.006-1.009
						c0.006-1.614,0.007-3.228-0.001-4.842c-0.005-0.896-0.065-0.956-0.985-0.957c-2.494-0.005-4.985,0.001-7.478-0.004
						c-1.341-0.003-1.503-0.167-1.505-1.532c-0.004-2.635-0.016-5.271,0.006-7.905c0.009-1.265,0.16-2.525,0.684-3.687
						c0.611-1.355,1.516-2.414,3.139-2.555c0.508-0.039,1.023,0.082,1.525-0.073C115.169,3.436,115.312,3.436,115.453,3.436z"/>
				</g>
				<g>
					<path fill-rule="evenodd" clip-rule="evenodd" fill="#4AE5D9" d="M32.876,26.939c5.703,0,9.647,3.957,9.645,9.676
						c-0.004,5.549-4.172,9.684-9.752,9.678c-5.506-0.006-9.645-4.177-9.641-9.712C23.134,30.84,27.077,26.939,32.876,26.939z"/>
				</g>
				<g>
					<path fill-rule="evenodd" clip-rule="evenodd" fill="#4AE5D9" d="M85.702,36.618c-0.001,5.556-4.107,9.674-9.649,9.676
						c-5.56,0.001-9.743-4.157-9.721-9.709c0.025-5.748,4.069-9.747,9.896-9.663C81.81,27.003,85.702,30.918,85.702,36.618z"/>
				</g>
			</g>
		</g>
		<g>
			<g>
				<path fill-rule="evenodd" clip-rule="evenodd" fill="#FF6427" d="M148.149,30.796c4.699-3.827,10.08-3.192,13.416,1.518
					c0.07-0.064,0.149-0.117,0.203-0.188c2.5-3.296,5.963-4.022,9.794-3.545c5.522,0.688,8.093,4.426,8.698,9.37
					c0.308,2.506,0.116,5.026,0.145,7.54c0.027,2.635-0.007,5.27,0.017,7.905c0.005,0.487-0.108,0.651-0.623,0.643
					c-1.898-0.031-3.798-0.035-5.696,0.001c-0.555,0.011-0.664-0.173-0.662-0.688c0.014-4.487-0.002-8.974-0.008-13.46
					c-0.002-0.646-0.127-1.276-0.31-1.889c-0.451-1.515-1.332-2.652-2.972-2.911c-1.735-0.275-3.254,0.203-4.371,1.635
					c-0.895,1.149-1.244,2.477-1.24,3.923c0.01,4.203-0.01,8.404,0.018,12.606c0.005,0.627-0.154,0.802-0.785,0.787
					c-1.852-0.045-3.703-0.034-5.555-0.004c-0.507,0.007-0.633-0.147-0.631-0.64c0.02-4.179,0.02-8.357,0.005-12.535
					c-0.005-1.167-0.157-2.314-0.667-3.392c-0.706-1.491-1.838-2.409-3.501-2.54c-1.701-0.134-3.049,0.55-4.013,1.958
					c-0.674,0.983-1.035,2.091-1.043,3.275c-0.028,4.368-0.038,8.736-0.014,13.104c0.005,0.649-0.188,0.785-0.797,0.773
					c-1.874-0.04-3.75-0.027-5.626-0.006c-0.433,0.005-0.562-0.113-0.562-0.556c0.014-8.048,0.015-16.097-0.001-24.145
					c-0.001-0.497,0.179-0.58,0.616-0.575c1.756,0.021,3.514,0.027,5.27-0.001c0.492-0.008,0.67,0.149,0.688,0.635
					C147.958,29.834,148.067,30.272,148.149,30.796z"/>
				<path fill-rule="evenodd" clip-rule="evenodd" fill="#FF6427" d="M240.81,41.32c0-3.984,0.012-7.969-0.012-11.953
					c-0.004-0.534,0.134-0.684,0.67-0.675c1.896,0.033,3.794,0.022,5.691,0.006c0.439-0.004,0.621,0.097,0.621,0.593
					c-0.018,8.063-0.016,16.127-0.003,24.191c0.001,0.45-0.154,0.557-0.574,0.553c-1.944-0.018-3.89-0.025-5.835,0.004
					c-0.506,0.007-0.566-0.197-0.566-0.623C240.814,49.384,240.81,45.353,240.81,41.32z"/>
				<path fill-rule="evenodd" clip-rule="evenodd" fill="#FF6427" d="M244.265,26.39c-2.327,0-4.006-1.669-4.004-3.978
					c0.004-2.298,1.688-3.983,4-3.998c2.337-0.016,4.047,1.687,4.043,4.028C248.301,24.731,246.604,26.39,244.265,26.39z"/>
				<path fill-rule="evenodd" clip-rule="evenodd" fill="#FF6427" d="M271.579,28.784c-0.421-0.004-0.594,0.098-0.582,0.552
					c0.016,0.592-0.018,1.192-0.195,1.836c-0.736-0.774-1.507-1.357-2.379-1.807c-2.287-1.179-4.715-1.351-7.209-0.997
					c-3.348,0.475-6.207,1.852-8.289,4.604c-1.582,2.09-2.297,4.497-2.485,7.078c-0.227,3.113,0.179,6.119,1.737,8.871
					c1.99,3.514,5.154,5.272,9.066,5.759c3.592,0.448,6.836-0.33,9.478-2.972c0.046-0.046,0.114-0.09,0.224,0.031
					c0.053,0.558,0.132,1.166,0.16,1.776c0.018,0.384,0.143,0.526,0.547,0.521c2.018-0.026,4.035-0.024,6.053-0.031
					c0-8.404,0-16.808,0-25.213C275.662,28.792,273.62,28.802,271.579,28.784z M264.048,48.328c-4.011-0.01-6.73-2.825-6.715-6.951
					c0.018-4.071,2.759-6.865,6.736-6.866c3.894,0,6.669,2.905,6.654,6.965C270.71,45.509,267.954,48.336,264.048,48.328z"/>
				<path fill-rule="evenodd" clip-rule="evenodd" fill="#FF6427" d="M238.198,19.296c0.001-0.48-0.108-0.66-0.623-0.652
					c-1.899,0.029-3.799,0.036-5.697-0.003c-0.575-0.013-0.646,0.207-0.644,0.699c0.018,3.655,0.01,7.309,0.01,10.963
					c0,0.23,0,0.458,0,0.851c-0.685-0.57-1.237-1.015-1.862-1.359c-2.516-1.395-5.193-1.859-8.037-1.43
					c-4.199,0.634-7.404,2.662-9.227,6.604c-1.252,2.709-1.453,5.581-1.146,8.495c0.234,2.25,0.972,4.35,2.34,6.179
					c2.715,3.631,6.475,5.004,10.873,4.944c2.4-0.033,4.574-0.713,6.41-2.321c0.238-0.209,0.469-0.43,0.772-0.709
					c0.077,0.68,0.159,1.239,0.198,1.8c0.033,0.476,0.182,0.696,0.729,0.685c1.755-0.04,3.512-0.033,5.268-0.004
					c0.499,0.007,0.639-0.143,0.638-0.639C238.187,42.031,238.188,30.664,238.198,19.296z M224.209,48.077
					c-3.743-0.015-6.395-2.797-6.39-6.707c0.006-3.914,2.641-6.602,6.469-6.596c3.695,0.006,6.539,2.883,6.549,6.629
					C230.849,45.247,228.022,48.094,224.209,48.077z"/>
				<path fill-rule="evenodd" clip-rule="evenodd" fill="#FF6427" d="M208.457,37.869c-0.897-4.796-3.575-8.025-8.374-9.305
					c-2.155-0.576-4.361-0.66-6.565-0.333c-4.422,0.658-7.806,2.823-9.755,6.946c-1.322,2.796-1.535,5.77-1.043,8.772
					c0.77,4.696,3.318,8.052,7.826,9.761c3.004,1.139,6.109,1.269,9.244,0.64c2.726-0.547,5.186-1.643,7.221-3.595
					c0.362-0.347,0.438-0.559,0.021-0.944c-1.133-1.046-2.22-2.142-3.323-3.22c-0.731-0.713-0.725-0.706-1.487-0.09
					c-0.275,0.222-0.578,0.421-0.894,0.581c-2.161,1.097-4.447,1.486-6.831,1.03c-2.034-0.389-3.679-1.362-4.54-3.37
					c-0.226-0.524-0.184-0.728,0.478-0.72c2.919,0.032,5.841,0.013,8.76,0.013c2.92,0,5.84-0.013,8.761,0.015
					c0.516,0.003,0.666-0.128,0.714-0.65C208.837,41.541,208.799,39.696,208.457,37.869z M201.42,38.106
					c-3.771-0.016-7.543-0.025-11.314-0.038c-0.019,0-0.037-0.023-0.105-0.068c0.519-1.333,1.423-2.335,2.715-2.936
					c2.129-0.99,4.313-1.015,6.485-0.138c1.227,0.495,2.059,1.41,2.498,2.668C201.798,37.876,201.855,38.108,201.42,38.106z"/>
			</g>
		</g>
	</g>
</g>
<g id="Layer_14">
</g>
<g id="_x33__x5F_ŘADEK_x5F_icon">
</g>
<g id="slunicko" display="none">
</g>
<g id="mesice">
</g>
<g id="kryti">
</g>
</svg>
