<?xml version="1.0" encoding="UTF-8" standalone="no"?>
<!DOCTYPE svg PUBLIC "-//W3C//DTD SVG 1.1//EN" "http://www.w3.org/Graphics/SVG/1.1/DTD/svg11.dtd">
<svg width="100%" height="100%" viewBox="0 0 248 174" version="1.1" xmlns="http://www.w3.org/2000/svg" xmlns:xlink="http://www.w3.org/1999/xlink" xml:space="preserve" xmlns:serif="http://www.serif.com/" style="fill-rule:evenodd;clip-rule:evenodd;stroke-linejoin:round;stroke-miterlimit:2;">
    <g transform="matrix(1,0,0,1,-66.0155,-7885.72)">
        <g transform="matrix(5.33422,0,0,5.33422,4726.67,-35788.8)">
            <path d="M-827.355,8189.43C-827.356,8189.39 -827.363,8189.36 -827.366,8189.32C-827.381,8189.18 -827.411,8189.03 -827.457,8188.9C-827.465,8188.87 -827.464,8188.85 -827.472,8188.83C-827.476,8188.82 -827.482,8188.81 -827.486,8188.81C-827.549,8188.65 -827.632,8188.51 -827.731,8188.38C-827.754,8188.35 -827.779,8188.32 -827.805,8188.29C-827.909,8188.16 -828.027,8188.05 -828.159,8187.95C-828.163,8187.95 -828.166,8187.95 -828.169,8187.95C-828.309,8187.85 -828.464,8187.78 -828.627,8187.72C-828.66,8187.71 -828.693,8187.7 -828.728,8187.69C-828.891,8187.65 -829.062,8187.61 -829.24,8187.61L-871.832,8187.61C-872.012,8187.61 -872.181,8187.65 -872.347,8187.69C-872.379,8187.7 -872.412,8187.71 -872.445,8187.72C-872.773,8187.84 -873.057,8188.03 -873.276,8188.29C-873.297,8188.32 -873.318,8188.34 -873.338,8188.37C-873.442,8188.5 -873.528,8188.65 -873.592,8188.81C-873.594,8188.82 -873.599,8188.82 -873.601,8188.83C-873.606,8188.84 -873.605,8188.86 -873.609,8188.87C-873.663,8189.02 -873.696,8189.17 -873.71,8189.34C-873.713,8189.36 -873.718,8189.39 -873.719,8189.42C-873.721,8189.45 -873.728,8189.48 -873.728,8189.5L-873.728,8218.25C-873.728,8219.29 -872.879,8220.14 -871.834,8220.14L-829.242,8220.14C-828.2,8220.14 -827.351,8219.29 -827.351,8218.25L-827.351,8189.5C-827.348,8189.48 -827.354,8189.45 -827.355,8189.43ZM-855.86,8206.31L-855.018,8207.07C-853.781,8208.17 -852.188,8208.78 -850.535,8208.78C-848.883,8208.78 -847.291,8208.17 -846.054,8207.07L-845.212,8206.31L-834.199,8216.16L-866.872,8216.16L-855.86,8206.31ZM-848.576,8204.24C-849.659,8205.21 -851.416,8205.21 -852.495,8204.24L-866.872,8191.4L-834.199,8191.4L-848.576,8204.24ZM-858.7,8203.78L-869.939,8213.82L-869.939,8193.73L-858.7,8203.78ZM-831.133,8213.82L-842.37,8203.78L-831.133,8193.73L-831.133,8213.82Z" style="fill:white;fill-rule:nonzero;"/>
        </g>
    </g>
</svg>
