<?xml version="1.0" encoding="UTF-8" standalone="no"?><!DOCTYPE svg PUBLIC "-//W3C//DTD SVG 1.1//EN" "http://www.w3.org/Graphics/SVG/1.1/DTD/svg11.dtd"><svg width="100%" height="100%" viewBox="0 0 94 71" version="1.1" xmlns="http://www.w3.org/2000/svg" xmlns:xlink="http://www.w3.org/1999/xlink" xml:space="preserve" xmlnsSerif="http://www.serif.com/" style="fill-rule:evenodd;clip-rule:evenodd;stroke-linejoin:round;stroke-miterlimit:2;"><g><path d="M47.807,27.456l-0.049,0.177c-0.454,1.91 -3.66,4.809 -6.707,6.797c-3.068,-2.008 -6.256,-4.888 -6.704,-6.773l-0.047,-0.17c-0.108,-0.34 -0.164,-0.694 -0.164,-1.051c0,-1.285 0.704,-2.475 1.832,-3.1c0.52,-0.287 1.11,-0.439 1.702,-0.439c0.304,0.023 1.099,0.605 1.526,0.918c0.17,0.125 0.337,0.248 0.499,0.361l1.354,0.953l1.351,-0.951c0.165,-0.115 0.334,-0.238 0.506,-0.365c0.427,-0.313 1.22,-0.893 1.519,-0.916c0.596,-0 1.187,0.152 1.703,0.437c1.133,0.627 1.835,1.817 1.835,3.102c-0,0.352 -0.054,0.705 -0.156,1.02Zm-3.382,-9.262c-1.326,0 -2.453,0.568 -3.375,1.178c-0.923,-0.61 -2.051,-1.178 -3.374,-1.178c-1.391,0 -2.768,0.355 -3.986,1.029c-2.624,1.457 -4.255,4.221 -4.255,7.213c-0,0.814 0.122,1.619 0.36,2.397c1.137,4.496 7.32,8.681 9.229,9.882c1.139,0.694 1.783,0.694 2.026,0.694c0.243,-0 0.886,-0 2.052,-0.711c1.878,-1.182 8.062,-5.364 9.206,-9.887c0.237,-0.762 0.356,-1.559 0.356,-2.375c0,-2.992 -1.63,-5.756 -4.258,-7.215c-1.215,-0.672 -2.592,-1.027 -3.981,-1.027Z" style="fill:#ff6427;fill-rule:nonzero;"/><path d="M75.175,42.278c0.174,-0.096 0.37,-0.154 0.569,-0.166c0.147,0.07 0.416,0.267 0.582,0.39c0.097,0.073 0.192,0.139 0.286,0.206l1.081,0.761l1.082,-0.76c0.094,-0.066 0.191,-0.138 0.29,-0.21c0.167,-0.122 0.434,-0.317 0.579,-0.387c0.2,0.012 0.396,0.07 0.567,0.162c0.439,0.244 0.711,0.705 0.711,1.203c-0,0.133 -0.019,0.266 -0.057,0.379l-0.04,0.144c-0.169,0.711 -1.511,2.061 -3.134,3.178c-1.608,-1.109 -2.956,-2.457 -3.124,-3.166l-0.037,-0.133c-0.042,-0.13 -0.063,-0.267 -0.063,-0.402c0,-0.498 0.272,-0.957 0.708,-1.199Zm1.102,8.469c0.686,0.417 1.138,0.466 1.418,0.466c0.28,-0 0.731,-0.049 1.442,-0.482c1.385,-0.869 4.654,-3.166 5.328,-5.785c0.145,-0.471 0.218,-0.965 0.218,-1.469c-0,-1.861 -1.014,-3.582 -2.649,-4.492c-0.757,-0.418 -1.615,-0.639 -2.479,-0.639c-0.722,0 -1.347,0.25 -1.86,0.547c-0.515,-0.297 -1.139,-0.547 -1.862,-0.547c-0.865,0 -1.721,0.223 -2.482,0.641c-1.632,0.908 -2.646,2.629 -2.646,4.49c0,0.5 0.075,0.996 0.221,1.479c0.668,2.605 3.94,4.904 5.351,5.791Z" style="fill:#ff6427;fill-rule:nonzero;"/><path d="M87.965,62.51l-20.142,-0l-0,-37.832l20.142,0l-0,37.832Zm0.628,-43.806l-21.396,-0.041c-2.503,0 -4.538,2.037 -4.538,4.541l-0,42.806c-0,2.504 2.035,4.541 4.538,4.541l21.395,-0c2.503,-0 4.538,-2.037 4.538,-4.541l0,-42.806c0,-2.485 -2.035,-4.5 -4.537,-4.5Z" style="fill:#ff6427;fill-rule:nonzero;"/><path d="M37.152,58.684l5.684,-0l-0,5.129l-5.684,-0l0,-5.129Zm-30.727,-29.828l10.905,-0l0,4.068l-10.905,-0l-0,-4.068Zm-0,-7.107l10.905,0l0,3.345l-10.905,0l-0,-3.345Zm-0,-7.108l10.905,-0l0,3.348l-10.905,-0l-0,-3.348Zm-0,-5.637c-0,-1.421 1.157,-2.578 2.579,-2.578l8.326,0l0,4.455l-10.905,-0l-0,-1.877Zm-0,40.676l-0,-11.742l13.411,-0c1.386,-0 2.508,-1.123 2.508,-2.506l0,-29.006l48.638,0c1.422,0 2.579,1.157 2.579,2.578l-0,4.008l6.425,0.014l0,-4.022c0,-4.964 -4.038,-9.004 -9.004,-9.004l-61.978,0c-4.965,0 -9.004,4.04 -9.004,9.004l0,40.676c0,4.965 4.039,9.004 9.004,9.004l22.171,-0l0,3.519l-0.001,-0l0,1.61l-7.299,-0l0,6.425l32.234,-0l0,-6.425l-7.296,-0l0,-5.129l8.809,-0l0,-6.426l-48.618,-0c-1.422,-0 -2.579,-1.158 -2.579,-2.578Z" style="fill:#ff6427;fill-rule:nonzero;"/></g></svg>