<?xml version="1.0" encoding="UTF-8" standalone="no"?><!DOCTYPE svg PUBLIC "-//W3C//DTD SVG 1.1//EN" "http://www.w3.org/Graphics/SVG/1.1/DTD/svg11.dtd"><svg width="100%" height="100%" viewBox="0 0 58 71" version="1.1" xmlns="http://www.w3.org/2000/svg" xmlns:xlink="http://www.w3.org/1999/xlink" xml:space="preserve" xmlnsserif="http://www.serif.com/" style="fill-rule:evenodd;clip-rule:evenodd;stroke-linejoin:round;stroke-miterlimit:2;"><g><path d="M32.189,64.618c-0,0.471 -0.381,0.852 -0.85,0.852l-4.817,0c-0.469,0 -0.852,-0.381 -0.852,-0.852l-0,-17.146c-0,-0.47 0.383,-0.851 0.852,-0.851l4.817,0c0.469,0 0.85,0.381 0.85,0.851l-0,17.146Zm-0.85,-23.233l-4.817,0c-3.357,0 -6.086,2.73 -6.086,6.087l-0,17.146c-0,3.356 2.729,6.086 6.086,6.086l4.817,0c3.355,0 6.086,-2.73 6.086,-6.086l-0,-17.146c-0,-3.357 -2.731,-6.087 -6.086,-6.087Z" style="fill:#ff6427;fill-rule:nonzero;"/><path d="M11.944,64.618c-0,0.471 -0.381,0.852 -0.85,0.852l-4.818,0c-0.468,0 -0.85,-0.381 -0.85,-0.852l-0,-4.931c-0,-0.469 0.382,-0.85 0.85,-0.85l4.818,0c0.469,0 0.85,0.381 0.85,0.85l-0,4.931Zm-0.85,-11.017l-4.818,-0c-3.355,-0 -6.086,2.731 -6.086,6.086l-0,4.931c-0,3.356 2.731,6.086 6.086,6.086l4.818,0c3.355,0 6.086,-2.73 6.086,-6.086l-0,-4.931c-0,-3.355 -2.731,-6.086 -6.086,-6.086Z" style="fill:#ff6427;fill-rule:nonzero;"/><path d="M52.492,64.618c-0,0.471 -0.383,0.852 -0.85,0.852l-4.818,0c-0.468,0 -0.85,-0.381 -0.85,-0.852l-0,-30.759c-0,-0.471 0.382,-0.851 0.85,-0.851l4.818,0c0.467,0 0.85,0.38 0.85,0.851l-0,30.759Zm-0.85,-36.847l-4.818,0c-3.355,0 -6.086,2.731 -6.086,6.088l-0,30.759c-0,3.356 2.731,6.086 6.086,6.086l4.818,0c3.355,0 6.086,-2.73 6.086,-6.086l-0,-30.759c-0,-3.357 -2.731,-6.088 -6.086,-6.088Z" style="fill:#ff6427;fill-rule:nonzero;"/><path d="M8.178,33.545c-0.309,0.179 -0.647,0.265 -0.981,0.265c-0.674,-0 -1.33,-0.347 -1.692,-0.972c-0.544,-0.934 -0.227,-2.131 0.707,-2.674l34.218,-19.901l-4.206,-3.511l15.547,-1.504l0.139,-0.012l-0.075,0.119l-8.532,13.082l-1.029,-4.722l-34.096,19.83Zm35.125,-9.871c1.748,0 3.407,-0.877 4.385,-2.375l8.533,-13.084l0.028,-0.043l0.013,-0.022c0.559,-0.834 0.885,-1.836 0.885,-2.914c-0,-2.844 -2.266,-5.16 -5.094,-5.234l-0.142,-0.002l-0.151,0.002c-0.125,0.004 -0.249,0.011 -0.371,0.023l-0.077,0.008l-0.045,0.004l-15.547,1.502c-2.101,0.205 -3.875,1.648 -4.499,3.666c-0.431,1.396 -0.253,2.877 0.435,4.105l-28.076,16.328c-1.66,0.965 -2.846,2.52 -3.337,4.375c-0.492,1.86 -0.23,3.797 0.737,5.459c1.283,2.205 3.665,3.575 6.217,3.575c1.27,-0 2.522,-0.338 3.619,-0.981l28.314,-16.465c0.774,1.022 1.914,1.744 3.226,1.987c0.317,0.058 0.633,0.086 0.947,0.086Z" style="fill:#ff6427;fill-rule:nonzero;"/></g></svg>