<?xml version="1.0" encoding="UTF-8" standalone="no"?><!DOCTYPE svg PUBLIC "-//W3C//DTD SVG 1.1//EN" "http://www.w3.org/Graphics/SVG/1.1/DTD/svg11.dtd"><svg width="100%" height="100%" viewBox="0 0 28 27" version="1.1" xmlns="http://www.w3.org/2000/svg" xmlns:xlink="http://www.w3.org/1999/xlink" xml:space="preserve" xmlnsSerif="http://www.serif.com/" style="fill-rule:evenodd;clip-rule:evenodd;stroke-linejoin:round;stroke-miterlimit:2;"><path d="M26.932,12.326l-11.545,-11.546c0.018,0.006 -0.793,-0.868 -1.505,-0.773c-0.705,0.095 -0.996,0.637 -0.996,0.995l-0,8.291l-11.893,0c-0.549,0 -0.993,0.446 -0.993,0.994l-0,5.804c-0,0.55 0.444,0.995 0.993,0.995l11.893,0l-0,8.29c-0,0.402 0.244,0.765 0.615,0.919c0.124,0.051 0.252,0.076 0.381,0.076c0.257,0 0.511,-0.101 0.703,-0.293l12.347,-12.345c0.187,-0.188 0.291,-0.441 0.291,-0.704c0,-0.264 -0.104,-0.517 -0.291,-0.703Z" style="fill:#ff6427;fill-rule:nonzero;"/></svg>