<?xml version="1.0" encoding="utf-8"?>
<!-- Generator: Adobe Illustrator 16.0.0, SVG Export Plug-In . SVG Version: 6.00 Build 0)  -->
<!DOCTYPE svg PUBLIC "-//W3C//DTD SVG 1.1//EN" "http://www.w3.org/Graphics/SVG/1.1/DTD/svg11.dtd">
<svg version="1.1" id="texty" xmlns="http://www.w3.org/2000/svg" xmlns:xlink="http://www.w3.org/1999/xlink" x="0px" y="0px"
	 width="51.334px" height="48.126px" viewBox="0 0 51.334 48.126" enable-background="new 0 0 51.334 48.126" xml:space="preserve">
<g>
	<path fill="#FFFFFF" d="M1175.083,1508.767H833.048c-17.309,0-31.387,13.757-31.387,30.665v193.671
		c0,16.907,14.078,30.664,31.387,30.664h342.035c17.307,0,31.387-13.757,31.387-30.664v-193.671
		C1206.47,1522.523,1192.39,1508.767,1175.083,1508.767z"/>
	<path fill="#FFFFFF" d="M-124.641,928.167h-345.498c-17.482,0-31.705,13.896-31.705,30.976v195.631
		c0,17.078,14.223,30.975,31.705,30.975h345.498c17.482,0,31.705-13.896,31.705-30.975V959.143
		C-92.936,942.063-107.158,928.167-124.641,928.167z"/>
	<g>
		<rect x="-471.787" y="973.327" fill="none" width="480.932" height="109.908"/>
		<text transform="matrix(1 0 0 1 -471.7881 997.8271)"><tspan x="0" y="0" fill="#FF712E" font-family="'Gilroy-ExtraBold'" font-size="35">Web </tspan><tspan x="0" y="37.993" fill="#FF712E" font-family="'Gilroy-ExtraBold'" font-size="35">development</tspan></text>
	</g>
	<rect x="-472.11" y="1079.882" fill-rule="evenodd" clip-rule="evenodd" fill="none" width="343.59" height="207.569"/>
	<text transform="matrix(1 0 0 1 -472.1113 1095.6719)"><tspan x="0" y="0" fill="#7C7C7C" font-family="'Rubik-Regular'" font-size="22.2397">Dobře vypadající a bezchybně </tspan><tspan x="0" y="26.688" fill="#7C7C7C" font-family="'Rubik-Regular'" font-size="22.2397">fungující web je základem </tspan><tspan x="0" y="53.375" fill="#7C7C7C" font-family="'Rubik-Regular'" font-size="22.2397">každé úspěšné moderní firmy.</tspan></text>
	<path fill="#FFFFFF" d="M736.749,1218.767H394.714c-17.309,0-31.387,13.757-31.387,30.665v193.671
		c0,16.907,14.078,30.664,31.387,30.664h342.035c17.307,0,31.387-13.757,31.387-30.664v-193.671
		C768.136,1232.523,754.056,1218.767,736.749,1218.767z"/>
	<g>
		<rect x="397.537" y="1263.478" fill="none" width="476.115" height="108.807"/>
		<text transform="matrix(1 0 0 1 397.5381 1287.9775)"><tspan x="0" y="0" fill="#FF712E" font-family="'Gilroy-ExtraBold'" font-size="35">HR </tspan><tspan x="0" y="37.612" fill="#FF712E" font-family="'Gilroy-ExtraBold'" font-size="35">marketing</tspan></text>
	</g>
	<rect x="397.214" y="1368.961" fill="none" width="340.15" height="205.49"/>
	<text transform="matrix(1 0 0 1 397.2139 1384.751)"><tspan x="0" y="0" fill="#7C7C7C" font-family="'Rubik-Regular'" font-size="22.2397">Získejte nejlepší zaměstnance </tspan><tspan x="0" y="26.688" fill="#7C7C7C" font-family="'Rubik-Regular'" font-size="22.2397">a postarejte se o to, že u Vás </tspan><tspan x="0" y="53.375" fill="#7C7C7C" font-family="'Rubik-Regular'" font-size="22.2397">budou chtít zůstat.</tspan></text>
	<path fill="#FFFFFF" d="M-132.546,1215.167h-342.035c-17.309,0-31.387,13.757-31.387,30.665v193.671
		c0,16.907,14.078,30.664,31.387,30.664h342.035c17.307,0,31.387-13.757,31.387-30.664v-193.671
		C-101.159,1228.924-115.239,1215.167-132.546,1215.167z"/>
	<g>
		<rect x="-472.133" y="1259.878" fill="none" width="476.115" height="108.807"/>
		<text transform="matrix(1 0 0 1 -472.1318 1284.3779)"><tspan x="0" y="0" fill="#FF712E" font-family="'Gilroy-ExtraBold'" font-size="35">Korporátní </tspan><tspan x="0" y="37.612" fill="#FF712E" font-family="'Gilroy-ExtraBold'" font-size="35">identita</tspan></text>
	</g>
	<g>
		<rect x="-472.456" y="1365.361" fill="none" width="340.15" height="205.49"/>
		<text transform="matrix(1 0 0 1 -472.4561 1381.1514)"><tspan x="0" y="0" fill="#7C7C7C" font-family="'Rubik-Regular'" font-size="22.2397">Ujasněte si smysl a formu </tspan><tspan x="0" y="26.688" fill="#7C7C7C" font-family="'Rubik-Regular'" font-size="22.2397">vašeho jednání. Kým a proč </tspan><tspan x="0" y="53.375" fill="#7C7C7C" font-family="'Rubik-Regular'" font-size="22.2397">chcete doopravdy být?</tspan></text>
	</g>
	<path fill="#FFFFFF" d="M736.749,928.167H394.714c-17.309,0-31.387,13.757-31.387,30.665v193.671
		c0,16.907,14.078,30.664,31.387,30.664h342.035c17.307,0,31.387-13.757,31.387-30.664V958.832
		C768.136,941.924,754.056,928.167,736.749,928.167z"/>
	<g>
		<rect x="397.537" y="972.878" fill="none" width="476.115" height="108.807"/>
		<text transform="matrix(1 0 0 1 397.5381 997.3779)"><tspan x="0" y="0" fill="#FF712E" font-family="'Gilroy-ExtraBold'" font-size="35">Sociální </tspan><tspan x="0" y="37.612" fill="#FF712E" font-family="'Gilroy-ExtraBold'" font-size="35">sítě</tspan></text>
	</g>
	<g>
		<rect x="397.214" y="1078.361" fill="none" width="340.15" height="205.49"/>
		<text transform="matrix(1 0 0 1 397.2139 1094.1514)"><tspan x="0" y="0" fill="#7C7C7C" font-family="'Rubik-Regular'" font-size="22.2397">Neocenitelný nástroj pro </tspan><tspan x="0" y="26.688" fill="#7C7C7C" font-family="'Rubik-Regular'" font-size="22.2397">každého, kdo se chce se svým </tspan><tspan x="0" y="53.375" fill="#7C7C7C" font-family="'Rubik-Regular'" font-size="22.2397">produktem dostat mezi lidi.</tspan></text>
	</g>
	<path fill="#FFFFFF" d="M1175.085,931.767H833.048c-17.307,0-31.387,13.757-31.387,30.665v193.671
		c0,16.907,14.08,30.664,31.387,30.664h342.037c17.307,0,31.387-13.757,31.387-30.664V962.432
		C1206.472,945.523,1192.392,931.767,1175.085,931.767z"/>
	<g>
		<rect x="835.873" y="976.478" fill="none" width="476.115" height="108.807"/>
		<text transform="matrix(1 0 0 1 835.874 1000.9775)"><tspan x="0" y="0" fill="#FF712E" font-family="'Gilroy-ExtraBold'" font-size="35">Vývoj </tspan><tspan x="0" y="37.612" fill="#FF712E" font-family="'Gilroy-ExtraBold'" font-size="35">aplikací</tspan></text>
	</g>
	<g>
		<rect x="835.55" y="1081.961" fill="none" width="340.148" height="205.49"/>
		<text transform="matrix(1 0 0 1 835.5498 1097.751)"><tspan x="0" y="0" fill="#7C7C7C" font-family="'Rubik-Regular'" font-size="22.2397">Vyladěné aplikace Vás </tspan><tspan x="0" y="26.688" fill="#7C7C7C" font-family="'Rubik-Regular'" font-size="22.2397">dovedou k úspěchu a Vaše </tspan><tspan x="0" y="53.375" fill="#7C7C7C" font-family="'Rubik-Regular'" font-size="22.2397">klienty k pohodlnému životu.</tspan></text>
	</g>
	<path fill="#FFFFFF" d="M305.413,928.167H-36.622c-17.309,0-31.387,13.757-31.387,30.665v193.671
		c0,16.907,14.078,30.664,31.387,30.664h342.035c17.307,0,31.387-13.757,31.387-30.664V958.832
		C336.8,941.924,322.72,928.167,305.413,928.167z"/>
	<g>
		<rect x="-33.799" y="972.878" fill="none" width="476.115" height="108.807"/>
		<text transform="matrix(1 0 0 1 -33.7979 997.3779)"><tspan x="0" y="0" fill="#FF712E" font-family="'Gilroy-ExtraBold'" font-size="35">Grafické </tspan><tspan x="0" y="37.612" fill="#FF712E" font-family="'Gilroy-ExtraBold'" font-size="35">studio</tspan></text>
	</g>
	<g>
		<polygon fill="none" points="306.028,1283.852 -34.122,1283.852 -34.122,1078.361 166.511,1078.361 306.028,1078.361 		"/>
		<text transform="matrix(1 0 0 1 -34.1221 1094.1514)"><tspan x="0" y="0" fill="#7C7C7C" font-family="'Rubik-Regular'" font-size="22.2397">Protože vizuální stránka </tspan><tspan x="0" y="26.688" fill="#7C7C7C" font-family="'Rubik-Regular'" font-size="22.2397">je vždy až tím prvním, co </tspan><tspan x="0" y="53.375" fill="#7C7C7C" font-family="'Rubik-Regular'" font-size="22.2397">ovlivní zájem Vašich klientů.</tspan></text>
	</g>
	<path fill="#FFFFFF" d="M305.413,1215.167H-36.622c-17.309,0-31.387,13.757-31.387,30.665v193.671
		c0,16.907,14.078,30.664,31.387,30.664h342.035c17.307,0,31.387-13.757,31.387-30.664v-193.671
		C336.8,1228.924,322.72,1215.167,305.413,1215.167z"/>
	<g>
		<rect x="-33.799" y="1259.878" fill="none" width="476.115" height="108.807"/>
		<text transform="matrix(1 0 0 1 -33.7979 1284.3779)"><tspan x="0" y="0" fill="#FF712E" font-family="'Gilroy-ExtraBold'" font-size="35">Offline </tspan><tspan x="0" y="37.612" fill="#FF712E" font-family="'Gilroy-ExtraBold'" font-size="35">marketing</tspan></text>
	</g>
	<g>
		<rect x="-34.122" y="1365.361" fill="none" width="340.15" height="205.49"/>
		<text transform="matrix(1 0 0 1 -34.1221 1381.1514)"><tspan x="0" y="0" fill="#7C7C7C" font-family="'Rubik-Regular'" font-size="22.2397">Oslovujte svět pomocí hmotné </tspan><tspan x="0" y="26.688" fill="#7C7C7C" font-family="'Rubik-Regular'" font-size="22.2397">reklamy. Ani v digitálním věku </tspan><tspan x="0" y="53.375" fill="#7C7C7C" font-family="'Rubik-Regular'" font-size="22.2397">nestačí být vidět pouze </tspan><tspan x="0" y="80.063" fill="#7C7C7C" font-family="'Rubik-Regular'" font-size="22.2397">online.</tspan></text>
	</g>
	<path fill="#FFFFFF" d="M1175.083,1218.767H833.048c-17.309,0-31.387,13.757-31.387,30.665v193.671
		c0,16.907,14.078,30.664,31.387,30.664h342.035c17.307,0,31.387-13.757,31.387-30.664v-193.671
		C1206.47,1232.523,1192.39,1218.767,1175.083,1218.767z"/>
	<g>
		<circle fill="#F37337" cx="965.833" cy="1337.267" r="8.441"/>
		<circle fill="#F37337" cx="1004.563" cy="1337.267" r="8.441"/>
		<circle fill="#F37337" cx="1042.3" cy="1337.267" r="8.441"/>
	</g>
	<g>
		<rect x="835.548" y="1553.154" fill="none" width="476.115" height="108.807"/>
		<text transform="matrix(1 0 0 1 835.5498 1577.6543)"><tspan x="0" y="0" fill="#FF712E" font-family="'Gilroy-ExtraBold'" font-size="35">Cloudové </tspan><tspan x="0" y="37.612" fill="#FF712E" font-family="'Gilroy-ExtraBold'" font-size="35">řešení</tspan></text>
	</g>
	<g>
		<rect x="835.548" y="1658.961" fill="none" width="340.15" height="205.49"/>
		<text transform="matrix(1 0 0 1 835.5498 1674.751)"><tspan x="0" y="0" fill="#7C7C7C" font-family="'Rubik-Regular'" font-size="22.2397">Cloudové systémy jsou i budou </tspan><tspan x="0" y="26.688" fill="#7C7C7C" font-family="'Rubik-Regular'" font-size="22.2397">ideálním řešením jak </tspan><tspan x="0" y="53.375" fill="#7C7C7C" font-family="'Rubik-Regular'" font-size="22.2397">minimalizovat firemní náklady.</tspan></text>
	</g>
	<path fill="#FFFFFF" d="M305.413,1505.167H-36.622c-17.309,0-31.387,13.757-31.387,30.665v193.671
		c0,16.907,14.078,30.664,31.387,30.664h342.035c17.307,0,31.387-13.757,31.387-30.664v-193.671
		C336.8,1518.924,322.72,1505.167,305.413,1505.167z"/>
	<g>
		<rect x="-33.799" y="1566.377" fill="none" width="476.115" height="108.807"/>
		<text transform="matrix(1 0 0 1 -33.7979 1590.877)" fill="#FF712E" font-family="'Gilroy-ExtraBold'" font-size="35">Animace</text>
	</g>
	<g>
		<rect x="-34.122" y="1655.361" fill="none" width="340.15" height="205.49"/>
		<text transform="matrix(1 0 0 1 -34.1221 1671.1514)"><tspan x="0" y="0" fill="#7C7C7C" font-family="'Rubik-Regular'" font-size="22.2397">Dynamická grafika baví svět. </tspan><tspan x="0" y="26.688" fill="#7C7C7C" font-family="'Rubik-Regular'" font-size="22.2397">Nespoléhejte na statický </tspan><tspan x="0" y="53.375" fill="#7C7C7C" font-family="'Rubik-Regular'" font-size="22.2397">vizuál, který patří do minulého </tspan><tspan x="0" y="80.063" fill="#7C7C7C" font-family="'Rubik-Regular'" font-size="22.2397">století.</tspan></text>
	</g>
	<path fill="#FFFFFF" d="M736.999,1505.001H394.964c-17.309,0-31.387,13.756-31.387,30.664v193.671
		c0,16.907,14.078,30.665,31.387,30.665h342.035c17.307,0,31.387-13.758,31.387-30.665v-193.671
		C768.386,1518.757,754.306,1505.001,736.999,1505.001z"/>
	<g>
		<rect x="397.214" y="1549.555" fill="none" width="476.115" height="108.807"/>
		<text transform="matrix(1 0 0 1 397.2139 1574.0547)"><tspan x="0" y="0" fill="#FF712E" font-family="'Gilroy-ExtraBold'" font-size="35">Foto/ </tspan><tspan x="0" y="37.612" fill="#FF712E" font-family="'Gilroy-ExtraBold'" font-size="35">video</tspan></text>
	</g>
	<g>
		<rect x="397.214" y="1655.361" fill="none" width="340.15" height="205.49"/>
		<text transform="matrix(1 0 0 1 397.2139 1671.1514)"><tspan x="0" y="0" fill="#7C7C7C" font-family="'Rubik-Regular'" font-size="22.2397">Nepromarněte jedinečnou </tspan><tspan x="0" y="26.688" fill="#7C7C7C" font-family="'Rubik-Regular'" font-size="22.2397">možnost zaznamenat důležité </tspan><tspan x="0" y="53.375" fill="#7C7C7C" font-family="'Rubik-Regular'" font-size="22.2397">momenty Vaší kariéry a </tspan><tspan x="0" y="80.063" fill="#7C7C7C" font-family="'Rubik-Regular'" font-size="22.2397">života.</tspan></text>
	</g>
	<path fill="#FFFFFF" d="M-133.171,1509.142h-342.035c-17.309,0-31.387,13.757-31.387,30.665v193.671
		c0,16.907,14.078,30.664,31.387,30.664h342.035c17.307,0,31.387-13.757,31.387-30.664v-193.671
		C-101.784,1522.898-115.864,1509.142-133.171,1509.142z"/>
	<g>
		<rect x="-472.133" y="1553.478" fill="none" width="476.115" height="108.807"/>
		<text transform="matrix(1 0 0 1 -472.1338 1577.9775)"><tspan x="0" y="0" fill="#FF712E" font-family="'Gilroy-ExtraBold'" font-size="35">Analýza/ </tspan><tspan x="0" y="37.612" fill="#FF712E" font-family="'Gilroy-ExtraBold'" font-size="35">strategie</tspan></text>
	</g>
	<g>
		<rect x="-472.456" y="1658.961" fill="none" width="340.15" height="205.49"/>
		<text transform="matrix(1 0 0 1 -472.4561 1674.751)"><tspan x="0" y="0" fill="#7C7C7C" font-family="'Rubik-Regular'" font-size="22.2397">Když vše nefunguje tak, jak </tspan><tspan x="0" y="26.688" fill="#7C7C7C" font-family="'Rubik-Regular'" font-size="22.2397">by mělo. Najděte s námi </tspan><tspan x="0" y="53.375" fill="#7C7C7C" font-family="'Rubik-Regular'" font-size="22.2397">příčinu </tspan><tspan x="0" y="80.063" fill="#7C7C7C" font-family="'Rubik-Regular'" font-size="22.2397">i řešení problému.</tspan></text>
	</g>
	<path fill="#FFFFFF" d="M1175.083,1218.767H833.048c-17.309,0-31.387,13.757-31.387,30.665v193.671
		c0,16.907,14.078,30.664,31.387,30.664h342.035c17.307,0,31.387-13.757,31.387-30.664v-193.671
		C1206.47,1232.523,1192.39,1218.767,1175.083,1218.767z"/>
	<g>
		<rect x="835.871" y="1263.478" fill="none" width="476.115" height="108.807"/>
		<text transform="matrix(1 0 0 1 835.8721 1287.9775)"><tspan x="0" y="0" fill="#FF712E" font-family="'Gilroy-ExtraBold'" font-size="35">Školení </tspan><tspan x="0" y="37.612" fill="#FF712E" font-family="'Gilroy-ExtraBold'" font-size="35">online</tspan></text>
	</g>
	<g>
		<rect x="835.548" y="1368.961" fill="none" width="340.15" height="205.49"/>
		<text transform="matrix(1 0 0 1 835.5479 1384.751)"><tspan x="0" y="0" fill="#7C7C7C" font-family="'Rubik-Regular'" font-size="22.2397">Vzdělávejte se bez cestování </tspan><tspan x="0" y="26.688" fill="#7C7C7C" font-family="'Rubik-Regular'" font-size="22.2397">a řešit technické nesnáze. </tspan><tspan x="0" y="53.375" fill="#7C7C7C" font-family="'Rubik-Regular'" font-size="22.2397">Seberozvoj na dálku funguje.</tspan></text>
	</g>
	<g>
		<g>
			<path fill="#4AE5D9" d="M706.749,994.88c-0.364-1.139-1.423-1.912-2.619-1.912h-17.838l-5.739-17.737
				c-0.367-1.135-1.424-1.903-2.616-1.903s-2.25,0.77-2.616,1.904l-5.735,17.736h-17.84c-1.196,0-2.255,0.773-2.619,1.912
				c-0.364,1.14,0.049,2.383,1.023,3.078l14.533,10.355l-5.537,17.139c-0.366,1.134,0.039,2.374,1.004,3.073
				c0.481,0.349,1.048,0.522,1.613,0.522c0.568,0,1.137-0.176,1.619-0.527l14.555-10.605l14.559,10.605
				c0.963,0.701,2.268,0.703,3.232,0.004s1.37-1.939,1.003-3.073l-5.544-17.138l14.539-10.355
				C706.699,997.264,707.113,996.02,706.749,994.88z M686.354,1005.003c-0.977,0.695-1.39,1.944-1.02,3.086l3.558,11.003
				l-9.337-6.802c-0.965-0.703-2.273-0.703-3.238,0l-9.337,6.804l3.556-11.006c0.368-1.142-0.045-2.39-1.021-3.085l-9.171-6.535
				h11.241c1.192,0,2.25-0.77,2.616-1.904l3.735-11.551l3.737,11.552c0.368,1.135,1.424,1.903,2.616,1.903h11.239L686.354,1005.003z
				"/>
			<path fill="#4AE5D9" d="M652.261,1013.132l-5.551-2.923l1.126-6.501c0.167-0.961-0.306-1.92-1.169-2.375
				c-0.865-0.455-1.922-0.301-2.619,0.381l-4.722,4.608l-5.553-2.923c-0.868-0.457-1.927-0.3-2.625,0.385
				c-0.698,0.687-0.872,1.745-0.432,2.619l2.825,5.6l-4.536,4.43c-0.697,0.681-0.877,1.733-0.444,2.607
				c0.432,0.873,1.38,1.369,2.342,1.229l6.277-0.916l2.796,5.693c0.382,0.778,1.17,1.259,2.019,1.259
				c0.106,0,0.213-0.007,0.32-0.022c0.965-0.139,1.73-0.883,1.897-1.843l1.085-6.249l6.216-0.838
				c0.97-0.131,1.744-0.873,1.915-1.837C653.599,1014.552,653.127,1013.589,652.261,1013.132z M643.063,1013.952
				c-0.973,0.131-1.748,0.877-1.916,1.845l-0.183,1.051l-0.467-0.95c-0.382-0.778-1.171-1.259-2.019-1.259
				c-0.108,0-0.217,0.008-0.326,0.023l-1.051,0.153l0.763-0.745c0.702-0.686,0.879-1.747,0.437-2.622l-0.397-0.789l0.775,0.408
				c0.861,0.455,1.921,0.3,2.619-0.381l0.917-0.895l-0.219,1.261c-0.167,0.962,0.305,1.921,1.169,2.375l0.771,0.406
				L643.063,1013.952z"/>
		</g>
	</g>
	<g>
		<path fill="#4AE5D9" d="M-147.319,1272.63h-2.701v-3.646h-3.283v3.646h-4.359v-3.557h0.002v-1.549
			c0-2.941-2.359-5.303-5.303-5.303h-15.906c-2.942,0-5.303,2.361-5.303,5.303v5.105h-4.313v-3.646h-3.283v3.646h-2.744
			c-4.404,0-7.986,3.582-7.986,7.986v30.521c0,4.403,3.582,7.987,7.986,7.987h47.193c4.404,0,7.986-3.584,7.986-7.987v-30.521
			C-139.333,1276.212-142.915,1272.63-147.319,1272.63z M-178.87,1267.524h15.906v5.105h-15.906V1267.524z M-194.513,1278.329h2.744
			v3.643h3.283v-3.643h4.313v5.102h5.303v-5.102h15.906v5.102h5.301v-5.102h4.359v3.643h3.283v-3.643h2.701
			c1.262,0,2.287,1.025,2.287,2.287v14.009h-51.769v-14.009C-196.801,1279.354-195.774,1278.329-194.513,1278.329z
			 M-147.319,1313.425h-47.193c-1.262,0-2.288-1.027-2.288-2.288v-5.114h51.769v5.114
			C-145.032,1312.397-146.058,1313.425-147.319,1313.425z"/>
	</g>
	<g>
		<g>
			<path fill="#4AE5D9" d="M1122.179,972.485l-27.309,0.002c-3.279,0.006-5.941,2.68-5.935,5.959l0.015,7.854l5.462-0.011
				l-0.016-7.153l28.282-0.056l0.094,46.537l-28.281,0.058l-0.018-7.967l-5.459,0.01l0.024,11.972
				c0.007,3.28,2.679,5.944,5.958,5.938l27.309-0.057c3.279-0.006,5.941-2.68,5.936-5.961l-0.104-51.244
				C1128.132,975.115,1125.458,972.478,1122.179,972.485z"/>
			<polygon fill="#4AE5D9" points="1089.42,1012.368 1089.405,1005.226 1096.544,1005.212 1096.532,998.772 1089.392,998.786 
				1089.378,991.646 1082.937,991.659 1082.951,998.799 1075.808,998.813 1075.82,1005.254 1082.964,1005.239 1082.979,1012.384 			
				"/>
		</g>
	</g>
	<g>
		<g>
			<path fill="#4AE5D9" d="M259.506,1285.089h-0.005h-6.411l-2.063-6.374c-0.133-0.407-0.511-0.683-0.938-0.683
				c-0.427,0-0.805,0.276-0.938,0.683l-2.061,6.374h-6.412c-0.427,0-0.807,0.277-0.938,0.686c-0.131,0.409,0.018,0.854,0.367,1.104
				l5.222,3.722l-1.988,6.159c-0.13,0.406,0.016,0.851,0.361,1.102c0.173,0.124,0.375,0.187,0.578,0.187s0.407-0.063,0.58-0.188
				l5.229-3.81l5.231,3.81c0.173,0.126,0.377,0.188,0.58,0.188c0.205,0,0.406-0.063,0.579-0.188c0.346-0.25,0.491-0.695,0.36-1.102
				l-1.994-6.158l5.201-3.703c0.267-0.177,0.441-0.478,0.441-0.822C260.488,1285.53,260.049,1285.089,259.506,1285.089z"/>
			<path fill="#4AE5D9" d="M277.535,1264.717h-54.501c-4.309,0-7.814,3.629-7.814,8.088v31.422c0,4.46,3.506,8.088,7.814,8.088
				h7.845v8.089h4.538v-8.089h29.86v8.089h4.538v-8.089h7.72c4.311,0,7.816-3.628,7.816-8.088v-31.422
				C285.352,1268.346,281.846,1264.717,277.535,1264.717z M279.436,1304.227c0,1.197-0.853,2.172-1.9,2.172h-54.501
				c-1.046,0-1.898-0.975-1.898-2.172v-31.422c0-1.197,0.853-2.172,1.898-2.172h54.501c1.048,0,1.9,0.975,1.9,2.172V1304.227z"/>
		</g>
	</g>
	<g>
		<g>
			<g>
				<path fill="#4AE5D9" d="M-189.33,1560.993h-10.054c-1.381,0-2.5,1.119-2.5,2.5v37.524c0,1.381,1.119,2.5,2.5,2.5h10.054
					c1.381,0,2.5-1.119,2.5-2.5v-37.524C-186.83,1562.112-187.949,1560.993-189.33,1560.993z M-191.83,1598.518h-5.054v-32.524
					h5.054V1598.518z"/>
				<path fill="#4AE5D9" d="M-170.069,1573.799h-10.053c-1.381,0-2.5,1.12-2.5,2.5v24.719c0,1.381,1.119,2.5,2.5,2.5h10.053
					c1.381,0,2.5-1.119,2.5-2.5v-24.719C-167.569,1574.919-168.688,1573.799-170.069,1573.799z M-172.569,1598.518h-5.053v-19.719
					h5.053V1598.518z"/>
				<path fill="#4AE5D9" d="M-150.188,1548.187h-10.054c-1.381,0-2.5,1.119-2.5,2.5v50.331c0,1.381,1.119,2.5,2.5,2.5h10.054
					c1.381,0,2.5-1.119,2.5-2.5v-50.331C-147.688,1549.306-148.807,1548.187-150.188,1548.187z M-152.688,1598.518h-5.054v-45.331
					h5.054V1598.518z"/>
			</g>
		</g>
		<rect x="-206.573" y="1610.066" fill="#4AE5D9" width="62.449" height="3.158"/>
	</g>
	<g>
		<g>
			<path fill="#4AE5D9" d="M244.842,1545.684c-17.755,0-32.199,14.445-32.199,32.201c0,0.65,0.026,1.295,0.063,1.937l-2.841,1.019
				l0.878,2.449l2.233-0.801c0.188,1.306,0.456,2.586,0.796,3.837l-2.396,0.859l0.878,2.449l2.3-0.825
				c4.483,12.395,16.366,21.276,30.288,21.276c17.755,0,32.2-14.445,32.2-32.2C277.042,1560.129,262.597,1545.684,244.842,1545.684z
				 M244.842,1604.085c-11.323,0-20.989-7.223-24.641-17.301l2.916-1.046l-0.877-2.449l-2.802,1.004
				c-0.318-1.26-0.544-2.556-0.672-3.881l2.841-1.019l-0.879-2.449l-2.081,0.746c0.105-14.357,11.813-26.007,26.194-26.007
				c14.446,0,26.2,11.754,26.2,26.201C271.042,1592.331,259.288,1604.085,244.842,1604.085z"/>
			<path fill="#4AE5D9" d="M255.866,1575.817l-14.217-9.479c-0.748-0.498-1.753-0.548-2.553-0.123
				c-0.808,0.435-1.31,1.274-1.31,2.191v18.953c0,0.918,0.502,1.757,1.311,2.189c0.359,0.192,0.766,0.295,1.174,0.295
				c0.495,0,0.972-0.146,1.378-0.418l14.217-9.477c0.691-0.462,1.104-1.234,1.104-2.065
				C256.971,1577.049,256.558,1576.276,255.866,1575.817z"/>
		</g>
	</g>
	<g>
		<g>
			<rect x="662.669" y="1577.372" fill="#4AE5D9" width="7.251" height="7.619"/>
			<rect x="662.669" y="1588.892" fill="#4AE5D9" width="7.251" height="7.62"/>
			<path fill="#4AE5D9" d="M668.989,1548.047h-37.733c-3.877,0-7.031,3.237-7.031,7.217v40.317c0,3.98,3.154,7.217,7.031,7.217
				h37.733c3.876,0,7.028-3.236,7.028-7.217v-40.317C676.018,1551.284,672.865,1548.047,668.989,1548.047z M629.493,1555.264
				c0-1.075,0.791-1.95,1.763-1.95h37.733c0.973,0,1.762,0.875,1.762,1.95v40.317c0,1.074-0.789,1.949-1.762,1.949h-37.733
				c-0.972,0-1.763-0.875-1.763-1.949V1555.264z"/>
		</g>
		<g>
			<path fill="#4AE5D9" d="M663.208,1562.431h5.186v-5.428h-5.186V1562.431 M639.88,1578.72h20.731v-21.717H639.88V1578.72
				 M632.105,1562.431h5.185v-5.428h-5.185V1562.431 M663.208,1573.29h5.186v-5.428h-5.186V1573.29 M632.105,1573.29h5.185v-5.428
				h-5.185V1573.29 M663.208,1584.151h5.186v-5.432h-5.186V1584.151 M632.105,1584.151h5.185v-5.432h-5.185V1584.151
				 M639.88,1601.157h20.731v-19.721H639.88v13.574 M663.208,1595.011h5.186v-5.432h-5.186V1595.011 M632.105,1595.011h5.185v-5.432
				h-5.185V1595.011 M643.157,1560.216h14.181v15.293h-14.181V1560.216L643.157,1560.216z M643.157,1584.646h14.181v13.301h-14.181
				V1584.646L643.157,1584.646z"/>
		</g>
		<g>
			<g>
				<path fill="#FFFFFF" d="M698.937,1573.194h-0.439v-1.762c0-1.389-1.125-2.514-2.516-2.514h-4.261
					c-1.39,0-2.515,1.125-2.515,2.514v1.762H665.76c-3.669,0-6.653,3.102-6.653,6.916v19.869c0,3.813,2.984,6.916,6.653,6.916
					h33.177c3.672,0,6.656-3.103,6.656-6.916v-19.869C705.593,1576.296,702.608,1573.194,698.937,1573.194z"/>
				<path fill="#FFFFFF" d="M698.937,1610.151H665.76c-5.464,0-9.909-4.563-9.909-10.172v-19.869c0-5.609,4.445-10.171,9.909-10.171
					h20.387c0.66-2.46,2.91-4.276,5.574-4.276h4.261c2.804,0,5.148,2.009,5.666,4.662c4.152,1.213,7.201,5.14,7.201,9.785v19.869
					C708.849,1605.589,704.402,1610.151,698.937,1610.151z M665.76,1576.45c-1.873,0-3.398,1.643-3.398,3.66v19.869
					c0,2.02,1.525,3.661,3.398,3.661h33.177c1.876,0,3.401-1.642,3.401-3.661v-19.869c0-2.018-1.525-3.66-3.401-3.66h-3.694v-4.277
					h-2.78v4.277H665.76z"/>
			</g>
			<g>
				<g>
					<path fill="#4AE5D9" d="M698.497,1573.889v-2.363c0-1.388-1.125-2.515-2.516-2.515h-4.261c-1.39,0-2.515,1.127-2.515,2.515
						v2.363H698.497z"/>
				</g>
				<g>
					<path fill="#FFFFFF" d="M698.937,1575.331h-9.145h-4.846H665.76c-2.543,0-4.611,2.184-4.611,4.87v7.155v5.561v7.156
						c0,2.686,2.068,4.87,4.611,4.87h19.187h4.846h9.145c2.544,0,4.614-2.185,4.614-4.87v-7.156v-5.561v-7.155
						C703.551,1577.515,701.48,1575.331,698.937,1575.331z"/>
					<path fill="#4AE5D9" d="M698.937,1607.269H665.76c-3.824,0-6.937-3.227-6.937-7.195v-19.872c0-3.968,3.112-7.196,6.937-7.196
						h33.177c3.827,0,6.939,3.229,6.939,7.196v19.872C705.876,1604.042,702.764,1607.269,698.937,1607.269z M665.76,1577.656
						c-1.261,0-2.286,1.142-2.286,2.545v19.872c0,1.402,1.025,2.545,2.286,2.545h33.177c1.262,0,2.289-1.143,2.289-2.545v-19.872
						c0-1.403-1.027-2.545-2.289-2.545H665.76z"/>
				</g>
				<g>
					<path fill="#4AE5D9" d="M669.866,1581.737c0.813,0,1.473,0.66,1.473,1.473c0,0.814-0.659,1.473-1.473,1.473
						c-0.814,0-1.473-0.658-1.473-1.473C668.394,1582.397,669.052,1581.737,669.866,1581.737z M683.126,1581.737
						c4.881,0,8.837,3.957,8.837,8.838c0,4.879-3.956,8.841-8.837,8.841c-4.885,0-8.841-3.962-8.841-8.841
						C674.285,1585.694,678.241,1581.737,683.126,1581.737z M683.126,1596.47c3.252,0,5.893-2.641,5.893-5.895
						c0-3.252-2.641-5.893-5.893-5.893c-3.255,0-5.896,2.641-5.896,5.893C677.23,1593.829,679.871,1596.47,683.126,1596.47z"/>
					<path fill="#4AE5D9" d="M683.126,1600.347c-5.389,0-9.77-4.384-9.77-9.771c0-5.387,4.381-9.768,9.77-9.768
						c5.386,0,9.768,4.381,9.768,9.768C692.894,1595.963,688.512,1600.347,683.126,1600.347z M683.126,1582.667
						c-4.363,0-7.91,3.549-7.91,7.908c0,4.362,3.547,7.91,7.91,7.91c4.359,0,7.906-3.548,7.906-7.91
						C691.032,1586.216,687.485,1582.667,683.126,1582.667z M683.126,1597.401c-3.764,0-6.826-3.063-6.826-6.826
						c0-3.763,3.063-6.822,6.826-6.822c3.762,0,6.822,3.06,6.822,6.822C689.948,1594.339,686.888,1597.401,683.126,1597.401z
						 M683.126,1585.612c-2.738,0-4.965,2.227-4.965,4.963c0,2.738,2.227,4.966,4.965,4.966c2.736,0,4.962-2.228,4.962-4.966
						C688.088,1587.839,685.862,1585.612,683.126,1585.612z M669.866,1585.612c-1.326,0-2.403-1.077-2.403-2.402
						c0-1.324,1.077-2.402,2.403-2.402c1.324,0,2.402,1.078,2.402,2.402C672.269,1584.535,671.19,1585.612,669.866,1585.612z
						 M669.866,1582.667c-0.299,0-0.543,0.244-0.543,0.543c0,0.301,0.244,0.543,0.543,0.543s0.543-0.242,0.543-0.543
						C670.409,1582.911,670.165,1582.667,669.866,1582.667z"/>
				</g>
			</g>
		</g>
	</g>
	<g>
		<g>
			<path fill="#4AE5D9" d="M668.825,1305.436c3.586-1.346,6.15-4.799,6.15-8.848c0-5.215-4.243-9.457-9.459-9.457
				s-9.459,4.242-9.459,9.457c0,4.049,2.563,7.502,6.149,8.848c-8.021,0.996-14.255,7.84-14.255,16.125c0,1.104,0.896,2,2,2h31.128
				c0.006,0,0.014,0,0.014,0c1.111,0,2.006-0.896,2.006-2c0-0.104-0.007-0.205-0.022-0.303
				C682.928,1313.109,676.749,1306.42,668.825,1305.436z M660.058,1296.588c0-3.01,2.449-5.457,5.459-5.457s5.459,2.447,5.459,5.457
				c0,3.009-2.449,5.457-5.459,5.457S660.058,1299.597,660.058,1296.588z M652.115,1319.561c0.958-5.814,6.021-10.264,12.104-10.264
				h2.594c6.083,0,11.146,4.449,12.104,10.264H652.115z"/>
			<path fill="#4AE5D9" d="M640.134,1277.422c3.836,0,6.955-3.121,6.955-6.955c0-3.836-3.119-6.955-6.955-6.955
				s-6.957,3.119-6.957,6.955C633.177,1274.301,636.298,1277.422,640.134,1277.422z"/>
			<path fill="#4AE5D9" d="M653.233,1290.557c0-6.682-5.436-12.115-12.118-12.115h-1.966c-6.682,0-12.118,5.434-12.118,12.115
				c0,0.717,0.582,1.299,1.3,1.299h23.604C652.652,1291.855,653.233,1291.273,653.233,1290.557z"/>
			<path fill="#4AE5D9" d="M690.177,1277.422c3.836,0,6.957-3.121,6.957-6.955c0-3.836-3.121-6.955-6.957-6.955
				c-3.834,0-6.954,3.119-6.954,6.955C683.223,1274.301,686.343,1277.422,690.177,1277.422z"/>
			<path fill="#4AE5D9" d="M691.161,1278.441h-1.967c-6.682,0-12.118,5.434-12.118,12.115c0,0.717,0.582,1.299,1.3,1.299h23.603
				c0.718,0,1.3-0.582,1.3-1.299C703.278,1283.875,697.843,1278.441,691.161,1278.441z"/>
			<rect x="656.608" y="1275.795" fill="#4AE5D9" width="18.15" height="3"/>
			
				<rect x="640.004" y="1299.783" transform="matrix(0.7071 0.7071 -0.7071 0.7071 1109.5432 -76.1088)" fill="#4AE5D9" width="13.279" height="3"/>
			
				<rect x="683.981" y="1294.643" transform="matrix(-0.7071 -0.7071 0.7071 -0.7071 250.0434 2706.1367)" fill="#4AE5D9" width="3" height="13.279"/>
		</g>
	</g>
	<g>
		<path fill="#4AE5D9" d="M254.111,985.535c-2.219,0.009-4.267,1.365-5.215,3.457c-1.329,2.956-0.12,6.528,2.697,7.962
			c0.8,0.406,1.655,0.612,2.546,0.612h0.02c2.223-0.011,4.27-1.366,5.211-3.456c1.334-2.955,0.127-6.527-2.691-7.961
			C255.882,985.741,255.025,985.535,254.111,985.535z M252.551,990.644c0.308-0.674,0.912-1.095,1.577-1.099l0.004-0.484l0,0v0.484
			c0.248,0,0.494,0.061,0.727,0.179c0.938,0.478,1.322,1.705,0.855,2.736c-0.295,0.66-0.925,1.088-1.603,1.088
			c-0.243,0-0.479-0.057-0.698-0.168C252.475,992.902,252.088,991.675,252.551,990.644z M254.14,997.082L254.14,997.082
			L254.14,997.082L254.14,997.082z"/>
		<path fill="#4AE5D9" d="M240.935,1004.427c2.225-0.01,4.271-1.367,5.213-3.459c1.336-2.955,0.127-6.527-2.693-7.959
			c-0.801-0.41-1.657-0.615-2.564-0.615c-2.221,0.008-4.27,1.365-5.215,3.459c-1.33,2.953-0.121,6.525,2.697,7.963
			c0.801,0.404,1.656,0.611,2.543,0.611H240.935z M240.911,995.923v0.482c0.254,0,0.491,0.057,0.725,0.176
			c0.938,0.479,1.324,1.705,0.857,2.738c-0.406,0.898-1.483,1.337-2.301,0.921c-0.939-0.478-1.324-1.708-0.857-2.741
			c0.302-0.672,0.906-1.092,1.57-1.094L240.911,995.923L240.911,995.923z M240.915,1003.942L240.915,1003.942L240.915,1003.942
			L240.915,1003.942z"/>
		<path fill="#4AE5D9" d="M234.747,1005.103c-2.225,0.008-4.27,1.364-5.212,3.455c-1.333,2.954-0.125,6.527,2.692,7.963
			c0.803,0.406,1.66,0.613,2.545,0.613h0.137l0.001-0.002c2.177-0.055,4.167-1.4,5.097-3.457c1.331-2.953,0.123-6.525-2.695-7.961
			C236.512,1005.308,235.658,1005.103,234.747,1005.103z M234.774,1008.63v0.482c0.246,0,0.488,0.059,0.717,0.176
			c0.938,0.479,1.324,1.706,0.858,2.738c-0.405,0.904-1.47,1.343-2.304,0.918c-0.938-0.477-1.321-1.705-0.854-2.738
			c0.304-0.672,0.906-1.092,1.573-1.094L234.774,1008.63L234.774,1008.63z"/>
		<path fill="#4AE5D9" d="M282.649,998.913c2.391,5.265,3.263,11.526,1.826,17.127c-0.787,3.062-2.748,7.971-6.783,6.99
			c-3.059-0.742-5.456-2.967-7.818-4.916c-2.436-2.009-4.957-4.004-7.841-5.337c-4.159-1.927-8.602-1.855-12.794-0.053
			c-5.133,2.203-8.801,6.433-13.474,9.331c-2.021,1.252-4.774,1.645-6.542-0.153c-1.447-1.47-2.129-3.608-2.596-5.567
			c-1.348-5.638-0.543-11.557,1.575-16.895c1.89-4.762,5.572-9.291,9.731-12.221c5.166-3.638,11.642-5.604,18.043-5.566
			c3.336,0.02,6.65,0.584,9.75,1.737c2.295,0.854,4.444,1.949,6.437,3.264c1.12-1.261,2.342-2.606,3.636-3.993
			c-2.586-1.834-5.123-3.182-7.691-4.093c-4.113-1.456-8.367-2.259-11.981-2.259c-0.28,0-0.56,0.006-0.825,0.016
			c-4.6,0.123-8.967,0.986-12.983,2.563c-8.659,3.398-15.781,10.349-19.056,18.591c-2.115,5.329-4.035,13.463-1.172,21.946
			c1.845,5.47,4.992,8.72,8.863,9.149c0.359,0.04,0.719,0.061,1.072,0.061c4.309,0,7.799-2.799,10.606-5.049l0.952-0.764
			c2.473-1.99,5.029-4.048,7.751-5.217c1.841-0.791,3.462-1.108,5.087-0.97c3.412,0.284,6.508,2.741,9.508,5.124l1.055,0.844
			c3.303,2.654,7.412,5.958,12.305,5.958c4.229-0.006,7.65-3.251,9.637-9.137c1.508-4.466,1.797-9.562,0.974-14.561
			c-0.533-3.23-1.531-6.422-2.969-9.374C285.278,996.841,283.8,998.015,282.649,998.913z"/>
		<path fill="#4AE5D9" d="M303.295,969.331c-0.756-1.043-1.923-1.618-3.288-1.618c-7.527,0-25.93,21.12-28.004,23.528l-0.668,0.777
			c-0.476-0.113-0.965-0.189-1.469-0.211l-0.219-0.005c-0.739,0-1.475,0.169-2.197,0.505c-0.117-0.01-0.237-0.014-0.352-0.014
			c-1.018,0-2.547,0.332-4.063,1.917c-1.623,1.697-3.407,5.167-3.193,7.479l-0.147,0.245c-0.418,0.707-0.852,1.433-1.299,2.174
			c-0.636,1.047-0.674,2.225-0.106,3.23c1.204,2.14,4.741,2.902,7.651,2.902h0.001c2.005,0,3.927-0.345,5.554-0.997
			c3.693-1.477,5.825-4.686,6.002-9.034c0.013-0.334,0-0.664-0.025-0.99l1.027-0.771c0.07-0.053,7.139-5.373,13.67-11.245
			C302.519,977.901,305.743,972.724,303.295,969.331z M265.476,996.549c0.092-0.098,0.186-0.167,0.275-0.248
			c-0.283,0.763-0.53,1.615-0.598,2.399c-0.439,0.167-0.922,0.371-1.41,0.613C264.136,998.38,264.727,997.33,265.476,996.549z
			 M270.239,1006.108c-1.215,0.486-2.74,0.754-4.298,0.754h-0.001c-2.573,0-4.176-0.688-4.611-1.074
			c0.438-0.725,0.86-1.436,1.27-2.126l0.973-1.632l-0.003-0.009c1.228-0.862,3.101-1.503,3.872-1.706c0,0-0.898-2.722,1.09-4.756
			l0.085-0.05c0.372-0.22,0.706-0.327,1.093-0.327c0,0,0.002,0,0.005,0c2.534,0.117,4.513,2.311,4.408,4.891
			C273.996,1003.097,272.691,1005.126,270.239,1006.108z M277.46,993.583l-0.76-0.871c7.563-8.548,18.762-19.33,22.748-20.405
			C298.438,975.581,288.977,984.747,277.46,993.583z"/>
		<path fill="#4AE5D9" d="M276.962,1019.319c2.223,0,4.275-1.35,5.23-3.437c1.344-2.95,0.15-6.525-2.661-7.972
			c-0.808-0.414-1.669-0.625-2.562-0.625c-2.225,0-4.276,1.35-5.229,3.436c-1.346,2.949-0.152,6.525,2.658,7.973
			C275.204,1019.108,276.067,1019.319,276.962,1019.319z M276.97,1011.298c0.248,0,0.492,0.06,0.725,0.181
			c0.939,0.481,1.317,1.71,0.848,2.741c-0.408,0.896-1.485,1.329-2.308,0.909c-0.936-0.482-1.313-1.712-0.845-2.741
			C275.698,1011.715,276.304,1011.298,276.97,1011.298z"/>
	</g>
	<g>
		<polygon fill="#4AE5D9" points="1062.764,1279.289 1105.525,1297.486 1149.871,1279.264 1106.433,1264.859 		"/>
		<g>
			<g>
				<path fill="#4AE5D9" d="M1078.597,1303.762c-0.828,0-1.5-0.671-1.5-1.5v-21.064c0-0.829,0.672-1.5,1.5-1.5s1.5,0.671,1.5,1.5
					v21.064C1080.097,1303.091,1079.425,1303.762,1078.597,1303.762z"/>
			</g>
		</g>
		<g>
			<g>
				<path fill="#4AE5D9" d="M1122.348,1294.817v19.602h-32v-19.131l-6-2.554v24.685c0,1.657,1.343,3,3,3h38c1.657,0,3-1.343,3-3
					v-25.067L1122.348,1294.817z"/>
			</g>
		</g>
	</g>
	<g>
		<path fill="#4AE5D9" d="M1130.304,1585.212c-0.504-3.688-3.583-6.535-7.296-6.535c-0.416,0-0.825,0.035-1.228,0.104
			c-1.907-2.087-4.462-3.419-7.225-3.784h0.003c-1.852-2.717-4.543-4.845-7.746-5.945c-1.389-8.423-8.725-14.785-17.436-14.785
			c-5.132,0-9.976,2.229-13.302,6.045c-0.811-0.205-1.646-0.309-2.501-0.309c-5.364,0-9.777,4.158-10.183,9.421
			c-5.66,2.39-9.469,7.991-9.469,14.234c0,8.154,6.377,14.924,14.539,15.412l0.208,0.012c0.436,0.032,0.877,0.034,1.314,0.007
			l25.22-0.006h-0.001c1.16,3.174,3.688,5.695,6.95,6.688c0.535,0.285,1.136,0.438,1.734,0.438l0.855,0.004
			c0.146,0.01,0.292,0.016,0.438,0.016c0.175,0,0.346-0.008,0.5-0.02l19.557,0.004c0.32,0.02,0.639,0.016,0.949-0.006l0.124-0.008
			c5.622-0.354,10.024-5.201,10.024-11.035C1136.335,1590.895,1133.931,1587.038,1130.304,1585.212z M1113.983,1574.936
			c-0.316-0.026-0.634-0.051-0.955-0.051C1113.35,1574.885,1113.669,1574.906,1113.983,1574.936z M1094.572,1596.331
			c-0.007-0.061-0.017-0.119-0.021-0.18C1094.556,1596.212,1094.566,1596.271,1094.572,1596.331z M1094.902,1598.131
			c0.004,0.014,0.008,0.027,0.012,0.042C1094.91,1598.158,1094.906,1598.145,1094.902,1598.131z M1094.681,1597.144
			c0.009,0.041,0.019,0.08,0.025,0.121C1094.699,1597.224,1094.689,1597.185,1094.681,1597.144z M1094.564,1594.083l-24.665,0.006
			l-0.18,0.007c-0.231,0.017-0.398,0.021-0.75-0.004l-0.055-0.001c-0.072-0.006-0.144-0.012-0.216-0.014
			c-5.485-0.351-9.776-4.92-9.776-10.419c0-4.67,3.155-8.81,7.674-10.067l2.097-0.584l-0.29-2.156
			c-0.027-0.211-0.042-0.423-0.042-0.636c0-2.874,2.339-5.212,5.213-5.212c0.793,0,1.555,0.175,2.263,0.52l1.928,0.939l1.222-1.763
			c2.357-3.401,6.242-5.433,10.391-5.433c6.684,0,12.239,5.224,12.647,11.892l0.116,1.896l1.856,0.396
			c1.752,0.375,3.325,1.19,4.619,2.311c-3.745,1.532-6.601,4.945-7.424,9.151C1097.549,1586.44,1094.958,1589.994,1094.564,1594.083
			z M1111.896,1574.942c-0.057,0.005-0.111,0.018-0.168,0.022C1111.785,1574.958,1111.84,1574.947,1111.896,1574.942z
			 M1110.77,1575.11c-0.027,0.006-0.055,0.014-0.082,0.02C1110.715,1575.124,1110.742,1575.116,1110.77,1575.11z M1126.003,1601.208
			l-0.214,0.014c-0.09,0.008-0.179,0.007-0.267,0l-19.918-0.012l-0.424,0.02c-0.038,0-0.076-0.003-0.115-0.006l-0.728-0.012
			l-0.533-0.168c-2.532-0.67-4.299-3.088-4.299-5.879c0-2.85,1.896-5.342,4.508-5.926l1.842-0.411l0.109-1.884
			c0.229-3.959,3.332-7.06,7.063-7.06c2.331,0,4.435,1.16,5.772,3.183l1.231,1.863l1.99-1.016c0.311-0.158,0.642-0.238,0.985-0.238
			c1.306,0,2.368,1.166,2.368,2.6c0,0.115-0.008,0.229-0.021,0.343l-0.251,2.104l2.033,0.592c2.472,0.721,4.197,3.127,4.197,5.85
			C1131.335,1598.366,1128.991,1601.021,1126.003,1601.208z"/>
	</g>
	<g>
		<g>
			<g>
				<g>
					<g>
						<path fill="#4AE5D9" d="M-165.324,1002.431c-0.099,0-0.196-0.029-0.279-0.09l-5.318-3.873l-5.318,3.873
							c-0.083,0.061-0.181,0.09-0.279,0.09c-0.097,0-0.195-0.029-0.278-0.09c-0.166-0.12-0.236-0.334-0.174-0.529l2.023-6.266
							l-5.314-3.787c-0.168-0.119-0.24-0.334-0.178-0.529c0.063-0.197,0.246-0.331,0.453-0.331h6.521l2.092-6.47
							c0.063-0.195,0.246-0.329,0.452-0.329s0.39,0.134,0.452,0.329l2.092,6.47h6.522c0.207,0,0.39,0.134,0.452,0.331
							c0.063,0.195-0.009,0.41-0.176,0.529l-5.318,3.787l2.025,6.266c0.063,0.195-0.007,0.409-0.174,0.529
							C-165.128,1002.401-165.227,1002.431-165.324,1002.431z"/>
					</g>
				</g>
				<g>
					<g>
						<path fill="#4AE5D9" d="M-170.922,984.575l2.199,6.799h6.867l-5.603,3.988l2.134,6.594l-5.598-4.077l-5.598,4.077l2.13-6.594
							l-5.598-3.988h6.867L-170.922,984.575 M-161.855,991.374h0.005 M-170.922,983.625L-170.922,983.625
							c-0.411,0-0.776,0.267-0.904,0.659l-1.985,6.14h-6.176c-0.412,0-0.778,0.267-0.904,0.659
							c-0.127,0.395,0.018,0.824,0.354,1.064l5.031,3.584l-1.916,5.934c-0.126,0.392,0.014,0.82,0.348,1.062
							c0.164,0.12,0.361,0.18,0.556,0.18c0.196,0,0.394-0.06,0.56-0.182l5.038-3.669l5.038,3.669
							c0.166,0.122,0.363,0.182,0.56,0.182s0.392-0.06,0.558-0.18c0.333-0.241,0.473-0.67,0.346-1.062l-1.917-5.934l5.008-3.566
							c0.258-0.17,0.427-0.461,0.427-0.791c0-0.525-0.424-0.95-0.947-0.95h-0.005h-6.177l-1.985-6.14
							C-170.146,983.892-170.51,983.625-170.922,983.625L-170.922,983.625z"/>
					</g>
				</g>
			</g>
		</g>
		<g>
			<g>
				<path fill="#4AE5D9" d="M-163.198,1014.354h-5.301v8.221h-5.041v-8.221h-5.302v6.672h-0.001v1.549
					c0,2.939,2.359,5.302,5.303,5.302h5.041c2.941,0,5.301-2.362,5.301-5.302V1014.354z"/>
			</g>
		</g>
		<g>
			<g>
				<rect x="-185.315" y="1022.456" fill="#4AE5D9" width="28.59" height="5.699"/>
			</g>
		</g>
		<g>
			<g>
				<path fill="#4AE5D9" d="M-128.572,987.263l-17.856-0.035c-1.963,0-3.57,1.606-3.57,3.57v33.506c0,1.963,1.607,3.573,3.57,3.573
					h17.856c1.963,0,3.57-1.61,3.57-3.573v-33.506C-125.002,988.834-126.609,987.263-128.572,987.263z M-128.572,1021.683h-17.856
					v-30.109h17.856V1021.683z"/>
			</g>
		</g>
		<g>
			<g>
				<path fill="#4AE5D9" d="M-154.272,1012.208h-40.343c-1.262,0-2.287-1.027-2.287-2.287v-30.518c0-1.262,1.025-2.289,2.287-2.289
					h47.188c1.262,0,2.287,1.027,2.287,2.289v3.553l5.699,0.012v-3.564c0-4.404-3.582-7.987-7.986-7.987h-47.188
					c-4.403,0-7.985,3.583-7.985,7.987v30.518c0,4.402,3.582,7.985,7.985,7.985h40.343V1012.208z"/>
			</g>
		</g>
	</g>
</g>
<g>
	<path fill="#4AE5D9" d="M45.449,19.411c-0.196-0.609-0.763-1.021-1.403-1.021l-9.541,0.021L31.412,8.93
		c-0.196-0.606-0.765-1.017-1.403-1.015c-0.637,0.001-1.201,0.414-1.396,1.021l-3.048,9.494l-9.544,0.022
		c-0.64,0.001-1.204,0.415-1.397,1.026c-0.193,0.608,0.027,1.274,0.55,1.643l7.788,5.524l-2.944,9.177
		c-0.193,0.604,0.026,1.27,0.542,1.642c0.258,0.186,0.563,0.277,0.865,0.277c0.303-0.001,0.607-0.096,0.864-0.284l7.772-5.692
		l7.802,5.657c0.517,0.376,1.214,0.374,1.729-0.001c0.515-0.376,0.731-1.04,0.533-1.645l-2.986-9.161l7.764-5.559
		C45.425,20.686,45.646,20.02,45.449,19.411z M34.55,24.851c-0.521,0.371-0.74,1.042-0.541,1.652l1.916,5.881l-5.003-3.626
		c-0.519-0.376-1.218-0.374-1.731,0.003l-4.988,3.65l1.891-5.892c0.194-0.612-0.026-1.279-0.551-1.65l-4.914-3.483l6.015-0.014
		c0.638-0.002,1.2-0.416,1.396-1.024l1.985-6.181l2.014,6.175c0.198,0.606,0.765,1.016,1.401,1.014l6.013-0.012L34.55,24.851z"/>
	<path fill="#4AE5D9" d="M16.322,29.238l-2.976-1.556l0.598-3.48c0.088-0.515-0.166-1.025-0.629-1.27
		c-0.463-0.241-1.028-0.157-1.4,0.208l-2.521,2.47l-2.976-1.555c-0.463-0.244-1.028-0.16-1.404,0.209
		c-0.372,0.367-0.465,0.933-0.225,1.4l1.519,2.991l-2.424,2.376c-0.37,0.365-0.467,0.928-0.233,1.396
		c0.231,0.467,0.738,0.731,1.254,0.654l3.355-0.499l1.504,3.045c0.205,0.415,0.627,0.672,1.08,0.671c0.06,0,0.113-0.005,0.172-0.014
		c0.516-0.075,0.924-0.473,1.014-0.987l0.573-3.345l3.323-0.456c0.52-0.07,0.934-0.469,1.023-0.985
		C17.04,29.998,16.786,29.482,16.322,29.238z M11.401,29.688c-0.52,0.071-0.934,0.471-1.022,0.988l-0.095,0.563l-0.252-0.508
		c-0.205-0.416-0.627-0.671-1.082-0.67c-0.057,0-0.117,0.005-0.176,0.012l-0.561,0.086l0.408-0.401
		c0.374-0.366,0.467-0.936,0.23-1.403l-0.215-0.421l0.416,0.217c0.461,0.242,1.027,0.159,1.4-0.206l0.488-0.48l-0.114,0.674
		c-0.089,0.516,0.165,1.028,0.628,1.271l0.414,0.216L11.401,29.688z"/>
</g>
<g>
	<path fill="#4AE5D9" d="M-81.805,75.628h-0.005h-3.502l-1.127-3.481c-0.073-0.224-0.279-0.375-0.514-0.375
		s-0.438,0.152-0.512,0.375l-1.125,3.481h-3.506c-0.23,0-0.439,0.152-0.514,0.376c-0.069,0.223,0.011,0.467,0.202,0.603l2.853,2.033
		l-1.088,3.363c-0.069,0.223,0.012,0.467,0.201,0.603c0.092,0.069,0.205,0.103,0.313,0.103c0.111,0,0.225-0.033,0.318-0.103
		l2.856-2.081l2.86,2.081c0.094,0.069,0.205,0.103,0.315,0.103c0.111,0,0.223-0.033,0.316-0.103c0.191-0.136,0.269-0.38,0.195-0.603
		l-1.087-3.363l2.84-2.023c0.146-0.096,0.243-0.261,0.243-0.449C-81.269,75.868-81.512,75.628-81.805,75.628z"/>
	<path fill="#4AE5D9" d="M-72.42,64.424h-29.063c-2.297,0-4.166,1.935-4.166,4.313v16.754c0,2.379,1.869,4.313,4.166,4.313h3.682
		v4.313h3.374v-4.313h14.97v4.313h3.375v-4.313h3.663c2.298,0,4.168-1.935,4.168-4.313V68.737
		C-68.252,66.358-70.122,64.424-72.42,64.424z M-71.405,85.491c0,0.64-0.455,1.159-1.015,1.159h-29.063
		c-0.555,0-1.01-0.52-1.01-1.159V68.737c0-0.639,0.455-1.16,1.01-1.16h29.063c0.56,0,1.015,0.521,1.015,1.16V85.491z"/>
</g>
<g>
	<path fill="#4AE5D9" d="M-43.136,88.046h5.25c0.722,0,1.307-0.584,1.307-1.306V70.085c0-0.721-0.585-1.305-1.307-1.305h-5.25
		c-0.721,0-1.307,0.584-1.307,1.305V86.74C-44.442,87.462-43.856,88.046-43.136,88.046z M-41.83,71.392h2.64v14.044h-2.64V71.392z"
		/>
	<path fill="#4AE5D9" d="M-33.076,88.046h5.251c0.721,0,1.305-0.584,1.305-1.306v-9.967c0-0.721-0.584-1.306-1.305-1.306h-5.251
		c-0.721,0-1.306,0.585-1.306,1.306v9.967C-34.382,87.462-33.797,88.046-33.076,88.046z M-31.771,78.079h2.639v7.356h-2.639V78.079z
		"/>
	<path fill="#4AE5D9" d="M-17.442,62.091h-5.251c-0.722,0-1.304,0.585-1.304,1.306V86.74c0,0.722,0.582,1.306,1.304,1.306h5.251
		c0.721,0,1.306-0.584,1.306-1.306V63.396C-16.137,62.676-16.722,62.091-17.442,62.091z M-18.749,85.436h-2.639V64.703h2.639V85.436
		z"/>
	<path fill="#4AE5D9" d="M-16.979,89.913h-26.666c-0.41,0-0.741,0.301-0.741,0.673v1.498c0,0.372,0.331,0.673,0.741,0.673h26.666
		c0.409,0,0.742-0.301,0.742-0.673v-1.498C-16.237,90.214-16.57,89.913-16.979,89.913z"/>
</g>
<g>
	<path fill="#4AE5D9" d="M-86.966,9.512c-9.031,0-16.375,7.347-16.375,16.376c0,0.331,0.012,0.66,0.031,0.985l-1.444,0.519
		l0.446,1.245l1.136-0.407c0.095,0.664,0.231,1.315,0.403,1.951l-1.219,0.438l0.447,1.245l1.17-0.419
		c2.279,6.303,8.323,10.82,15.404,10.82c9.029,0,16.376-7.347,16.376-16.377C-70.59,16.858-77.937,9.512-86.966,9.512z
		 M-86.966,39.214c-5.76,0-10.675-3.675-12.532-8.8l1.483-0.531l-0.446-1.246l-1.425,0.511c-0.162-0.642-0.277-1.3-0.342-1.974
		l1.443-0.518l-0.445-1.245l-1.059,0.378c0.053-7.302,6.008-13.226,13.322-13.226c7.346,0,13.324,5.978,13.324,13.324
		C-73.642,33.235-79.62,39.214-86.966,39.214z"/>
	<path fill="#4AE5D9" d="M-81.36,24.837l-7.229-4.82c-0.382-0.254-0.893-0.279-1.3-0.063c-0.411,0.221-0.665,0.647-0.665,1.114v9.64
		c0,0.466,0.254,0.893,0.666,1.113c0.183,0.098,0.389,0.15,0.598,0.15c0.252,0,0.493-0.074,0.701-0.214l7.229-4.819
		c0.353-0.234,0.563-0.627,0.563-1.051C-80.798,25.463-81.008,25.07-81.36,24.837z"/>
</g>
<g>
	<path fill="#4AE5D9" d="M-200.478,85.537c1.662-0.837,2.746-2.559,2.746-4.437c0-2.74-2.229-4.969-4.971-4.969
		s-4.969,2.229-4.969,4.969c0,1.879,1.081,3.6,2.74,4.436c-3.953,0.744-6.872,4.216-6.872,8.286c0,0.646,0.526,1.171,1.173,1.171
		h15.852c0.656,0,1.182-0.525,1.182-1.171c0-0.062-0.004-0.124-0.013-0.181C-193.68,89.675-196.597,86.271-200.478,85.537z
		 M-205.329,81.101c0-1.448,1.18-2.626,2.627-2.626s2.625,1.178,2.625,2.626s-1.178,2.627-2.625,2.627
		S-205.329,82.549-205.329,81.101z M-209.345,92.647c0.555-2.862,3.041-4.92,5.981-4.92h1.321c2.938,0,5.424,2.058,5.98,4.92
		H-209.345z"/>
	<path fill="#4AE5D9" d="M-215.971,70.239c1.938,0,3.515-1.576,3.515-3.516c0-1.938-1.576-3.514-3.515-3.514
		c-1.938,0-3.515,1.576-3.515,3.514C-219.485,68.663-217.908,70.239-215.971,70.239z"/>
	<path fill="#4AE5D9" d="M-209.483,76.435c0-3.313-2.697-6.008-6.012-6.008h-0.951c-3.314,0-6.01,2.694-6.01,6.008
		c0,0.43,0.35,0.779,0.781,0.779h11.409C-209.835,77.214-209.483,76.864-209.483,76.435z"/>
	<path fill="#4AE5D9" d="M-189.604,70.239c1.938,0,3.515-1.576,3.515-3.516c0-1.938-1.576-3.514-3.515-3.514
		c-1.939,0-3.515,1.576-3.515,3.514C-193.118,68.663-191.543,70.239-189.604,70.239z"/>
	<path fill="#4AE5D9" d="M-189.128,70.427h-0.95c-3.315,0-6.011,2.694-6.011,6.008c0,0.43,0.35,0.779,0.781,0.779h11.409
		c0.431,0,0.78-0.35,0.78-0.779C-183.118,73.121-185.813,70.427-189.128,70.427z"/>
	<path fill="#4AE5D9" d="M-207.321,72.191h9.242c0.085,0,0.153-0.068,0.153-0.153v-1.527c0-0.084-0.068-0.152-0.153-0.152h-9.242
		c-0.085,0-0.152,0.068-0.152,0.152v1.527C-207.474,72.123-207.406,72.191-207.321,72.191z"/>
	<path fill="#4AE5D9" d="M-210.466,85.685c0.041,0,0.08-0.016,0.109-0.046l1.081-1.082c0.028-0.027,0.044-0.066,0.044-0.106
		c0-0.042-0.016-0.081-0.044-0.11l-4.784-4.78c-0.028-0.028-0.066-0.044-0.107-0.044c-0.042,0-0.08,0.016-0.109,0.046l-1.078,1.08
		c-0.061,0.059-0.061,0.156,0,0.216l4.779,4.781C-210.546,85.669-210.507,85.685-210.466,85.685z"/>
	<path fill="#4AE5D9" d="M-190.575,79.562c-0.03-0.03-0.07-0.046-0.109-0.046s-0.078,0.016-0.108,0.044l-4.782,4.78
		c-0.061,0.06-0.061,0.156,0,0.217l1.079,1.082c0.03,0.028,0.068,0.046,0.108,0.046c0.041,0,0.08-0.016,0.108-0.045l4.784-4.782
		c0.027-0.028,0.045-0.067,0.045-0.108c0-0.04-0.018-0.08-0.045-0.107L-190.575,79.562z"/>
</g>
<g>
	<path fill="#4AE5D9" d="M-33.81,19.232c-1.141-0.121-2.27,0.46-2.875,1.479c-0.849,1.443-0.429,3.347,0.936,4.242
		c0.387,0.253,0.814,0.408,1.272,0.458l0.011,0.002c1.141,0.12,2.271-0.461,2.871-1.48c0.854-1.441,0.437-3.346-0.932-4.241
		C-32.913,19.438-33.341,19.284-33.81,19.232z M-33.38,22.879c-0.188,0.321-0.537,0.507-0.883,0.469
		c-0.126-0.014-0.243-0.058-0.35-0.126c-0.455-0.298-0.584-0.952-0.289-1.455c0.197-0.328,0.531-0.51,0.873-0.475l0.029-0.248
		l-0.027,0.248c0.127,0.014,0.25,0.06,0.362,0.134C-33.21,21.724-33.081,22.376-33.38,22.879z"/>
	<path fill="#4AE5D9" d="M-41.608,27.674c1.145,0.12,2.271-0.461,2.873-1.482c0.854-1.442,0.434-3.345-0.934-4.239
		c-0.389-0.256-0.816-0.41-1.282-0.461c-1.143-0.121-2.269,0.461-2.876,1.481c-0.848,1.441-0.428,3.345,0.939,4.242
		c0.387,0.254,0.813,0.407,1.27,0.459H-41.608z M-42.038,24.024c0.192-0.326,0.527-0.508,0.867-0.471l0.031-0.248l-0.027,0.248
		c0.131,0.015,0.25,0.056,0.361,0.129c0.457,0.3,0.584,0.952,0.287,1.457c-0.26,0.438-0.838,0.601-1.233,0.34
		C-42.209,25.183-42.337,24.528-42.038,24.024z"/>
	<path fill="#4AE5D9" d="M-43.413,28.333c-0.388-0.252-0.814-0.407-1.283-0.459c-1.142-0.122-2.271,0.459-2.87,1.48
		c-0.853,1.441-0.434,3.345,0.931,4.242c0.391,0.254,0.818,0.409,1.273,0.459l0.068,0.008l0.001-0.002
		c1.122,0.095,2.222-0.484,2.815-1.488C-41.627,31.133-42.047,29.231-43.413,28.333z M-44.265,31.52
		c-0.257,0.442-0.829,0.607-1.233,0.343c-0.454-0.298-0.583-0.951-0.286-1.454c0.195-0.329,0.527-0.511,0.869-0.474l0.033-0.248
		l-0.027,0.249c0.129,0.014,0.249,0.057,0.358,0.131C-44.095,30.365-43.966,31.017-44.265,31.52z"/>
	<path fill="#4AE5D9" d="M-16.613,24.096c-0.922,0.753-1.744,1.406-2.386,1.907c1.333,2.931,1.817,6.418,1.019,9.538
		c-0.439,1.706-1.531,4.44-3.779,3.894c-1.704-0.413-3.038-1.652-4.354-2.738c-1.354-1.119-2.761-2.23-4.367-2.973
		c-2.317-1.072-4.792-1.033-7.126-0.029c-2.859,1.229-4.904,3.584-7.506,5.199c-1.125,0.697-2.658,0.916-3.645-0.086
		c-0.807-0.82-1.184-2.011-1.445-3.102c-0.75-3.141-0.302-6.438,0.878-9.41c1.052-2.652,3.104-5.176,5.421-6.809
		c2.877-2.025,6.484-3.119,10.051-3.1c1.857,0.012,3.701,0.326,5.43,0.969c1.279,0.475,2.477,1.085,3.586,1.817
		c0.623-0.703,1.303-1.452,2.023-2.224c-1.439-1.021-2.854-1.773-4.283-2.281c-2.29-0.811-4.661-1.256-6.674-1.256
		c-0.156,0-0.313,0.002-0.461,0.008c-2.561,0.067-4.992,0.549-7.23,1.428c-4.823,1.893-8.791,5.764-10.615,10.354
		c-1.178,2.969-2.246,7.499-0.651,12.225c1.027,3.047,2.779,4.857,4.937,5.096c0.199,0.022,0.401,0.034,0.598,0.034
		c2.398,0,4.344-1.559,5.906-2.813l0.531-0.425c1.377-1.109,2.801-2.255,4.317-2.906c1.024-0.44,1.929-0.618,2.834-0.54
		c1.9,0.158,3.624,1.527,5.296,2.854l0.588,0.47c1.839,1.477,4.129,3.317,6.854,3.317c2.354-0.003,4.262-1.81,5.367-5.088
		c0.84-2.487,1-5.326,0.541-8.111C-15.257,27.518-15.813,25.74-16.613,24.096z"/>
	<path fill="#4AE5D9" d="M-8.29,10.41c-0.39-0.536-0.992-0.835-1.698-0.835c-3.882,0-13.382,10.901-14.454,12.146l-0.344,0.399
		c-0.247-0.059-0.496-0.098-0.759-0.107l-0.112-0.004c-0.383,0-0.761,0.089-1.135,0.262c-0.059-0.004-0.121-0.008-0.18-0.008
		c-0.526,0-1.314,0.171-2.1,0.989c-0.836,0.878-1.758,2.669-1.648,3.861l-0.076,0.128c-0.215,0.363-0.438,0.737-0.669,1.121
		c-0.328,0.541-0.349,1.147-0.056,1.668c0.622,1.104,2.447,1.496,3.949,1.496h0.002c0.813,0,1.598-0.113,2.306-0.324
		c-0.078,0.101-0.153,0.204-0.22,0.315c-0.857,1.44-0.447,3.343,0.918,4.246c0.386,0.258,0.819,0.414,1.278,0.465
		c1.14,0.125,2.272-0.451,2.88-1.469c0.858-1.439,0.448-3.344-0.914-4.246c-0.393-0.257-0.822-0.415-1.281-0.465
		c-0.195-0.021-0.391-0.016-0.583,0.003c0.961-0.889,1.517-2.149,1.579-3.702c0.008-0.173,0-0.343-0.012-0.513l0.529-0.396
		c0.037-0.027,3.686-2.774,7.055-5.807C-8.689,14.833-7.026,12.161-8.29,10.41z M-27.569,29.784h-0.002
		c-1.329,0-2.153-0.357-2.379-0.557c0.226-0.374,0.444-0.741,0.654-1.098l0.502-0.842l-0.002-0.004c0.635-0.446,1.602-0.774,2-0.881
		c0,0-0.466-1.405,0.561-2.455l0.048-0.025c0.188-0.113,0.361-0.17,0.563-0.17c0,0,0,0,0.002,0c1.305,0.063,2.326,1.193,2.274,2.525
		c-0.064,1.561-0.739,2.608-2.006,3.116C-25.978,29.646-26.767,29.784-27.569,29.784z M-22.829,32.11
		c0.128,0.014,0.249,0.058,0.361,0.133c0.455,0.3,0.581,0.954,0.279,1.456c-0.258,0.437-0.836,0.598-1.234,0.336
		c-0.453-0.3-0.578-0.954-0.279-1.455C-23.507,32.251-23.171,32.072-22.829,32.11z M-21.625,22.929l-0.392-0.449
		c3.902-4.412,9.685-9.979,11.741-10.533C-10.796,13.636-15.678,18.368-21.625,22.929z"/>
</g>
<path fill="#4AE5D9" d="M-126.289,131.383c-0.32-1.877-1.931-3.276-3.798-3.276c-0.176,0-0.34,0.011-0.502,0.031
	c-0.93-0.971-2.156-1.61-3.473-1.813c-0.913-1.303-2.219-2.309-3.698-2.852c-0.772-4.229-4.425-7.283-8.742-7.283
	c-2.513,0-4.903,1.063-6.585,2.922c-0.363-0.08-0.742-0.122-1.127-0.122c-2.67,0-4.931,2.044-5.215,4.682
	c-2.822,1.254-4.638,4.033-4.638,7.124c0,4.12,3.226,7.537,7.341,7.779l0.102,0.008c0.221,0.016,0.475,0.017,0.658,0.004
	l12.129-0.003c0.631,1.565,1.924,2.774,3.448,3.236c0.303,0.159,0.639,0.242,0.97,0.242l0.394,0.001
	c0.081,0.008,0.16,0.009,0.237,0.009c0.09,0,0.184-0.003,0.242-0.01l9.53,0.001c0.172,0.01,0.29,0.011,0.56-0.008
	c2.88-0.18,5.135-2.658,5.135-5.644C-123.321,134.31-124.481,132.349-126.289,131.383z M-128.728,139.368l-0.13-0.261l-9.733-0.007
	l-0.248,0.011l-0.318-0.007l-0.234-0.076c-1.123-0.294-1.907-1.369-1.907-2.615c0-1.271,0.841-2.381,1.999-2.641l0.898-0.201
	c0.113-0.025,0.195-0.122,0.203-0.238l0.053-0.919c0.105-1.795,1.506-3.201,3.188-3.201c1.047,0,1.995,0.524,2.602,1.437l0.6,0.909
	c0.072,0.11,0.216,0.148,0.335,0.088l0.972-0.495c0.111-0.058,0.229-0.086,0.363-0.086c0.495,0,0.898,0.453,0.898,1.008
	c0,0.025-0.004,0.053-0.01,0.135l-0.122,1.029c-0.017,0.127,0.062,0.245,0.185,0.28l0.992,0.289c1.097,0.318,1.862,1.39,1.862,2.605
	c0,1.427-1.036,2.606-2.368,2.688l-0.102,0.009L-128.728,139.368z M-156.577,135.621c-2.537-0.163-4.527-2.282-4.527-4.825
	c0-2.162,1.463-4.08,3.555-4.662l1.023-0.284c0.125-0.035,0.207-0.156,0.189-0.285l-0.143-1.056
	c-0.014-0.091-0.018-0.183-0.018-0.273c0-1.26,1.024-2.283,2.283-2.283c0.348,0,0.681,0.076,0.989,0.224l0.938,0.461
	c0.113,0.056,0.256,0.021,0.328-0.086l0.599-0.861c1.103-1.591,2.919-2.54,4.857-2.54c3.126,0,5.726,2.441,5.914,5.559l0.054,0.927
	c0.008,0.118,0.093,0.215,0.207,0.239l0.905,0.192c0.655,0.142,1.276,0.419,1.817,0.813c-1.707,0.841-2.941,2.431-3.359,4.342
	c-1.727,0.78-2.971,2.478-3.238,4.403l-11.814,0.002l-0.095,0.004c-0.102,0.007-0.13,0.009-0.376-0.003v0.26L-156.577,135.621z"/>
<g>
	<path fill="#4AE5D9" d="M-141.462,21.949c0-0.287-0.229-0.519-0.517-0.519h-0.003h-3.371l-1.083-3.351
		c-0.07-0.215-0.269-0.359-0.494-0.359c-0.225,0-0.424,0.145-0.494,0.359l-1.082,3.351h-3.371c-0.225,0-0.424,0.146-0.494,0.359
		c-0.068,0.216,0.011,0.45,0.193,0.581l2.746,1.956l-1.045,3.237c-0.07,0.215,0.007,0.449,0.189,0.58
		c0.089,0.066,0.197,0.098,0.303,0.098c0.107,0,0.216-0.031,0.306-0.099l2.749-2.002l2.75,2.002c0.09,0.067,0.197,0.099,0.305,0.099
		s0.215-0.031,0.305-0.098c0.182-0.131,0.258-0.365,0.189-0.58l-1.047-3.237l2.734-1.946
		C-141.554,22.288-141.462,22.129-141.462,21.949z"/>
	<path fill="#4AE5D9" d="M-123.943,18.975l-9.533-0.018c-1.338,0-2.426,1.088-2.426,2.428v17.884c0,1.339,1.088,2.428,2.426,2.428
		h9.531c1.339,0,2.43-1.089,2.43-2.428V21.385C-121.516,20.056-122.606,18.975-123.943,18.975z M-124.465,38.68h-8.49V21.6h8.49
		V38.68z"/>
	<path fill="#4AE5D9" d="M-161.289,31.363V14.709c0-0.688,0.56-1.25,1.247-1.25h25.753c0.688,0,1.248,0.562,1.248,1.25v1.938
		l3.11,0.007v-1.945c0-2.404-1.955-4.359-4.358-4.359h-25.753c-2.403,0-4.357,1.955-4.357,4.359v16.654
		c0,2.403,1.954,4.358,4.357,4.358h8.608v1.704v0.779h-3.533v3.11h15.604v-3.11h-3.533v-2.483h4.873v-3.109h-22.019
		C-160.729,32.612-161.289,32.052-161.289,31.363z M-148.54,35.722h2.752v2.483h-2.752V35.722z"/>
</g>
<g>
	<path fill="#4AE5D9" d="M-134.759,89.546h-14.451v-9.045l-2.711-1.208v11.672c0,0.784,0.606,1.42,1.355,1.42h17.16
		c0.749,0,1.355-0.636,1.355-1.42V79.111l-2.709,1.165V89.546z"/>
	<path fill="#4AE5D9" d="M-121.706,71.463l-19.947-6.927c-0.072-0.024-0.146-0.037-0.22-0.037s-0.148,0.013-0.219,0.037
		l-20.052,6.938c-0.277,0.096-0.468,0.362-0.479,0.667c-0.01,0.306,0.162,0.586,0.432,0.701l4.926,2.118
		c0,0,0.004,8.187,0.004,8.273c0,0.654,0.506,1.185,1.133,1.185c0.623,0,1.129-0.53,1.129-1.185c0-0.087-0.002-7.202-0.002-7.202
		l12.439,5.557c0.086,0.039,0.179,0.059,0.272,0.059c0.091,0,0.181-0.019,0.266-0.056l20.362-8.761
		c0.27-0.115,0.443-0.395,0.432-0.7C-121.239,71.825-121.429,71.56-121.706,71.463z"/>
</g>
<path fill="#4AE5D9" d="M-189.171,15.335h-0.828v-1.933h-0.604h-1.738h-0.62v1.933h-1.691V13.45h0.002v-0.82
	c0-1.559-1.249-2.81-2.81-2.81h-8.428c-1.561,0-2.81,1.251-2.81,2.81v2.705h-1.676v-1.933h-2.961v1.933h-0.841
	c-2.334,0-4.233,1.897-4.233,4.231v16.171c0,2.334,1.899,4.231,4.233,4.231h25.004c2.334,0,4.232-1.897,4.232-4.231V19.566
	C-184.938,17.232-186.837,15.335-189.171,15.335z M-205.888,12.63h8.428v2.705h-8.428V12.63z M-187.959,35.737
	c0,0.668-0.544,1.212-1.212,1.212h-25.004c-0.669,0-1.213-0.544-1.213-1.212v-2.71h27.429V35.737z M-187.959,29.564h-27.429v-9.998
	c0-0.669,0.544-1.212,1.213-1.212h0.841v2.711h2.961v-2.711h1.676v2.702h2.81v-2.702h8.428v2.702h2.808v-2.702h1.691v2.711h2.962
	v-2.711h0.828c0.668,0,1.212,0.543,1.212,1.212V29.564z"/>
<g>
	<polygon fill="#4AE5D9" points="19.739,78.708 23.213,78.701 23.21,75.565 19.734,75.572 19.728,72.098 16.593,72.104 16.6,75.579 
		13.122,75.587 13.13,78.722 16.606,78.714 16.612,82.191 19.747,82.184 	"/>
	<path fill="#4AE5D9" d="M34.253,62.979L20.72,62.962c-1.43,0-2.596,1.164-2.596,2.598v3.258l1.597-0.004l1.896-0.004v-2.627h11.737
		V90.31H21.616v-4.848l-1.858,0.006l-1.634,0.002v5.796c0,1.433,1.166,2.598,2.596,2.598h13.531c1.43,0,2.598-1.165,2.598-2.598
		V65.56C36.849,64.138,35.683,62.979,34.253,62.979z"/>
</g>
<g>
	<path fill="#4AE5D9" d="M-183.992,127.827h-0.356v-0.843c0-0.791-0.641-1.434-1.434-1.434h-2.429c-0.791,0-1.433,0.643-1.433,1.434
		v0.843l-13.256,0.001c-2.18,0-3.953,1.839-3.953,4.101v11.325c0,2.262,1.773,4.101,3.953,4.101l18.907-0.001
		c2.183,0,3.956-1.838,3.956-4.1v-11.326C-180.036,129.666-181.81,127.827-183.992,127.827z M-182.687,143.254
		c0,0.799-0.584,1.451-1.306,1.451h-18.907c-0.719,0-1.302-0.651-1.302-1.451v-11.325c0-0.8,0.583-1.45,1.302-1.45l18.907-0.001
		c0.722,0,1.306,0.65,1.306,1.45V143.254z"/>
	<path fill="#4AE5D9" d="M-193.002,132.274c-3.071,0-5.569,2.495-5.569,5.566s2.498,5.569,5.569,5.569
		c3.069,0,5.567-2.498,5.567-5.569S-189.933,132.274-193.002,132.274z M-193.002,140.67c-1.56,0-2.829-1.27-2.829-2.829
		c0-1.561,1.27-2.827,2.829-2.827s2.827,1.267,2.827,2.827C-190.175,139.4-191.442,140.67-193.002,140.67z"/>
	<circle fill="#4AE5D9" cx="-200.761" cy="133.644" r="1.37"/>
	<rect x="-220.827" y="120.051" fill="#4AE5D9" width="3.367" height="3.366"/>
	<rect x="-204.826" y="120.051" fill="#4AE5D9" width="3.366" height="3.366"/>
	<rect x="-220.827" y="131.034" fill="#4AE5D9" width="3.367" height="3.366"/>
	<rect x="-220.827" y="126.006" fill="#4AE5D9" width="3.367" height="3.367"/>
	<rect x="-220.827" y="136.641" fill="#4AE5D9" width="3.367" height="3.367"/>
	<path fill="#4AE5D9" d="M-209.126,142.295h-12.621c-0.545,0-0.984-0.487-0.984-1.085l-0.002-22.491
		c0-0.599,0.441-1.087,0.984-1.087h21.046c0.543,0,0.984,0.488,0.984,1.087v6.836h2.938v-6.837c0-2.218-1.76-4.025-3.923-4.024
		h-21.046c-2.164,0-3.923,1.807-3.923,4.025v22.491c0,2.218,1.759,4.022,3.925,4.022h12.934c-0.2-0.624-0.313-1.287-0.313-1.979
		V142.295z"/>
	<path fill="#4AE5D9" d="M-209.126,133.14v-0.737c0-0.471,0.053-0.927,0.148-1.368h-6.486v8.974h6.338v-2.105h-4.203v-4.763
		H-209.126z"/>
	<path fill="#4AE5D9" d="M-206.524,120.051h-8.939v9.322h6.864c0.452-1.052,1.173-1.951,2.075-2.616V120.051z M-208.654,127.269
		h-4.675l-0.002-5.112h4.677V127.269z"/>
</g>
</svg>
