<?xml version="1.0" encoding="utf-8"?>
<!-- Generator: Adobe Illustrator 16.0.0, SVG Export Plug-In . SVG Version: 6.00 Build 0)  -->
<!DOCTYPE svg PUBLIC "-//W3C//DTD SVG 1.1//EN" "http://www.w3.org/Graphics/SVG/1.1/DTD/svg11.dtd">
<svg version="1.1" xmlns="http://www.w3.org/2000/svg" xmlns:xlink="http://www.w3.org/1999/xlink" x="0px" y="0px" width="66.5px"
	 height="60px" viewBox="0 0 66.5 60" enable-background="new 0 0 66.5 60" xml:space="preserve">
<g id="OTVR_x5F_hambac">
</g>
<g id="lista">
	<path fill="#4AE4D8" d="M22.967,53.847c21.32,0,32.981-17.666,32.981-32.984c0-0.502-0.01-1.001-0.032-1.499
		c2.265-1.636,4.232-3.679,5.783-6.002c-2.075,0.922-4.313,1.544-6.655,1.824c2.394-1.435,4.231-3.707,5.097-6.413
		c-2.242,1.328-4.722,2.294-7.36,2.815c-2.117-2.254-5.129-3.663-8.464-3.663c-6.403,0-11.594,5.191-11.594,11.592
		c0,0.91,0.101,1.793,0.301,2.643c-9.635-0.484-18.178-5.098-23.896-12.112c-0.994,1.713-1.569,3.703-1.569,5.827
		c0,4.021,2.048,7.573,5.16,9.649c-1.901-0.057-3.688-0.581-5.252-1.45c-0.002,0.047-0.002,0.097-0.002,0.146
		c0,5.617,3.995,10.305,9.3,11.367c-0.972,0.265-1.998,0.408-3.057,0.408c-0.747,0-1.474-0.073-2.178-0.209
		c1.478,4.606,5.754,7.958,10.832,8.052c-3.971,3.11-8.969,4.962-14.401,4.962c-0.936,0-1.856-0.053-2.765-0.161
		C10.326,51.928,16.418,53.847,22.967,53.847"/>
</g>
</svg>
